<svg xmlns="http://www.w3.org/2000/svg" xmlns:xlink="http://www.w3.org/1999/xlink" width="500" zoomAndPan="magnify" viewBox="0 0 375 374.999991" height="500" preserveAspectRatio="xMidYMid meet" version="1.0"><defs><g/><clipPath id="3b4fdb29b1"><path d="M 36.023438 118.328125 L 339 118.328125 L 339 224.078125 L 36.023438 224.078125 Z M 36.023438 118.328125 " clip-rule="nonzero"/></clipPath></defs><rect x="-37.5" width="450" fill="#ffffff" y="-37.499999" height="449.999989" fill-opacity="1"/><rect x="-37.5" width="450" fill="#ffffff" y="-37.499999" height="449.999989" fill-opacity="1"/><rect x="-37.5" width="450" fill="#ffd230" y="-37.499999" height="449.999989" fill-opacity="1"/><g clip-path="url(#3b4fdb29b1)"><path fill="#000000" d="M 332.203125 152.246094 C 332.074219 151.632812 331.949219 151.03125 331.785156 150.441406 L 331.265625 148.703125 C 330.988281 147.558594 330.472656 146.480469 330.121094 145.414062 C 329.195312 143.324219 328.21875 141.371094 327.039062 139.554688 C 325.808594 137.777344 324.542969 136.070312 323.039062 134.554688 C 320.066406 131.523438 316.574219 129.003906 312.433594 127.15625 L 311.65625 126.785156 L 310.851562 126.480469 C 310.308594 126.285156 309.765625 126.054688 309.207031 125.851562 C 308.078125 125.546875 306.921875 125.089844 305.703125 124.820312 C 304.492188 124.511719 303.238281 124.273438 301.921875 124.050781 C 300.605469 123.839844 299.246094 123.683594 297.785156 123.511719 C 299.894531 121.476562 302.582031 120.105469 305.449219 119.242188 C 306.886719 118.804688 308.375 118.621094 309.902344 118.417969 C 310.660156 118.328125 311.421875 118.363281 312.191406 118.347656 L 313.355469 118.347656 C 313.742188 118.363281 314.121094 118.417969 314.511719 118.457031 C 320.714844 119.03125 326.753906 122.070312 331.175781 126.652344 C 333.414062 128.933594 335.167969 131.648438 336.519531 134.515625 C 337.824219 137.414062 338.566406 140.527344 338.828125 143.621094 C 338.859375 144.398438 338.839844 145.183594 338.835938 145.949219 C 338.828125 146.335938 338.839844 146.714844 338.808594 147.097656 C 338.773438 147.480469 338.710938 147.863281 338.664062 148.246094 C 338.550781 149.003906 338.480469 149.753906 338.316406 150.492188 C 338.148438 151.234375 337.960938 151.960938 337.726562 152.675781 C 336.777344 155.527344 335.332031 158.167969 333.242188 160.226562 C 333.023438 157.300781 332.738281 154.699219 332.203125 152.246094 Z M 42.871094 152.246094 C 43.003906 151.632812 43.128906 151.03125 43.292969 150.441406 L 43.8125 148.703125 C 44.089844 147.558594 44.601562 146.480469 44.953125 145.414062 C 45.882812 143.324219 46.859375 141.371094 48.039062 139.554688 C 49.265625 137.777344 50.535156 136.070312 52.035156 134.554688 C 55.011719 131.523438 58.503906 129.003906 62.644531 127.15625 L 63.421875 126.785156 L 64.226562 126.480469 C 64.765625 126.285156 65.3125 126.054688 65.871094 125.851562 C 66.996094 125.546875 68.15625 125.089844 69.371094 124.820312 C 70.582031 124.511719 71.839844 124.273438 73.15625 124.050781 C 74.46875 123.839844 75.832031 123.683594 77.292969 123.511719 C 75.179688 121.476562 72.496094 120.105469 69.625 119.242188 C 68.1875 118.804688 66.699219 118.621094 65.175781 118.417969 C 64.414062 118.328125 63.652344 118.363281 62.882812 118.347656 L 61.71875 118.347656 C 61.332031 118.363281 60.953125 118.417969 60.566406 118.457031 C 54.363281 119.03125 48.320312 122.070312 43.902344 126.652344 C 41.664062 128.933594 39.910156 131.648438 38.558594 134.515625 C 37.25 137.414062 36.511719 140.527344 36.25 143.621094 C 36.21875 144.398438 36.238281 145.183594 36.242188 145.949219 C 36.25 146.335938 36.238281 146.714844 36.269531 147.097656 C 36.304688 147.480469 36.363281 147.863281 36.414062 148.246094 C 36.527344 149.003906 36.597656 149.753906 36.757812 150.492188 C 36.929688 151.234375 37.117188 151.960938 37.351562 152.675781 C 38.296875 155.527344 39.742188 158.167969 41.835938 160.226562 C 42.050781 157.300781 42.335938 154.699219 42.871094 152.246094 Z M 316.511719 132.054688 C 315.597656 133.332031 314.671875 134.601562 313.722656 135.859375 L 312.300781 137.753906 L 311.589844 138.707031 L 310.832031 139.617188 L 307.757812 143.226562 L 306.199219 145.03125 L 304.558594 146.742188 C 302.371094 149.039062 300.160156 151.339844 297.792969 153.457031 L 294.261719 156.683594 C 293.050781 157.714844 291.808594 158.714844 290.582031 159.738281 C 287.386719 162.355469 273.808594 177.292969 272.976562 178.292969 C 272.175781 179.320312 271.339844 180.324219 270.519531 181.34375 C 269.695312 182.359375 268.871094 183.382812 267.976562 184.335938 C 261.035156 192.191406 253 199.195312 244.121094 205.085938 C 243.007812 205.816406 241.90625 206.570312 240.769531 207.273438 L 237.308594 209.289062 C 235.015625 210.675781 232.59375 211.820312 230.1875 213.015625 C 225.375 215.40625 220.316406 217.292969 215.183594 218.996094 C 213.917969 219.472656 212.589844 219.757812 211.285156 220.125 L 207.359375 221.164062 C 204.71875 221.722656 202.070312 222.261719 199.410156 222.75 C 199.386719 222.753906 199.359375 222.757812 199.335938 222.761719 L 195.324219 223.261719 C 193.972656 223.40625 192.628906 223.648438 191.265625 223.691406 L 185.148438 224.042969 C 184.46875 224.074219 183.785156 224.050781 183.105469 224.042969 L 179.015625 223.964844 C 178.335938 223.941406 177.652344 223.953125 176.972656 223.902344 L 174.9375 223.730469 C 172.222656 223.480469 169.496094 223.332031 166.816406 222.816406 L 162.789062 222.140625 C 161.445312 221.921875 160.132812 221.546875 158.804688 221.25 L 154.839844 220.304688 C 153.527344 219.960938 152.25 219.496094 150.953125 219.09375 L 147.085938 217.835938 C 145.820312 217.363281 144.570312 216.84375 143.3125 216.347656 C 142.058594 215.847656 140.804688 215.347656 139.5625 214.824219 C 138.339844 214.246094 137.136719 213.640625 135.929688 213.046875 L 132.316406 211.253906 C 131.136719 210.617188 129.980469 209.933594 128.828125 209.25 L 125.378906 207.191406 C 124.230469 206.507812 123.164062 205.703125 122.050781 204.96875 C 119.855469 203.457031 117.644531 201.976562 115.613281 200.261719 L 112.515625 197.777344 L 110.980469 196.523438 C 110.480469 196.09375 110.003906 195.632812 109.519531 195.183594 C 107.597656 193.375 105.625 191.632812 103.773438 189.773438 L 98.425781 184.019531 L 97.789062 183.320312 C 97.773438 183.300781 97.761719 183.289062 97.746094 183.269531 L 97.148438 182.535156 L 95.914062 181.015625 C 95.09375 180 78.921875 161.890625 75.8125 159.320312 L 73.964844 157.808594 L 73.042969 157.054688 L 72.15625 156.257812 L 68.640625 153.035156 L 65.15625 149.800781 C 64.011719 148.707031 62.949219 147.523438 61.851562 146.386719 L 58.59375 142.941406 L 56.984375 141.210938 L 55.457031 139.398438 C 55.429688 139.363281 55.402344 139.328125 55.375 139.292969 C 54.476562 138.1875 55.878906 136.707031 57.027344 137.542969 C 57.054688 137.5625 57.082031 137.582031 57.105469 137.601562 L 58.96875 138.996094 L 60.90625 140.308594 L 64.738281 142.945312 C 66.019531 143.816406 67.269531 144.714844 68.558594 145.566406 L 72.480469 148.023438 L 76.367188 150.496094 L 77.308594 151.097656 C 77.328125 151.109375 77.34375 151.117188 77.363281 151.132812 L 78.335938 151.679688 L 80.339844 152.8125 C 90.90625 158.980469 101.792969 164.382812 113.066406 168.597656 C 135.550781 177.144531 159.277344 181.480469 183.054688 181.386719 C 206.820312 181.285156 230.621094 176.972656 253.195312 168.59375 C 275.8125 160.253906 297.109375 148 316.511719 132.054688 " fill-opacity="1" fill-rule="nonzero"/></g><g fill="#000000" fill-opacity="1"><g transform="translate(47.669775, 256.680761)"><g><path d="M 8.515625 -7.9375 L 3.78125 -7.9375 L 3.78125 -6.515625 L 8.140625 -6.515625 L 8.140625 -4 L 3.78125 -4 L 3.78125 -2.515625 L 8.640625 -2.515625 L 8.453125 0 L 0.890625 0 L 0.890625 -10.46875 L 8.515625 -10.46875 Z M 8.515625 -7.9375 "/></g></g></g><g fill="#000000" fill-opacity="1"><g transform="translate(62.705552, 256.680761)"><g><path d="M 0.90625 0 L 1.21875 -10.46875 L 3.625 -10.46875 L 7.125 -3.640625 L 10.578125 -10.46875 L 12.984375 -10.46875 L 13.203125 0 L 10.359375 0 L 10.265625 -4.375 L 8.03125 0 L 5.96875 0 L 3.75 -4.296875 L 3.609375 0 Z M 0.90625 0 "/></g></g></g><g fill="#000000" fill-opacity="1"><g transform="translate(83.100717, 256.680761)"><g><path d="M 5.828125 0.140625 C 4.703125 0.148438 3.726562 -0.046875 2.90625 -0.453125 C 2.09375 -0.867188 1.46875 -1.460938 1.03125 -2.234375 C 0.601562 -3.015625 0.390625 -3.953125 0.390625 -5.046875 C 0.390625 -6.160156 0.625 -7.132812 1.09375 -7.96875 C 1.570312 -8.800781 2.234375 -9.445312 3.078125 -9.90625 C 3.921875 -10.375 4.910156 -10.609375 6.046875 -10.609375 C 7.078125 -10.609375 7.976562 -10.390625 8.75 -9.953125 C 9.519531 -9.523438 10.117188 -8.925781 10.546875 -8.15625 C 10.972656 -7.382812 11.1875 -6.476562 11.1875 -5.4375 C 11.1875 -4.332031 10.960938 -3.363281 10.515625 -2.53125 C 10.066406 -1.695312 9.4375 -1.046875 8.625 -0.578125 C 7.820312 -0.109375 6.890625 0.128906 5.828125 0.140625 Z M 5.765625 -2.4375 C 6.515625 -2.4375 7.109375 -2.703125 7.546875 -3.234375 C 7.992188 -3.765625 8.21875 -4.476562 8.21875 -5.375 C 8.21875 -6.1875 8.007812 -6.832031 7.59375 -7.3125 C 7.175781 -7.789062 6.617188 -8.03125 5.921875 -8.03125 C 5.410156 -8.03125 4.960938 -7.90625 4.578125 -7.65625 C 4.191406 -7.40625 3.894531 -7.0625 3.6875 -6.625 C 3.476562 -6.1875 3.375 -5.679688 3.375 -5.109375 C 3.375 -4.265625 3.582031 -3.609375 4 -3.140625 C 4.425781 -2.671875 5.015625 -2.4375 5.765625 -2.4375 Z M 5.765625 -2.4375 "/></g></g></g><g fill="#000000" fill-opacity="1"><g transform="translate(100.9487, 256.680761)"><g><path d="M 9.46875 -10.46875 L 9.046875 -7.890625 L 5.984375 -7.890625 L 5.984375 0 L 3.03125 0 L 3.03125 -7.890625 L -0.234375 -7.890625 L -0.234375 -10.46875 Z M 9.46875 -10.46875 "/></g></g></g><g fill="#000000" fill-opacity="1"><g transform="translate(116.220047, 256.680761)"><g><path d="M 0.890625 0 L 0.890625 -10.46875 L 3.828125 -10.46875 L 3.828125 0 Z M 0.890625 0 "/></g></g></g><g fill="#000000" fill-opacity="1"><g transform="translate(127.206825, 256.680761)"><g><path d="M 5.828125 0.140625 C 4.703125 0.148438 3.726562 -0.046875 2.90625 -0.453125 C 2.09375 -0.867188 1.46875 -1.460938 1.03125 -2.234375 C 0.601562 -3.015625 0.390625 -3.953125 0.390625 -5.046875 C 0.390625 -6.160156 0.625 -7.132812 1.09375 -7.96875 C 1.570312 -8.800781 2.234375 -9.445312 3.078125 -9.90625 C 3.921875 -10.375 4.910156 -10.609375 6.046875 -10.609375 C 7.078125 -10.609375 7.976562 -10.390625 8.75 -9.953125 C 9.519531 -9.523438 10.117188 -8.925781 10.546875 -8.15625 C 10.972656 -7.382812 11.1875 -6.476562 11.1875 -5.4375 C 11.1875 -4.332031 10.960938 -3.363281 10.515625 -2.53125 C 10.066406 -1.695312 9.4375 -1.046875 8.625 -0.578125 C 7.820312 -0.109375 6.890625 0.128906 5.828125 0.140625 Z M 5.765625 -2.4375 C 6.515625 -2.4375 7.109375 -2.703125 7.546875 -3.234375 C 7.992188 -3.765625 8.21875 -4.476562 8.21875 -5.375 C 8.21875 -6.1875 8.007812 -6.832031 7.59375 -7.3125 C 7.175781 -7.789062 6.617188 -8.03125 5.921875 -8.03125 C 5.410156 -8.03125 4.960938 -7.90625 4.578125 -7.65625 C 4.191406 -7.40625 3.894531 -7.0625 3.6875 -6.625 C 3.476562 -6.1875 3.375 -5.679688 3.375 -5.109375 C 3.375 -4.265625 3.582031 -3.609375 4 -3.140625 C 4.425781 -2.671875 5.015625 -2.4375 5.765625 -2.4375 Z M 5.765625 -2.4375 "/></g></g></g><g fill="#000000" fill-opacity="1"><g transform="translate(145.054808, 256.680761)"><g><path d="M 7.5625 -10.46875 L 10.390625 -10.46875 L 10.390625 0 L 7.765625 0 L 3.71875 -5.625 L 3.71875 0 L 0.890625 0 L 0.890625 -10.46875 L 3.5 -10.46875 L 7.5625 -4.84375 Z M 7.5625 -10.46875 "/></g></g></g><g fill="#000000" fill-opacity="1"><g transform="translate(162.593593, 256.680761)"><g/></g></g><g fill="#000000" fill-opacity="1"><g transform="translate(172.726405, 256.680761)"><g><path d="M 8.140625 -7.9375 L 3.78125 -7.9375 L 3.78125 -6.375 L 7.765625 -6.375 L 7.765625 -3.859375 L 3.78125 -3.859375 L 3.78125 0 L 0.890625 0 L 0.890625 -10.46875 L 8.140625 -10.46875 Z M 8.140625 -7.9375 "/></g></g></g><g fill="#000000" fill-opacity="1"><g transform="translate(187.129059, 256.680761)"><g><path d="M 0.890625 0 L 0.890625 -10.46875 L 3.828125 -10.46875 L 3.828125 -2.5625 L 8.1875 -2.5625 L 8.015625 0 Z M 0.890625 0 "/></g></g></g><g fill="#000000" fill-opacity="1"><g transform="translate(201.531713, 256.680761)"><g><path d="M -0.578125 0 L 4.03125 -10.46875 L 6.484375 -10.46875 L 10.9375 0 L 7.953125 0 L 7.21875 -1.875 L 3.171875 -1.875 L 2.40625 0 Z M 4.171875 -4.296875 L 6.25 -4.296875 L 5.234375 -6.859375 Z M 4.171875 -4.296875 "/></g></g></g><g fill="#000000" fill-opacity="1"><g transform="translate(218.21654, 256.680761)"><g><path d="M 4.40625 0.140625 C 3.09375 0.140625 2.066406 -0.132812 1.328125 -0.6875 C 0.585938 -1.25 0.171875 -2.066406 0.078125 -3.140625 L 2.796875 -3.53125 C 2.816406 -3.15625 2.976562 -2.851562 3.28125 -2.625 C 3.59375 -2.394531 4 -2.28125 4.5 -2.28125 C 5.394531 -2.28125 5.84375 -2.515625 5.84375 -2.984375 C 5.84375 -3.203125 5.71875 -3.378906 5.46875 -3.515625 C 5.21875 -3.648438 4.8125 -3.785156 4.25 -3.921875 C 3.03125 -4.210938 2.132812 -4.601562 1.5625 -5.09375 C 0.988281 -5.582031 0.707031 -6.273438 0.71875 -7.171875 C 0.726562 -7.847656 0.90625 -8.441406 1.25 -8.953125 C 1.601562 -9.472656 2.097656 -9.878906 2.734375 -10.171875 C 3.367188 -10.460938 4.113281 -10.609375 4.96875 -10.609375 C 6.019531 -10.609375 6.882812 -10.34375 7.5625 -9.8125 C 8.25 -9.28125 8.640625 -8.554688 8.734375 -7.640625 L 6.15625 -7.203125 C 6.101562 -7.484375 5.953125 -7.710938 5.703125 -7.890625 C 5.453125 -8.078125 5.148438 -8.171875 4.796875 -8.171875 C 4.460938 -8.171875 4.195312 -8.101562 4 -7.96875 C 3.800781 -7.84375 3.703125 -7.664062 3.703125 -7.4375 C 3.703125 -7.226562 3.800781 -7.046875 4 -6.890625 C 4.195312 -6.742188 4.578125 -6.601562 5.140625 -6.46875 C 5.941406 -6.269531 6.613281 -6.046875 7.15625 -5.796875 C 7.707031 -5.546875 8.125 -5.222656 8.40625 -4.828125 C 8.6875 -4.441406 8.828125 -3.925781 8.828125 -3.28125 C 8.828125 -2.601562 8.640625 -2.003906 8.265625 -1.484375 C 7.898438 -0.972656 7.382812 -0.570312 6.71875 -0.28125 C 6.0625 0 5.289062 0.140625 4.40625 0.140625 Z M 4.40625 0.140625 "/></g></g></g><g fill="#000000" fill-opacity="1"><g transform="translate(233.517342, 256.680761)"><g><path d="M 0.890625 0 L 0.890625 -10.46875 L 3.828125 -10.46875 L 3.828125 -6.53125 L 7.578125 -6.53125 L 7.578125 -10.46875 L 10.515625 -10.46875 L 10.515625 0 L 7.578125 0 L 7.578125 -3.984375 L 3.828125 -3.984375 L 3.828125 0 Z M 0.890625 0 "/></g></g></g><g fill="#000000" fill-opacity="1"><g transform="translate(251.188653, 256.680761)"><g><path d="M 10.484375 -2.078125 C 10.035156 -1.359375 9.414062 -0.804688 8.625 -0.421875 C 7.84375 -0.0351562 6.972656 0.15625 6.015625 0.15625 C 4.835938 0.15625 3.828125 -0.046875 2.984375 -0.453125 C 2.140625 -0.867188 1.492188 -1.460938 1.046875 -2.234375 C 0.609375 -3.015625 0.390625 -3.941406 0.390625 -5.015625 C 0.390625 -6.140625 0.632812 -7.117188 1.125 -7.953125 C 1.613281 -8.785156 2.296875 -9.4375 3.171875 -9.90625 C 4.046875 -10.375 5.0625 -10.609375 6.21875 -10.609375 C 7.238281 -10.609375 8.097656 -10.425781 8.796875 -10.0625 C 9.492188 -9.707031 10.0625 -9.15625 10.5 -8.40625 L 8.28125 -6.84375 C 8.09375 -7.195312 7.800781 -7.476562 7.40625 -7.6875 C 7.019531 -7.90625 6.585938 -8.015625 6.109375 -8.015625 C 5.242188 -8.023438 4.570312 -7.753906 4.09375 -7.203125 C 3.625 -6.660156 3.390625 -5.953125 3.390625 -5.078125 C 3.390625 -4.242188 3.609375 -3.59375 4.046875 -3.125 C 4.484375 -2.664062 5.144531 -2.4375 6.03125 -2.4375 C 7.050781 -2.4375 7.816406 -2.875 8.328125 -3.75 Z M 10.484375 -2.078125 "/></g></g></g><g fill="#000000" fill-opacity="1"><g transform="translate(267.667337, 256.680761)"><g><path d="M -0.578125 0 L 4.03125 -10.46875 L 6.484375 -10.46875 L 10.9375 0 L 7.953125 0 L 7.21875 -1.875 L 3.171875 -1.875 L 2.40625 0 Z M 4.171875 -4.296875 L 6.25 -4.296875 L 5.234375 -6.859375 Z M 4.171875 -4.296875 "/></g></g></g><g fill="#000000" fill-opacity="1"><g transform="translate(284.352165, 256.680761)"><g><path d="M 10.109375 -2.71875 L 10.78125 -0.4375 C 10.550781 -0.25 10.238281 -0.101562 9.84375 0 C 9.445312 0.113281 9.050781 0.171875 8.65625 0.171875 C 7.875 0.171875 7.226562 0.03125 6.71875 -0.25 C 6.207031 -0.53125 5.796875 -0.929688 5.484375 -1.453125 L 4.515625 -3.09375 C 4.390625 -3.289062 4.269531 -3.4375 4.15625 -3.53125 C 4.050781 -3.632812 3.921875 -3.703125 3.765625 -3.734375 L 3.765625 0 L 0.890625 0 L 0.890625 -10.46875 L 4.421875 -10.46875 C 6.035156 -10.46875 7.226562 -10.160156 8 -9.546875 C 8.769531 -8.941406 9.15625 -8.097656 9.15625 -7.015625 C 9.15625 -6.242188 8.929688 -5.601562 8.484375 -5.09375 C 8.046875 -4.59375 7.460938 -4.238281 6.734375 -4.03125 C 7.109375 -3.914062 7.40625 -3.695312 7.625 -3.375 L 7.890625 -2.96875 C 8.128906 -2.59375 8.503906 -2.40625 9.015625 -2.40625 C 9.203125 -2.40625 9.382812 -2.425781 9.5625 -2.46875 C 9.75 -2.507812 9.929688 -2.59375 10.109375 -2.71875 Z M 4.390625 -8.09375 L 3.765625 -8.09375 L 3.765625 -6.015625 L 4.515625 -6.015625 C 5.160156 -6.015625 5.609375 -6.097656 5.859375 -6.265625 C 6.109375 -6.441406 6.234375 -6.710938 6.234375 -7.078125 C 6.234375 -7.460938 6.0625 -7.726562 5.71875 -7.875 C 5.382812 -8.019531 4.941406 -8.09375 4.390625 -8.09375 Z M 4.390625 -8.09375 "/></g></g></g><g fill="#000000" fill-opacity="1"><g transform="translate(300.727794, 256.680761)"><g><path d="M 0.890625 0 L 0.890625 -10.46875 L 4.5625 -10.46875 C 6.65625 -10.46875 8.234375 -10.023438 9.296875 -9.140625 C 10.367188 -8.265625 10.90625 -6.96875 10.90625 -5.25 C 10.90625 -4.488281 10.765625 -3.789062 10.484375 -3.15625 C 10.210938 -2.519531 9.828125 -1.960938 9.328125 -1.484375 C 8.828125 -1.015625 8.234375 -0.648438 7.546875 -0.390625 C 6.867188 -0.128906 6.125 0 5.3125 0 Z M 3.828125 -2.59375 L 5.109375 -2.59375 C 6.046875 -2.59375 6.75 -2.8125 7.21875 -3.25 C 7.695312 -3.695312 7.9375 -4.335938 7.9375 -5.171875 C 7.9375 -6.109375 7.6875 -6.789062 7.1875 -7.21875 C 6.6875 -7.65625 5.90625 -7.875 4.84375 -7.875 L 3.828125 -7.875 Z M 3.828125 -2.59375 "/></g></g></g><g fill="#000000" fill-opacity="1"><g transform="translate(318.296034, 256.680761)"><g><path d="M 4.40625 0.140625 C 3.09375 0.140625 2.066406 -0.132812 1.328125 -0.6875 C 0.585938 -1.25 0.171875 -2.066406 0.078125 -3.140625 L 2.796875 -3.53125 C 2.816406 -3.15625 2.976562 -2.851562 3.28125 -2.625 C 3.59375 -2.394531 4 -2.28125 4.5 -2.28125 C 5.394531 -2.28125 5.84375 -2.515625 5.84375 -2.984375 C 5.84375 -3.203125 5.71875 -3.378906 5.46875 -3.515625 C 5.21875 -3.648438 4.8125 -3.785156 4.25 -3.921875 C 3.03125 -4.210938 2.132812 -4.601562 1.5625 -5.09375 C 0.988281 -5.582031 0.707031 -6.273438 0.71875 -7.171875 C 0.726562 -7.847656 0.90625 -8.441406 1.25 -8.953125 C 1.601562 -9.472656 2.097656 -9.878906 2.734375 -10.171875 C 3.367188 -10.460938 4.113281 -10.609375 4.96875 -10.609375 C 6.019531 -10.609375 6.882812 -10.34375 7.5625 -9.8125 C 8.25 -9.28125 8.640625 -8.554688 8.734375 -7.640625 L 6.15625 -7.203125 C 6.101562 -7.484375 5.953125 -7.710938 5.703125 -7.890625 C 5.453125 -8.078125 5.148438 -8.171875 4.796875 -8.171875 C 4.460938 -8.171875 4.195312 -8.101562 4 -7.96875 C 3.800781 -7.84375 3.703125 -7.664062 3.703125 -7.4375 C 3.703125 -7.226562 3.800781 -7.046875 4 -6.890625 C 4.195312 -6.742188 4.578125 -6.601562 5.140625 -6.46875 C 5.941406 -6.269531 6.613281 -6.046875 7.15625 -5.796875 C 7.707031 -5.546875 8.125 -5.222656 8.40625 -4.828125 C 8.6875 -4.441406 8.828125 -3.925781 8.828125 -3.28125 C 8.828125 -2.601562 8.640625 -2.003906 8.265625 -1.484375 C 7.898438 -0.972656 7.382812 -0.570312 6.71875 -0.28125 C 6.0625 0 5.289062 0.140625 4.40625 0.140625 Z M 4.40625 0.140625 "/></g></g></g></svg>