<svg xmlns="http://www.w3.org/2000/svg" xmlns:xlink="http://www.w3.org/1999/xlink" width="288" zoomAndPan="magnify" viewBox="0 0 216 359.999987" height="480" preserveAspectRatio="xMidYMid meet" version="1.0"><defs><g/><clipPath id="8f4c600eca"><path d="M 0 81.3125 L 216 81.3125 L 216 360 L 0 360 Z M 0 81.3125 " clip-rule="nonzero"/></clipPath></defs><rect x="-21.6" width="259.2" fill="#ffffff" y="-35.999999" height="431.999984" fill-opacity="1"/><rect x="-21.6" width="259.2" fill="#eb7621" y="-35.999999" height="431.999984" fill-opacity="1"/><g clip-path="url(#8f4c600eca)"><path fill="#efa10a" d="M 0 81.3125 L 215.664062 81.3125 L 215.664062 359.75 L 0 359.75 Z M 0 81.3125 " fill-opacity="1" fill-rule="nonzero"/></g><g fill="#ffffff" fill-opacity="1"><g transform="translate(11.56055, 46.005582)"><g><path d="M 13.359375 0 L 12.453125 -3.46875 L 6.4375 -3.46875 L 5.5 0 L 0 0 L 6.046875 -18.59375 L 12.71875 -18.59375 L 18.828125 0 Z M 11.40625 -7.578125 L 10.609375 -10.609375 C 10.421875 -11.285156 10.191406 -12.160156 9.921875 -13.234375 C 9.660156 -14.304688 9.488281 -15.078125 9.40625 -15.546875 C 9.332031 -15.109375 9.179688 -14.394531 8.953125 -13.40625 C 8.734375 -12.425781 8.238281 -10.484375 7.46875 -7.578125 Z M 11.40625 -7.578125 "/></g></g></g><g fill="#ffffff" fill-opacity="1"><g transform="translate(30.390268, 46.005582)"><g><path d="M 6.921875 0 L 2 0 L 2 -18.515625 L 12.9375 -18.515625 L 12.9375 -14.5 L 6.921875 -14.5 L 6.921875 -10.96875 L 12.46875 -10.96875 L 12.46875 -6.953125 L 6.921875 -6.953125 Z M 6.921875 0 "/></g></g></g><g fill="#ffffff" fill-opacity="1"><g transform="translate(44.370095, 46.005582)"><g><path d="M 6.921875 0 L 2 0 L 2 -18.515625 L 12.9375 -18.515625 L 12.9375 -14.5 L 6.921875 -14.5 L 6.921875 -10.96875 L 12.46875 -10.96875 L 12.46875 -6.953125 L 6.921875 -6.953125 Z M 6.921875 0 "/></g></g></g><g fill="#ffffff" fill-opacity="1"><g transform="translate(58.349923, 46.005582)"><g><path d="M 13 0 L 2 0 L 2 -18.515625 L 13 -18.515625 L 13 -14.5 L 7 -14.5 L 7 -11.59375 L 12.546875 -11.59375 L 12.546875 -7.578125 L 7 -7.578125 L 7 -4.078125 L 13 -4.078125 Z M 13 0 "/></g></g></g><g fill="#ffffff" fill-opacity="1"><g transform="translate(72.583007, 46.005582)"><g><path d="M 10.25 -14.671875 C 9.050781 -14.671875 8.117188 -14.179688 7.453125 -13.203125 C 6.785156 -12.234375 6.453125 -10.894531 6.453125 -9.1875 C 6.453125 -5.625 7.8125 -3.84375 10.53125 -3.84375 C 11.34375 -3.84375 12.132812 -3.953125 12.90625 -4.171875 C 13.675781 -4.398438 14.445312 -4.675781 15.21875 -5 L 15.21875 -0.765625 C 13.675781 -0.0859375 11.929688 0.25 9.984375 0.25 C 7.179688 0.25 5.035156 -0.554688 3.546875 -2.171875 C 2.054688 -3.796875 1.3125 -6.140625 1.3125 -9.203125 C 1.3125 -11.117188 1.671875 -12.800781 2.390625 -14.25 C 3.117188 -15.707031 4.160156 -16.828125 5.515625 -17.609375 C 6.867188 -18.390625 8.460938 -18.78125 10.296875 -18.78125 C 12.296875 -18.78125 14.207031 -18.347656 16.03125 -17.484375 L 14.5 -13.53125 C 13.8125 -13.851562 13.125 -14.125 12.4375 -14.34375 C 11.757812 -14.5625 11.03125 -14.671875 10.25 -14.671875 Z M 10.25 -14.671875 "/></g></g></g><g fill="#ffffff" fill-opacity="1"><g transform="translate(89.411989, 46.005582)"><g><path d="M 10.171875 0 L 5.171875 0 L 5.171875 -14.421875 L 0.640625 -14.421875 L 0.640625 -18.515625 L 14.671875 -18.515625 L 14.671875 -14.421875 L 10.171875 -14.421875 Z M 10.171875 0 "/></g></g></g><g fill="#ffffff" fill-opacity="1"><g transform="translate(104.734082, 46.005582)"><g><path d="M 2 0 L 2 -18.515625 L 7.03125 -18.515625 L 7.03125 0 Z M 2 0 "/></g></g></g><g fill="#ffffff" fill-opacity="1"><g transform="translate(113.762726, 46.005582)"><g><path d="M 19.328125 -9.28125 C 19.328125 -6.164062 18.5625 -3.796875 17.03125 -2.171875 C 15.5 -0.554688 13.265625 0.25 10.328125 0.25 C 7.421875 0.25 5.191406 -0.5625 3.640625 -2.1875 C 2.085938 -3.820312 1.3125 -6.195312 1.3125 -9.3125 C 1.3125 -12.394531 2.082031 -14.75 3.625 -16.375 C 5.164062 -18 7.40625 -18.8125 10.34375 -18.8125 C 13.289062 -18.8125 15.523438 -18.003906 17.046875 -16.390625 C 18.566406 -14.773438 19.328125 -12.40625 19.328125 -9.28125 Z M 6.578125 -9.28125 C 6.578125 -5.695312 7.828125 -3.90625 10.328125 -3.90625 C 11.585938 -3.90625 12.523438 -4.335938 13.140625 -5.203125 C 13.753906 -6.078125 14.0625 -7.4375 14.0625 -9.28125 C 14.0625 -11.132812 13.75 -12.5 13.125 -13.375 C 12.507812 -14.257812 11.582031 -14.703125 10.34375 -14.703125 C 7.832031 -14.703125 6.578125 -12.894531 6.578125 -9.28125 Z M 6.578125 -9.28125 "/></g></g></g><g fill="#ffffff" fill-opacity="1"><g transform="translate(134.428557, 46.005582)"><g><path d="M 19.625 0 L 13.0625 0 L 6.3125 -13.046875 L 6.1875 -13.046875 C 6.351562 -10.992188 6.4375 -9.425781 6.4375 -8.34375 L 6.4375 0 L 2 0 L 2 -18.515625 L 8.53125 -18.515625 L 15.28125 -5.65625 L 15.34375 -5.65625 C 15.226562 -7.519531 15.171875 -9.015625 15.171875 -10.140625 L 15.171875 -18.515625 L 19.625 -18.515625 Z M 19.625 0 "/></g></g></g><g fill="#ffffff" fill-opacity="1"><g transform="translate(156.056767, 46.005582)"><g><path d="M 13.359375 0 L 12.453125 -3.46875 L 6.4375 -3.46875 L 5.5 0 L 0 0 L 6.046875 -18.59375 L 12.71875 -18.59375 L 18.828125 0 Z M 11.40625 -7.578125 L 10.609375 -10.609375 C 10.421875 -11.285156 10.191406 -12.160156 9.921875 -13.234375 C 9.660156 -14.304688 9.488281 -15.078125 9.40625 -15.546875 C 9.332031 -15.109375 9.179688 -14.394531 8.953125 -13.40625 C 8.734375 -12.425781 8.238281 -10.484375 7.46875 -7.578125 Z M 11.40625 -7.578125 "/></g></g></g><g fill="#ffffff" fill-opacity="1"><g transform="translate(174.886485, 46.005582)"><g><path d="M 10.171875 0 L 5.171875 0 L 5.171875 -14.421875 L 0.640625 -14.421875 L 0.640625 -18.515625 L 14.671875 -18.515625 L 14.671875 -14.421875 L 10.171875 -14.421875 Z M 10.171875 0 "/></g></g></g><g fill="#ffffff" fill-opacity="1"><g transform="translate(190.208578, 46.005582)"><g><path d="M 13 0 L 2 0 L 2 -18.515625 L 13 -18.515625 L 13 -14.5 L 7 -14.5 L 7 -11.59375 L 12.546875 -11.59375 L 12.546875 -7.578125 L 7 -7.578125 L 7 -4.078125 L 13 -4.078125 Z M 13 0 "/></g></g></g><g fill="#ffffff" fill-opacity="1"><g transform="translate(0.386723, 154.655731)"><g><path d="M 10.515625 -3.984375 C 10.515625 -2.671875 10.035156 -1.644531 9.078125 -0.90625 C 8.128906 -0.164062 6.832031 0.203125 5.1875 0.203125 C 3.40625 0.203125 2.039062 -0.0234375 1.09375 -0.484375 L 1.09375 -2.15625 C 1.707031 -1.90625 2.375 -1.703125 3.09375 -1.546875 C 3.820312 -1.398438 4.539062 -1.328125 5.25 -1.328125 C 6.414062 -1.328125 7.289062 -1.546875 7.875 -1.984375 C 8.457031 -2.421875 8.75 -3.035156 8.75 -3.828125 C 8.75 -4.347656 8.644531 -4.769531 8.4375 -5.09375 C 8.226562 -5.425781 7.878906 -5.734375 7.390625 -6.015625 C 6.910156 -6.296875 6.171875 -6.613281 5.171875 -6.96875 C 3.773438 -7.46875 2.773438 -8.054688 2.171875 -8.734375 C 1.578125 -9.421875 1.28125 -10.316406 1.28125 -11.421875 C 1.28125 -12.578125 1.710938 -13.492188 2.578125 -14.171875 C 3.453125 -14.859375 4.601562 -15.203125 6.03125 -15.203125 C 7.519531 -15.203125 8.890625 -14.929688 10.140625 -14.390625 L 9.59375 -12.875 C 8.351562 -13.382812 7.148438 -13.640625 5.984375 -13.640625 C 5.066406 -13.640625 4.347656 -13.441406 3.828125 -13.046875 C 3.304688 -12.648438 3.046875 -12.101562 3.046875 -11.40625 C 3.046875 -10.882812 3.140625 -10.457031 3.328125 -10.125 C 3.523438 -9.789062 3.847656 -9.484375 4.296875 -9.203125 C 4.753906 -8.929688 5.453125 -8.628906 6.390625 -8.296875 C 7.960938 -7.734375 9.039062 -7.128906 9.625 -6.484375 C 10.21875 -5.847656 10.515625 -5.015625 10.515625 -3.984375 Z M 10.515625 -3.984375 "/></g></g></g><g fill="#ffffff" fill-opacity="1"><g transform="translate(11.905681, 154.655731)"><g><path d="M 9.5 0 L 9.5 -7.265625 C 9.5 -8.179688 9.289062 -8.863281 8.875 -9.3125 C 8.457031 -9.769531 7.800781 -10 6.90625 -10 C 5.726562 -10 4.863281 -9.675781 4.3125 -9.03125 C 3.769531 -8.382812 3.5 -7.332031 3.5 -5.875 L 3.5 0 L 1.8125 0 L 1.8125 -15.953125 L 3.5 -15.953125 L 3.5 -11.125 C 3.5 -10.539062 3.472656 -10.0625 3.421875 -9.6875 L 3.53125 -9.6875 C 3.863281 -10.21875 4.335938 -10.640625 4.953125 -10.953125 C 5.578125 -11.265625 6.285156 -11.421875 7.078125 -11.421875 C 8.453125 -11.421875 9.484375 -11.09375 10.171875 -10.4375 C 10.859375 -9.789062 11.203125 -8.753906 11.203125 -7.328125 L 11.203125 0 Z M 9.5 0 "/></g></g></g><g fill="#ffffff" fill-opacity="1"><g transform="translate(24.787653, 154.655731)"><g><path d="M 11.5 -5.625 C 11.5 -3.789062 11.035156 -2.359375 10.109375 -1.328125 C 9.191406 -0.304688 7.921875 0.203125 6.296875 0.203125 C 5.285156 0.203125 4.390625 -0.03125 3.609375 -0.5 C 2.835938 -0.96875 2.238281 -1.644531 1.8125 -2.53125 C 1.382812 -3.414062 1.171875 -4.445312 1.171875 -5.625 C 1.171875 -7.457031 1.628906 -8.882812 2.546875 -9.90625 C 3.460938 -10.925781 4.738281 -11.4375 6.375 -11.4375 C 7.9375 -11.4375 9.179688 -10.914062 10.109375 -9.875 C 11.035156 -8.832031 11.5 -7.414062 11.5 -5.625 Z M 2.9375 -5.625 C 2.9375 -4.1875 3.222656 -3.09375 3.796875 -2.34375 C 4.378906 -1.59375 5.226562 -1.21875 6.34375 -1.21875 C 7.457031 -1.21875 8.300781 -1.59375 8.875 -2.34375 C 9.445312 -3.09375 9.734375 -4.1875 9.734375 -5.625 C 9.734375 -7.050781 9.445312 -8.132812 8.875 -8.875 C 8.300781 -9.625 7.445312 -10 6.3125 -10 C 5.195312 -10 4.351562 -9.628906 3.78125 -8.890625 C 3.21875 -8.160156 2.9375 -7.070312 2.9375 -5.625 Z M 2.9375 -5.625 "/></g></g></g><g fill="#ffffff" fill-opacity="1"><g transform="translate(37.464661, 154.655731)"><g><path d="M 10.984375 0 L 8.921875 -6.59375 C 8.785156 -7 8.539062 -7.914062 8.1875 -9.34375 L 8.109375 -9.34375 C 7.835938 -8.144531 7.597656 -7.222656 7.390625 -6.578125 L 5.265625 0 L 3.296875 0 L 0.234375 -11.234375 L 2.015625 -11.234375 C 2.742188 -8.410156 3.296875 -6.257812 3.671875 -4.78125 C 4.054688 -3.3125 4.273438 -2.320312 4.328125 -1.8125 L 4.40625 -1.8125 C 4.476562 -2.195312 4.597656 -2.695312 4.765625 -3.3125 C 4.941406 -3.9375 5.085938 -4.425781 5.203125 -4.78125 L 7.265625 -11.234375 L 9.109375 -11.234375 L 11.125 -4.78125 C 11.507812 -3.613281 11.769531 -2.628906 11.90625 -1.828125 L 11.984375 -1.828125 C 12.015625 -2.066406 12.085938 -2.441406 12.203125 -2.953125 C 12.328125 -3.472656 13.039062 -6.234375 14.34375 -11.234375 L 16.109375 -11.234375 L 13 0 Z M 10.984375 0 "/></g></g></g><g fill="#ffffff" fill-opacity="1"><g transform="translate(53.790023, 154.655731)"><g><path d="M 3.5 0 L 1.8125 0 L 1.8125 -11.234375 L 3.5 -11.234375 Z M 1.65625 -14.28125 C 1.65625 -14.675781 1.75 -14.960938 1.9375 -15.140625 C 2.132812 -15.316406 2.378906 -15.40625 2.671875 -15.40625 C 2.941406 -15.40625 3.175781 -15.3125 3.375 -15.125 C 3.570312 -14.945312 3.671875 -14.664062 3.671875 -14.28125 C 3.671875 -13.894531 3.570312 -13.609375 3.375 -13.421875 C 3.175781 -13.234375 2.941406 -13.140625 2.671875 -13.140625 C 2.378906 -13.140625 2.132812 -13.234375 1.9375 -13.421875 C 1.75 -13.609375 1.65625 -13.894531 1.65625 -14.28125 Z M 1.65625 -14.28125 "/></g></g></g><g fill="#ffffff" fill-opacity="1"><g transform="translate(59.098582, 154.655731)"><g><path d="M 9.5 0 L 9.5 -7.265625 C 9.5 -8.179688 9.289062 -8.863281 8.875 -9.3125 C 8.457031 -9.769531 7.800781 -10 6.90625 -10 C 5.726562 -10 4.863281 -9.679688 4.3125 -9.046875 C 3.769531 -8.410156 3.5 -7.359375 3.5 -5.890625 L 3.5 0 L 1.8125 0 L 1.8125 -11.234375 L 3.1875 -11.234375 L 3.46875 -9.703125 L 3.546875 -9.703125 C 3.898438 -10.253906 4.390625 -10.679688 5.015625 -10.984375 C 5.640625 -11.285156 6.335938 -11.4375 7.109375 -11.4375 C 8.460938 -11.4375 9.484375 -11.109375 10.171875 -10.453125 C 10.859375 -9.804688 11.203125 -8.765625 11.203125 -7.328125 L 11.203125 0 Z M 9.5 0 "/></g></g></g><g fill="#ffffff" fill-opacity="1"><g transform="translate(71.980554, 154.655731)"><g><path d="M 11 -11.234375 L 11 -10.15625 L 8.921875 -9.921875 C 9.109375 -9.679688 9.273438 -9.363281 9.421875 -8.96875 C 9.578125 -8.582031 9.65625 -8.148438 9.65625 -7.671875 C 9.65625 -6.566406 9.28125 -5.6875 8.53125 -5.03125 C 7.78125 -4.375 6.75 -4.046875 5.4375 -4.046875 C 5.101562 -4.046875 4.785156 -4.070312 4.484375 -4.125 C 3.765625 -3.75 3.40625 -3.269531 3.40625 -2.6875 C 3.40625 -2.375 3.53125 -2.144531 3.78125 -2 C 4.03125 -1.851562 4.46875 -1.78125 5.09375 -1.78125 L 7.078125 -1.78125 C 8.296875 -1.78125 9.226562 -1.523438 9.875 -1.015625 C 10.53125 -0.503906 10.859375 0.238281 10.859375 1.21875 C 10.859375 2.46875 10.359375 3.414062 9.359375 4.0625 C 8.359375 4.71875 6.90625 5.046875 5 5.046875 C 3.53125 5.046875 2.394531 4.769531 1.59375 4.21875 C 0.800781 3.675781 0.40625 2.90625 0.40625 1.90625 C 0.40625 1.21875 0.625 0.625 1.0625 0.125 C 1.5 -0.363281 2.113281 -0.695312 2.90625 -0.875 C 2.613281 -1.007812 2.367188 -1.210938 2.171875 -1.484375 C 1.984375 -1.753906 1.890625 -2.070312 1.890625 -2.4375 C 1.890625 -2.851562 2 -3.210938 2.21875 -3.515625 C 2.4375 -3.828125 2.78125 -4.125 3.25 -4.40625 C 2.664062 -4.644531 2.191406 -5.050781 1.828125 -5.625 C 1.460938 -6.195312 1.28125 -6.851562 1.28125 -7.59375 C 1.28125 -8.820312 1.648438 -9.769531 2.390625 -10.4375 C 3.128906 -11.101562 4.175781 -11.4375 5.53125 -11.4375 C 6.113281 -11.4375 6.640625 -11.367188 7.109375 -11.234375 Z M 2.046875 1.890625 C 2.046875 2.492188 2.300781 2.953125 2.8125 3.265625 C 3.320312 3.585938 4.054688 3.75 5.015625 3.75 C 6.441406 3.75 7.5 3.535156 8.1875 3.109375 C 8.875 2.679688 9.21875 2.097656 9.21875 1.359375 C 9.21875 0.753906 9.03125 0.332031 8.65625 0.09375 C 8.28125 -0.132812 7.570312 -0.25 6.53125 -0.25 L 4.484375 -0.25 C 3.710938 -0.25 3.113281 -0.0664062 2.6875 0.296875 C 2.257812 0.660156 2.046875 1.191406 2.046875 1.890625 Z M 2.96875 -7.640625 C 2.96875 -6.847656 3.1875 -6.25 3.625 -5.84375 C 4.070312 -5.445312 4.691406 -5.25 5.484375 -5.25 C 7.148438 -5.25 7.984375 -6.054688 7.984375 -7.671875 C 7.984375 -9.359375 7.140625 -10.203125 5.453125 -10.203125 C 4.648438 -10.203125 4.035156 -9.984375 3.609375 -9.546875 C 3.179688 -9.117188 2.96875 -8.484375 2.96875 -7.640625 Z M 2.96875 -7.640625 "/></g></g></g><g fill="#ffffff" fill-opacity="1"><g transform="translate(83.479016, 154.655731)"><g/></g></g><g fill="#ffffff" fill-opacity="1"><g transform="translate(88.931049, 154.655731)"><g><path d="M 5.4375 -1.203125 C 5.738281 -1.203125 6.03125 -1.222656 6.3125 -1.265625 C 6.59375 -1.304688 6.8125 -1.351562 6.96875 -1.40625 L 6.96875 -0.109375 C 6.789062 -0.015625 6.519531 0.0546875 6.15625 0.109375 C 5.800781 0.171875 5.476562 0.203125 5.1875 0.203125 C 3.007812 0.203125 1.921875 -0.941406 1.921875 -3.234375 L 1.921875 -9.921875 L 0.3125 -9.921875 L 0.3125 -10.734375 L 1.921875 -11.4375 L 2.640625 -13.84375 L 3.625 -13.84375 L 3.625 -11.234375 L 6.890625 -11.234375 L 6.890625 -9.921875 L 3.625 -9.921875 L 3.625 -3.296875 C 3.625 -2.617188 3.785156 -2.097656 4.109375 -1.734375 C 4.429688 -1.378906 4.875 -1.203125 5.4375 -1.203125 Z M 5.4375 -1.203125 "/></g></g></g><g fill="#ffffff" fill-opacity="1"><g transform="translate(96.340492, 154.655731)"><g><path d="M 9.5 0 L 9.5 -7.265625 C 9.5 -8.179688 9.289062 -8.863281 8.875 -9.3125 C 8.457031 -9.769531 7.800781 -10 6.90625 -10 C 5.726562 -10 4.863281 -9.675781 4.3125 -9.03125 C 3.769531 -8.382812 3.5 -7.332031 3.5 -5.875 L 3.5 0 L 1.8125 0 L 1.8125 -15.953125 L 3.5 -15.953125 L 3.5 -11.125 C 3.5 -10.539062 3.472656 -10.0625 3.421875 -9.6875 L 3.53125 -9.6875 C 3.863281 -10.21875 4.335938 -10.640625 4.953125 -10.953125 C 5.578125 -11.265625 6.285156 -11.421875 7.078125 -11.421875 C 8.453125 -11.421875 9.484375 -11.09375 10.171875 -10.4375 C 10.859375 -9.789062 11.203125 -8.753906 11.203125 -7.328125 L 11.203125 0 Z M 9.5 0 "/></g></g></g><g fill="#ffffff" fill-opacity="1"><g transform="translate(109.222464, 154.655731)"><g><path d="M 8.71875 0 L 8.375 -1.59375 L 8.296875 -1.59375 C 7.734375 -0.894531 7.171875 -0.421875 6.609375 -0.171875 C 6.054688 0.078125 5.363281 0.203125 4.53125 0.203125 C 3.414062 0.203125 2.539062 -0.0820312 1.90625 -0.65625 C 1.28125 -1.226562 0.96875 -2.046875 0.96875 -3.109375 C 0.96875 -5.378906 2.78125 -6.566406 6.40625 -6.671875 L 8.3125 -6.734375 L 8.3125 -7.4375 C 8.3125 -8.3125 8.117188 -8.957031 7.734375 -9.375 C 7.359375 -9.800781 6.753906 -10.015625 5.921875 -10.015625 C 4.984375 -10.015625 3.925781 -9.726562 2.75 -9.15625 L 2.21875 -10.453125 C 2.78125 -10.753906 3.390625 -10.988281 4.046875 -11.15625 C 4.703125 -11.332031 5.363281 -11.421875 6.03125 -11.421875 C 7.375 -11.421875 8.367188 -11.125 9.015625 -10.53125 C 9.660156 -9.9375 9.984375 -8.984375 9.984375 -7.671875 L 9.984375 0 Z M 4.875 -1.203125 C 5.925781 -1.203125 6.753906 -1.488281 7.359375 -2.0625 C 7.972656 -2.644531 8.28125 -3.460938 8.28125 -4.515625 L 8.28125 -5.53125 L 6.578125 -5.453125 C 5.222656 -5.410156 4.242188 -5.203125 3.640625 -4.828125 C 3.046875 -4.453125 2.75 -3.875 2.75 -3.09375 C 2.75 -2.46875 2.929688 -1.992188 3.296875 -1.671875 C 3.671875 -1.359375 4.195312 -1.203125 4.875 -1.203125 Z M 4.875 -1.203125 "/></g></g></g><g fill="#ffffff" fill-opacity="1"><g transform="translate(120.89515, 154.655731)"><g><path d="M 5.4375 -1.203125 C 5.738281 -1.203125 6.03125 -1.222656 6.3125 -1.265625 C 6.59375 -1.304688 6.8125 -1.351562 6.96875 -1.40625 L 6.96875 -0.109375 C 6.789062 -0.015625 6.519531 0.0546875 6.15625 0.109375 C 5.800781 0.171875 5.476562 0.203125 5.1875 0.203125 C 3.007812 0.203125 1.921875 -0.941406 1.921875 -3.234375 L 1.921875 -9.921875 L 0.3125 -9.921875 L 0.3125 -10.734375 L 1.921875 -11.4375 L 2.640625 -13.84375 L 3.625 -13.84375 L 3.625 -11.234375 L 6.890625 -11.234375 L 6.890625 -9.921875 L 3.625 -9.921875 L 3.625 -3.296875 C 3.625 -2.617188 3.785156 -2.097656 4.109375 -1.734375 C 4.429688 -1.378906 4.875 -1.203125 5.4375 -1.203125 Z M 5.4375 -1.203125 "/></g></g></g><g fill="#ffffff" fill-opacity="1"><g transform="translate(128.304593, 154.655731)"><g/></g></g><g fill="#ffffff" fill-opacity="1"><g transform="translate(133.756626, 154.655731)"><g><path d="M 0.015625 -11.234375 L 1.84375 -11.234375 L 4.3125 -4.828125 C 4.84375 -3.367188 5.175781 -2.3125 5.3125 -1.65625 L 5.390625 -1.65625 C 5.484375 -2.007812 5.671875 -2.609375 5.953125 -3.453125 C 6.234375 -4.296875 7.160156 -6.890625 8.734375 -11.234375 L 10.5625 -11.234375 L 5.734375 1.5625 C 5.253906 2.820312 4.691406 3.71875 4.046875 4.25 C 3.410156 4.78125 2.628906 5.046875 1.703125 5.046875 C 1.179688 5.046875 0.671875 4.988281 0.171875 4.875 L 0.171875 3.5 C 0.546875 3.582031 0.960938 3.625 1.421875 3.625 C 2.585938 3.625 3.421875 2.96875 3.921875 1.65625 L 4.546875 0.0625 Z M 0.015625 -11.234375 "/></g></g></g><g fill="#ffffff" fill-opacity="1"><g transform="translate(144.332752, 154.655731)"><g><path d="M 11.5 -5.625 C 11.5 -3.789062 11.035156 -2.359375 10.109375 -1.328125 C 9.191406 -0.304688 7.921875 0.203125 6.296875 0.203125 C 5.285156 0.203125 4.390625 -0.03125 3.609375 -0.5 C 2.835938 -0.96875 2.238281 -1.644531 1.8125 -2.53125 C 1.382812 -3.414062 1.171875 -4.445312 1.171875 -5.625 C 1.171875 -7.457031 1.628906 -8.882812 2.546875 -9.90625 C 3.460938 -10.925781 4.738281 -11.4375 6.375 -11.4375 C 7.9375 -11.4375 9.179688 -10.914062 10.109375 -9.875 C 11.035156 -8.832031 11.5 -7.414062 11.5 -5.625 Z M 2.9375 -5.625 C 2.9375 -4.1875 3.222656 -3.09375 3.796875 -2.34375 C 4.378906 -1.59375 5.226562 -1.21875 6.34375 -1.21875 C 7.457031 -1.21875 8.300781 -1.59375 8.875 -2.34375 C 9.445312 -3.09375 9.734375 -4.1875 9.734375 -5.625 C 9.734375 -7.050781 9.445312 -8.132812 8.875 -8.875 C 8.300781 -9.625 7.445312 -10 6.3125 -10 C 5.195312 -10 4.351562 -9.628906 3.78125 -8.890625 C 3.21875 -8.160156 2.9375 -7.070312 2.9375 -5.625 Z M 2.9375 -5.625 "/></g></g></g><g fill="#ffffff" fill-opacity="1"><g transform="translate(157.00976, 154.655731)"><g><path d="M 3.40625 -11.234375 L 3.40625 -3.953125 C 3.40625 -3.035156 3.613281 -2.347656 4.03125 -1.890625 C 4.445312 -1.441406 5.097656 -1.21875 5.984375 -1.21875 C 7.160156 -1.21875 8.019531 -1.535156 8.5625 -2.171875 C 9.101562 -2.816406 9.375 -3.867188 9.375 -5.328125 L 9.375 -11.234375 L 11.078125 -11.234375 L 11.078125 0 L 9.6875 0 L 9.4375 -1.5 L 9.34375 -1.5 C 8.988281 -0.945312 8.503906 -0.523438 7.890625 -0.234375 C 7.273438 0.0546875 6.566406 0.203125 5.765625 0.203125 C 4.398438 0.203125 3.378906 -0.117188 2.703125 -0.765625 C 2.023438 -1.421875 1.6875 -2.460938 1.6875 -3.890625 L 1.6875 -11.234375 Z M 3.40625 -11.234375 "/></g></g></g><g fill="#ffffff" fill-opacity="1"><g transform="translate(169.891732, 154.655731)"><g/></g></g><g fill="#ffffff" fill-opacity="1"><g transform="translate(175.343765, 154.655731)"><g><path d="M 3.5 0 L 1.8125 0 L 1.8125 -15.953125 L 3.5 -15.953125 Z M 3.5 0 "/></g></g></g><g fill="#ffffff" fill-opacity="1"><g transform="translate(180.652324, 154.655731)"><g><path d="M 11.5 -5.625 C 11.5 -3.789062 11.035156 -2.359375 10.109375 -1.328125 C 9.191406 -0.304688 7.921875 0.203125 6.296875 0.203125 C 5.285156 0.203125 4.390625 -0.03125 3.609375 -0.5 C 2.835938 -0.96875 2.238281 -1.644531 1.8125 -2.53125 C 1.382812 -3.414062 1.171875 -4.445312 1.171875 -5.625 C 1.171875 -7.457031 1.628906 -8.882812 2.546875 -9.90625 C 3.460938 -10.925781 4.738281 -11.4375 6.375 -11.4375 C 7.9375 -11.4375 9.179688 -10.914062 10.109375 -9.875 C 11.035156 -8.832031 11.5 -7.414062 11.5 -5.625 Z M 2.9375 -5.625 C 2.9375 -4.1875 3.222656 -3.09375 3.796875 -2.34375 C 4.378906 -1.59375 5.226562 -1.21875 6.34375 -1.21875 C 7.457031 -1.21875 8.300781 -1.59375 8.875 -2.34375 C 9.445312 -3.09375 9.734375 -4.1875 9.734375 -5.625 C 9.734375 -7.050781 9.445312 -8.132812 8.875 -8.875 C 8.300781 -9.625 7.445312 -10 6.3125 -10 C 5.195312 -10 4.351562 -9.628906 3.78125 -8.890625 C 3.21875 -8.160156 2.9375 -7.070312 2.9375 -5.625 Z M 2.9375 -5.625 "/></g></g></g><g fill="#ffffff" fill-opacity="1"><g transform="translate(193.329333, 154.655731)"><g><path d="M 4.265625 0 L 0 -11.234375 L 1.828125 -11.234375 L 4.25 -4.578125 C 4.789062 -3.015625 5.109375 -2 5.203125 -1.53125 L 5.296875 -1.53125 C 5.367188 -1.894531 5.601562 -2.644531 6 -3.78125 C 6.40625 -4.925781 7.304688 -7.410156 8.703125 -11.234375 L 10.515625 -11.234375 L 6.25 0 Z M 4.265625 0 "/></g></g></g><g fill="#ffffff" fill-opacity="1"><g transform="translate(203.84398, 154.655731)"><g><path d="M 6.546875 0.203125 C 4.890625 0.203125 3.578125 -0.300781 2.609375 -1.3125 C 1.648438 -2.320312 1.171875 -3.726562 1.171875 -5.53125 C 1.171875 -7.34375 1.617188 -8.78125 2.515625 -9.84375 C 3.410156 -10.90625 4.609375 -11.4375 6.109375 -11.4375 C 7.515625 -11.4375 8.628906 -10.972656 9.453125 -10.046875 C 10.273438 -9.128906 10.6875 -7.910156 10.6875 -6.390625 L 10.6875 -5.3125 L 2.9375 -5.3125 C 2.976562 -3.988281 3.3125 -2.984375 3.9375 -2.296875 C 4.570312 -1.617188 5.460938 -1.28125 6.609375 -1.28125 C 7.816406 -1.28125 9.015625 -1.535156 10.203125 -2.046875 L 10.203125 -0.515625 C 9.597656 -0.265625 9.023438 -0.0820312 8.484375 0.03125 C 7.953125 0.144531 7.304688 0.203125 6.546875 0.203125 Z M 6.09375 -10.015625 C 5.1875 -10.015625 4.460938 -9.71875 3.921875 -9.125 C 3.390625 -8.539062 3.078125 -7.734375 2.984375 -6.703125 L 8.859375 -6.703125 C 8.859375 -7.773438 8.617188 -8.59375 8.140625 -9.15625 C 7.660156 -9.726562 6.976562 -10.015625 6.09375 -10.015625 Z M 6.09375 -10.015625 "/></g></g></g><g fill="#ffffff" fill-opacity="1"><g transform="translate(42.175782, 183.905729)"><g><path d="M 11.5 -5.625 C 11.5 -3.789062 11.035156 -2.359375 10.109375 -1.328125 C 9.191406 -0.304688 7.921875 0.203125 6.296875 0.203125 C 5.285156 0.203125 4.390625 -0.03125 3.609375 -0.5 C 2.835938 -0.96875 2.238281 -1.644531 1.8125 -2.53125 C 1.382812 -3.414062 1.171875 -4.445312 1.171875 -5.625 C 1.171875 -7.457031 1.628906 -8.882812 2.546875 -9.90625 C 3.460938 -10.925781 4.738281 -11.4375 6.375 -11.4375 C 7.9375 -11.4375 9.179688 -10.914062 10.109375 -9.875 C 11.035156 -8.832031 11.5 -7.414062 11.5 -5.625 Z M 2.9375 -5.625 C 2.9375 -4.1875 3.222656 -3.09375 3.796875 -2.34375 C 4.378906 -1.59375 5.226562 -1.21875 6.34375 -1.21875 C 7.457031 -1.21875 8.300781 -1.59375 8.875 -2.34375 C 9.445312 -3.09375 9.734375 -4.1875 9.734375 -5.625 C 9.734375 -7.050781 9.445312 -8.132812 8.875 -8.875 C 8.300781 -9.625 7.445312 -10 6.3125 -10 C 5.195312 -10 4.351562 -9.628906 3.78125 -8.890625 C 3.21875 -8.160156 2.9375 -7.070312 2.9375 -5.625 Z M 2.9375 -5.625 "/></g></g></g><g fill="#ffffff" fill-opacity="1"><g transform="translate(54.85279, 183.905729)"><g><path d="M 6.9375 -11.4375 C 7.4375 -11.4375 7.882812 -11.398438 8.28125 -11.328125 L 8.046875 -9.734375 C 7.578125 -9.835938 7.164062 -9.890625 6.8125 -9.890625 C 5.894531 -9.890625 5.113281 -9.519531 4.46875 -8.78125 C 3.820312 -8.050781 3.5 -7.132812 3.5 -6.03125 L 3.5 0 L 1.8125 0 L 1.8125 -11.234375 L 3.203125 -11.234375 L 3.40625 -9.15625 L 3.484375 -9.15625 C 3.898438 -9.882812 4.398438 -10.445312 4.984375 -10.84375 C 5.578125 -11.238281 6.226562 -11.4375 6.9375 -11.4375 Z M 6.9375 -11.4375 "/></g></g></g><g fill="#ffffff" fill-opacity="1"><g transform="translate(63.420271, 183.905729)"><g/></g></g><g fill="#ffffff" fill-opacity="1"><g transform="translate(68.872305, 183.905729)"><g><path d="M 6.296875 0.203125 C 4.671875 0.203125 3.410156 -0.296875 2.515625 -1.296875 C 1.617188 -2.296875 1.171875 -3.710938 1.171875 -5.546875 C 1.171875 -7.429688 1.625 -8.882812 2.53125 -9.90625 C 3.4375 -10.925781 4.726562 -11.4375 6.40625 -11.4375 C 6.945312 -11.4375 7.488281 -11.378906 8.03125 -11.265625 C 8.570312 -11.148438 8.992188 -11.015625 9.296875 -10.859375 L 8.78125 -9.40625 C 8.40625 -9.5625 7.992188 -9.6875 7.546875 -9.78125 C 7.097656 -9.882812 6.707031 -9.9375 6.375 -9.9375 C 4.082031 -9.9375 2.9375 -8.476562 2.9375 -5.5625 C 2.9375 -4.1875 3.210938 -3.128906 3.765625 -2.390625 C 4.328125 -1.648438 5.15625 -1.28125 6.25 -1.28125 C 7.1875 -1.28125 8.148438 -1.484375 9.140625 -1.890625 L 9.140625 -0.375 C 8.390625 0.0078125 7.441406 0.203125 6.296875 0.203125 Z M 6.296875 0.203125 "/></g></g></g><g fill="#ffffff" fill-opacity="1"><g transform="translate(78.86429, 183.905729)"><g><path d="M 8.71875 0 L 8.375 -1.59375 L 8.296875 -1.59375 C 7.734375 -0.894531 7.171875 -0.421875 6.609375 -0.171875 C 6.054688 0.078125 5.363281 0.203125 4.53125 0.203125 C 3.414062 0.203125 2.539062 -0.0820312 1.90625 -0.65625 C 1.28125 -1.226562 0.96875 -2.046875 0.96875 -3.109375 C 0.96875 -5.378906 2.78125 -6.566406 6.40625 -6.671875 L 8.3125 -6.734375 L 8.3125 -7.4375 C 8.3125 -8.3125 8.117188 -8.957031 7.734375 -9.375 C 7.359375 -9.800781 6.753906 -10.015625 5.921875 -10.015625 C 4.984375 -10.015625 3.925781 -9.726562 2.75 -9.15625 L 2.21875 -10.453125 C 2.78125 -10.753906 3.390625 -10.988281 4.046875 -11.15625 C 4.703125 -11.332031 5.363281 -11.421875 6.03125 -11.421875 C 7.375 -11.421875 8.367188 -11.125 9.015625 -10.53125 C 9.660156 -9.9375 9.984375 -8.984375 9.984375 -7.671875 L 9.984375 0 Z M 4.875 -1.203125 C 5.925781 -1.203125 6.753906 -1.488281 7.359375 -2.0625 C 7.972656 -2.644531 8.28125 -3.460938 8.28125 -4.515625 L 8.28125 -5.53125 L 6.578125 -5.453125 C 5.222656 -5.410156 4.242188 -5.203125 3.640625 -4.828125 C 3.046875 -4.453125 2.75 -3.875 2.75 -3.09375 C 2.75 -2.46875 2.929688 -1.992188 3.296875 -1.671875 C 3.671875 -1.359375 4.195312 -1.203125 4.875 -1.203125 Z M 4.875 -1.203125 "/></g></g></g><g fill="#ffffff" fill-opacity="1"><g transform="translate(90.536976, 183.905729)"><g><path d="M 6.9375 -11.4375 C 7.4375 -11.4375 7.882812 -11.398438 8.28125 -11.328125 L 8.046875 -9.734375 C 7.578125 -9.835938 7.164062 -9.890625 6.8125 -9.890625 C 5.894531 -9.890625 5.113281 -9.519531 4.46875 -8.78125 C 3.820312 -8.050781 3.5 -7.132812 3.5 -6.03125 L 3.5 0 L 1.8125 0 L 1.8125 -11.234375 L 3.203125 -11.234375 L 3.40625 -9.15625 L 3.484375 -9.15625 C 3.898438 -9.882812 4.398438 -10.445312 4.984375 -10.84375 C 5.578125 -11.238281 6.226562 -11.4375 6.9375 -11.4375 Z M 6.9375 -11.4375 "/></g></g></g><g fill="#ffffff" fill-opacity="1"><g transform="translate(99.104458, 183.905729)"><g><path d="M 6.546875 0.203125 C 4.890625 0.203125 3.578125 -0.300781 2.609375 -1.3125 C 1.648438 -2.320312 1.171875 -3.726562 1.171875 -5.53125 C 1.171875 -7.34375 1.617188 -8.78125 2.515625 -9.84375 C 3.410156 -10.90625 4.609375 -11.4375 6.109375 -11.4375 C 7.515625 -11.4375 8.628906 -10.972656 9.453125 -10.046875 C 10.273438 -9.128906 10.6875 -7.910156 10.6875 -6.390625 L 10.6875 -5.3125 L 2.9375 -5.3125 C 2.976562 -3.988281 3.3125 -2.984375 3.9375 -2.296875 C 4.570312 -1.617188 5.460938 -1.28125 6.609375 -1.28125 C 7.816406 -1.28125 9.015625 -1.535156 10.203125 -2.046875 L 10.203125 -0.515625 C 9.597656 -0.265625 9.023438 -0.0820312 8.484375 0.03125 C 7.953125 0.144531 7.304688 0.203125 6.546875 0.203125 Z M 6.09375 -10.015625 C 5.1875 -10.015625 4.460938 -9.71875 3.921875 -9.125 C 3.390625 -8.539062 3.078125 -7.734375 2.984375 -6.703125 L 8.859375 -6.703125 C 8.859375 -7.773438 8.617188 -8.59375 8.140625 -9.15625 C 7.660156 -9.726562 6.976562 -10.015625 6.09375 -10.015625 Z M 6.09375 -10.015625 "/></g></g></g><g fill="#ffffff" fill-opacity="1"><g transform="translate(110.879626, 183.905729)"><g/></g></g><g fill="#ffffff" fill-opacity="1"><g transform="translate(116.33166, 183.905729)"><g><path d="M 8.71875 0 L 8.375 -1.59375 L 8.296875 -1.59375 C 7.734375 -0.894531 7.171875 -0.421875 6.609375 -0.171875 C 6.054688 0.078125 5.363281 0.203125 4.53125 0.203125 C 3.414062 0.203125 2.539062 -0.0820312 1.90625 -0.65625 C 1.28125 -1.226562 0.96875 -2.046875 0.96875 -3.109375 C 0.96875 -5.378906 2.78125 -6.566406 6.40625 -6.671875 L 8.3125 -6.734375 L 8.3125 -7.4375 C 8.3125 -8.3125 8.117188 -8.957031 7.734375 -9.375 C 7.359375 -9.800781 6.753906 -10.015625 5.921875 -10.015625 C 4.984375 -10.015625 3.925781 -9.726562 2.75 -9.15625 L 2.21875 -10.453125 C 2.78125 -10.753906 3.390625 -10.988281 4.046875 -11.15625 C 4.703125 -11.332031 5.363281 -11.421875 6.03125 -11.421875 C 7.375 -11.421875 8.367188 -11.125 9.015625 -10.53125 C 9.660156 -9.9375 9.984375 -8.984375 9.984375 -7.671875 L 9.984375 0 Z M 4.875 -1.203125 C 5.925781 -1.203125 6.753906 -1.488281 7.359375 -2.0625 C 7.972656 -2.644531 8.28125 -3.460938 8.28125 -4.515625 L 8.28125 -5.53125 L 6.578125 -5.453125 C 5.222656 -5.410156 4.242188 -5.203125 3.640625 -4.828125 C 3.046875 -4.453125 2.75 -3.875 2.75 -3.09375 C 2.75 -2.46875 2.929688 -1.992188 3.296875 -1.671875 C 3.671875 -1.359375 4.195312 -1.203125 4.875 -1.203125 Z M 4.875 -1.203125 "/></g></g></g><g fill="#ffffff" fill-opacity="1"><g transform="translate(128.004346, 183.905729)"><g><path d="M 7.03125 -11.421875 C 8.507812 -11.421875 9.65625 -10.914062 10.46875 -9.90625 C 11.289062 -8.894531 11.703125 -7.46875 11.703125 -5.625 C 11.703125 -3.78125 11.289062 -2.347656 10.46875 -1.328125 C 9.644531 -0.304688 8.5 0.203125 7.03125 0.203125 C 6.300781 0.203125 5.632812 0.0664062 5.03125 -0.203125 C 4.425781 -0.472656 3.914062 -0.890625 3.5 -1.453125 L 3.390625 -1.453125 L 3.03125 0 L 1.8125 0 L 1.8125 -15.953125 L 3.5 -15.953125 L 3.5 -12.078125 C 3.5 -11.210938 3.472656 -10.429688 3.421875 -9.734375 L 3.5 -9.734375 C 4.300781 -10.859375 5.476562 -11.421875 7.03125 -11.421875 Z M 6.78125 -10 C 5.625 -10 4.785156 -9.664062 4.265625 -9 C 3.753906 -8.332031 3.5 -7.207031 3.5 -5.625 C 3.5 -4.050781 3.765625 -2.921875 4.296875 -2.234375 C 4.828125 -1.554688 5.671875 -1.21875 6.828125 -1.21875 C 7.867188 -1.21875 8.644531 -1.597656 9.15625 -2.359375 C 9.675781 -3.117188 9.9375 -4.21875 9.9375 -5.65625 C 9.9375 -7.113281 9.675781 -8.203125 9.15625 -8.921875 C 8.644531 -9.640625 7.851562 -10 6.78125 -10 Z M 6.78125 -10 "/></g></g></g><g fill="#ffffff" fill-opacity="1"><g transform="translate(140.865822, 183.905729)"><g><path d="M 11.5 -5.625 C 11.5 -3.789062 11.035156 -2.359375 10.109375 -1.328125 C 9.191406 -0.304688 7.921875 0.203125 6.296875 0.203125 C 5.285156 0.203125 4.390625 -0.03125 3.609375 -0.5 C 2.835938 -0.96875 2.238281 -1.644531 1.8125 -2.53125 C 1.382812 -3.414062 1.171875 -4.445312 1.171875 -5.625 C 1.171875 -7.457031 1.628906 -8.882812 2.546875 -9.90625 C 3.460938 -10.925781 4.738281 -11.4375 6.375 -11.4375 C 7.9375 -11.4375 9.179688 -10.914062 10.109375 -9.875 C 11.035156 -8.832031 11.5 -7.414062 11.5 -5.625 Z M 2.9375 -5.625 C 2.9375 -4.1875 3.222656 -3.09375 3.796875 -2.34375 C 4.378906 -1.59375 5.226562 -1.21875 6.34375 -1.21875 C 7.457031 -1.21875 8.300781 -1.59375 8.875 -2.34375 C 9.445312 -3.09375 9.734375 -4.1875 9.734375 -5.625 C 9.734375 -7.050781 9.445312 -8.132812 8.875 -8.875 C 8.300781 -9.625 7.445312 -10 6.3125 -10 C 5.195312 -10 4.351562 -9.628906 3.78125 -8.890625 C 3.21875 -8.160156 2.9375 -7.070312 2.9375 -5.625 Z M 2.9375 -5.625 "/></g></g></g><g fill="#ffffff" fill-opacity="1"><g transform="translate(153.54283, 183.905729)"><g><path d="M 3.40625 -11.234375 L 3.40625 -3.953125 C 3.40625 -3.035156 3.613281 -2.347656 4.03125 -1.890625 C 4.445312 -1.441406 5.097656 -1.21875 5.984375 -1.21875 C 7.160156 -1.21875 8.019531 -1.535156 8.5625 -2.171875 C 9.101562 -2.816406 9.375 -3.867188 9.375 -5.328125 L 9.375 -11.234375 L 11.078125 -11.234375 L 11.078125 0 L 9.6875 0 L 9.4375 -1.5 L 9.34375 -1.5 C 8.988281 -0.945312 8.503906 -0.523438 7.890625 -0.234375 C 7.273438 0.0546875 6.566406 0.203125 5.765625 0.203125 C 4.398438 0.203125 3.378906 -0.117188 2.703125 -0.765625 C 2.023438 -1.421875 1.6875 -2.460938 1.6875 -3.890625 L 1.6875 -11.234375 Z M 3.40625 -11.234375 "/></g></g></g><g fill="#ffffff" fill-opacity="1"><g transform="translate(166.424802, 183.905729)"><g><path d="M 5.4375 -1.203125 C 5.738281 -1.203125 6.03125 -1.222656 6.3125 -1.265625 C 6.59375 -1.304688 6.8125 -1.351562 6.96875 -1.40625 L 6.96875 -0.109375 C 6.789062 -0.015625 6.519531 0.0546875 6.15625 0.109375 C 5.800781 0.171875 5.476562 0.203125 5.1875 0.203125 C 3.007812 0.203125 1.921875 -0.941406 1.921875 -3.234375 L 1.921875 -9.921875 L 0.3125 -9.921875 L 0.3125 -10.734375 L 1.921875 -11.4375 L 2.640625 -13.84375 L 3.625 -13.84375 L 3.625 -11.234375 L 6.890625 -11.234375 L 6.890625 -9.921875 L 3.625 -9.921875 L 3.625 -3.296875 C 3.625 -2.617188 3.785156 -2.097656 4.109375 -1.734375 C 4.429688 -1.378906 4.875 -1.203125 5.4375 -1.203125 Z M 5.4375 -1.203125 "/></g></g></g><g fill="#ffffff" fill-opacity="1"><g transform="translate(48.996094, 213.155726)"><g><path d="M 9.046875 -3.0625 C 9.046875 -2.019531 8.65625 -1.210938 7.875 -0.640625 C 7.101562 -0.078125 6.015625 0.203125 4.609375 0.203125 C 3.117188 0.203125 1.957031 -0.03125 1.125 -0.5 L 1.125 -2.078125 C 1.65625 -1.804688 2.226562 -1.59375 2.84375 -1.4375 C 3.46875 -1.28125 4.066406 -1.203125 4.640625 -1.203125 C 5.535156 -1.203125 6.21875 -1.34375 6.6875 -1.625 C 7.164062 -1.90625 7.40625 -2.335938 7.40625 -2.921875 C 7.40625 -3.359375 7.21875 -3.734375 6.84375 -4.046875 C 6.46875 -4.359375 5.726562 -4.722656 4.625 -5.140625 C 3.582031 -5.535156 2.835938 -5.878906 2.390625 -6.171875 C 1.953125 -6.460938 1.625 -6.789062 1.40625 -7.15625 C 1.195312 -7.53125 1.09375 -7.972656 1.09375 -8.484375 C 1.09375 -9.398438 1.460938 -10.117188 2.203125 -10.640625 C 2.953125 -11.171875 3.972656 -11.4375 5.265625 -11.4375 C 6.472656 -11.4375 7.65625 -11.191406 8.8125 -10.703125 L 8.21875 -9.328125 C 7.082031 -9.785156 6.054688 -10.015625 5.140625 -10.015625 C 4.335938 -10.015625 3.726562 -9.890625 3.3125 -9.640625 C 2.90625 -9.390625 2.703125 -9.039062 2.703125 -8.59375 C 2.703125 -8.289062 2.78125 -8.03125 2.9375 -7.8125 C 3.09375 -7.601562 3.335938 -7.40625 3.671875 -7.21875 C 4.015625 -7.03125 4.675781 -6.753906 5.65625 -6.390625 C 6.988281 -5.898438 7.882812 -5.410156 8.34375 -4.921875 C 8.8125 -4.429688 9.046875 -3.8125 9.046875 -3.0625 Z M 9.046875 -3.0625 "/></g></g></g><g fill="#ffffff" fill-opacity="1"><g transform="translate(59.008575, 213.155726)"><g><path d="M 11.5 -5.625 C 11.5 -3.789062 11.035156 -2.359375 10.109375 -1.328125 C 9.191406 -0.304688 7.921875 0.203125 6.296875 0.203125 C 5.285156 0.203125 4.390625 -0.03125 3.609375 -0.5 C 2.835938 -0.96875 2.238281 -1.644531 1.8125 -2.53125 C 1.382812 -3.414062 1.171875 -4.445312 1.171875 -5.625 C 1.171875 -7.457031 1.628906 -8.882812 2.546875 -9.90625 C 3.460938 -10.925781 4.738281 -11.4375 6.375 -11.4375 C 7.9375 -11.4375 9.179688 -10.914062 10.109375 -9.875 C 11.035156 -8.832031 11.5 -7.414062 11.5 -5.625 Z M 2.9375 -5.625 C 2.9375 -4.1875 3.222656 -3.09375 3.796875 -2.34375 C 4.378906 -1.59375 5.226562 -1.21875 6.34375 -1.21875 C 7.457031 -1.21875 8.300781 -1.59375 8.875 -2.34375 C 9.445312 -3.09375 9.734375 -4.1875 9.734375 -5.625 C 9.734375 -7.050781 9.445312 -8.132812 8.875 -8.875 C 8.300781 -9.625 7.445312 -10 6.3125 -10 C 5.195312 -10 4.351562 -9.628906 3.78125 -8.890625 C 3.21875 -8.160156 2.9375 -7.070312 2.9375 -5.625 Z M 2.9375 -5.625 "/></g></g></g><g fill="#ffffff" fill-opacity="1"><g transform="translate(71.685583, 213.155726)"><g><path d="M 16.125 0 L 16.125 -7.3125 C 16.125 -8.207031 15.929688 -8.878906 15.546875 -9.328125 C 15.171875 -9.773438 14.578125 -10 13.765625 -10 C 12.710938 -10 11.929688 -9.691406 11.421875 -9.078125 C 10.921875 -8.472656 10.671875 -7.539062 10.671875 -6.28125 L 10.671875 0 L 8.96875 0 L 8.96875 -7.3125 C 8.96875 -8.207031 8.773438 -8.878906 8.390625 -9.328125 C 8.003906 -9.773438 7.40625 -10 6.59375 -10 C 5.53125 -10 4.75 -9.675781 4.25 -9.03125 C 3.75 -8.394531 3.5 -7.347656 3.5 -5.890625 L 3.5 0 L 1.8125 0 L 1.8125 -11.234375 L 3.1875 -11.234375 L 3.46875 -9.703125 L 3.546875 -9.703125 C 3.867188 -10.242188 4.320312 -10.664062 4.90625 -10.96875 C 5.488281 -11.28125 6.144531 -11.4375 6.875 -11.4375 C 8.625 -11.4375 9.769531 -10.800781 10.3125 -9.53125 L 10.390625 -9.53125 C 10.734375 -10.125 11.222656 -10.585938 11.859375 -10.921875 C 12.492188 -11.265625 13.21875 -11.4375 14.03125 -11.4375 C 15.300781 -11.4375 16.25 -11.109375 16.875 -10.453125 C 17.507812 -9.804688 17.828125 -8.765625 17.828125 -7.328125 L 17.828125 0 Z M 16.125 0 "/></g></g></g><g fill="#ffffff" fill-opacity="1"><g transform="translate(91.208379, 213.155726)"><g><path d="M 6.546875 0.203125 C 4.890625 0.203125 3.578125 -0.300781 2.609375 -1.3125 C 1.648438 -2.320312 1.171875 -3.726562 1.171875 -5.53125 C 1.171875 -7.34375 1.617188 -8.78125 2.515625 -9.84375 C 3.410156 -10.90625 4.609375 -11.4375 6.109375 -11.4375 C 7.515625 -11.4375 8.628906 -10.972656 9.453125 -10.046875 C 10.273438 -9.128906 10.6875 -7.910156 10.6875 -6.390625 L 10.6875 -5.3125 L 2.9375 -5.3125 C 2.976562 -3.988281 3.3125 -2.984375 3.9375 -2.296875 C 4.570312 -1.617188 5.460938 -1.28125 6.609375 -1.28125 C 7.816406 -1.28125 9.015625 -1.535156 10.203125 -2.046875 L 10.203125 -0.515625 C 9.597656 -0.265625 9.023438 -0.0820312 8.484375 0.03125 C 7.953125 0.144531 7.304688 0.203125 6.546875 0.203125 Z M 6.09375 -10.015625 C 5.1875 -10.015625 4.460938 -9.71875 3.921875 -9.125 C 3.390625 -8.539062 3.078125 -7.734375 2.984375 -6.703125 L 8.859375 -6.703125 C 8.859375 -7.773438 8.617188 -8.59375 8.140625 -9.15625 C 7.660156 -9.726562 6.976562 -10.015625 6.09375 -10.015625 Z M 6.09375 -10.015625 "/></g></g></g><g fill="#ffffff" fill-opacity="1"><g transform="translate(102.983547, 213.155726)"><g><path d="M 11.5 -5.625 C 11.5 -3.789062 11.035156 -2.359375 10.109375 -1.328125 C 9.191406 -0.304688 7.921875 0.203125 6.296875 0.203125 C 5.285156 0.203125 4.390625 -0.03125 3.609375 -0.5 C 2.835938 -0.96875 2.238281 -1.644531 1.8125 -2.53125 C 1.382812 -3.414062 1.171875 -4.445312 1.171875 -5.625 C 1.171875 -7.457031 1.628906 -8.882812 2.546875 -9.90625 C 3.460938 -10.925781 4.738281 -11.4375 6.375 -11.4375 C 7.9375 -11.4375 9.179688 -10.914062 10.109375 -9.875 C 11.035156 -8.832031 11.5 -7.414062 11.5 -5.625 Z M 2.9375 -5.625 C 2.9375 -4.1875 3.222656 -3.09375 3.796875 -2.34375 C 4.378906 -1.59375 5.226562 -1.21875 6.34375 -1.21875 C 7.457031 -1.21875 8.300781 -1.59375 8.875 -2.34375 C 9.445312 -3.09375 9.734375 -4.1875 9.734375 -5.625 C 9.734375 -7.050781 9.445312 -8.132812 8.875 -8.875 C 8.300781 -9.625 7.445312 -10 6.3125 -10 C 5.195312 -10 4.351562 -9.628906 3.78125 -8.890625 C 3.21875 -8.160156 2.9375 -7.070312 2.9375 -5.625 Z M 2.9375 -5.625 "/></g></g></g><g fill="#ffffff" fill-opacity="1"><g transform="translate(115.660555, 213.155726)"><g><path d="M 9.5 0 L 9.5 -7.265625 C 9.5 -8.179688 9.289062 -8.863281 8.875 -9.3125 C 8.457031 -9.769531 7.800781 -10 6.90625 -10 C 5.726562 -10 4.863281 -9.679688 4.3125 -9.046875 C 3.769531 -8.410156 3.5 -7.359375 3.5 -5.890625 L 3.5 0 L 1.8125 0 L 1.8125 -11.234375 L 3.1875 -11.234375 L 3.46875 -9.703125 L 3.546875 -9.703125 C 3.898438 -10.253906 4.390625 -10.679688 5.015625 -10.984375 C 5.640625 -11.285156 6.335938 -11.4375 7.109375 -11.4375 C 8.460938 -11.4375 9.484375 -11.109375 10.171875 -10.453125 C 10.859375 -9.804688 11.203125 -8.765625 11.203125 -7.328125 L 11.203125 0 Z M 9.5 0 "/></g></g></g><g fill="#ffffff" fill-opacity="1"><g transform="translate(128.542527, 213.155726)"><g><path d="M 6.546875 0.203125 C 4.890625 0.203125 3.578125 -0.300781 2.609375 -1.3125 C 1.648438 -2.320312 1.171875 -3.726562 1.171875 -5.53125 C 1.171875 -7.34375 1.617188 -8.78125 2.515625 -9.84375 C 3.410156 -10.90625 4.609375 -11.4375 6.109375 -11.4375 C 7.515625 -11.4375 8.628906 -10.972656 9.453125 -10.046875 C 10.273438 -9.128906 10.6875 -7.910156 10.6875 -6.390625 L 10.6875 -5.3125 L 2.9375 -5.3125 C 2.976562 -3.988281 3.3125 -2.984375 3.9375 -2.296875 C 4.570312 -1.617188 5.460938 -1.28125 6.609375 -1.28125 C 7.816406 -1.28125 9.015625 -1.535156 10.203125 -2.046875 L 10.203125 -0.515625 C 9.597656 -0.265625 9.023438 -0.0820312 8.484375 0.03125 C 7.953125 0.144531 7.304688 0.203125 6.546875 0.203125 Z M 6.09375 -10.015625 C 5.1875 -10.015625 4.460938 -9.71875 3.921875 -9.125 C 3.390625 -8.539062 3.078125 -7.734375 2.984375 -6.703125 L 8.859375 -6.703125 C 8.859375 -7.773438 8.617188 -8.59375 8.140625 -9.15625 C 7.660156 -9.726562 6.976562 -10.015625 6.09375 -10.015625 Z M 6.09375 -10.015625 "/></g></g></g><g fill="#ffffff" fill-opacity="1"><g transform="translate(140.317696, 213.155726)"><g/></g></g><g fill="#ffffff" fill-opacity="1"><g transform="translate(145.769729, 213.155726)"><g><path d="M 11.5 -5.625 C 11.5 -3.789062 11.035156 -2.359375 10.109375 -1.328125 C 9.191406 -0.304688 7.921875 0.203125 6.296875 0.203125 C 5.285156 0.203125 4.390625 -0.03125 3.609375 -0.5 C 2.835938 -0.96875 2.238281 -1.644531 1.8125 -2.53125 C 1.382812 -3.414062 1.171875 -4.445312 1.171875 -5.625 C 1.171875 -7.457031 1.628906 -8.882812 2.546875 -9.90625 C 3.460938 -10.925781 4.738281 -11.4375 6.375 -11.4375 C 7.9375 -11.4375 9.179688 -10.914062 10.109375 -9.875 C 11.035156 -8.832031 11.5 -7.414062 11.5 -5.625 Z M 2.9375 -5.625 C 2.9375 -4.1875 3.222656 -3.09375 3.796875 -2.34375 C 4.378906 -1.59375 5.226562 -1.21875 6.34375 -1.21875 C 7.457031 -1.21875 8.300781 -1.59375 8.875 -2.34375 C 9.445312 -3.09375 9.734375 -4.1875 9.734375 -5.625 C 9.734375 -7.050781 9.445312 -8.132812 8.875 -8.875 C 8.300781 -9.625 7.445312 -10 6.3125 -10 C 5.195312 -10 4.351562 -9.628906 3.78125 -8.890625 C 3.21875 -8.160156 2.9375 -7.070312 2.9375 -5.625 Z M 2.9375 -5.625 "/></g></g></g><g fill="#ffffff" fill-opacity="1"><g transform="translate(158.446737, 213.155726)"><g><path d="M 6.9375 -11.4375 C 7.4375 -11.4375 7.882812 -11.398438 8.28125 -11.328125 L 8.046875 -9.734375 C 7.578125 -9.835938 7.164062 -9.890625 6.8125 -9.890625 C 5.894531 -9.890625 5.113281 -9.519531 4.46875 -8.78125 C 3.820312 -8.050781 3.5 -7.132812 3.5 -6.03125 L 3.5 0 L 1.8125 0 L 1.8125 -11.234375 L 3.203125 -11.234375 L 3.40625 -9.15625 L 3.484375 -9.15625 C 3.898438 -9.882812 4.398438 -10.445312 4.984375 -10.84375 C 5.578125 -11.238281 6.226562 -11.4375 6.9375 -11.4375 Z M 6.9375 -11.4375 "/></g></g></g><g fill="#ffffff" fill-opacity="1"><g transform="translate(6.97266, 242.405724)"><g><path d="M 9.046875 -3.0625 C 9.046875 -2.019531 8.65625 -1.210938 7.875 -0.640625 C 7.101562 -0.078125 6.015625 0.203125 4.609375 0.203125 C 3.117188 0.203125 1.957031 -0.03125 1.125 -0.5 L 1.125 -2.078125 C 1.65625 -1.804688 2.226562 -1.59375 2.84375 -1.4375 C 3.46875 -1.28125 4.066406 -1.203125 4.640625 -1.203125 C 5.535156 -1.203125 6.21875 -1.34375 6.6875 -1.625 C 7.164062 -1.90625 7.40625 -2.335938 7.40625 -2.921875 C 7.40625 -3.359375 7.21875 -3.734375 6.84375 -4.046875 C 6.46875 -4.359375 5.726562 -4.722656 4.625 -5.140625 C 3.582031 -5.535156 2.835938 -5.878906 2.390625 -6.171875 C 1.953125 -6.460938 1.625 -6.789062 1.40625 -7.15625 C 1.195312 -7.53125 1.09375 -7.972656 1.09375 -8.484375 C 1.09375 -9.398438 1.460938 -10.117188 2.203125 -10.640625 C 2.953125 -11.171875 3.972656 -11.4375 5.265625 -11.4375 C 6.472656 -11.4375 7.65625 -11.191406 8.8125 -10.703125 L 8.21875 -9.328125 C 7.082031 -9.785156 6.054688 -10.015625 5.140625 -10.015625 C 4.335938 -10.015625 3.726562 -9.890625 3.3125 -9.640625 C 2.90625 -9.390625 2.703125 -9.039062 2.703125 -8.59375 C 2.703125 -8.289062 2.78125 -8.03125 2.9375 -7.8125 C 3.09375 -7.601562 3.335938 -7.40625 3.671875 -7.21875 C 4.015625 -7.03125 4.675781 -6.753906 5.65625 -6.390625 C 6.988281 -5.898438 7.882812 -5.410156 8.34375 -4.921875 C 8.8125 -4.429688 9.046875 -3.8125 9.046875 -3.0625 Z M 9.046875 -3.0625 "/></g></g></g><g fill="#ffffff" fill-opacity="1"><g transform="translate(16.985141, 242.405724)"><g><path d="M 11.5 -5.625 C 11.5 -3.789062 11.035156 -2.359375 10.109375 -1.328125 C 9.191406 -0.304688 7.921875 0.203125 6.296875 0.203125 C 5.285156 0.203125 4.390625 -0.03125 3.609375 -0.5 C 2.835938 -0.96875 2.238281 -1.644531 1.8125 -2.53125 C 1.382812 -3.414062 1.171875 -4.445312 1.171875 -5.625 C 1.171875 -7.457031 1.628906 -8.882812 2.546875 -9.90625 C 3.460938 -10.925781 4.738281 -11.4375 6.375 -11.4375 C 7.9375 -11.4375 9.179688 -10.914062 10.109375 -9.875 C 11.035156 -8.832031 11.5 -7.414062 11.5 -5.625 Z M 2.9375 -5.625 C 2.9375 -4.1875 3.222656 -3.09375 3.796875 -2.34375 C 4.378906 -1.59375 5.226562 -1.21875 6.34375 -1.21875 C 7.457031 -1.21875 8.300781 -1.59375 8.875 -2.34375 C 9.445312 -3.09375 9.734375 -4.1875 9.734375 -5.625 C 9.734375 -7.050781 9.445312 -8.132812 8.875 -8.875 C 8.300781 -9.625 7.445312 -10 6.3125 -10 C 5.195312 -10 4.351562 -9.628906 3.78125 -8.890625 C 3.21875 -8.160156 2.9375 -7.070312 2.9375 -5.625 Z M 2.9375 -5.625 "/></g></g></g><g fill="#ffffff" fill-opacity="1"><g transform="translate(29.662149, 242.405724)"><g><path d="M 16.125 0 L 16.125 -7.3125 C 16.125 -8.207031 15.929688 -8.878906 15.546875 -9.328125 C 15.171875 -9.773438 14.578125 -10 13.765625 -10 C 12.710938 -10 11.929688 -9.691406 11.421875 -9.078125 C 10.921875 -8.472656 10.671875 -7.539062 10.671875 -6.28125 L 10.671875 0 L 8.96875 0 L 8.96875 -7.3125 C 8.96875 -8.207031 8.773438 -8.878906 8.390625 -9.328125 C 8.003906 -9.773438 7.40625 -10 6.59375 -10 C 5.53125 -10 4.75 -9.675781 4.25 -9.03125 C 3.75 -8.394531 3.5 -7.347656 3.5 -5.890625 L 3.5 0 L 1.8125 0 L 1.8125 -11.234375 L 3.1875 -11.234375 L 3.46875 -9.703125 L 3.546875 -9.703125 C 3.867188 -10.242188 4.320312 -10.664062 4.90625 -10.96875 C 5.488281 -11.28125 6.144531 -11.4375 6.875 -11.4375 C 8.625 -11.4375 9.769531 -10.800781 10.3125 -9.53125 L 10.390625 -9.53125 C 10.734375 -10.125 11.222656 -10.585938 11.859375 -10.921875 C 12.492188 -11.265625 13.21875 -11.4375 14.03125 -11.4375 C 15.300781 -11.4375 16.25 -11.109375 16.875 -10.453125 C 17.507812 -9.804688 17.828125 -8.765625 17.828125 -7.328125 L 17.828125 0 Z M 16.125 0 "/></g></g></g><g fill="#ffffff" fill-opacity="1"><g transform="translate(49.184944, 242.405724)"><g><path d="M 6.546875 0.203125 C 4.890625 0.203125 3.578125 -0.300781 2.609375 -1.3125 C 1.648438 -2.320312 1.171875 -3.726562 1.171875 -5.53125 C 1.171875 -7.34375 1.617188 -8.78125 2.515625 -9.84375 C 3.410156 -10.90625 4.609375 -11.4375 6.109375 -11.4375 C 7.515625 -11.4375 8.628906 -10.972656 9.453125 -10.046875 C 10.273438 -9.128906 10.6875 -7.910156 10.6875 -6.390625 L 10.6875 -5.3125 L 2.9375 -5.3125 C 2.976562 -3.988281 3.3125 -2.984375 3.9375 -2.296875 C 4.570312 -1.617188 5.460938 -1.28125 6.609375 -1.28125 C 7.816406 -1.28125 9.015625 -1.535156 10.203125 -2.046875 L 10.203125 -0.515625 C 9.597656 -0.265625 9.023438 -0.0820312 8.484375 0.03125 C 7.953125 0.144531 7.304688 0.203125 6.546875 0.203125 Z M 6.09375 -10.015625 C 5.1875 -10.015625 4.460938 -9.71875 3.921875 -9.125 C 3.390625 -8.539062 3.078125 -7.734375 2.984375 -6.703125 L 8.859375 -6.703125 C 8.859375 -7.773438 8.617188 -8.59375 8.140625 -9.15625 C 7.660156 -9.726562 6.976562 -10.015625 6.09375 -10.015625 Z M 6.09375 -10.015625 "/></g></g></g><g fill="#ffffff" fill-opacity="1"><g transform="translate(60.960113, 242.405724)"><g><path d="M 5.4375 -1.203125 C 5.738281 -1.203125 6.03125 -1.222656 6.3125 -1.265625 C 6.59375 -1.304688 6.8125 -1.351562 6.96875 -1.40625 L 6.96875 -0.109375 C 6.789062 -0.015625 6.519531 0.0546875 6.15625 0.109375 C 5.800781 0.171875 5.476562 0.203125 5.1875 0.203125 C 3.007812 0.203125 1.921875 -0.941406 1.921875 -3.234375 L 1.921875 -9.921875 L 0.3125 -9.921875 L 0.3125 -10.734375 L 1.921875 -11.4375 L 2.640625 -13.84375 L 3.625 -13.84375 L 3.625 -11.234375 L 6.890625 -11.234375 L 6.890625 -9.921875 L 3.625 -9.921875 L 3.625 -3.296875 C 3.625 -2.617188 3.785156 -2.097656 4.109375 -1.734375 C 4.429688 -1.378906 4.875 -1.203125 5.4375 -1.203125 Z M 5.4375 -1.203125 "/></g></g></g><g fill="#ffffff" fill-opacity="1"><g transform="translate(68.369555, 242.405724)"><g><path d="M 9.5 0 L 9.5 -7.265625 C 9.5 -8.179688 9.289062 -8.863281 8.875 -9.3125 C 8.457031 -9.769531 7.800781 -10 6.90625 -10 C 5.726562 -10 4.863281 -9.675781 4.3125 -9.03125 C 3.769531 -8.382812 3.5 -7.332031 3.5 -5.875 L 3.5 0 L 1.8125 0 L 1.8125 -15.953125 L 3.5 -15.953125 L 3.5 -11.125 C 3.5 -10.539062 3.472656 -10.0625 3.421875 -9.6875 L 3.53125 -9.6875 C 3.863281 -10.21875 4.335938 -10.640625 4.953125 -10.953125 C 5.578125 -11.265625 6.285156 -11.421875 7.078125 -11.421875 C 8.453125 -11.421875 9.484375 -11.09375 10.171875 -10.4375 C 10.859375 -9.789062 11.203125 -8.753906 11.203125 -7.328125 L 11.203125 0 Z M 9.5 0 "/></g></g></g><g fill="#ffffff" fill-opacity="1"><g transform="translate(81.251527, 242.405724)"><g><path d="M 3.5 0 L 1.8125 0 L 1.8125 -11.234375 L 3.5 -11.234375 Z M 1.65625 -14.28125 C 1.65625 -14.675781 1.75 -14.960938 1.9375 -15.140625 C 2.132812 -15.316406 2.378906 -15.40625 2.671875 -15.40625 C 2.941406 -15.40625 3.175781 -15.3125 3.375 -15.125 C 3.570312 -14.945312 3.671875 -14.664062 3.671875 -14.28125 C 3.671875 -13.894531 3.570312 -13.609375 3.375 -13.421875 C 3.175781 -13.234375 2.941406 -13.140625 2.671875 -13.140625 C 2.378906 -13.140625 2.132812 -13.234375 1.9375 -13.421875 C 1.75 -13.609375 1.65625 -13.894531 1.65625 -14.28125 Z M 1.65625 -14.28125 "/></g></g></g><g fill="#ffffff" fill-opacity="1"><g transform="translate(86.560086, 242.405724)"><g><path d="M 9.5 0 L 9.5 -7.265625 C 9.5 -8.179688 9.289062 -8.863281 8.875 -9.3125 C 8.457031 -9.769531 7.800781 -10 6.90625 -10 C 5.726562 -10 4.863281 -9.679688 4.3125 -9.046875 C 3.769531 -8.410156 3.5 -7.359375 3.5 -5.890625 L 3.5 0 L 1.8125 0 L 1.8125 -11.234375 L 3.1875 -11.234375 L 3.46875 -9.703125 L 3.546875 -9.703125 C 3.898438 -10.253906 4.390625 -10.679688 5.015625 -10.984375 C 5.640625 -11.285156 6.335938 -11.4375 7.109375 -11.4375 C 8.460938 -11.4375 9.484375 -11.109375 10.171875 -10.453125 C 10.859375 -9.804688 11.203125 -8.765625 11.203125 -7.328125 L 11.203125 0 Z M 9.5 0 "/></g></g></g><g fill="#ffffff" fill-opacity="1"><g transform="translate(99.442058, 242.405724)"><g><path d="M 11 -11.234375 L 11 -10.15625 L 8.921875 -9.921875 C 9.109375 -9.679688 9.273438 -9.363281 9.421875 -8.96875 C 9.578125 -8.582031 9.65625 -8.148438 9.65625 -7.671875 C 9.65625 -6.566406 9.28125 -5.6875 8.53125 -5.03125 C 7.78125 -4.375 6.75 -4.046875 5.4375 -4.046875 C 5.101562 -4.046875 4.785156 -4.070312 4.484375 -4.125 C 3.765625 -3.75 3.40625 -3.269531 3.40625 -2.6875 C 3.40625 -2.375 3.53125 -2.144531 3.78125 -2 C 4.03125 -1.851562 4.46875 -1.78125 5.09375 -1.78125 L 7.078125 -1.78125 C 8.296875 -1.78125 9.226562 -1.523438 9.875 -1.015625 C 10.53125 -0.503906 10.859375 0.238281 10.859375 1.21875 C 10.859375 2.46875 10.359375 3.414062 9.359375 4.0625 C 8.359375 4.71875 6.90625 5.046875 5 5.046875 C 3.53125 5.046875 2.394531 4.769531 1.59375 4.21875 C 0.800781 3.675781 0.40625 2.90625 0.40625 1.90625 C 0.40625 1.21875 0.625 0.625 1.0625 0.125 C 1.5 -0.363281 2.113281 -0.695312 2.90625 -0.875 C 2.613281 -1.007812 2.367188 -1.210938 2.171875 -1.484375 C 1.984375 -1.753906 1.890625 -2.070312 1.890625 -2.4375 C 1.890625 -2.851562 2 -3.210938 2.21875 -3.515625 C 2.4375 -3.828125 2.78125 -4.125 3.25 -4.40625 C 2.664062 -4.644531 2.191406 -5.050781 1.828125 -5.625 C 1.460938 -6.195312 1.28125 -6.851562 1.28125 -7.59375 C 1.28125 -8.820312 1.648438 -9.769531 2.390625 -10.4375 C 3.128906 -11.101562 4.175781 -11.4375 5.53125 -11.4375 C 6.113281 -11.4375 6.640625 -11.367188 7.109375 -11.234375 Z M 2.046875 1.890625 C 2.046875 2.492188 2.300781 2.953125 2.8125 3.265625 C 3.320312 3.585938 4.054688 3.75 5.015625 3.75 C 6.441406 3.75 7.5 3.535156 8.1875 3.109375 C 8.875 2.679688 9.21875 2.097656 9.21875 1.359375 C 9.21875 0.753906 9.03125 0.332031 8.65625 0.09375 C 8.28125 -0.132812 7.570312 -0.25 6.53125 -0.25 L 4.484375 -0.25 C 3.710938 -0.25 3.113281 -0.0664062 2.6875 0.296875 C 2.257812 0.660156 2.046875 1.191406 2.046875 1.890625 Z M 2.96875 -7.640625 C 2.96875 -6.847656 3.1875 -6.25 3.625 -5.84375 C 4.070312 -5.445312 4.691406 -5.25 5.484375 -5.25 C 7.148438 -5.25 7.984375 -6.054688 7.984375 -7.671875 C 7.984375 -9.359375 7.140625 -10.203125 5.453125 -10.203125 C 4.648438 -10.203125 4.035156 -9.984375 3.609375 -9.546875 C 3.179688 -9.117188 2.96875 -8.484375 2.96875 -7.640625 Z M 2.96875 -7.640625 "/></g></g></g><g fill="#ffffff" fill-opacity="1"><g transform="translate(110.94052, 242.405724)"><g><path d="M 1.5625 -1.09375 C 1.5625 -1.550781 1.664062 -1.894531 1.875 -2.125 C 2.082031 -2.363281 2.378906 -2.484375 2.765625 -2.484375 C 3.160156 -2.484375 3.46875 -2.363281 3.6875 -2.125 C 3.914062 -1.894531 4.03125 -1.550781 4.03125 -1.09375 C 4.03125 -0.644531 3.914062 -0.300781 3.6875 -0.0625 C 3.46875 0.175781 3.160156 0.296875 2.765625 0.296875 C 2.421875 0.296875 2.132812 0.191406 1.90625 -0.015625 C 1.675781 -0.234375 1.5625 -0.59375 1.5625 -1.09375 Z M 1.5625 -1.09375 "/></g></g></g><g fill="#ffffff" fill-opacity="1"><g transform="translate(116.525786, 242.405724)"><g/></g></g><g fill="#ffffff" fill-opacity="1"><g transform="translate(121.977819, 242.405724)"><g><path d="M 6.671875 0 L 4.9375 0 L 4.9375 -13.4375 L 0.1875 -13.4375 L 0.1875 -14.984375 L 11.421875 -14.984375 L 11.421875 -13.4375 L 6.671875 -13.4375 Z M 6.671875 0 "/></g></g></g><g fill="#ffffff" fill-opacity="1"><g transform="translate(133.589017, 242.405724)"><g><path d="M 9.5 0 L 9.5 -7.265625 C 9.5 -8.179688 9.289062 -8.863281 8.875 -9.3125 C 8.457031 -9.769531 7.800781 -10 6.90625 -10 C 5.726562 -10 4.863281 -9.675781 4.3125 -9.03125 C 3.769531 -8.382812 3.5 -7.332031 3.5 -5.875 L 3.5 0 L 1.8125 0 L 1.8125 -15.953125 L 3.5 -15.953125 L 3.5 -11.125 C 3.5 -10.539062 3.472656 -10.0625 3.421875 -9.6875 L 3.53125 -9.6875 C 3.863281 -10.21875 4.335938 -10.640625 4.953125 -10.953125 C 5.578125 -11.265625 6.285156 -11.421875 7.078125 -11.421875 C 8.453125 -11.421875 9.484375 -11.09375 10.171875 -10.4375 C 10.859375 -9.789062 11.203125 -8.753906 11.203125 -7.328125 L 11.203125 0 Z M 9.5 0 "/></g></g></g><g fill="#ffffff" fill-opacity="1"><g transform="translate(146.470989, 242.405724)"><g><path d="M 3.5 0 L 1.8125 0 L 1.8125 -11.234375 L 3.5 -11.234375 Z M 1.65625 -14.28125 C 1.65625 -14.675781 1.75 -14.960938 1.9375 -15.140625 C 2.132812 -15.316406 2.378906 -15.40625 2.671875 -15.40625 C 2.941406 -15.40625 3.175781 -15.3125 3.375 -15.125 C 3.570312 -14.945312 3.671875 -14.664062 3.671875 -14.28125 C 3.671875 -13.894531 3.570312 -13.609375 3.375 -13.421875 C 3.175781 -13.234375 2.941406 -13.140625 2.671875 -13.140625 C 2.378906 -13.140625 2.132812 -13.234375 1.9375 -13.421875 C 1.75 -13.609375 1.65625 -13.894531 1.65625 -14.28125 Z M 1.65625 -14.28125 "/></g></g></g><g fill="#ffffff" fill-opacity="1"><g transform="translate(151.779548, 242.405724)"><g><path d="M 9.046875 -3.0625 C 9.046875 -2.019531 8.65625 -1.210938 7.875 -0.640625 C 7.101562 -0.078125 6.015625 0.203125 4.609375 0.203125 C 3.117188 0.203125 1.957031 -0.03125 1.125 -0.5 L 1.125 -2.078125 C 1.65625 -1.804688 2.226562 -1.59375 2.84375 -1.4375 C 3.46875 -1.28125 4.066406 -1.203125 4.640625 -1.203125 C 5.535156 -1.203125 6.21875 -1.34375 6.6875 -1.625 C 7.164062 -1.90625 7.40625 -2.335938 7.40625 -2.921875 C 7.40625 -3.359375 7.21875 -3.734375 6.84375 -4.046875 C 6.46875 -4.359375 5.726562 -4.722656 4.625 -5.140625 C 3.582031 -5.535156 2.835938 -5.878906 2.390625 -6.171875 C 1.953125 -6.460938 1.625 -6.789062 1.40625 -7.15625 C 1.195312 -7.53125 1.09375 -7.972656 1.09375 -8.484375 C 1.09375 -9.398438 1.460938 -10.117188 2.203125 -10.640625 C 2.953125 -11.171875 3.972656 -11.4375 5.265625 -11.4375 C 6.472656 -11.4375 7.65625 -11.191406 8.8125 -10.703125 L 8.21875 -9.328125 C 7.082031 -9.785156 6.054688 -10.015625 5.140625 -10.015625 C 4.335938 -10.015625 3.726562 -9.890625 3.3125 -9.640625 C 2.90625 -9.390625 2.703125 -9.039062 2.703125 -8.59375 C 2.703125 -8.289062 2.78125 -8.03125 2.9375 -7.8125 C 3.09375 -7.601562 3.335938 -7.40625 3.671875 -7.21875 C 4.015625 -7.03125 4.675781 -6.753906 5.65625 -6.390625 C 6.988281 -5.898438 7.882812 -5.410156 8.34375 -4.921875 C 8.8125 -4.429688 9.046875 -3.8125 9.046875 -3.0625 Z M 9.046875 -3.0625 "/></g></g></g><g fill="#ffffff" fill-opacity="1"><g transform="translate(161.792028, 242.405724)"><g/></g></g><g fill="#ffffff" fill-opacity="1"><g transform="translate(167.244062, 242.405724)"><g><path d="M 16.125 0 L 16.125 -7.3125 C 16.125 -8.207031 15.929688 -8.878906 15.546875 -9.328125 C 15.171875 -9.773438 14.578125 -10 13.765625 -10 C 12.710938 -10 11.929688 -9.691406 11.421875 -9.078125 C 10.921875 -8.472656 10.671875 -7.539062 10.671875 -6.28125 L 10.671875 0 L 8.96875 0 L 8.96875 -7.3125 C 8.96875 -8.207031 8.773438 -8.878906 8.390625 -9.328125 C 8.003906 -9.773438 7.40625 -10 6.59375 -10 C 5.53125 -10 4.75 -9.675781 4.25 -9.03125 C 3.75 -8.394531 3.5 -7.347656 3.5 -5.890625 L 3.5 0 L 1.8125 0 L 1.8125 -11.234375 L 3.1875 -11.234375 L 3.46875 -9.703125 L 3.546875 -9.703125 C 3.867188 -10.242188 4.320312 -10.664062 4.90625 -10.96875 C 5.488281 -11.28125 6.144531 -11.4375 6.875 -11.4375 C 8.625 -11.4375 9.769531 -10.800781 10.3125 -9.53125 L 10.390625 -9.53125 C 10.734375 -10.125 11.222656 -10.585938 11.859375 -10.921875 C 12.492188 -11.265625 13.21875 -11.4375 14.03125 -11.4375 C 15.300781 -11.4375 16.25 -11.109375 16.875 -10.453125 C 17.507812 -9.804688 17.828125 -8.765625 17.828125 -7.328125 L 17.828125 0 Z M 16.125 0 "/></g></g></g><g fill="#ffffff" fill-opacity="1"><g transform="translate(186.766858, 242.405724)"><g><path d="M 8.71875 0 L 8.375 -1.59375 L 8.296875 -1.59375 C 7.734375 -0.894531 7.171875 -0.421875 6.609375 -0.171875 C 6.054688 0.078125 5.363281 0.203125 4.53125 0.203125 C 3.414062 0.203125 2.539062 -0.0820312 1.90625 -0.65625 C 1.28125 -1.226562 0.96875 -2.046875 0.96875 -3.109375 C 0.96875 -5.378906 2.78125 -6.566406 6.40625 -6.671875 L 8.3125 -6.734375 L 8.3125 -7.4375 C 8.3125 -8.3125 8.117188 -8.957031 7.734375 -9.375 C 7.359375 -9.800781 6.753906 -10.015625 5.921875 -10.015625 C 4.984375 -10.015625 3.925781 -9.726562 2.75 -9.15625 L 2.21875 -10.453125 C 2.78125 -10.753906 3.390625 -10.988281 4.046875 -11.15625 C 4.703125 -11.332031 5.363281 -11.421875 6.03125 -11.421875 C 7.375 -11.421875 8.367188 -11.125 9.015625 -10.53125 C 9.660156 -9.9375 9.984375 -8.984375 9.984375 -7.671875 L 9.984375 0 Z M 4.875 -1.203125 C 5.925781 -1.203125 6.753906 -1.488281 7.359375 -2.0625 C 7.972656 -2.644531 8.28125 -3.460938 8.28125 -4.515625 L 8.28125 -5.53125 L 6.578125 -5.453125 C 5.222656 -5.410156 4.242188 -5.203125 3.640625 -4.828125 C 3.046875 -4.453125 2.75 -3.875 2.75 -3.09375 C 2.75 -2.46875 2.929688 -1.992188 3.296875 -1.671875 C 3.671875 -1.359375 4.195312 -1.203125 4.875 -1.203125 Z M 4.875 -1.203125 "/></g></g></g><g fill="#ffffff" fill-opacity="1"><g transform="translate(198.439544, 242.405724)"><g><path d="M 0.015625 -11.234375 L 1.84375 -11.234375 L 4.3125 -4.828125 C 4.84375 -3.367188 5.175781 -2.3125 5.3125 -1.65625 L 5.390625 -1.65625 C 5.484375 -2.007812 5.671875 -2.609375 5.953125 -3.453125 C 6.234375 -4.296875 7.160156 -6.890625 8.734375 -11.234375 L 10.5625 -11.234375 L 5.734375 1.5625 C 5.253906 2.820312 4.691406 3.71875 4.046875 4.25 C 3.410156 4.78125 2.628906 5.046875 1.703125 5.046875 C 1.179688 5.046875 0.671875 4.988281 0.171875 4.875 L 0.171875 3.5 C 0.546875 3.582031 0.960938 3.625 1.421875 3.625 C 2.585938 3.625 3.421875 2.96875 3.921875 1.65625 L 4.546875 0.0625 Z M 0.015625 -11.234375 "/></g></g></g><g fill="#ffffff" fill-opacity="1"><g transform="translate(31.476564, 271.655722)"><g><path d="M 3.5 0 L 1.8125 0 L 1.8125 -11.234375 L 3.5 -11.234375 Z M 1.65625 -14.28125 C 1.65625 -14.675781 1.75 -14.960938 1.9375 -15.140625 C 2.132812 -15.316406 2.378906 -15.40625 2.671875 -15.40625 C 2.941406 -15.40625 3.175781 -15.3125 3.375 -15.125 C 3.570312 -14.945312 3.671875 -14.664062 3.671875 -14.28125 C 3.671875 -13.894531 3.570312 -13.609375 3.375 -13.421875 C 3.175781 -13.234375 2.941406 -13.140625 2.671875 -13.140625 C 2.378906 -13.140625 2.132812 -13.234375 1.9375 -13.421875 C 1.75 -13.609375 1.65625 -13.894531 1.65625 -14.28125 Z M 1.65625 -14.28125 "/></g></g></g><g fill="#ffffff" fill-opacity="1"><g transform="translate(36.785123, 271.655722)"><g><path d="M 9.5 0 L 9.5 -7.265625 C 9.5 -8.179688 9.289062 -8.863281 8.875 -9.3125 C 8.457031 -9.769531 7.800781 -10 6.90625 -10 C 5.726562 -10 4.863281 -9.679688 4.3125 -9.046875 C 3.769531 -8.410156 3.5 -7.359375 3.5 -5.890625 L 3.5 0 L 1.8125 0 L 1.8125 -11.234375 L 3.1875 -11.234375 L 3.46875 -9.703125 L 3.546875 -9.703125 C 3.898438 -10.253906 4.390625 -10.679688 5.015625 -10.984375 C 5.640625 -11.285156 6.335938 -11.4375 7.109375 -11.4375 C 8.460938 -11.4375 9.484375 -11.109375 10.171875 -10.453125 C 10.859375 -9.804688 11.203125 -8.765625 11.203125 -7.328125 L 11.203125 0 Z M 9.5 0 "/></g></g></g><g fill="#ffffff" fill-opacity="1"><g transform="translate(49.667095, 271.655722)"><g><path d="M 4.265625 0 L 0 -11.234375 L 1.828125 -11.234375 L 4.25 -4.578125 C 4.789062 -3.015625 5.109375 -2 5.203125 -1.53125 L 5.296875 -1.53125 C 5.367188 -1.894531 5.601562 -2.644531 6 -3.78125 C 6.40625 -4.925781 7.304688 -7.410156 8.703125 -11.234375 L 10.515625 -11.234375 L 6.25 0 Z M 4.265625 0 "/></g></g></g><g fill="#ffffff" fill-opacity="1"><g transform="translate(60.181731, 271.655722)"><g><path d="M 11.5 -5.625 C 11.5 -3.789062 11.035156 -2.359375 10.109375 -1.328125 C 9.191406 -0.304688 7.921875 0.203125 6.296875 0.203125 C 5.285156 0.203125 4.390625 -0.03125 3.609375 -0.5 C 2.835938 -0.96875 2.238281 -1.644531 1.8125 -2.53125 C 1.382812 -3.414062 1.171875 -4.445312 1.171875 -5.625 C 1.171875 -7.457031 1.628906 -8.882812 2.546875 -9.90625 C 3.460938 -10.925781 4.738281 -11.4375 6.375 -11.4375 C 7.9375 -11.4375 9.179688 -10.914062 10.109375 -9.875 C 11.035156 -8.832031 11.5 -7.414062 11.5 -5.625 Z M 2.9375 -5.625 C 2.9375 -4.1875 3.222656 -3.09375 3.796875 -2.34375 C 4.378906 -1.59375 5.226562 -1.21875 6.34375 -1.21875 C 7.457031 -1.21875 8.300781 -1.59375 8.875 -2.34375 C 9.445312 -3.09375 9.734375 -4.1875 9.734375 -5.625 C 9.734375 -7.050781 9.445312 -8.132812 8.875 -8.875 C 8.300781 -9.625 7.445312 -10 6.3125 -10 C 5.195312 -10 4.351562 -9.628906 3.78125 -8.890625 C 3.21875 -8.160156 2.9375 -7.070312 2.9375 -5.625 Z M 2.9375 -5.625 "/></g></g></g><g fill="#ffffff" fill-opacity="1"><g transform="translate(72.858739, 271.655722)"><g><path d="M 3.5 0 L 1.8125 0 L 1.8125 -15.953125 L 3.5 -15.953125 Z M 3.5 0 "/></g></g></g><g fill="#ffffff" fill-opacity="1"><g transform="translate(78.167298, 271.655722)"><g><path d="M 4.265625 0 L 0 -11.234375 L 1.828125 -11.234375 L 4.25 -4.578125 C 4.789062 -3.015625 5.109375 -2 5.203125 -1.53125 L 5.296875 -1.53125 C 5.367188 -1.894531 5.601562 -2.644531 6 -3.78125 C 6.40625 -4.925781 7.304688 -7.410156 8.703125 -11.234375 L 10.515625 -11.234375 L 6.25 0 Z M 4.265625 0 "/></g></g></g><g fill="#ffffff" fill-opacity="1"><g transform="translate(88.681935, 271.655722)"><g><path d="M 6.546875 0.203125 C 4.890625 0.203125 3.578125 -0.300781 2.609375 -1.3125 C 1.648438 -2.320312 1.171875 -3.726562 1.171875 -5.53125 C 1.171875 -7.34375 1.617188 -8.78125 2.515625 -9.84375 C 3.410156 -10.90625 4.609375 -11.4375 6.109375 -11.4375 C 7.515625 -11.4375 8.628906 -10.972656 9.453125 -10.046875 C 10.273438 -9.128906 10.6875 -7.910156 10.6875 -6.390625 L 10.6875 -5.3125 L 2.9375 -5.3125 C 2.976562 -3.988281 3.3125 -2.984375 3.9375 -2.296875 C 4.570312 -1.617188 5.460938 -1.28125 6.609375 -1.28125 C 7.816406 -1.28125 9.015625 -1.535156 10.203125 -2.046875 L 10.203125 -0.515625 C 9.597656 -0.265625 9.023438 -0.0820312 8.484375 0.03125 C 7.953125 0.144531 7.304688 0.203125 6.546875 0.203125 Z M 6.09375 -10.015625 C 5.1875 -10.015625 4.460938 -9.71875 3.921875 -9.125 C 3.390625 -8.539062 3.078125 -7.734375 2.984375 -6.703125 L 8.859375 -6.703125 C 8.859375 -7.773438 8.617188 -8.59375 8.140625 -9.15625 C 7.660156 -9.726562 6.976562 -10.015625 6.09375 -10.015625 Z M 6.09375 -10.015625 "/></g></g></g><g fill="#ffffff" fill-opacity="1"><g transform="translate(100.457103, 271.655722)"><g/></g></g><g fill="#ffffff" fill-opacity="1"><g transform="translate(105.909137, 271.655722)"><g><path d="M 7.03125 0.203125 C 6.300781 0.203125 5.632812 0.0664062 5.03125 -0.203125 C 4.425781 -0.472656 3.914062 -0.890625 3.5 -1.453125 L 3.390625 -1.453125 C 3.460938 -0.796875 3.5 -0.171875 3.5 0.421875 L 3.5 5.046875 L 1.8125 5.046875 L 1.8125 -11.234375 L 3.1875 -11.234375 L 3.421875 -9.703125 L 3.5 -9.703125 C 3.9375 -10.316406 4.445312 -10.757812 5.03125 -11.03125 C 5.613281 -11.300781 6.28125 -11.4375 7.03125 -11.4375 C 8.519531 -11.4375 9.671875 -10.925781 10.484375 -9.90625 C 11.296875 -8.894531 11.703125 -7.46875 11.703125 -5.625 C 11.703125 -3.78125 11.289062 -2.347656 10.46875 -1.328125 C 9.644531 -0.304688 8.5 0.203125 7.03125 0.203125 Z M 6.78125 -10 C 5.632812 -10 4.804688 -9.679688 4.296875 -9.046875 C 3.785156 -8.410156 3.519531 -7.398438 3.5 -6.015625 L 3.5 -5.625 C 3.5 -4.050781 3.765625 -2.921875 4.296875 -2.234375 C 4.828125 -1.554688 5.671875 -1.21875 6.828125 -1.21875 C 7.796875 -1.21875 8.554688 -1.609375 9.109375 -2.390625 C 9.660156 -3.179688 9.9375 -4.269531 9.9375 -5.65625 C 9.9375 -7.050781 9.660156 -8.125 9.109375 -8.875 C 8.554688 -9.625 7.78125 -10 6.78125 -10 Z M 6.78125 -10 "/></g></g></g><g fill="#ffffff" fill-opacity="1"><g transform="translate(118.770613, 271.655722)"><g><path d="M 9.5 0 L 9.5 -7.265625 C 9.5 -8.179688 9.289062 -8.863281 8.875 -9.3125 C 8.457031 -9.769531 7.800781 -10 6.90625 -10 C 5.726562 -10 4.863281 -9.675781 4.3125 -9.03125 C 3.769531 -8.382812 3.5 -7.332031 3.5 -5.875 L 3.5 0 L 1.8125 0 L 1.8125 -15.953125 L 3.5 -15.953125 L 3.5 -11.125 C 3.5 -10.539062 3.472656 -10.0625 3.421875 -9.6875 L 3.53125 -9.6875 C 3.863281 -10.21875 4.335938 -10.640625 4.953125 -10.953125 C 5.578125 -11.265625 6.285156 -11.421875 7.078125 -11.421875 C 8.453125 -11.421875 9.484375 -11.09375 10.171875 -10.4375 C 10.859375 -9.789062 11.203125 -8.753906 11.203125 -7.328125 L 11.203125 0 Z M 9.5 0 "/></g></g></g><g fill="#ffffff" fill-opacity="1"><g transform="translate(131.652585, 271.655722)"><g><path d="M 0.015625 -11.234375 L 1.84375 -11.234375 L 4.3125 -4.828125 C 4.84375 -3.367188 5.175781 -2.3125 5.3125 -1.65625 L 5.390625 -1.65625 C 5.484375 -2.007812 5.671875 -2.609375 5.953125 -3.453125 C 6.234375 -4.296875 7.160156 -6.890625 8.734375 -11.234375 L 10.5625 -11.234375 L 5.734375 1.5625 C 5.253906 2.820312 4.691406 3.71875 4.046875 4.25 C 3.410156 4.78125 2.628906 5.046875 1.703125 5.046875 C 1.179688 5.046875 0.671875 4.988281 0.171875 4.875 L 0.171875 3.5 C 0.546875 3.582031 0.960938 3.625 1.421875 3.625 C 2.585938 3.625 3.421875 2.96875 3.921875 1.65625 L 4.546875 0.0625 Z M 0.015625 -11.234375 "/></g></g></g><g fill="#ffffff" fill-opacity="1"><g transform="translate(142.22871, 271.655722)"><g><path d="M 9.046875 -3.0625 C 9.046875 -2.019531 8.65625 -1.210938 7.875 -0.640625 C 7.101562 -0.078125 6.015625 0.203125 4.609375 0.203125 C 3.117188 0.203125 1.957031 -0.03125 1.125 -0.5 L 1.125 -2.078125 C 1.65625 -1.804688 2.226562 -1.59375 2.84375 -1.4375 C 3.46875 -1.28125 4.066406 -1.203125 4.640625 -1.203125 C 5.535156 -1.203125 6.21875 -1.34375 6.6875 -1.625 C 7.164062 -1.90625 7.40625 -2.335938 7.40625 -2.921875 C 7.40625 -3.359375 7.21875 -3.734375 6.84375 -4.046875 C 6.46875 -4.359375 5.726562 -4.722656 4.625 -5.140625 C 3.582031 -5.535156 2.835938 -5.878906 2.390625 -6.171875 C 1.953125 -6.460938 1.625 -6.789062 1.40625 -7.15625 C 1.195312 -7.53125 1.09375 -7.972656 1.09375 -8.484375 C 1.09375 -9.398438 1.460938 -10.117188 2.203125 -10.640625 C 2.953125 -11.171875 3.972656 -11.4375 5.265625 -11.4375 C 6.472656 -11.4375 7.65625 -11.191406 8.8125 -10.703125 L 8.21875 -9.328125 C 7.082031 -9.785156 6.054688 -10.015625 5.140625 -10.015625 C 4.335938 -10.015625 3.726562 -9.890625 3.3125 -9.640625 C 2.90625 -9.390625 2.703125 -9.039062 2.703125 -8.59375 C 2.703125 -8.289062 2.78125 -8.03125 2.9375 -7.8125 C 3.09375 -7.601562 3.335938 -7.40625 3.671875 -7.21875 C 4.015625 -7.03125 4.675781 -6.753906 5.65625 -6.390625 C 6.988281 -5.898438 7.882812 -5.410156 8.34375 -4.921875 C 8.8125 -4.429688 9.046875 -3.8125 9.046875 -3.0625 Z M 9.046875 -3.0625 "/></g></g></g><g fill="#ffffff" fill-opacity="1"><g transform="translate(152.241191, 271.655722)"><g><path d="M 3.5 0 L 1.8125 0 L 1.8125 -11.234375 L 3.5 -11.234375 Z M 1.65625 -14.28125 C 1.65625 -14.675781 1.75 -14.960938 1.9375 -15.140625 C 2.132812 -15.316406 2.378906 -15.40625 2.671875 -15.40625 C 2.941406 -15.40625 3.175781 -15.3125 3.375 -15.125 C 3.570312 -14.945312 3.671875 -14.664062 3.671875 -14.28125 C 3.671875 -13.894531 3.570312 -13.609375 3.375 -13.421875 C 3.175781 -13.234375 2.941406 -13.140625 2.671875 -13.140625 C 2.378906 -13.140625 2.132812 -13.234375 1.9375 -13.421875 C 1.75 -13.609375 1.65625 -13.894531 1.65625 -14.28125 Z M 1.65625 -14.28125 "/></g></g></g><g fill="#ffffff" fill-opacity="1"><g transform="translate(157.54975, 271.655722)"><g><path d="M 6.296875 0.203125 C 4.671875 0.203125 3.410156 -0.296875 2.515625 -1.296875 C 1.617188 -2.296875 1.171875 -3.710938 1.171875 -5.546875 C 1.171875 -7.429688 1.625 -8.882812 2.53125 -9.90625 C 3.4375 -10.925781 4.726562 -11.4375 6.40625 -11.4375 C 6.945312 -11.4375 7.488281 -11.378906 8.03125 -11.265625 C 8.570312 -11.148438 8.992188 -11.015625 9.296875 -10.859375 L 8.78125 -9.40625 C 8.40625 -9.5625 7.992188 -9.6875 7.546875 -9.78125 C 7.097656 -9.882812 6.707031 -9.9375 6.375 -9.9375 C 4.082031 -9.9375 2.9375 -8.476562 2.9375 -5.5625 C 2.9375 -4.1875 3.210938 -3.128906 3.765625 -2.390625 C 4.328125 -1.648438 5.15625 -1.28125 6.25 -1.28125 C 7.1875 -1.28125 8.148438 -1.484375 9.140625 -1.890625 L 9.140625 -0.375 C 8.390625 0.0078125 7.441406 0.203125 6.296875 0.203125 Z M 6.296875 0.203125 "/></g></g></g><g fill="#ffffff" fill-opacity="1"><g transform="translate(167.541734, 271.655722)"><g><path d="M 8.71875 0 L 8.375 -1.59375 L 8.296875 -1.59375 C 7.734375 -0.894531 7.171875 -0.421875 6.609375 -0.171875 C 6.054688 0.078125 5.363281 0.203125 4.53125 0.203125 C 3.414062 0.203125 2.539062 -0.0820312 1.90625 -0.65625 C 1.28125 -1.226562 0.96875 -2.046875 0.96875 -3.109375 C 0.96875 -5.378906 2.78125 -6.566406 6.40625 -6.671875 L 8.3125 -6.734375 L 8.3125 -7.4375 C 8.3125 -8.3125 8.117188 -8.957031 7.734375 -9.375 C 7.359375 -9.800781 6.753906 -10.015625 5.921875 -10.015625 C 4.984375 -10.015625 3.925781 -9.726562 2.75 -9.15625 L 2.21875 -10.453125 C 2.78125 -10.753906 3.390625 -10.988281 4.046875 -11.15625 C 4.703125 -11.332031 5.363281 -11.421875 6.03125 -11.421875 C 7.375 -11.421875 8.367188 -11.125 9.015625 -10.53125 C 9.660156 -9.9375 9.984375 -8.984375 9.984375 -7.671875 L 9.984375 0 Z M 4.875 -1.203125 C 5.925781 -1.203125 6.753906 -1.488281 7.359375 -2.0625 C 7.972656 -2.644531 8.28125 -3.460938 8.28125 -4.515625 L 8.28125 -5.53125 L 6.578125 -5.453125 C 5.222656 -5.410156 4.242188 -5.203125 3.640625 -4.828125 C 3.046875 -4.453125 2.75 -3.875 2.75 -3.09375 C 2.75 -2.46875 2.929688 -1.992188 3.296875 -1.671875 C 3.671875 -1.359375 4.195312 -1.203125 4.875 -1.203125 Z M 4.875 -1.203125 "/></g></g></g><g fill="#ffffff" fill-opacity="1"><g transform="translate(179.214421, 271.655722)"><g><path d="M 3.5 0 L 1.8125 0 L 1.8125 -15.953125 L 3.5 -15.953125 Z M 3.5 0 "/></g></g></g><g fill="#ffffff" fill-opacity="1"><g transform="translate(19.839846, 300.905719)"><g><path d="M 6.296875 0.203125 C 4.671875 0.203125 3.410156 -0.296875 2.515625 -1.296875 C 1.617188 -2.296875 1.171875 -3.710938 1.171875 -5.546875 C 1.171875 -7.429688 1.625 -8.882812 2.53125 -9.90625 C 3.4375 -10.925781 4.726562 -11.4375 6.40625 -11.4375 C 6.945312 -11.4375 7.488281 -11.378906 8.03125 -11.265625 C 8.570312 -11.148438 8.992188 -11.015625 9.296875 -10.859375 L 8.78125 -9.40625 C 8.40625 -9.5625 7.992188 -9.6875 7.546875 -9.78125 C 7.097656 -9.882812 6.707031 -9.9375 6.375 -9.9375 C 4.082031 -9.9375 2.9375 -8.476562 2.9375 -5.5625 C 2.9375 -4.1875 3.210938 -3.128906 3.765625 -2.390625 C 4.328125 -1.648438 5.15625 -1.28125 6.25 -1.28125 C 7.1875 -1.28125 8.148438 -1.484375 9.140625 -1.890625 L 9.140625 -0.375 C 8.390625 0.0078125 7.441406 0.203125 6.296875 0.203125 Z M 6.296875 0.203125 "/></g></g></g><g fill="#ffffff" fill-opacity="1"><g transform="translate(29.831831, 300.905719)"><g><path d="M 11.5 -5.625 C 11.5 -3.789062 11.035156 -2.359375 10.109375 -1.328125 C 9.191406 -0.304688 7.921875 0.203125 6.296875 0.203125 C 5.285156 0.203125 4.390625 -0.03125 3.609375 -0.5 C 2.835938 -0.96875 2.238281 -1.644531 1.8125 -2.53125 C 1.382812 -3.414062 1.171875 -4.445312 1.171875 -5.625 C 1.171875 -7.457031 1.628906 -8.882812 2.546875 -9.90625 C 3.460938 -10.925781 4.738281 -11.4375 6.375 -11.4375 C 7.9375 -11.4375 9.179688 -10.914062 10.109375 -9.875 C 11.035156 -8.832031 11.5 -7.414062 11.5 -5.625 Z M 2.9375 -5.625 C 2.9375 -4.1875 3.222656 -3.09375 3.796875 -2.34375 C 4.378906 -1.59375 5.226562 -1.21875 6.34375 -1.21875 C 7.457031 -1.21875 8.300781 -1.59375 8.875 -2.34375 C 9.445312 -3.09375 9.734375 -4.1875 9.734375 -5.625 C 9.734375 -7.050781 9.445312 -8.132812 8.875 -8.875 C 8.300781 -9.625 7.445312 -10 6.3125 -10 C 5.195312 -10 4.351562 -9.628906 3.78125 -8.890625 C 3.21875 -8.160156 2.9375 -7.070312 2.9375 -5.625 Z M 2.9375 -5.625 "/></g></g></g><g fill="#ffffff" fill-opacity="1"><g transform="translate(42.508839, 300.905719)"><g><path d="M 9.5 0 L 9.5 -7.265625 C 9.5 -8.179688 9.289062 -8.863281 8.875 -9.3125 C 8.457031 -9.769531 7.800781 -10 6.90625 -10 C 5.726562 -10 4.863281 -9.679688 4.3125 -9.046875 C 3.769531 -8.410156 3.5 -7.359375 3.5 -5.890625 L 3.5 0 L 1.8125 0 L 1.8125 -11.234375 L 3.1875 -11.234375 L 3.46875 -9.703125 L 3.546875 -9.703125 C 3.898438 -10.253906 4.390625 -10.679688 5.015625 -10.984375 C 5.640625 -11.285156 6.335938 -11.4375 7.109375 -11.4375 C 8.460938 -11.4375 9.484375 -11.109375 10.171875 -10.453125 C 10.859375 -9.804688 11.203125 -8.765625 11.203125 -7.328125 L 11.203125 0 Z M 9.5 0 "/></g></g></g><g fill="#ffffff" fill-opacity="1"><g transform="translate(55.390811, 300.905719)"><g><path d="M 5.4375 -1.203125 C 5.738281 -1.203125 6.03125 -1.222656 6.3125 -1.265625 C 6.59375 -1.304688 6.8125 -1.351562 6.96875 -1.40625 L 6.96875 -0.109375 C 6.789062 -0.015625 6.519531 0.0546875 6.15625 0.109375 C 5.800781 0.171875 5.476562 0.203125 5.1875 0.203125 C 3.007812 0.203125 1.921875 -0.941406 1.921875 -3.234375 L 1.921875 -9.921875 L 0.3125 -9.921875 L 0.3125 -10.734375 L 1.921875 -11.4375 L 2.640625 -13.84375 L 3.625 -13.84375 L 3.625 -11.234375 L 6.890625 -11.234375 L 6.890625 -9.921875 L 3.625 -9.921875 L 3.625 -3.296875 C 3.625 -2.617188 3.785156 -2.097656 4.109375 -1.734375 C 4.429688 -1.378906 4.875 -1.203125 5.4375 -1.203125 Z M 5.4375 -1.203125 "/></g></g></g><g fill="#ffffff" fill-opacity="1"><g transform="translate(62.800253, 300.905719)"><g><path d="M 8.71875 0 L 8.375 -1.59375 L 8.296875 -1.59375 C 7.734375 -0.894531 7.171875 -0.421875 6.609375 -0.171875 C 6.054688 0.078125 5.363281 0.203125 4.53125 0.203125 C 3.414062 0.203125 2.539062 -0.0820312 1.90625 -0.65625 C 1.28125 -1.226562 0.96875 -2.046875 0.96875 -3.109375 C 0.96875 -5.378906 2.78125 -6.566406 6.40625 -6.671875 L 8.3125 -6.734375 L 8.3125 -7.4375 C 8.3125 -8.3125 8.117188 -8.957031 7.734375 -9.375 C 7.359375 -9.800781 6.753906 -10.015625 5.921875 -10.015625 C 4.984375 -10.015625 3.925781 -9.726562 2.75 -9.15625 L 2.21875 -10.453125 C 2.78125 -10.753906 3.390625 -10.988281 4.046875 -11.15625 C 4.703125 -11.332031 5.363281 -11.421875 6.03125 -11.421875 C 7.375 -11.421875 8.367188 -11.125 9.015625 -10.53125 C 9.660156 -9.9375 9.984375 -8.984375 9.984375 -7.671875 L 9.984375 0 Z M 4.875 -1.203125 C 5.925781 -1.203125 6.753906 -1.488281 7.359375 -2.0625 C 7.972656 -2.644531 8.28125 -3.460938 8.28125 -4.515625 L 8.28125 -5.53125 L 6.578125 -5.453125 C 5.222656 -5.410156 4.242188 -5.203125 3.640625 -4.828125 C 3.046875 -4.453125 2.75 -3.875 2.75 -3.09375 C 2.75 -2.46875 2.929688 -1.992188 3.296875 -1.671875 C 3.671875 -1.359375 4.195312 -1.203125 4.875 -1.203125 Z M 4.875 -1.203125 "/></g></g></g><g fill="#ffffff" fill-opacity="1"><g transform="translate(74.47294, 300.905719)"><g><path d="M 6.296875 0.203125 C 4.671875 0.203125 3.410156 -0.296875 2.515625 -1.296875 C 1.617188 -2.296875 1.171875 -3.710938 1.171875 -5.546875 C 1.171875 -7.429688 1.625 -8.882812 2.53125 -9.90625 C 3.4375 -10.925781 4.726562 -11.4375 6.40625 -11.4375 C 6.945312 -11.4375 7.488281 -11.378906 8.03125 -11.265625 C 8.570312 -11.148438 8.992188 -11.015625 9.296875 -10.859375 L 8.78125 -9.40625 C 8.40625 -9.5625 7.992188 -9.6875 7.546875 -9.78125 C 7.097656 -9.882812 6.707031 -9.9375 6.375 -9.9375 C 4.082031 -9.9375 2.9375 -8.476562 2.9375 -5.5625 C 2.9375 -4.1875 3.210938 -3.128906 3.765625 -2.390625 C 4.328125 -1.648438 5.15625 -1.28125 6.25 -1.28125 C 7.1875 -1.28125 8.148438 -1.484375 9.140625 -1.890625 L 9.140625 -0.375 C 8.390625 0.0078125 7.441406 0.203125 6.296875 0.203125 Z M 6.296875 0.203125 "/></g></g></g><g fill="#ffffff" fill-opacity="1"><g transform="translate(84.464924, 300.905719)"><g><path d="M 5.4375 -1.203125 C 5.738281 -1.203125 6.03125 -1.222656 6.3125 -1.265625 C 6.59375 -1.304688 6.8125 -1.351562 6.96875 -1.40625 L 6.96875 -0.109375 C 6.789062 -0.015625 6.519531 0.0546875 6.15625 0.109375 C 5.800781 0.171875 5.476562 0.203125 5.1875 0.203125 C 3.007812 0.203125 1.921875 -0.941406 1.921875 -3.234375 L 1.921875 -9.921875 L 0.3125 -9.921875 L 0.3125 -10.734375 L 1.921875 -11.4375 L 2.640625 -13.84375 L 3.625 -13.84375 L 3.625 -11.234375 L 6.890625 -11.234375 L 6.890625 -9.921875 L 3.625 -9.921875 L 3.625 -3.296875 C 3.625 -2.617188 3.785156 -2.097656 4.109375 -1.734375 C 4.429688 -1.378906 4.875 -1.203125 5.4375 -1.203125 Z M 5.4375 -1.203125 "/></g></g></g><g fill="#ffffff" fill-opacity="1"><g transform="translate(91.874367, 300.905719)"><g/></g></g><g fill="#ffffff" fill-opacity="1"><g transform="translate(97.3264, 300.905719)"><g><path d="M 3.5 0 L 1.8125 0 L 1.8125 -15.953125 L 3.5 -15.953125 Z M 3.5 0 "/></g></g></g><g fill="#ffffff" fill-opacity="1"><g transform="translate(102.634959, 300.905719)"><g><path d="M 3.5 0 L 1.8125 0 L 1.8125 -11.234375 L 3.5 -11.234375 Z M 1.65625 -14.28125 C 1.65625 -14.675781 1.75 -14.960938 1.9375 -15.140625 C 2.132812 -15.316406 2.378906 -15.40625 2.671875 -15.40625 C 2.941406 -15.40625 3.175781 -15.3125 3.375 -15.125 C 3.570312 -14.945312 3.671875 -14.664062 3.671875 -14.28125 C 3.671875 -13.894531 3.570312 -13.609375 3.375 -13.421875 C 3.175781 -13.234375 2.941406 -13.140625 2.671875 -13.140625 C 2.378906 -13.140625 2.132812 -13.234375 1.9375 -13.421875 C 1.75 -13.609375 1.65625 -13.894531 1.65625 -14.28125 Z M 1.65625 -14.28125 "/></g></g></g><g fill="#ffffff" fill-opacity="1"><g transform="translate(107.943518, 300.905719)"><g><path d="M 3.484375 -5.75 C 3.773438 -6.164062 4.222656 -6.710938 4.828125 -7.390625 L 8.453125 -11.234375 L 10.484375 -11.234375 L 5.921875 -6.453125 L 10.796875 0 L 8.734375 0 L 4.765625 -5.3125 L 3.484375 -4.203125 L 3.484375 0 L 1.8125 0 L 1.8125 -15.953125 L 3.484375 -15.953125 L 3.484375 -7.5 C 3.484375 -7.125 3.457031 -6.539062 3.40625 -5.75 Z M 3.484375 -5.75 "/></g></g></g><g fill="#ffffff" fill-opacity="1"><g transform="translate(118.960321, 300.905719)"><g><path d="M 6.546875 0.203125 C 4.890625 0.203125 3.578125 -0.300781 2.609375 -1.3125 C 1.648438 -2.320312 1.171875 -3.726562 1.171875 -5.53125 C 1.171875 -7.34375 1.617188 -8.78125 2.515625 -9.84375 C 3.410156 -10.90625 4.609375 -11.4375 6.109375 -11.4375 C 7.515625 -11.4375 8.628906 -10.972656 9.453125 -10.046875 C 10.273438 -9.128906 10.6875 -7.910156 10.6875 -6.390625 L 10.6875 -5.3125 L 2.9375 -5.3125 C 2.976562 -3.988281 3.3125 -2.984375 3.9375 -2.296875 C 4.570312 -1.617188 5.460938 -1.28125 6.609375 -1.28125 C 7.816406 -1.28125 9.015625 -1.535156 10.203125 -2.046875 L 10.203125 -0.515625 C 9.597656 -0.265625 9.023438 -0.0820312 8.484375 0.03125 C 7.953125 0.144531 7.304688 0.203125 6.546875 0.203125 Z M 6.09375 -10.015625 C 5.1875 -10.015625 4.460938 -9.71875 3.921875 -9.125 C 3.390625 -8.539062 3.078125 -7.734375 2.984375 -6.703125 L 8.859375 -6.703125 C 8.859375 -7.773438 8.617188 -8.59375 8.140625 -9.15625 C 7.660156 -9.726562 6.976562 -10.015625 6.09375 -10.015625 Z M 6.09375 -10.015625 "/></g></g></g><g fill="#ffffff" fill-opacity="1"><g transform="translate(130.73549, 300.905719)"><g/></g></g><g fill="#ffffff" fill-opacity="1"><g transform="translate(136.187523, 300.905719)"><g><path d="M 8.71875 0 L 8.375 -1.59375 L 8.296875 -1.59375 C 7.734375 -0.894531 7.171875 -0.421875 6.609375 -0.171875 C 6.054688 0.078125 5.363281 0.203125 4.53125 0.203125 C 3.414062 0.203125 2.539062 -0.0820312 1.90625 -0.65625 C 1.28125 -1.226562 0.96875 -2.046875 0.96875 -3.109375 C 0.96875 -5.378906 2.78125 -6.566406 6.40625 -6.671875 L 8.3125 -6.734375 L 8.3125 -7.4375 C 8.3125 -8.3125 8.117188 -8.957031 7.734375 -9.375 C 7.359375 -9.800781 6.753906 -10.015625 5.921875 -10.015625 C 4.984375 -10.015625 3.925781 -9.726562 2.75 -9.15625 L 2.21875 -10.453125 C 2.78125 -10.753906 3.390625 -10.988281 4.046875 -11.15625 C 4.703125 -11.332031 5.363281 -11.421875 6.03125 -11.421875 C 7.375 -11.421875 8.367188 -11.125 9.015625 -10.53125 C 9.660156 -9.9375 9.984375 -8.984375 9.984375 -7.671875 L 9.984375 0 Z M 4.875 -1.203125 C 5.925781 -1.203125 6.753906 -1.488281 7.359375 -2.0625 C 7.972656 -2.644531 8.28125 -3.460938 8.28125 -4.515625 L 8.28125 -5.53125 L 6.578125 -5.453125 C 5.222656 -5.410156 4.242188 -5.203125 3.640625 -4.828125 C 3.046875 -4.453125 2.75 -3.875 2.75 -3.09375 C 2.75 -2.46875 2.929688 -1.992188 3.296875 -1.671875 C 3.671875 -1.359375 4.195312 -1.203125 4.875 -1.203125 Z M 4.875 -1.203125 "/></g></g></g><g fill="#ffffff" fill-opacity="1"><g transform="translate(147.86021, 300.905719)"><g/></g></g><g fill="#ffffff" fill-opacity="1"><g transform="translate(153.312243, 300.905719)"><g><path d="M 9.5 0 L 9.5 -7.265625 C 9.5 -8.179688 9.289062 -8.863281 8.875 -9.3125 C 8.457031 -9.769531 7.800781 -10 6.90625 -10 C 5.726562 -10 4.863281 -9.675781 4.3125 -9.03125 C 3.769531 -8.382812 3.5 -7.332031 3.5 -5.875 L 3.5 0 L 1.8125 0 L 1.8125 -15.953125 L 3.5 -15.953125 L 3.5 -11.125 C 3.5 -10.539062 3.472656 -10.0625 3.421875 -9.6875 L 3.53125 -9.6875 C 3.863281 -10.21875 4.335938 -10.640625 4.953125 -10.953125 C 5.578125 -11.265625 6.285156 -11.421875 7.078125 -11.421875 C 8.453125 -11.421875 9.484375 -11.09375 10.171875 -10.4375 C 10.859375 -9.789062 11.203125 -8.753906 11.203125 -7.328125 L 11.203125 0 Z M 9.5 0 "/></g></g></g><g fill="#ffffff" fill-opacity="1"><g transform="translate(166.194215, 300.905719)"><g><path d="M 3.40625 -11.234375 L 3.40625 -3.953125 C 3.40625 -3.035156 3.613281 -2.347656 4.03125 -1.890625 C 4.445312 -1.441406 5.097656 -1.21875 5.984375 -1.21875 C 7.160156 -1.21875 8.019531 -1.535156 8.5625 -2.171875 C 9.101562 -2.816406 9.375 -3.867188 9.375 -5.328125 L 9.375 -11.234375 L 11.078125 -11.234375 L 11.078125 0 L 9.6875 0 L 9.4375 -1.5 L 9.34375 -1.5 C 8.988281 -0.945312 8.503906 -0.523438 7.890625 -0.234375 C 7.273438 0.0546875 6.566406 0.203125 5.765625 0.203125 C 4.398438 0.203125 3.378906 -0.117188 2.703125 -0.765625 C 2.023438 -1.421875 1.6875 -2.460938 1.6875 -3.890625 L 1.6875 -11.234375 Z M 3.40625 -11.234375 "/></g></g></g><g fill="#ffffff" fill-opacity="1"><g transform="translate(179.076187, 300.905719)"><g><path d="M 11 -11.234375 L 11 -10.15625 L 8.921875 -9.921875 C 9.109375 -9.679688 9.273438 -9.363281 9.421875 -8.96875 C 9.578125 -8.582031 9.65625 -8.148438 9.65625 -7.671875 C 9.65625 -6.566406 9.28125 -5.6875 8.53125 -5.03125 C 7.78125 -4.375 6.75 -4.046875 5.4375 -4.046875 C 5.101562 -4.046875 4.785156 -4.070312 4.484375 -4.125 C 3.765625 -3.75 3.40625 -3.269531 3.40625 -2.6875 C 3.40625 -2.375 3.53125 -2.144531 3.78125 -2 C 4.03125 -1.851562 4.46875 -1.78125 5.09375 -1.78125 L 7.078125 -1.78125 C 8.296875 -1.78125 9.226562 -1.523438 9.875 -1.015625 C 10.53125 -0.503906 10.859375 0.238281 10.859375 1.21875 C 10.859375 2.46875 10.359375 3.414062 9.359375 4.0625 C 8.359375 4.71875 6.90625 5.046875 5 5.046875 C 3.53125 5.046875 2.394531 4.769531 1.59375 4.21875 C 0.800781 3.675781 0.40625 2.90625 0.40625 1.90625 C 0.40625 1.21875 0.625 0.625 1.0625 0.125 C 1.5 -0.363281 2.113281 -0.695312 2.90625 -0.875 C 2.613281 -1.007812 2.367188 -1.210938 2.171875 -1.484375 C 1.984375 -1.753906 1.890625 -2.070312 1.890625 -2.4375 C 1.890625 -2.851562 2 -3.210938 2.21875 -3.515625 C 2.4375 -3.828125 2.78125 -4.125 3.25 -4.40625 C 2.664062 -4.644531 2.191406 -5.050781 1.828125 -5.625 C 1.460938 -6.195312 1.28125 -6.851562 1.28125 -7.59375 C 1.28125 -8.820312 1.648438 -9.769531 2.390625 -10.4375 C 3.128906 -11.101562 4.175781 -11.4375 5.53125 -11.4375 C 6.113281 -11.4375 6.640625 -11.367188 7.109375 -11.234375 Z M 2.046875 1.890625 C 2.046875 2.492188 2.300781 2.953125 2.8125 3.265625 C 3.320312 3.585938 4.054688 3.75 5.015625 3.75 C 6.441406 3.75 7.5 3.535156 8.1875 3.109375 C 8.875 2.679688 9.21875 2.097656 9.21875 1.359375 C 9.21875 0.753906 9.03125 0.332031 8.65625 0.09375 C 8.28125 -0.132812 7.570312 -0.25 6.53125 -0.25 L 4.484375 -0.25 C 3.710938 -0.25 3.113281 -0.0664062 2.6875 0.296875 C 2.257812 0.660156 2.046875 1.191406 2.046875 1.890625 Z M 2.96875 -7.640625 C 2.96875 -6.847656 3.1875 -6.25 3.625 -5.84375 C 4.070312 -5.445312 4.691406 -5.25 5.484375 -5.25 C 7.148438 -5.25 7.984375 -6.054688 7.984375 -7.671875 C 7.984375 -9.359375 7.140625 -10.203125 5.453125 -10.203125 C 4.648438 -10.203125 4.035156 -9.984375 3.609375 -9.546875 C 3.179688 -9.117188 2.96875 -8.484375 2.96875 -7.640625 Z M 2.96875 -7.640625 "/></g></g></g><g fill="#ffffff" fill-opacity="1"><g transform="translate(190.574649, 300.905719)"><g><path d="M 1.5625 -1.09375 C 1.5625 -1.550781 1.664062 -1.894531 1.875 -2.125 C 2.082031 -2.363281 2.378906 -2.484375 2.765625 -2.484375 C 3.160156 -2.484375 3.46875 -2.363281 3.6875 -2.125 C 3.914062 -1.894531 4.03125 -1.550781 4.03125 -1.09375 C 4.03125 -0.644531 3.914062 -0.300781 3.6875 -0.0625 C 3.46875 0.175781 3.160156 0.296875 2.765625 0.296875 C 2.421875 0.296875 2.132812 0.191406 1.90625 -0.015625 C 1.675781 -0.234375 1.5625 -0.59375 1.5625 -1.09375 Z M 1.5625 -1.09375 "/></g></g></g></svg>