<svg xmlns="http://www.w3.org/2000/svg" xmlns:xlink="http://www.w3.org/1999/xlink" width="288" zoomAndPan="magnify" viewBox="0 0 216 359.999987" height="480" preserveAspectRatio="xMidYMid meet" version="1.0"><defs><g/><clipPath id="1885dd2bf4"><path d="M 0 81.3125 L 216 81.3125 L 216 360 L 0 360 Z M 0 81.3125 " clip-rule="nonzero"/></clipPath></defs><rect x="-21.6" width="259.2" fill="#ffffff" y="-35.999999" height="431.999984" fill-opacity="1"/><rect x="-21.6" width="259.2" fill="#ffffff" y="-35.999999" height="431.999984" fill-opacity="1"/><rect x="-21.6" width="259.2" fill="#a81010" y="-35.999999" height="431.999984" fill-opacity="1"/><g clip-path="url(#1885dd2bf4)"><path fill="#e41414" d="M 0 81.3125 L 215.664062 81.3125 L 215.664062 359.75 L 0 359.75 Z M 0 81.3125 " fill-opacity="1" fill-rule="nonzero"/></g><g fill="#ffffff" fill-opacity="1"><g transform="translate(48.029177, 53.121166)"><g><path d="M 16.96875 0 L 15.8125 -4.40625 L 8.171875 -4.40625 L 6.984375 0 L 0 0 L 7.671875 -23.609375 L 16.140625 -23.609375 L 23.921875 0 Z M 14.484375 -9.625 L 13.484375 -13.484375 C 13.242188 -14.335938 12.953125 -15.441406 12.609375 -16.796875 C 12.273438 -18.160156 12.054688 -19.140625 11.953125 -19.734375 C 11.859375 -19.179688 11.664062 -18.28125 11.375 -17.03125 C 11.09375 -15.78125 10.460938 -13.3125 9.484375 -9.625 Z M 14.484375 -9.625 "/></g></g></g><g fill="#ffffff" fill-opacity="1"><g transform="translate(71.944535, 53.121166)"><g><path d="M 24.921875 0 L 16.59375 0 L 8.015625 -16.5625 L 7.859375 -16.5625 C 8.066406 -13.957031 8.171875 -11.96875 8.171875 -10.59375 L 8.171875 0 L 2.546875 0 L 2.546875 -23.515625 L 10.84375 -23.515625 L 19.390625 -7.171875 L 19.5 -7.171875 C 19.34375 -9.546875 19.265625 -11.445312 19.265625 -12.875 L 19.265625 -23.515625 L 24.921875 -23.515625 Z M 24.921875 0 "/></g></g></g><g fill="#ffffff" fill-opacity="1"><g transform="translate(99.414217, 53.121166)"><g><path d="M 11.984375 -13.765625 L 22.125 -13.765625 L 22.125 -1.09375 C 19.375 -0.144531 16.347656 0.328125 13.046875 0.328125 C 9.421875 0.328125 6.617188 -0.722656 4.640625 -2.828125 C 2.660156 -4.929688 1.671875 -7.929688 1.671875 -11.828125 C 1.671875 -15.617188 2.753906 -18.566406 4.921875 -20.671875 C 7.085938 -22.785156 10.125 -23.84375 14.03125 -23.84375 C 15.507812 -23.84375 16.90625 -23.703125 18.21875 -23.421875 C 19.53125 -23.148438 20.671875 -22.800781 21.640625 -22.375 L 19.640625 -17.390625 C 17.941406 -18.222656 16.082031 -18.640625 14.0625 -18.640625 C 12.207031 -18.640625 10.769531 -18.035156 9.75 -16.828125 C 8.738281 -15.617188 8.234375 -13.894531 8.234375 -11.65625 C 8.234375 -9.457031 8.691406 -7.78125 9.609375 -6.625 C 10.523438 -5.476562 11.847656 -4.90625 13.578125 -4.90625 C 14.515625 -4.90625 15.378906 -4.992188 16.171875 -5.171875 L 16.171875 -8.859375 L 11.984375 -8.859375 Z M 11.984375 -13.765625 "/></g></g></g><g fill="#ffffff" fill-opacity="1"><g transform="translate(123.795972, 53.121166)"><g><path d="M 8.890625 -8.5625 L 8.890625 0 L 2.546875 0 L 2.546875 -23.515625 L 10.25 -23.515625 C 16.632812 -23.515625 19.828125 -21.195312 19.828125 -16.5625 C 19.828125 -13.84375 18.5 -11.738281 15.84375 -10.25 L 22.6875 0 L 15.484375 0 L 10.5 -8.5625 Z M 8.890625 -13.328125 L 10.078125 -13.328125 C 12.296875 -13.328125 13.40625 -14.3125 13.40625 -16.28125 C 13.40625 -17.894531 12.316406 -18.703125 10.140625 -18.703125 L 8.890625 -18.703125 Z M 8.890625 -13.328125 "/></g></g></g><g fill="#ffffff" fill-opacity="1"><g transform="translate(146.086944, 53.121166)"><g><path d="M 10.9375 -14.796875 L 14.984375 -23.515625 L 21.875 -23.515625 L 14.140625 -9.1875 L 14.140625 0 L 7.734375 0 L 7.734375 -8.984375 L 0 -23.515625 L 6.921875 -23.515625 Z M 10.9375 -14.796875 "/></g></g></g><g fill="#ffffff" fill-opacity="1"><g transform="translate(31.51172, 154.655685)"><g><path d="M 13.4375 0 L 11.703125 0 L 11.703125 -7.0625 L 3.796875 -7.0625 L 3.796875 0 L 2.0625 0 L 2.0625 -14.984375 L 3.796875 -14.984375 L 3.796875 -8.609375 L 11.703125 -8.609375 L 11.703125 -14.984375 L 13.4375 -14.984375 Z M 13.4375 0 "/></g></g></g><g fill="#ffffff" fill-opacity="1"><g transform="translate(46.996731, 154.655685)"><g><path d="M 8.71875 0 L 8.375 -1.59375 L 8.296875 -1.59375 C 7.734375 -0.894531 7.171875 -0.421875 6.609375 -0.171875 C 6.054688 0.078125 5.363281 0.203125 4.53125 0.203125 C 3.414062 0.203125 2.539062 -0.0820312 1.90625 -0.65625 C 1.28125 -1.226562 0.96875 -2.046875 0.96875 -3.109375 C 0.96875 -5.378906 2.78125 -6.566406 6.40625 -6.671875 L 8.3125 -6.734375 L 8.3125 -7.4375 C 8.3125 -8.3125 8.117188 -8.957031 7.734375 -9.375 C 7.359375 -9.800781 6.753906 -10.015625 5.921875 -10.015625 C 4.984375 -10.015625 3.925781 -9.726562 2.75 -9.15625 L 2.21875 -10.453125 C 2.78125 -10.753906 3.390625 -10.988281 4.046875 -11.15625 C 4.703125 -11.332031 5.363281 -11.421875 6.03125 -11.421875 C 7.375 -11.421875 8.367188 -11.125 9.015625 -10.53125 C 9.660156 -9.9375 9.984375 -8.984375 9.984375 -7.671875 L 9.984375 0 Z M 4.875 -1.203125 C 5.925781 -1.203125 6.753906 -1.488281 7.359375 -2.0625 C 7.972656 -2.644531 8.28125 -3.460938 8.28125 -4.515625 L 8.28125 -5.53125 L 6.578125 -5.453125 C 5.222656 -5.410156 4.242188 -5.203125 3.640625 -4.828125 C 3.046875 -4.453125 2.75 -3.875 2.75 -3.09375 C 2.75 -2.46875 2.929688 -1.992188 3.296875 -1.671875 C 3.671875 -1.359375 4.195312 -1.203125 4.875 -1.203125 Z M 4.875 -1.203125 "/></g></g></g><g fill="#ffffff" fill-opacity="1"><g transform="translate(58.669418, 154.655685)"><g><path d="M 4.265625 0 L 0 -11.234375 L 1.828125 -11.234375 L 4.25 -4.578125 C 4.789062 -3.015625 5.109375 -2 5.203125 -1.53125 L 5.296875 -1.53125 C 5.367188 -1.894531 5.601562 -2.644531 6 -3.78125 C 6.40625 -4.925781 7.304688 -7.410156 8.703125 -11.234375 L 10.515625 -11.234375 L 6.25 0 Z M 4.265625 0 "/></g></g></g><g fill="#ffffff" fill-opacity="1"><g transform="translate(69.184054, 154.655685)"><g><path d="M 3.5 0 L 1.8125 0 L 1.8125 -11.234375 L 3.5 -11.234375 Z M 1.65625 -14.28125 C 1.65625 -14.675781 1.75 -14.960938 1.9375 -15.140625 C 2.132812 -15.316406 2.378906 -15.40625 2.671875 -15.40625 C 2.941406 -15.40625 3.175781 -15.3125 3.375 -15.125 C 3.570312 -14.945312 3.671875 -14.664062 3.671875 -14.28125 C 3.671875 -13.894531 3.570312 -13.609375 3.375 -13.421875 C 3.175781 -13.234375 2.941406 -13.140625 2.671875 -13.140625 C 2.378906 -13.140625 2.132812 -13.234375 1.9375 -13.421875 C 1.75 -13.609375 1.65625 -13.894531 1.65625 -14.28125 Z M 1.65625 -14.28125 "/></g></g></g><g fill="#ffffff" fill-opacity="1"><g transform="translate(74.492613, 154.655685)"><g><path d="M 9.5 0 L 9.5 -7.265625 C 9.5 -8.179688 9.289062 -8.863281 8.875 -9.3125 C 8.457031 -9.769531 7.800781 -10 6.90625 -10 C 5.726562 -10 4.863281 -9.679688 4.3125 -9.046875 C 3.769531 -8.410156 3.5 -7.359375 3.5 -5.890625 L 3.5 0 L 1.8125 0 L 1.8125 -11.234375 L 3.1875 -11.234375 L 3.46875 -9.703125 L 3.546875 -9.703125 C 3.898438 -10.253906 4.390625 -10.679688 5.015625 -10.984375 C 5.640625 -11.285156 6.335938 -11.4375 7.109375 -11.4375 C 8.460938 -11.4375 9.484375 -11.109375 10.171875 -10.453125 C 10.859375 -9.804688 11.203125 -8.765625 11.203125 -7.328125 L 11.203125 0 Z M 9.5 0 "/></g></g></g><g fill="#ffffff" fill-opacity="1"><g transform="translate(87.374585, 154.655685)"><g><path d="M 11 -11.234375 L 11 -10.15625 L 8.921875 -9.921875 C 9.109375 -9.679688 9.273438 -9.363281 9.421875 -8.96875 C 9.578125 -8.582031 9.65625 -8.148438 9.65625 -7.671875 C 9.65625 -6.566406 9.28125 -5.6875 8.53125 -5.03125 C 7.78125 -4.375 6.75 -4.046875 5.4375 -4.046875 C 5.101562 -4.046875 4.785156 -4.070312 4.484375 -4.125 C 3.765625 -3.75 3.40625 -3.269531 3.40625 -2.6875 C 3.40625 -2.375 3.53125 -2.144531 3.78125 -2 C 4.03125 -1.851562 4.46875 -1.78125 5.09375 -1.78125 L 7.078125 -1.78125 C 8.296875 -1.78125 9.226562 -1.523438 9.875 -1.015625 C 10.53125 -0.503906 10.859375 0.238281 10.859375 1.21875 C 10.859375 2.46875 10.359375 3.414062 9.359375 4.0625 C 8.359375 4.71875 6.90625 5.046875 5 5.046875 C 3.53125 5.046875 2.394531 4.769531 1.59375 4.21875 C 0.800781 3.675781 0.40625 2.90625 0.40625 1.90625 C 0.40625 1.21875 0.625 0.625 1.0625 0.125 C 1.5 -0.363281 2.113281 -0.695312 2.90625 -0.875 C 2.613281 -1.007812 2.367188 -1.210938 2.171875 -1.484375 C 1.984375 -1.753906 1.890625 -2.070312 1.890625 -2.4375 C 1.890625 -2.851562 2 -3.210938 2.21875 -3.515625 C 2.4375 -3.828125 2.78125 -4.125 3.25 -4.40625 C 2.664062 -4.644531 2.191406 -5.050781 1.828125 -5.625 C 1.460938 -6.195312 1.28125 -6.851562 1.28125 -7.59375 C 1.28125 -8.820312 1.648438 -9.769531 2.390625 -10.4375 C 3.128906 -11.101562 4.175781 -11.4375 5.53125 -11.4375 C 6.113281 -11.4375 6.640625 -11.367188 7.109375 -11.234375 Z M 2.046875 1.890625 C 2.046875 2.492188 2.300781 2.953125 2.8125 3.265625 C 3.320312 3.585938 4.054688 3.75 5.015625 3.75 C 6.441406 3.75 7.5 3.535156 8.1875 3.109375 C 8.875 2.679688 9.21875 2.097656 9.21875 1.359375 C 9.21875 0.753906 9.03125 0.332031 8.65625 0.09375 C 8.28125 -0.132812 7.570312 -0.25 6.53125 -0.25 L 4.484375 -0.25 C 3.710938 -0.25 3.113281 -0.0664062 2.6875 0.296875 C 2.257812 0.660156 2.046875 1.191406 2.046875 1.890625 Z M 2.96875 -7.640625 C 2.96875 -6.847656 3.1875 -6.25 3.625 -5.84375 C 4.070312 -5.445312 4.691406 -5.25 5.484375 -5.25 C 7.148438 -5.25 7.984375 -6.054688 7.984375 -7.671875 C 7.984375 -9.359375 7.140625 -10.203125 5.453125 -10.203125 C 4.648438 -10.203125 4.035156 -9.984375 3.609375 -9.546875 C 3.179688 -9.117188 2.96875 -8.484375 2.96875 -7.640625 Z M 2.96875 -7.640625 "/></g></g></g><g fill="#ffffff" fill-opacity="1"><g transform="translate(98.873047, 154.655685)"><g/></g></g><g fill="#ffffff" fill-opacity="1"><g transform="translate(104.32508, 154.655685)"><g><path d="M 8.71875 0 L 8.375 -1.59375 L 8.296875 -1.59375 C 7.734375 -0.894531 7.171875 -0.421875 6.609375 -0.171875 C 6.054688 0.078125 5.363281 0.203125 4.53125 0.203125 C 3.414062 0.203125 2.539062 -0.0820312 1.90625 -0.65625 C 1.28125 -1.226562 0.96875 -2.046875 0.96875 -3.109375 C 0.96875 -5.378906 2.78125 -6.566406 6.40625 -6.671875 L 8.3125 -6.734375 L 8.3125 -7.4375 C 8.3125 -8.3125 8.117188 -8.957031 7.734375 -9.375 C 7.359375 -9.800781 6.753906 -10.015625 5.921875 -10.015625 C 4.984375 -10.015625 3.925781 -9.726562 2.75 -9.15625 L 2.21875 -10.453125 C 2.78125 -10.753906 3.390625 -10.988281 4.046875 -11.15625 C 4.703125 -11.332031 5.363281 -11.421875 6.03125 -11.421875 C 7.375 -11.421875 8.367188 -11.125 9.015625 -10.53125 C 9.660156 -9.9375 9.984375 -8.984375 9.984375 -7.671875 L 9.984375 0 Z M 4.875 -1.203125 C 5.925781 -1.203125 6.753906 -1.488281 7.359375 -2.0625 C 7.972656 -2.644531 8.28125 -3.460938 8.28125 -4.515625 L 8.28125 -5.53125 L 6.578125 -5.453125 C 5.222656 -5.410156 4.242188 -5.203125 3.640625 -4.828125 C 3.046875 -4.453125 2.75 -3.875 2.75 -3.09375 C 2.75 -2.46875 2.929688 -1.992188 3.296875 -1.671875 C 3.671875 -1.359375 4.195312 -1.203125 4.875 -1.203125 Z M 4.875 -1.203125 "/></g></g></g><g fill="#ffffff" fill-opacity="1"><g transform="translate(115.997767, 154.655685)"><g/></g></g><g fill="#ffffff" fill-opacity="1"><g transform="translate(121.449801, 154.655685)"><g><path d="M 9.046875 -3.0625 C 9.046875 -2.019531 8.65625 -1.210938 7.875 -0.640625 C 7.101562 -0.078125 6.015625 0.203125 4.609375 0.203125 C 3.117188 0.203125 1.957031 -0.03125 1.125 -0.5 L 1.125 -2.078125 C 1.65625 -1.804688 2.226562 -1.59375 2.84375 -1.4375 C 3.46875 -1.28125 4.066406 -1.203125 4.640625 -1.203125 C 5.535156 -1.203125 6.21875 -1.34375 6.6875 -1.625 C 7.164062 -1.90625 7.40625 -2.335938 7.40625 -2.921875 C 7.40625 -3.359375 7.21875 -3.734375 6.84375 -4.046875 C 6.46875 -4.359375 5.726562 -4.722656 4.625 -5.140625 C 3.582031 -5.535156 2.835938 -5.878906 2.390625 -6.171875 C 1.953125 -6.460938 1.625 -6.789062 1.40625 -7.15625 C 1.195312 -7.53125 1.09375 -7.972656 1.09375 -8.484375 C 1.09375 -9.398438 1.460938 -10.117188 2.203125 -10.640625 C 2.953125 -11.171875 3.972656 -11.4375 5.265625 -11.4375 C 6.472656 -11.4375 7.65625 -11.191406 8.8125 -10.703125 L 8.21875 -9.328125 C 7.082031 -9.785156 6.054688 -10.015625 5.140625 -10.015625 C 4.335938 -10.015625 3.726562 -9.890625 3.3125 -9.640625 C 2.90625 -9.390625 2.703125 -9.039062 2.703125 -8.59375 C 2.703125 -8.289062 2.78125 -8.03125 2.9375 -7.8125 C 3.09375 -7.601562 3.335938 -7.40625 3.671875 -7.21875 C 4.015625 -7.03125 4.675781 -6.753906 5.65625 -6.390625 C 6.988281 -5.898438 7.882812 -5.410156 8.34375 -4.921875 C 8.8125 -4.429688 9.046875 -3.8125 9.046875 -3.0625 Z M 9.046875 -3.0625 "/></g></g></g><g fill="#ffffff" fill-opacity="1"><g transform="translate(131.462282, 154.655685)"><g><path d="M 5.4375 -1.203125 C 5.738281 -1.203125 6.03125 -1.222656 6.3125 -1.265625 C 6.59375 -1.304688 6.8125 -1.351562 6.96875 -1.40625 L 6.96875 -0.109375 C 6.789062 -0.015625 6.519531 0.0546875 6.15625 0.109375 C 5.800781 0.171875 5.476562 0.203125 5.1875 0.203125 C 3.007812 0.203125 1.921875 -0.941406 1.921875 -3.234375 L 1.921875 -9.921875 L 0.3125 -9.921875 L 0.3125 -10.734375 L 1.921875 -11.4375 L 2.640625 -13.84375 L 3.625 -13.84375 L 3.625 -11.234375 L 6.890625 -11.234375 L 6.890625 -9.921875 L 3.625 -9.921875 L 3.625 -3.296875 C 3.625 -2.617188 3.785156 -2.097656 4.109375 -1.734375 C 4.429688 -1.378906 4.875 -1.203125 5.4375 -1.203125 Z M 5.4375 -1.203125 "/></g></g></g><g fill="#ffffff" fill-opacity="1"><g transform="translate(138.871724, 154.655685)"><g><path d="M 6.9375 -11.4375 C 7.4375 -11.4375 7.882812 -11.398438 8.28125 -11.328125 L 8.046875 -9.734375 C 7.578125 -9.835938 7.164062 -9.890625 6.8125 -9.890625 C 5.894531 -9.890625 5.113281 -9.519531 4.46875 -8.78125 C 3.820312 -8.050781 3.5 -7.132812 3.5 -6.03125 L 3.5 0 L 1.8125 0 L 1.8125 -11.234375 L 3.203125 -11.234375 L 3.40625 -9.15625 L 3.484375 -9.15625 C 3.898438 -9.882812 4.398438 -10.445312 4.984375 -10.84375 C 5.578125 -11.238281 6.226562 -11.4375 6.9375 -11.4375 Z M 6.9375 -11.4375 "/></g></g></g><g fill="#ffffff" fill-opacity="1"><g transform="translate(147.439205, 154.655685)"><g><path d="M 11.5 -5.625 C 11.5 -3.789062 11.035156 -2.359375 10.109375 -1.328125 C 9.191406 -0.304688 7.921875 0.203125 6.296875 0.203125 C 5.285156 0.203125 4.390625 -0.03125 3.609375 -0.5 C 2.835938 -0.96875 2.238281 -1.644531 1.8125 -2.53125 C 1.382812 -3.414062 1.171875 -4.445312 1.171875 -5.625 C 1.171875 -7.457031 1.628906 -8.882812 2.546875 -9.90625 C 3.460938 -10.925781 4.738281 -11.4375 6.375 -11.4375 C 7.9375 -11.4375 9.179688 -10.914062 10.109375 -9.875 C 11.035156 -8.832031 11.5 -7.414062 11.5 -5.625 Z M 2.9375 -5.625 C 2.9375 -4.1875 3.222656 -3.09375 3.796875 -2.34375 C 4.378906 -1.59375 5.226562 -1.21875 6.34375 -1.21875 C 7.457031 -1.21875 8.300781 -1.59375 8.875 -2.34375 C 9.445312 -3.09375 9.734375 -4.1875 9.734375 -5.625 C 9.734375 -7.050781 9.445312 -8.132812 8.875 -8.875 C 8.300781 -9.625 7.445312 -10 6.3125 -10 C 5.195312 -10 4.351562 -9.628906 3.78125 -8.890625 C 3.21875 -8.160156 2.9375 -7.070312 2.9375 -5.625 Z M 2.9375 -5.625 "/></g></g></g><g fill="#ffffff" fill-opacity="1"><g transform="translate(160.116213, 154.655685)"><g><path d="M 9.5 0 L 9.5 -7.265625 C 9.5 -8.179688 9.289062 -8.863281 8.875 -9.3125 C 8.457031 -9.769531 7.800781 -10 6.90625 -10 C 5.726562 -10 4.863281 -9.679688 4.3125 -9.046875 C 3.769531 -8.410156 3.5 -7.359375 3.5 -5.890625 L 3.5 0 L 1.8125 0 L 1.8125 -11.234375 L 3.1875 -11.234375 L 3.46875 -9.703125 L 3.546875 -9.703125 C 3.898438 -10.253906 4.390625 -10.679688 5.015625 -10.984375 C 5.640625 -11.285156 6.335938 -11.4375 7.109375 -11.4375 C 8.460938 -11.4375 9.484375 -11.109375 10.171875 -10.453125 C 10.859375 -9.804688 11.203125 -8.765625 11.203125 -7.328125 L 11.203125 0 Z M 9.5 0 "/></g></g></g><g fill="#ffffff" fill-opacity="1"><g transform="translate(172.998185, 154.655685)"><g><path d="M 11 -11.234375 L 11 -10.15625 L 8.921875 -9.921875 C 9.109375 -9.679688 9.273438 -9.363281 9.421875 -8.96875 C 9.578125 -8.582031 9.65625 -8.148438 9.65625 -7.671875 C 9.65625 -6.566406 9.28125 -5.6875 8.53125 -5.03125 C 7.78125 -4.375 6.75 -4.046875 5.4375 -4.046875 C 5.101562 -4.046875 4.785156 -4.070312 4.484375 -4.125 C 3.765625 -3.75 3.40625 -3.269531 3.40625 -2.6875 C 3.40625 -2.375 3.53125 -2.144531 3.78125 -2 C 4.03125 -1.851562 4.46875 -1.78125 5.09375 -1.78125 L 7.078125 -1.78125 C 8.296875 -1.78125 9.226562 -1.523438 9.875 -1.015625 C 10.53125 -0.503906 10.859375 0.238281 10.859375 1.21875 C 10.859375 2.46875 10.359375 3.414062 9.359375 4.0625 C 8.359375 4.71875 6.90625 5.046875 5 5.046875 C 3.53125 5.046875 2.394531 4.769531 1.59375 4.21875 C 0.800781 3.675781 0.40625 2.90625 0.40625 1.90625 C 0.40625 1.21875 0.625 0.625 1.0625 0.125 C 1.5 -0.363281 2.113281 -0.695312 2.90625 -0.875 C 2.613281 -1.007812 2.367188 -1.210938 2.171875 -1.484375 C 1.984375 -1.753906 1.890625 -2.070312 1.890625 -2.4375 C 1.890625 -2.851562 2 -3.210938 2.21875 -3.515625 C 2.4375 -3.828125 2.78125 -4.125 3.25 -4.40625 C 2.664062 -4.644531 2.191406 -5.050781 1.828125 -5.625 C 1.460938 -6.195312 1.28125 -6.851562 1.28125 -7.59375 C 1.28125 -8.820312 1.648438 -9.769531 2.390625 -10.4375 C 3.128906 -11.101562 4.175781 -11.4375 5.53125 -11.4375 C 6.113281 -11.4375 6.640625 -11.367188 7.109375 -11.234375 Z M 2.046875 1.890625 C 2.046875 2.492188 2.300781 2.953125 2.8125 3.265625 C 3.320312 3.585938 4.054688 3.75 5.015625 3.75 C 6.441406 3.75 7.5 3.535156 8.1875 3.109375 C 8.875 2.679688 9.21875 2.097656 9.21875 1.359375 C 9.21875 0.753906 9.03125 0.332031 8.65625 0.09375 C 8.28125 -0.132812 7.570312 -0.25 6.53125 -0.25 L 4.484375 -0.25 C 3.710938 -0.25 3.113281 -0.0664062 2.6875 0.296875 C 2.257812 0.660156 2.046875 1.191406 2.046875 1.890625 Z M 2.96875 -7.640625 C 2.96875 -6.847656 3.1875 -6.25 3.625 -5.84375 C 4.070312 -5.445312 4.691406 -5.25 5.484375 -5.25 C 7.148438 -5.25 7.984375 -6.054688 7.984375 -7.671875 C 7.984375 -9.359375 7.140625 -10.203125 5.453125 -10.203125 C 4.648438 -10.203125 4.035156 -9.984375 3.609375 -9.546875 C 3.179688 -9.117188 2.96875 -8.484375 2.96875 -7.640625 Z M 2.96875 -7.640625 "/></g></g></g><g fill="#ffffff" fill-opacity="1"><g transform="translate(37.218751, 183.905683)"><g><path d="M 6.875 -9.921875 L 4.015625 -9.921875 L 4.015625 0 L 2.3125 0 L 2.3125 -9.921875 L 0.296875 -9.921875 L 0.296875 -10.6875 L 2.3125 -11.296875 L 2.3125 -11.921875 C 2.3125 -14.679688 3.515625 -16.0625 5.921875 -16.0625 C 6.515625 -16.0625 7.210938 -15.941406 8.015625 -15.703125 L 7.578125 -14.34375 C 6.921875 -14.550781 6.359375 -14.65625 5.890625 -14.65625 C 5.253906 -14.65625 4.78125 -14.441406 4.46875 -14.015625 C 4.164062 -13.585938 4.015625 -12.90625 4.015625 -11.96875 L 4.015625 -11.234375 L 6.875 -11.234375 Z M 6.875 -9.921875 "/></g></g></g><g fill="#ffffff" fill-opacity="1"><g transform="translate(44.33099, 183.905683)"><g><path d="M 6.546875 0.203125 C 4.890625 0.203125 3.578125 -0.300781 2.609375 -1.3125 C 1.648438 -2.320312 1.171875 -3.726562 1.171875 -5.53125 C 1.171875 -7.34375 1.617188 -8.78125 2.515625 -9.84375 C 3.410156 -10.90625 4.609375 -11.4375 6.109375 -11.4375 C 7.515625 -11.4375 8.628906 -10.972656 9.453125 -10.046875 C 10.273438 -9.128906 10.6875 -7.910156 10.6875 -6.390625 L 10.6875 -5.3125 L 2.9375 -5.3125 C 2.976562 -3.988281 3.3125 -2.984375 3.9375 -2.296875 C 4.570312 -1.617188 5.460938 -1.28125 6.609375 -1.28125 C 7.816406 -1.28125 9.015625 -1.535156 10.203125 -2.046875 L 10.203125 -0.515625 C 9.597656 -0.265625 9.023438 -0.0820312 8.484375 0.03125 C 7.953125 0.144531 7.304688 0.203125 6.546875 0.203125 Z M 6.09375 -10.015625 C 5.1875 -10.015625 4.460938 -9.71875 3.921875 -9.125 C 3.390625 -8.539062 3.078125 -7.734375 2.984375 -6.703125 L 8.859375 -6.703125 C 8.859375 -7.773438 8.617188 -8.59375 8.140625 -9.15625 C 7.660156 -9.726562 6.976562 -10.015625 6.09375 -10.015625 Z M 6.09375 -10.015625 "/></g></g></g><g fill="#ffffff" fill-opacity="1"><g transform="translate(56.106159, 183.905683)"><g><path d="M 6.546875 0.203125 C 4.890625 0.203125 3.578125 -0.300781 2.609375 -1.3125 C 1.648438 -2.320312 1.171875 -3.726562 1.171875 -5.53125 C 1.171875 -7.34375 1.617188 -8.78125 2.515625 -9.84375 C 3.410156 -10.90625 4.609375 -11.4375 6.109375 -11.4375 C 7.515625 -11.4375 8.628906 -10.972656 9.453125 -10.046875 C 10.273438 -9.128906 10.6875 -7.910156 10.6875 -6.390625 L 10.6875 -5.3125 L 2.9375 -5.3125 C 2.976562 -3.988281 3.3125 -2.984375 3.9375 -2.296875 C 4.570312 -1.617188 5.460938 -1.28125 6.609375 -1.28125 C 7.816406 -1.28125 9.015625 -1.535156 10.203125 -2.046875 L 10.203125 -0.515625 C 9.597656 -0.265625 9.023438 -0.0820312 8.484375 0.03125 C 7.953125 0.144531 7.304688 0.203125 6.546875 0.203125 Z M 6.09375 -10.015625 C 5.1875 -10.015625 4.460938 -9.71875 3.921875 -9.125 C 3.390625 -8.539062 3.078125 -7.734375 2.984375 -6.703125 L 8.859375 -6.703125 C 8.859375 -7.773438 8.617188 -8.59375 8.140625 -9.15625 C 7.660156 -9.726562 6.976562 -10.015625 6.09375 -10.015625 Z M 6.09375 -10.015625 "/></g></g></g><g fill="#ffffff" fill-opacity="1"><g transform="translate(67.881327, 183.905683)"><g><path d="M 3.5 0 L 1.8125 0 L 1.8125 -15.953125 L 3.5 -15.953125 Z M 3.5 0 "/></g></g></g><g fill="#ffffff" fill-opacity="1"><g transform="translate(73.189886, 183.905683)"><g><path d="M 3.5 0 L 1.8125 0 L 1.8125 -11.234375 L 3.5 -11.234375 Z M 1.65625 -14.28125 C 1.65625 -14.675781 1.75 -14.960938 1.9375 -15.140625 C 2.132812 -15.316406 2.378906 -15.40625 2.671875 -15.40625 C 2.941406 -15.40625 3.175781 -15.3125 3.375 -15.125 C 3.570312 -14.945312 3.671875 -14.664062 3.671875 -14.28125 C 3.671875 -13.894531 3.570312 -13.609375 3.375 -13.421875 C 3.175781 -13.234375 2.941406 -13.140625 2.671875 -13.140625 C 2.378906 -13.140625 2.132812 -13.234375 1.9375 -13.421875 C 1.75 -13.609375 1.65625 -13.894531 1.65625 -14.28125 Z M 1.65625 -14.28125 "/></g></g></g><g fill="#ffffff" fill-opacity="1"><g transform="translate(78.498445, 183.905683)"><g><path d="M 9.5 0 L 9.5 -7.265625 C 9.5 -8.179688 9.289062 -8.863281 8.875 -9.3125 C 8.457031 -9.769531 7.800781 -10 6.90625 -10 C 5.726562 -10 4.863281 -9.679688 4.3125 -9.046875 C 3.769531 -8.410156 3.5 -7.359375 3.5 -5.890625 L 3.5 0 L 1.8125 0 L 1.8125 -11.234375 L 3.1875 -11.234375 L 3.46875 -9.703125 L 3.546875 -9.703125 C 3.898438 -10.253906 4.390625 -10.679688 5.015625 -10.984375 C 5.640625 -11.285156 6.335938 -11.4375 7.109375 -11.4375 C 8.460938 -11.4375 9.484375 -11.109375 10.171875 -10.453125 C 10.859375 -9.804688 11.203125 -8.765625 11.203125 -7.328125 L 11.203125 0 Z M 9.5 0 "/></g></g></g><g fill="#ffffff" fill-opacity="1"><g transform="translate(91.380417, 183.905683)"><g><path d="M 11 -11.234375 L 11 -10.15625 L 8.921875 -9.921875 C 9.109375 -9.679688 9.273438 -9.363281 9.421875 -8.96875 C 9.578125 -8.582031 9.65625 -8.148438 9.65625 -7.671875 C 9.65625 -6.566406 9.28125 -5.6875 8.53125 -5.03125 C 7.78125 -4.375 6.75 -4.046875 5.4375 -4.046875 C 5.101562 -4.046875 4.785156 -4.070312 4.484375 -4.125 C 3.765625 -3.75 3.40625 -3.269531 3.40625 -2.6875 C 3.40625 -2.375 3.53125 -2.144531 3.78125 -2 C 4.03125 -1.851562 4.46875 -1.78125 5.09375 -1.78125 L 7.078125 -1.78125 C 8.296875 -1.78125 9.226562 -1.523438 9.875 -1.015625 C 10.53125 -0.503906 10.859375 0.238281 10.859375 1.21875 C 10.859375 2.46875 10.359375 3.414062 9.359375 4.0625 C 8.359375 4.71875 6.90625 5.046875 5 5.046875 C 3.53125 5.046875 2.394531 4.769531 1.59375 4.21875 C 0.800781 3.675781 0.40625 2.90625 0.40625 1.90625 C 0.40625 1.21875 0.625 0.625 1.0625 0.125 C 1.5 -0.363281 2.113281 -0.695312 2.90625 -0.875 C 2.613281 -1.007812 2.367188 -1.210938 2.171875 -1.484375 C 1.984375 -1.753906 1.890625 -2.070312 1.890625 -2.4375 C 1.890625 -2.851562 2 -3.210938 2.21875 -3.515625 C 2.4375 -3.828125 2.78125 -4.125 3.25 -4.40625 C 2.664062 -4.644531 2.191406 -5.050781 1.828125 -5.625 C 1.460938 -6.195312 1.28125 -6.851562 1.28125 -7.59375 C 1.28125 -8.820312 1.648438 -9.769531 2.390625 -10.4375 C 3.128906 -11.101562 4.175781 -11.4375 5.53125 -11.4375 C 6.113281 -11.4375 6.640625 -11.367188 7.109375 -11.234375 Z M 2.046875 1.890625 C 2.046875 2.492188 2.300781 2.953125 2.8125 3.265625 C 3.320312 3.585938 4.054688 3.75 5.015625 3.75 C 6.441406 3.75 7.5 3.535156 8.1875 3.109375 C 8.875 2.679688 9.21875 2.097656 9.21875 1.359375 C 9.21875 0.753906 9.03125 0.332031 8.65625 0.09375 C 8.28125 -0.132812 7.570312 -0.25 6.53125 -0.25 L 4.484375 -0.25 C 3.710938 -0.25 3.113281 -0.0664062 2.6875 0.296875 C 2.257812 0.660156 2.046875 1.191406 2.046875 1.890625 Z M 2.96875 -7.640625 C 2.96875 -6.847656 3.1875 -6.25 3.625 -5.84375 C 4.070312 -5.445312 4.691406 -5.25 5.484375 -5.25 C 7.148438 -5.25 7.984375 -6.054688 7.984375 -7.671875 C 7.984375 -9.359375 7.140625 -10.203125 5.453125 -10.203125 C 4.648438 -10.203125 4.035156 -9.984375 3.609375 -9.546875 C 3.179688 -9.117188 2.96875 -8.484375 2.96875 -7.640625 Z M 2.96875 -7.640625 "/></g></g></g><g fill="#ffffff" fill-opacity="1"><g transform="translate(102.878879, 183.905683)"><g/></g></g><g fill="#ffffff" fill-opacity="1"><g transform="translate(108.330913, 183.905683)"><g><path d="M 8.71875 0 L 8.375 -1.59375 L 8.296875 -1.59375 C 7.734375 -0.894531 7.171875 -0.421875 6.609375 -0.171875 C 6.054688 0.078125 5.363281 0.203125 4.53125 0.203125 C 3.414062 0.203125 2.539062 -0.0820312 1.90625 -0.65625 C 1.28125 -1.226562 0.96875 -2.046875 0.96875 -3.109375 C 0.96875 -5.378906 2.78125 -6.566406 6.40625 -6.671875 L 8.3125 -6.734375 L 8.3125 -7.4375 C 8.3125 -8.3125 8.117188 -8.957031 7.734375 -9.375 C 7.359375 -9.800781 6.753906 -10.015625 5.921875 -10.015625 C 4.984375 -10.015625 3.925781 -9.726562 2.75 -9.15625 L 2.21875 -10.453125 C 2.78125 -10.753906 3.390625 -10.988281 4.046875 -11.15625 C 4.703125 -11.332031 5.363281 -11.421875 6.03125 -11.421875 C 7.375 -11.421875 8.367188 -11.125 9.015625 -10.53125 C 9.660156 -9.9375 9.984375 -8.984375 9.984375 -7.671875 L 9.984375 0 Z M 4.875 -1.203125 C 5.925781 -1.203125 6.753906 -1.488281 7.359375 -2.0625 C 7.972656 -2.644531 8.28125 -3.460938 8.28125 -4.515625 L 8.28125 -5.53125 L 6.578125 -5.453125 C 5.222656 -5.410156 4.242188 -5.203125 3.640625 -4.828125 C 3.046875 -4.453125 2.75 -3.875 2.75 -3.09375 C 2.75 -2.46875 2.929688 -1.992188 3.296875 -1.671875 C 3.671875 -1.359375 4.195312 -1.203125 4.875 -1.203125 Z M 4.875 -1.203125 "/></g></g></g><g fill="#ffffff" fill-opacity="1"><g transform="translate(120.003599, 183.905683)"><g><path d="M 11 -11.234375 L 11 -10.15625 L 8.921875 -9.921875 C 9.109375 -9.679688 9.273438 -9.363281 9.421875 -8.96875 C 9.578125 -8.582031 9.65625 -8.148438 9.65625 -7.671875 C 9.65625 -6.566406 9.28125 -5.6875 8.53125 -5.03125 C 7.78125 -4.375 6.75 -4.046875 5.4375 -4.046875 C 5.101562 -4.046875 4.785156 -4.070312 4.484375 -4.125 C 3.765625 -3.75 3.40625 -3.269531 3.40625 -2.6875 C 3.40625 -2.375 3.53125 -2.144531 3.78125 -2 C 4.03125 -1.851562 4.46875 -1.78125 5.09375 -1.78125 L 7.078125 -1.78125 C 8.296875 -1.78125 9.226562 -1.523438 9.875 -1.015625 C 10.53125 -0.503906 10.859375 0.238281 10.859375 1.21875 C 10.859375 2.46875 10.359375 3.414062 9.359375 4.0625 C 8.359375 4.71875 6.90625 5.046875 5 5.046875 C 3.53125 5.046875 2.394531 4.769531 1.59375 4.21875 C 0.800781 3.675781 0.40625 2.90625 0.40625 1.90625 C 0.40625 1.21875 0.625 0.625 1.0625 0.125 C 1.5 -0.363281 2.113281 -0.695312 2.90625 -0.875 C 2.613281 -1.007812 2.367188 -1.210938 2.171875 -1.484375 C 1.984375 -1.753906 1.890625 -2.070312 1.890625 -2.4375 C 1.890625 -2.851562 2 -3.210938 2.21875 -3.515625 C 2.4375 -3.828125 2.78125 -4.125 3.25 -4.40625 C 2.664062 -4.644531 2.191406 -5.050781 1.828125 -5.625 C 1.460938 -6.195312 1.28125 -6.851562 1.28125 -7.59375 C 1.28125 -8.820312 1.648438 -9.769531 2.390625 -10.4375 C 3.128906 -11.101562 4.175781 -11.4375 5.53125 -11.4375 C 6.113281 -11.4375 6.640625 -11.367188 7.109375 -11.234375 Z M 2.046875 1.890625 C 2.046875 2.492188 2.300781 2.953125 2.8125 3.265625 C 3.320312 3.585938 4.054688 3.75 5.015625 3.75 C 6.441406 3.75 7.5 3.535156 8.1875 3.109375 C 8.875 2.679688 9.21875 2.097656 9.21875 1.359375 C 9.21875 0.753906 9.03125 0.332031 8.65625 0.09375 C 8.28125 -0.132812 7.570312 -0.25 6.53125 -0.25 L 4.484375 -0.25 C 3.710938 -0.25 3.113281 -0.0664062 2.6875 0.296875 C 2.257812 0.660156 2.046875 1.191406 2.046875 1.890625 Z M 2.96875 -7.640625 C 2.96875 -6.847656 3.1875 -6.25 3.625 -5.84375 C 4.070312 -5.445312 4.691406 -5.25 5.484375 -5.25 C 7.148438 -5.25 7.984375 -6.054688 7.984375 -7.671875 C 7.984375 -9.359375 7.140625 -10.203125 5.453125 -10.203125 C 4.648438 -10.203125 4.035156 -9.984375 3.609375 -9.546875 C 3.179688 -9.117188 2.96875 -8.484375 2.96875 -7.640625 Z M 2.96875 -7.640625 "/></g></g></g><g fill="#ffffff" fill-opacity="1"><g transform="translate(131.502061, 183.905683)"><g><path d="M 8.71875 0 L 8.375 -1.59375 L 8.296875 -1.59375 C 7.734375 -0.894531 7.171875 -0.421875 6.609375 -0.171875 C 6.054688 0.078125 5.363281 0.203125 4.53125 0.203125 C 3.414062 0.203125 2.539062 -0.0820312 1.90625 -0.65625 C 1.28125 -1.226562 0.96875 -2.046875 0.96875 -3.109375 C 0.96875 -5.378906 2.78125 -6.566406 6.40625 -6.671875 L 8.3125 -6.734375 L 8.3125 -7.4375 C 8.3125 -8.3125 8.117188 -8.957031 7.734375 -9.375 C 7.359375 -9.800781 6.753906 -10.015625 5.921875 -10.015625 C 4.984375 -10.015625 3.925781 -9.726562 2.75 -9.15625 L 2.21875 -10.453125 C 2.78125 -10.753906 3.390625 -10.988281 4.046875 -11.15625 C 4.703125 -11.332031 5.363281 -11.421875 6.03125 -11.421875 C 7.375 -11.421875 8.367188 -11.125 9.015625 -10.53125 C 9.660156 -9.9375 9.984375 -8.984375 9.984375 -7.671875 L 9.984375 0 Z M 4.875 -1.203125 C 5.925781 -1.203125 6.753906 -1.488281 7.359375 -2.0625 C 7.972656 -2.644531 8.28125 -3.460938 8.28125 -4.515625 L 8.28125 -5.53125 L 6.578125 -5.453125 C 5.222656 -5.410156 4.242188 -5.203125 3.640625 -4.828125 C 3.046875 -4.453125 2.75 -3.875 2.75 -3.09375 C 2.75 -2.46875 2.929688 -1.992188 3.296875 -1.671875 C 3.671875 -1.359375 4.195312 -1.203125 4.875 -1.203125 Z M 4.875 -1.203125 "/></g></g></g><g fill="#ffffff" fill-opacity="1"><g transform="translate(143.174748, 183.905683)"><g><path d="M 3.5 0 L 1.8125 0 L 1.8125 -11.234375 L 3.5 -11.234375 Z M 1.65625 -14.28125 C 1.65625 -14.675781 1.75 -14.960938 1.9375 -15.140625 C 2.132812 -15.316406 2.378906 -15.40625 2.671875 -15.40625 C 2.941406 -15.40625 3.175781 -15.3125 3.375 -15.125 C 3.570312 -14.945312 3.671875 -14.664062 3.671875 -14.28125 C 3.671875 -13.894531 3.570312 -13.609375 3.375 -13.421875 C 3.175781 -13.234375 2.941406 -13.140625 2.671875 -13.140625 C 2.378906 -13.140625 2.132812 -13.234375 1.9375 -13.421875 C 1.75 -13.609375 1.65625 -13.894531 1.65625 -14.28125 Z M 1.65625 -14.28125 "/></g></g></g><g fill="#ffffff" fill-opacity="1"><g transform="translate(148.483307, 183.905683)"><g><path d="M 9.5 0 L 9.5 -7.265625 C 9.5 -8.179688 9.289062 -8.863281 8.875 -9.3125 C 8.457031 -9.769531 7.800781 -10 6.90625 -10 C 5.726562 -10 4.863281 -9.679688 4.3125 -9.046875 C 3.769531 -8.410156 3.5 -7.359375 3.5 -5.890625 L 3.5 0 L 1.8125 0 L 1.8125 -11.234375 L 3.1875 -11.234375 L 3.46875 -9.703125 L 3.546875 -9.703125 C 3.898438 -10.253906 4.390625 -10.679688 5.015625 -10.984375 C 5.640625 -11.285156 6.335938 -11.4375 7.109375 -11.4375 C 8.460938 -11.4375 9.484375 -11.109375 10.171875 -10.453125 C 10.859375 -9.804688 11.203125 -8.765625 11.203125 -7.328125 L 11.203125 0 Z M 9.5 0 "/></g></g></g><g fill="#ffffff" fill-opacity="1"><g transform="translate(161.365279, 183.905683)"><g><path d="M 9.046875 -3.0625 C 9.046875 -2.019531 8.65625 -1.210938 7.875 -0.640625 C 7.101562 -0.078125 6.015625 0.203125 4.609375 0.203125 C 3.117188 0.203125 1.957031 -0.03125 1.125 -0.5 L 1.125 -2.078125 C 1.65625 -1.804688 2.226562 -1.59375 2.84375 -1.4375 C 3.46875 -1.28125 4.066406 -1.203125 4.640625 -1.203125 C 5.535156 -1.203125 6.21875 -1.34375 6.6875 -1.625 C 7.164062 -1.90625 7.40625 -2.335938 7.40625 -2.921875 C 7.40625 -3.359375 7.21875 -3.734375 6.84375 -4.046875 C 6.46875 -4.359375 5.726562 -4.722656 4.625 -5.140625 C 3.582031 -5.535156 2.835938 -5.878906 2.390625 -6.171875 C 1.953125 -6.460938 1.625 -6.789062 1.40625 -7.15625 C 1.195312 -7.53125 1.09375 -7.972656 1.09375 -8.484375 C 1.09375 -9.398438 1.460938 -10.117188 2.203125 -10.640625 C 2.953125 -11.171875 3.972656 -11.4375 5.265625 -11.4375 C 6.472656 -11.4375 7.65625 -11.191406 8.8125 -10.703125 L 8.21875 -9.328125 C 7.082031 -9.785156 6.054688 -10.015625 5.140625 -10.015625 C 4.335938 -10.015625 3.726562 -9.890625 3.3125 -9.640625 C 2.90625 -9.390625 2.703125 -9.039062 2.703125 -8.59375 C 2.703125 -8.289062 2.78125 -8.03125 2.9375 -7.8125 C 3.09375 -7.601562 3.335938 -7.40625 3.671875 -7.21875 C 4.015625 -7.03125 4.675781 -6.753906 5.65625 -6.390625 C 6.988281 -5.898438 7.882812 -5.410156 8.34375 -4.921875 C 8.8125 -4.429688 9.046875 -3.8125 9.046875 -3.0625 Z M 9.046875 -3.0625 "/></g></g></g><g fill="#ffffff" fill-opacity="1"><g transform="translate(171.37776, 183.905683)"><g><path d="M 5.4375 -1.203125 C 5.738281 -1.203125 6.03125 -1.222656 6.3125 -1.265625 C 6.59375 -1.304688 6.8125 -1.351562 6.96875 -1.40625 L 6.96875 -0.109375 C 6.789062 -0.015625 6.519531 0.0546875 6.15625 0.109375 C 5.800781 0.171875 5.476562 0.203125 5.1875 0.203125 C 3.007812 0.203125 1.921875 -0.941406 1.921875 -3.234375 L 1.921875 -9.921875 L 0.3125 -9.921875 L 0.3125 -10.734375 L 1.921875 -11.4375 L 2.640625 -13.84375 L 3.625 -13.84375 L 3.625 -11.234375 L 6.890625 -11.234375 L 6.890625 -9.921875 L 3.625 -9.921875 L 3.625 -3.296875 C 3.625 -2.617188 3.785156 -2.097656 4.109375 -1.734375 C 4.429688 -1.378906 4.875 -1.203125 5.4375 -1.203125 Z M 5.4375 -1.203125 "/></g></g></g><g fill="#ffffff" fill-opacity="1"><g transform="translate(13.277347, 213.155681)"><g><path d="M 9.046875 -3.0625 C 9.046875 -2.019531 8.65625 -1.210938 7.875 -0.640625 C 7.101562 -0.078125 6.015625 0.203125 4.609375 0.203125 C 3.117188 0.203125 1.957031 -0.03125 1.125 -0.5 L 1.125 -2.078125 C 1.65625 -1.804688 2.226562 -1.59375 2.84375 -1.4375 C 3.46875 -1.28125 4.066406 -1.203125 4.640625 -1.203125 C 5.535156 -1.203125 6.21875 -1.34375 6.6875 -1.625 C 7.164062 -1.90625 7.40625 -2.335938 7.40625 -2.921875 C 7.40625 -3.359375 7.21875 -3.734375 6.84375 -4.046875 C 6.46875 -4.359375 5.726562 -4.722656 4.625 -5.140625 C 3.582031 -5.535156 2.835938 -5.878906 2.390625 -6.171875 C 1.953125 -6.460938 1.625 -6.789062 1.40625 -7.15625 C 1.195312 -7.53125 1.09375 -7.972656 1.09375 -8.484375 C 1.09375 -9.398438 1.460938 -10.117188 2.203125 -10.640625 C 2.953125 -11.171875 3.972656 -11.4375 5.265625 -11.4375 C 6.472656 -11.4375 7.65625 -11.191406 8.8125 -10.703125 L 8.21875 -9.328125 C 7.082031 -9.785156 6.054688 -10.015625 5.140625 -10.015625 C 4.335938 -10.015625 3.726562 -9.890625 3.3125 -9.640625 C 2.90625 -9.390625 2.703125 -9.039062 2.703125 -8.59375 C 2.703125 -8.289062 2.78125 -8.03125 2.9375 -7.8125 C 3.09375 -7.601562 3.335938 -7.40625 3.671875 -7.21875 C 4.015625 -7.03125 4.675781 -6.753906 5.65625 -6.390625 C 6.988281 -5.898438 7.882812 -5.410156 8.34375 -4.921875 C 8.8125 -4.429688 9.046875 -3.8125 9.046875 -3.0625 Z M 9.046875 -3.0625 "/></g></g></g><g fill="#ffffff" fill-opacity="1"><g transform="translate(23.289828, 213.155681)"><g><path d="M 11.5 -5.625 C 11.5 -3.789062 11.035156 -2.359375 10.109375 -1.328125 C 9.191406 -0.304688 7.921875 0.203125 6.296875 0.203125 C 5.285156 0.203125 4.390625 -0.03125 3.609375 -0.5 C 2.835938 -0.96875 2.238281 -1.644531 1.8125 -2.53125 C 1.382812 -3.414062 1.171875 -4.445312 1.171875 -5.625 C 1.171875 -7.457031 1.628906 -8.882812 2.546875 -9.90625 C 3.460938 -10.925781 4.738281 -11.4375 6.375 -11.4375 C 7.9375 -11.4375 9.179688 -10.914062 10.109375 -9.875 C 11.035156 -8.832031 11.5 -7.414062 11.5 -5.625 Z M 2.9375 -5.625 C 2.9375 -4.1875 3.222656 -3.09375 3.796875 -2.34375 C 4.378906 -1.59375 5.226562 -1.21875 6.34375 -1.21875 C 7.457031 -1.21875 8.300781 -1.59375 8.875 -2.34375 C 9.445312 -3.09375 9.734375 -4.1875 9.734375 -5.625 C 9.734375 -7.050781 9.445312 -8.132812 8.875 -8.875 C 8.300781 -9.625 7.445312 -10 6.3125 -10 C 5.195312 -10 4.351562 -9.628906 3.78125 -8.890625 C 3.21875 -8.160156 2.9375 -7.070312 2.9375 -5.625 Z M 2.9375 -5.625 "/></g></g></g><g fill="#ffffff" fill-opacity="1"><g transform="translate(35.966836, 213.155681)"><g><path d="M 16.125 0 L 16.125 -7.3125 C 16.125 -8.207031 15.929688 -8.878906 15.546875 -9.328125 C 15.171875 -9.773438 14.578125 -10 13.765625 -10 C 12.710938 -10 11.929688 -9.691406 11.421875 -9.078125 C 10.921875 -8.472656 10.671875 -7.539062 10.671875 -6.28125 L 10.671875 0 L 8.96875 0 L 8.96875 -7.3125 C 8.96875 -8.207031 8.773438 -8.878906 8.390625 -9.328125 C 8.003906 -9.773438 7.40625 -10 6.59375 -10 C 5.53125 -10 4.75 -9.675781 4.25 -9.03125 C 3.75 -8.394531 3.5 -7.347656 3.5 -5.890625 L 3.5 0 L 1.8125 0 L 1.8125 -11.234375 L 3.1875 -11.234375 L 3.46875 -9.703125 L 3.546875 -9.703125 C 3.867188 -10.242188 4.320312 -10.664062 4.90625 -10.96875 C 5.488281 -11.28125 6.144531 -11.4375 6.875 -11.4375 C 8.625 -11.4375 9.769531 -10.800781 10.3125 -9.53125 L 10.390625 -9.53125 C 10.734375 -10.125 11.222656 -10.585938 11.859375 -10.921875 C 12.492188 -11.265625 13.21875 -11.4375 14.03125 -11.4375 C 15.300781 -11.4375 16.25 -11.109375 16.875 -10.453125 C 17.507812 -9.804688 17.828125 -8.765625 17.828125 -7.328125 L 17.828125 0 Z M 16.125 0 "/></g></g></g><g fill="#ffffff" fill-opacity="1"><g transform="translate(55.489631, 213.155681)"><g><path d="M 6.546875 0.203125 C 4.890625 0.203125 3.578125 -0.300781 2.609375 -1.3125 C 1.648438 -2.320312 1.171875 -3.726562 1.171875 -5.53125 C 1.171875 -7.34375 1.617188 -8.78125 2.515625 -9.84375 C 3.410156 -10.90625 4.609375 -11.4375 6.109375 -11.4375 C 7.515625 -11.4375 8.628906 -10.972656 9.453125 -10.046875 C 10.273438 -9.128906 10.6875 -7.910156 10.6875 -6.390625 L 10.6875 -5.3125 L 2.9375 -5.3125 C 2.976562 -3.988281 3.3125 -2.984375 3.9375 -2.296875 C 4.570312 -1.617188 5.460938 -1.28125 6.609375 -1.28125 C 7.816406 -1.28125 9.015625 -1.535156 10.203125 -2.046875 L 10.203125 -0.515625 C 9.597656 -0.265625 9.023438 -0.0820312 8.484375 0.03125 C 7.953125 0.144531 7.304688 0.203125 6.546875 0.203125 Z M 6.09375 -10.015625 C 5.1875 -10.015625 4.460938 -9.71875 3.921875 -9.125 C 3.390625 -8.539062 3.078125 -7.734375 2.984375 -6.703125 L 8.859375 -6.703125 C 8.859375 -7.773438 8.617188 -8.59375 8.140625 -9.15625 C 7.660156 -9.726562 6.976562 -10.015625 6.09375 -10.015625 Z M 6.09375 -10.015625 "/></g></g></g><g fill="#ffffff" fill-opacity="1"><g transform="translate(67.2648, 213.155681)"><g><path d="M 11.5 -5.625 C 11.5 -3.789062 11.035156 -2.359375 10.109375 -1.328125 C 9.191406 -0.304688 7.921875 0.203125 6.296875 0.203125 C 5.285156 0.203125 4.390625 -0.03125 3.609375 -0.5 C 2.835938 -0.96875 2.238281 -1.644531 1.8125 -2.53125 C 1.382812 -3.414062 1.171875 -4.445312 1.171875 -5.625 C 1.171875 -7.457031 1.628906 -8.882812 2.546875 -9.90625 C 3.460938 -10.925781 4.738281 -11.4375 6.375 -11.4375 C 7.9375 -11.4375 9.179688 -10.914062 10.109375 -9.875 C 11.035156 -8.832031 11.5 -7.414062 11.5 -5.625 Z M 2.9375 -5.625 C 2.9375 -4.1875 3.222656 -3.09375 3.796875 -2.34375 C 4.378906 -1.59375 5.226562 -1.21875 6.34375 -1.21875 C 7.457031 -1.21875 8.300781 -1.59375 8.875 -2.34375 C 9.445312 -3.09375 9.734375 -4.1875 9.734375 -5.625 C 9.734375 -7.050781 9.445312 -8.132812 8.875 -8.875 C 8.300781 -9.625 7.445312 -10 6.3125 -10 C 5.195312 -10 4.351562 -9.628906 3.78125 -8.890625 C 3.21875 -8.160156 2.9375 -7.070312 2.9375 -5.625 Z M 2.9375 -5.625 "/></g></g></g><g fill="#ffffff" fill-opacity="1"><g transform="translate(79.941808, 213.155681)"><g><path d="M 9.5 0 L 9.5 -7.265625 C 9.5 -8.179688 9.289062 -8.863281 8.875 -9.3125 C 8.457031 -9.769531 7.800781 -10 6.90625 -10 C 5.726562 -10 4.863281 -9.679688 4.3125 -9.046875 C 3.769531 -8.410156 3.5 -7.359375 3.5 -5.890625 L 3.5 0 L 1.8125 0 L 1.8125 -11.234375 L 3.1875 -11.234375 L 3.46875 -9.703125 L 3.546875 -9.703125 C 3.898438 -10.253906 4.390625 -10.679688 5.015625 -10.984375 C 5.640625 -11.285156 6.335938 -11.4375 7.109375 -11.4375 C 8.460938 -11.4375 9.484375 -11.109375 10.171875 -10.453125 C 10.859375 -9.804688 11.203125 -8.765625 11.203125 -7.328125 L 11.203125 0 Z M 9.5 0 "/></g></g></g><g fill="#ffffff" fill-opacity="1"><g transform="translate(92.82378, 213.155681)"><g><path d="M 6.546875 0.203125 C 4.890625 0.203125 3.578125 -0.300781 2.609375 -1.3125 C 1.648438 -2.320312 1.171875 -3.726562 1.171875 -5.53125 C 1.171875 -7.34375 1.617188 -8.78125 2.515625 -9.84375 C 3.410156 -10.90625 4.609375 -11.4375 6.109375 -11.4375 C 7.515625 -11.4375 8.628906 -10.972656 9.453125 -10.046875 C 10.273438 -9.128906 10.6875 -7.910156 10.6875 -6.390625 L 10.6875 -5.3125 L 2.9375 -5.3125 C 2.976562 -3.988281 3.3125 -2.984375 3.9375 -2.296875 C 4.570312 -1.617188 5.460938 -1.28125 6.609375 -1.28125 C 7.816406 -1.28125 9.015625 -1.535156 10.203125 -2.046875 L 10.203125 -0.515625 C 9.597656 -0.265625 9.023438 -0.0820312 8.484375 0.03125 C 7.953125 0.144531 7.304688 0.203125 6.546875 0.203125 Z M 6.09375 -10.015625 C 5.1875 -10.015625 4.460938 -9.71875 3.921875 -9.125 C 3.390625 -8.539062 3.078125 -7.734375 2.984375 -6.703125 L 8.859375 -6.703125 C 8.859375 -7.773438 8.617188 -8.59375 8.140625 -9.15625 C 7.660156 -9.726562 6.976562 -10.015625 6.09375 -10.015625 Z M 6.09375 -10.015625 "/></g></g></g><g fill="#ffffff" fill-opacity="1"><g transform="translate(104.598948, 213.155681)"><g/></g></g><g fill="#ffffff" fill-opacity="1"><g transform="translate(110.050982, 213.155681)"><g><path d="M 6.546875 0.203125 C 4.890625 0.203125 3.578125 -0.300781 2.609375 -1.3125 C 1.648438 -2.320312 1.171875 -3.726562 1.171875 -5.53125 C 1.171875 -7.34375 1.617188 -8.78125 2.515625 -9.84375 C 3.410156 -10.90625 4.609375 -11.4375 6.109375 -11.4375 C 7.515625 -11.4375 8.628906 -10.972656 9.453125 -10.046875 C 10.273438 -9.128906 10.6875 -7.910156 10.6875 -6.390625 L 10.6875 -5.3125 L 2.9375 -5.3125 C 2.976562 -3.988281 3.3125 -2.984375 3.9375 -2.296875 C 4.570312 -1.617188 5.460938 -1.28125 6.609375 -1.28125 C 7.816406 -1.28125 9.015625 -1.535156 10.203125 -2.046875 L 10.203125 -0.515625 C 9.597656 -0.265625 9.023438 -0.0820312 8.484375 0.03125 C 7.953125 0.144531 7.304688 0.203125 6.546875 0.203125 Z M 6.09375 -10.015625 C 5.1875 -10.015625 4.460938 -9.71875 3.921875 -9.125 C 3.390625 -8.539062 3.078125 -7.734375 2.984375 -6.703125 L 8.859375 -6.703125 C 8.859375 -7.773438 8.617188 -8.59375 8.140625 -9.15625 C 7.660156 -9.726562 6.976562 -10.015625 6.09375 -10.015625 Z M 6.09375 -10.015625 "/></g></g></g><g fill="#ffffff" fill-opacity="1"><g transform="translate(121.82615, 213.155681)"><g><path d="M 3.5 0 L 1.8125 0 L 1.8125 -15.953125 L 3.5 -15.953125 Z M 3.5 0 "/></g></g></g><g fill="#ffffff" fill-opacity="1"><g transform="translate(127.134709, 213.155681)"><g><path d="M 9.046875 -3.0625 C 9.046875 -2.019531 8.65625 -1.210938 7.875 -0.640625 C 7.101562 -0.078125 6.015625 0.203125 4.609375 0.203125 C 3.117188 0.203125 1.957031 -0.03125 1.125 -0.5 L 1.125 -2.078125 C 1.65625 -1.804688 2.226562 -1.59375 2.84375 -1.4375 C 3.46875 -1.28125 4.066406 -1.203125 4.640625 -1.203125 C 5.535156 -1.203125 6.21875 -1.34375 6.6875 -1.625 C 7.164062 -1.90625 7.40625 -2.335938 7.40625 -2.921875 C 7.40625 -3.359375 7.21875 -3.734375 6.84375 -4.046875 C 6.46875 -4.359375 5.726562 -4.722656 4.625 -5.140625 C 3.582031 -5.535156 2.835938 -5.878906 2.390625 -6.171875 C 1.953125 -6.460938 1.625 -6.789062 1.40625 -7.15625 C 1.195312 -7.53125 1.09375 -7.972656 1.09375 -8.484375 C 1.09375 -9.398438 1.460938 -10.117188 2.203125 -10.640625 C 2.953125 -11.171875 3.972656 -11.4375 5.265625 -11.4375 C 6.472656 -11.4375 7.65625 -11.191406 8.8125 -10.703125 L 8.21875 -9.328125 C 7.082031 -9.785156 6.054688 -10.015625 5.140625 -10.015625 C 4.335938 -10.015625 3.726562 -9.890625 3.3125 -9.640625 C 2.90625 -9.390625 2.703125 -9.039062 2.703125 -8.59375 C 2.703125 -8.289062 2.78125 -8.03125 2.9375 -7.8125 C 3.09375 -7.601562 3.335938 -7.40625 3.671875 -7.21875 C 4.015625 -7.03125 4.675781 -6.753906 5.65625 -6.390625 C 6.988281 -5.898438 7.882812 -5.410156 8.34375 -4.921875 C 8.8125 -4.429688 9.046875 -3.8125 9.046875 -3.0625 Z M 9.046875 -3.0625 "/></g></g></g><g fill="#ffffff" fill-opacity="1"><g transform="translate(137.14719, 213.155681)"><g><path d="M 6.546875 0.203125 C 4.890625 0.203125 3.578125 -0.300781 2.609375 -1.3125 C 1.648438 -2.320312 1.171875 -3.726562 1.171875 -5.53125 C 1.171875 -7.34375 1.617188 -8.78125 2.515625 -9.84375 C 3.410156 -10.90625 4.609375 -11.4375 6.109375 -11.4375 C 7.515625 -11.4375 8.628906 -10.972656 9.453125 -10.046875 C 10.273438 -9.128906 10.6875 -7.910156 10.6875 -6.390625 L 10.6875 -5.3125 L 2.9375 -5.3125 C 2.976562 -3.988281 3.3125 -2.984375 3.9375 -2.296875 C 4.570312 -1.617188 5.460938 -1.28125 6.609375 -1.28125 C 7.816406 -1.28125 9.015625 -1.535156 10.203125 -2.046875 L 10.203125 -0.515625 C 9.597656 -0.265625 9.023438 -0.0820312 8.484375 0.03125 C 7.953125 0.144531 7.304688 0.203125 6.546875 0.203125 Z M 6.09375 -10.015625 C 5.1875 -10.015625 4.460938 -9.71875 3.921875 -9.125 C 3.390625 -8.539062 3.078125 -7.734375 2.984375 -6.703125 L 8.859375 -6.703125 C 8.859375 -7.773438 8.617188 -8.59375 8.140625 -9.15625 C 7.660156 -9.726562 6.976562 -10.015625 6.09375 -10.015625 Z M 6.09375 -10.015625 "/></g></g></g><g fill="#ffffff" fill-opacity="1"><g transform="translate(148.922359, 213.155681)"><g><path d="M 1.5625 -1.09375 C 1.5625 -1.550781 1.664062 -1.894531 1.875 -2.125 C 2.082031 -2.363281 2.378906 -2.484375 2.765625 -2.484375 C 3.160156 -2.484375 3.46875 -2.363281 3.6875 -2.125 C 3.914062 -1.894531 4.03125 -1.550781 4.03125 -1.09375 C 4.03125 -0.644531 3.914062 -0.300781 3.6875 -0.0625 C 3.46875 0.175781 3.160156 0.296875 2.765625 0.296875 C 2.421875 0.296875 2.132812 0.191406 1.90625 -0.015625 C 1.675781 -0.234375 1.5625 -0.59375 1.5625 -1.09375 Z M 1.5625 -1.09375 "/></g></g></g><g fill="#ffffff" fill-opacity="1"><g transform="translate(154.499992, 213.155681)"><g/></g></g><g fill="#ffffff" fill-opacity="1"><g transform="translate(159.952025, 213.155681)"><g/></g></g><g fill="#ffffff" fill-opacity="1"><g transform="translate(165.398428, 213.155681)"><g><path d="M 5.875 -7.5 L 9.875 -14.984375 L 11.765625 -14.984375 L 6.75 -5.8125 L 6.75 0 L 5 0 L 5 -5.734375 L 0 -14.984375 L 1.90625 -14.984375 Z M 5.875 -7.5 "/></g></g></g><g fill="#ffffff" fill-opacity="1"><g transform="translate(177.153101, 213.155681)"><g><path d="M 11.5 -5.625 C 11.5 -3.789062 11.035156 -2.359375 10.109375 -1.328125 C 9.191406 -0.304688 7.921875 0.203125 6.296875 0.203125 C 5.285156 0.203125 4.390625 -0.03125 3.609375 -0.5 C 2.835938 -0.96875 2.238281 -1.644531 1.8125 -2.53125 C 1.382812 -3.414062 1.171875 -4.445312 1.171875 -5.625 C 1.171875 -7.457031 1.628906 -8.882812 2.546875 -9.90625 C 3.460938 -10.925781 4.738281 -11.4375 6.375 -11.4375 C 7.9375 -11.4375 9.179688 -10.914062 10.109375 -9.875 C 11.035156 -8.832031 11.5 -7.414062 11.5 -5.625 Z M 2.9375 -5.625 C 2.9375 -4.1875 3.222656 -3.09375 3.796875 -2.34375 C 4.378906 -1.59375 5.226562 -1.21875 6.34375 -1.21875 C 7.457031 -1.21875 8.300781 -1.59375 8.875 -2.34375 C 9.445312 -3.09375 9.734375 -4.1875 9.734375 -5.625 C 9.734375 -7.050781 9.445312 -8.132812 8.875 -8.875 C 8.300781 -9.625 7.445312 -10 6.3125 -10 C 5.195312 -10 4.351562 -9.628906 3.78125 -8.890625 C 3.21875 -8.160156 2.9375 -7.070312 2.9375 -5.625 Z M 2.9375 -5.625 "/></g></g></g><g fill="#ffffff" fill-opacity="1"><g transform="translate(189.830109, 213.155681)"><g><path d="M 3.40625 -11.234375 L 3.40625 -3.953125 C 3.40625 -3.035156 3.613281 -2.347656 4.03125 -1.890625 C 4.445312 -1.441406 5.097656 -1.21875 5.984375 -1.21875 C 7.160156 -1.21875 8.019531 -1.535156 8.5625 -2.171875 C 9.101562 -2.816406 9.375 -3.867188 9.375 -5.328125 L 9.375 -11.234375 L 11.078125 -11.234375 L 11.078125 0 L 9.6875 0 L 9.4375 -1.5 L 9.34375 -1.5 C 8.988281 -0.945312 8.503906 -0.523438 7.890625 -0.234375 C 7.273438 0.0546875 6.566406 0.203125 5.765625 0.203125 C 4.398438 0.203125 3.378906 -0.117188 2.703125 -0.765625 C 2.023438 -1.421875 1.6875 -2.460938 1.6875 -3.890625 L 1.6875 -11.234375 Z M 3.40625 -11.234375 "/></g></g></g><g fill="#ffffff" fill-opacity="1"><g transform="translate(26.179689, 242.405678)"><g><path d="M 16.125 0 L 16.125 -7.3125 C 16.125 -8.207031 15.929688 -8.878906 15.546875 -9.328125 C 15.171875 -9.773438 14.578125 -10 13.765625 -10 C 12.710938 -10 11.929688 -9.691406 11.421875 -9.078125 C 10.921875 -8.472656 10.671875 -7.539062 10.671875 -6.28125 L 10.671875 0 L 8.96875 0 L 8.96875 -7.3125 C 8.96875 -8.207031 8.773438 -8.878906 8.390625 -9.328125 C 8.003906 -9.773438 7.40625 -10 6.59375 -10 C 5.53125 -10 4.75 -9.675781 4.25 -9.03125 C 3.75 -8.394531 3.5 -7.347656 3.5 -5.890625 L 3.5 0 L 1.8125 0 L 1.8125 -11.234375 L 3.1875 -11.234375 L 3.46875 -9.703125 L 3.546875 -9.703125 C 3.867188 -10.242188 4.320312 -10.664062 4.90625 -10.96875 C 5.488281 -11.28125 6.144531 -11.4375 6.875 -11.4375 C 8.625 -11.4375 9.769531 -10.800781 10.3125 -9.53125 L 10.390625 -9.53125 C 10.734375 -10.125 11.222656 -10.585938 11.859375 -10.921875 C 12.492188 -11.265625 13.21875 -11.4375 14.03125 -11.4375 C 15.300781 -11.4375 16.25 -11.109375 16.875 -10.453125 C 17.507812 -9.804688 17.828125 -8.765625 17.828125 -7.328125 L 17.828125 0 Z M 16.125 0 "/></g></g></g><g fill="#ffffff" fill-opacity="1"><g transform="translate(45.702485, 242.405678)"><g><path d="M 8.71875 0 L 8.375 -1.59375 L 8.296875 -1.59375 C 7.734375 -0.894531 7.171875 -0.421875 6.609375 -0.171875 C 6.054688 0.078125 5.363281 0.203125 4.53125 0.203125 C 3.414062 0.203125 2.539062 -0.0820312 1.90625 -0.65625 C 1.28125 -1.226562 0.96875 -2.046875 0.96875 -3.109375 C 0.96875 -5.378906 2.78125 -6.566406 6.40625 -6.671875 L 8.3125 -6.734375 L 8.3125 -7.4375 C 8.3125 -8.3125 8.117188 -8.957031 7.734375 -9.375 C 7.359375 -9.800781 6.753906 -10.015625 5.921875 -10.015625 C 4.984375 -10.015625 3.925781 -9.726562 2.75 -9.15625 L 2.21875 -10.453125 C 2.78125 -10.753906 3.390625 -10.988281 4.046875 -11.15625 C 4.703125 -11.332031 5.363281 -11.421875 6.03125 -11.421875 C 7.375 -11.421875 8.367188 -11.125 9.015625 -10.53125 C 9.660156 -9.9375 9.984375 -8.984375 9.984375 -7.671875 L 9.984375 0 Z M 4.875 -1.203125 C 5.925781 -1.203125 6.753906 -1.488281 7.359375 -2.0625 C 7.972656 -2.644531 8.28125 -3.460938 8.28125 -4.515625 L 8.28125 -5.53125 L 6.578125 -5.453125 C 5.222656 -5.410156 4.242188 -5.203125 3.640625 -4.828125 C 3.046875 -4.453125 2.75 -3.875 2.75 -3.09375 C 2.75 -2.46875 2.929688 -1.992188 3.296875 -1.671875 C 3.671875 -1.359375 4.195312 -1.203125 4.875 -1.203125 Z M 4.875 -1.203125 "/></g></g></g><g fill="#ffffff" fill-opacity="1"><g transform="translate(57.375172, 242.405678)"><g><path d="M 0.015625 -11.234375 L 1.84375 -11.234375 L 4.3125 -4.828125 C 4.84375 -3.367188 5.175781 -2.3125 5.3125 -1.65625 L 5.390625 -1.65625 C 5.484375 -2.007812 5.671875 -2.609375 5.953125 -3.453125 C 6.234375 -4.296875 7.160156 -6.890625 8.734375 -11.234375 L 10.5625 -11.234375 L 5.734375 1.5625 C 5.253906 2.820312 4.691406 3.71875 4.046875 4.25 C 3.410156 4.78125 2.628906 5.046875 1.703125 5.046875 C 1.179688 5.046875 0.671875 4.988281 0.171875 4.875 L 0.171875 3.5 C 0.546875 3.582031 0.960938 3.625 1.421875 3.625 C 2.585938 3.625 3.421875 2.96875 3.921875 1.65625 L 4.546875 0.0625 Z M 0.015625 -11.234375 "/></g></g></g><g fill="#ffffff" fill-opacity="1"><g transform="translate(67.951297, 242.405678)"><g/></g></g><g fill="#ffffff" fill-opacity="1"><g transform="translate(73.40333, 242.405678)"><g><path d="M 6.875 -9.921875 L 4.015625 -9.921875 L 4.015625 0 L 2.3125 0 L 2.3125 -9.921875 L 0.296875 -9.921875 L 0.296875 -10.6875 L 2.3125 -11.296875 L 2.3125 -11.921875 C 2.3125 -14.679688 3.515625 -16.0625 5.921875 -16.0625 C 6.515625 -16.0625 7.210938 -15.941406 8.015625 -15.703125 L 7.578125 -14.34375 C 6.921875 -14.550781 6.359375 -14.65625 5.890625 -14.65625 C 5.253906 -14.65625 4.78125 -14.441406 4.46875 -14.015625 C 4.164062 -13.585938 4.015625 -12.90625 4.015625 -11.96875 L 4.015625 -11.234375 L 6.875 -11.234375 Z M 6.875 -9.921875 "/></g></g></g><g fill="#ffffff" fill-opacity="1"><g transform="translate(80.51557, 242.405678)"><g><path d="M 6.546875 0.203125 C 4.890625 0.203125 3.578125 -0.300781 2.609375 -1.3125 C 1.648438 -2.320312 1.171875 -3.726562 1.171875 -5.53125 C 1.171875 -7.34375 1.617188 -8.78125 2.515625 -9.84375 C 3.410156 -10.90625 4.609375 -11.4375 6.109375 -11.4375 C 7.515625 -11.4375 8.628906 -10.972656 9.453125 -10.046875 C 10.273438 -9.128906 10.6875 -7.910156 10.6875 -6.390625 L 10.6875 -5.3125 L 2.9375 -5.3125 C 2.976562 -3.988281 3.3125 -2.984375 3.9375 -2.296875 C 4.570312 -1.617188 5.460938 -1.28125 6.609375 -1.28125 C 7.816406 -1.28125 9.015625 -1.535156 10.203125 -2.046875 L 10.203125 -0.515625 C 9.597656 -0.265625 9.023438 -0.0820312 8.484375 0.03125 C 7.953125 0.144531 7.304688 0.203125 6.546875 0.203125 Z M 6.09375 -10.015625 C 5.1875 -10.015625 4.460938 -9.71875 3.921875 -9.125 C 3.390625 -8.539062 3.078125 -7.734375 2.984375 -6.703125 L 8.859375 -6.703125 C 8.859375 -7.773438 8.617188 -8.59375 8.140625 -9.15625 C 7.660156 -9.726562 6.976562 -10.015625 6.09375 -10.015625 Z M 6.09375 -10.015625 "/></g></g></g><g fill="#ffffff" fill-opacity="1"><g transform="translate(92.290738, 242.405678)"><g><path d="M 6.546875 0.203125 C 4.890625 0.203125 3.578125 -0.300781 2.609375 -1.3125 C 1.648438 -2.320312 1.171875 -3.726562 1.171875 -5.53125 C 1.171875 -7.34375 1.617188 -8.78125 2.515625 -9.84375 C 3.410156 -10.90625 4.609375 -11.4375 6.109375 -11.4375 C 7.515625 -11.4375 8.628906 -10.972656 9.453125 -10.046875 C 10.273438 -9.128906 10.6875 -7.910156 10.6875 -6.390625 L 10.6875 -5.3125 L 2.9375 -5.3125 C 2.976562 -3.988281 3.3125 -2.984375 3.9375 -2.296875 C 4.570312 -1.617188 5.460938 -1.28125 6.609375 -1.28125 C 7.816406 -1.28125 9.015625 -1.535156 10.203125 -2.046875 L 10.203125 -0.515625 C 9.597656 -0.265625 9.023438 -0.0820312 8.484375 0.03125 C 7.953125 0.144531 7.304688 0.203125 6.546875 0.203125 Z M 6.09375 -10.015625 C 5.1875 -10.015625 4.460938 -9.71875 3.921875 -9.125 C 3.390625 -8.539062 3.078125 -7.734375 2.984375 -6.703125 L 8.859375 -6.703125 C 8.859375 -7.773438 8.617188 -8.59375 8.140625 -9.15625 C 7.660156 -9.726562 6.976562 -10.015625 6.09375 -10.015625 Z M 6.09375 -10.015625 "/></g></g></g><g fill="#ffffff" fill-opacity="1"><g transform="translate(104.065907, 242.405678)"><g><path d="M 3.5 0 L 1.8125 0 L 1.8125 -15.953125 L 3.5 -15.953125 Z M 3.5 0 "/></g></g></g><g fill="#ffffff" fill-opacity="1"><g transform="translate(109.374466, 242.405678)"><g/></g></g><g fill="#ffffff" fill-opacity="1"><g transform="translate(114.826499, 242.405678)"><g><path d="M 3.5 0 L 1.8125 0 L 1.8125 -15.953125 L 3.5 -15.953125 Z M 3.5 0 "/></g></g></g><g fill="#ffffff" fill-opacity="1"><g transform="translate(120.135058, 242.405678)"><g><path d="M 3.5 0 L 1.8125 0 L 1.8125 -11.234375 L 3.5 -11.234375 Z M 1.65625 -14.28125 C 1.65625 -14.675781 1.75 -14.960938 1.9375 -15.140625 C 2.132812 -15.316406 2.378906 -15.40625 2.671875 -15.40625 C 2.941406 -15.40625 3.175781 -15.3125 3.375 -15.125 C 3.570312 -14.945312 3.671875 -14.664062 3.671875 -14.28125 C 3.671875 -13.894531 3.570312 -13.609375 3.375 -13.421875 C 3.175781 -13.234375 2.941406 -13.140625 2.671875 -13.140625 C 2.378906 -13.140625 2.132812 -13.234375 1.9375 -13.421875 C 1.75 -13.609375 1.65625 -13.894531 1.65625 -14.28125 Z M 1.65625 -14.28125 "/></g></g></g><g fill="#ffffff" fill-opacity="1"><g transform="translate(125.443617, 242.405678)"><g><path d="M 3.484375 -5.75 C 3.773438 -6.164062 4.222656 -6.710938 4.828125 -7.390625 L 8.453125 -11.234375 L 10.484375 -11.234375 L 5.921875 -6.453125 L 10.796875 0 L 8.734375 0 L 4.765625 -5.3125 L 3.484375 -4.203125 L 3.484375 0 L 1.8125 0 L 1.8125 -15.953125 L 3.484375 -15.953125 L 3.484375 -7.5 C 3.484375 -7.125 3.457031 -6.539062 3.40625 -5.75 Z M 3.484375 -5.75 "/></g></g></g><g fill="#ffffff" fill-opacity="1"><g transform="translate(136.46042, 242.405678)"><g><path d="M 6.546875 0.203125 C 4.890625 0.203125 3.578125 -0.300781 2.609375 -1.3125 C 1.648438 -2.320312 1.171875 -3.726562 1.171875 -5.53125 C 1.171875 -7.34375 1.617188 -8.78125 2.515625 -9.84375 C 3.410156 -10.90625 4.609375 -11.4375 6.109375 -11.4375 C 7.515625 -11.4375 8.628906 -10.972656 9.453125 -10.046875 C 10.273438 -9.128906 10.6875 -7.910156 10.6875 -6.390625 L 10.6875 -5.3125 L 2.9375 -5.3125 C 2.976562 -3.988281 3.3125 -2.984375 3.9375 -2.296875 C 4.570312 -1.617188 5.460938 -1.28125 6.609375 -1.28125 C 7.816406 -1.28125 9.015625 -1.535156 10.203125 -2.046875 L 10.203125 -0.515625 C 9.597656 -0.265625 9.023438 -0.0820312 8.484375 0.03125 C 7.953125 0.144531 7.304688 0.203125 6.546875 0.203125 Z M 6.09375 -10.015625 C 5.1875 -10.015625 4.460938 -9.71875 3.921875 -9.125 C 3.390625 -8.539062 3.078125 -7.734375 2.984375 -6.703125 L 8.859375 -6.703125 C 8.859375 -7.773438 8.617188 -8.59375 8.140625 -9.15625 C 7.660156 -9.726562 6.976562 -10.015625 6.09375 -10.015625 Z M 6.09375 -10.015625 "/></g></g></g><g fill="#ffffff" fill-opacity="1"><g transform="translate(148.235588, 242.405678)"><g/></g></g><g fill="#ffffff" fill-opacity="1"><g transform="translate(153.687622, 242.405678)"><g><path d="M 0.015625 -11.234375 L 1.84375 -11.234375 L 4.3125 -4.828125 C 4.84375 -3.367188 5.175781 -2.3125 5.3125 -1.65625 L 5.390625 -1.65625 C 5.484375 -2.007812 5.671875 -2.609375 5.953125 -3.453125 C 6.234375 -4.296875 7.160156 -6.890625 8.734375 -11.234375 L 10.5625 -11.234375 L 5.734375 1.5625 C 5.253906 2.820312 4.691406 3.71875 4.046875 4.25 C 3.410156 4.78125 2.628906 5.046875 1.703125 5.046875 C 1.179688 5.046875 0.671875 4.988281 0.171875 4.875 L 0.171875 3.5 C 0.546875 3.582031 0.960938 3.625 1.421875 3.625 C 2.585938 3.625 3.421875 2.96875 3.921875 1.65625 L 4.546875 0.0625 Z M 0.015625 -11.234375 "/></g></g></g><g fill="#ffffff" fill-opacity="1"><g transform="translate(164.263747, 242.405678)"><g><path d="M 11.5 -5.625 C 11.5 -3.789062 11.035156 -2.359375 10.109375 -1.328125 C 9.191406 -0.304688 7.921875 0.203125 6.296875 0.203125 C 5.285156 0.203125 4.390625 -0.03125 3.609375 -0.5 C 2.835938 -0.96875 2.238281 -1.644531 1.8125 -2.53125 C 1.382812 -3.414062 1.171875 -4.445312 1.171875 -5.625 C 1.171875 -7.457031 1.628906 -8.882812 2.546875 -9.90625 C 3.460938 -10.925781 4.738281 -11.4375 6.375 -11.4375 C 7.9375 -11.4375 9.179688 -10.914062 10.109375 -9.875 C 11.035156 -8.832031 11.5 -7.414062 11.5 -5.625 Z M 2.9375 -5.625 C 2.9375 -4.1875 3.222656 -3.09375 3.796875 -2.34375 C 4.378906 -1.59375 5.226562 -1.21875 6.34375 -1.21875 C 7.457031 -1.21875 8.300781 -1.59375 8.875 -2.34375 C 9.445312 -3.09375 9.734375 -4.1875 9.734375 -5.625 C 9.734375 -7.050781 9.445312 -8.132812 8.875 -8.875 C 8.300781 -9.625 7.445312 -10 6.3125 -10 C 5.195312 -10 4.351562 -9.628906 3.78125 -8.890625 C 3.21875 -8.160156 2.9375 -7.070312 2.9375 -5.625 Z M 2.9375 -5.625 "/></g></g></g><g fill="#ffffff" fill-opacity="1"><g transform="translate(176.940756, 242.405678)"><g><path d="M 3.40625 -11.234375 L 3.40625 -3.953125 C 3.40625 -3.035156 3.613281 -2.347656 4.03125 -1.890625 C 4.445312 -1.441406 5.097656 -1.21875 5.984375 -1.21875 C 7.160156 -1.21875 8.019531 -1.535156 8.5625 -2.171875 C 9.101562 -2.816406 9.375 -3.867188 9.375 -5.328125 L 9.375 -11.234375 L 11.078125 -11.234375 L 11.078125 0 L 9.6875 0 L 9.4375 -1.5 L 9.34375 -1.5 C 8.988281 -0.945312 8.503906 -0.523438 7.890625 -0.234375 C 7.273438 0.0546875 6.566406 0.203125 5.765625 0.203125 C 4.398438 0.203125 3.378906 -0.117188 2.703125 -0.765625 C 2.023438 -1.421875 1.6875 -2.460938 1.6875 -3.890625 L 1.6875 -11.234375 Z M 3.40625 -11.234375 "/></g></g></g><g fill="#ffffff" fill-opacity="1"><g transform="translate(11.085941, 271.655676)"><g><path d="M 10.984375 0 L 8.921875 -6.59375 C 8.785156 -7 8.539062 -7.914062 8.1875 -9.34375 L 8.109375 -9.34375 C 7.835938 -8.144531 7.597656 -7.222656 7.390625 -6.578125 L 5.265625 0 L 3.296875 0 L 0.234375 -11.234375 L 2.015625 -11.234375 C 2.742188 -8.410156 3.296875 -6.257812 3.671875 -4.78125 C 4.054688 -3.3125 4.273438 -2.320312 4.328125 -1.8125 L 4.40625 -1.8125 C 4.476562 -2.195312 4.597656 -2.695312 4.765625 -3.3125 C 4.941406 -3.9375 5.085938 -4.425781 5.203125 -4.78125 L 7.265625 -11.234375 L 9.109375 -11.234375 L 11.125 -4.78125 C 11.507812 -3.613281 11.769531 -2.628906 11.90625 -1.828125 L 11.984375 -1.828125 C 12.015625 -2.066406 12.085938 -2.441406 12.203125 -2.953125 C 12.328125 -3.472656 13.039062 -6.234375 14.34375 -11.234375 L 16.109375 -11.234375 L 13 0 Z M 10.984375 0 "/></g></g></g><g fill="#ffffff" fill-opacity="1"><g transform="translate(27.411303, 271.655676)"><g><path d="M 8.71875 0 L 8.375 -1.59375 L 8.296875 -1.59375 C 7.734375 -0.894531 7.171875 -0.421875 6.609375 -0.171875 C 6.054688 0.078125 5.363281 0.203125 4.53125 0.203125 C 3.414062 0.203125 2.539062 -0.0820312 1.90625 -0.65625 C 1.28125 -1.226562 0.96875 -2.046875 0.96875 -3.109375 C 0.96875 -5.378906 2.78125 -6.566406 6.40625 -6.671875 L 8.3125 -6.734375 L 8.3125 -7.4375 C 8.3125 -8.3125 8.117188 -8.957031 7.734375 -9.375 C 7.359375 -9.800781 6.753906 -10.015625 5.921875 -10.015625 C 4.984375 -10.015625 3.925781 -9.726562 2.75 -9.15625 L 2.21875 -10.453125 C 2.78125 -10.753906 3.390625 -10.988281 4.046875 -11.15625 C 4.703125 -11.332031 5.363281 -11.421875 6.03125 -11.421875 C 7.375 -11.421875 8.367188 -11.125 9.015625 -10.53125 C 9.660156 -9.9375 9.984375 -8.984375 9.984375 -7.671875 L 9.984375 0 Z M 4.875 -1.203125 C 5.925781 -1.203125 6.753906 -1.488281 7.359375 -2.0625 C 7.972656 -2.644531 8.28125 -3.460938 8.28125 -4.515625 L 8.28125 -5.53125 L 6.578125 -5.453125 C 5.222656 -5.410156 4.242188 -5.203125 3.640625 -4.828125 C 3.046875 -4.453125 2.75 -3.875 2.75 -3.09375 C 2.75 -2.46875 2.929688 -1.992188 3.296875 -1.671875 C 3.671875 -1.359375 4.195312 -1.203125 4.875 -1.203125 Z M 4.875 -1.203125 "/></g></g></g><g fill="#ffffff" fill-opacity="1"><g transform="translate(39.083989, 271.655676)"><g><path d="M 9.5 0 L 9.5 -7.265625 C 9.5 -8.179688 9.289062 -8.863281 8.875 -9.3125 C 8.457031 -9.769531 7.800781 -10 6.90625 -10 C 5.726562 -10 4.863281 -9.679688 4.3125 -9.046875 C 3.769531 -8.410156 3.5 -7.359375 3.5 -5.890625 L 3.5 0 L 1.8125 0 L 1.8125 -11.234375 L 3.1875 -11.234375 L 3.46875 -9.703125 L 3.546875 -9.703125 C 3.898438 -10.253906 4.390625 -10.679688 5.015625 -10.984375 C 5.640625 -11.285156 6.335938 -11.4375 7.109375 -11.4375 C 8.460938 -11.4375 9.484375 -11.109375 10.171875 -10.453125 C 10.859375 -9.804688 11.203125 -8.765625 11.203125 -7.328125 L 11.203125 0 Z M 9.5 0 "/></g></g></g><g fill="#ffffff" fill-opacity="1"><g transform="translate(51.965961, 271.655676)"><g><path d="M 5.4375 -1.203125 C 5.738281 -1.203125 6.03125 -1.222656 6.3125 -1.265625 C 6.59375 -1.304688 6.8125 -1.351562 6.96875 -1.40625 L 6.96875 -0.109375 C 6.789062 -0.015625 6.519531 0.0546875 6.15625 0.109375 C 5.800781 0.171875 5.476562 0.203125 5.1875 0.203125 C 3.007812 0.203125 1.921875 -0.941406 1.921875 -3.234375 L 1.921875 -9.921875 L 0.3125 -9.921875 L 0.3125 -10.734375 L 1.921875 -11.4375 L 2.640625 -13.84375 L 3.625 -13.84375 L 3.625 -11.234375 L 6.890625 -11.234375 L 6.890625 -9.921875 L 3.625 -9.921875 L 3.625 -3.296875 C 3.625 -2.617188 3.785156 -2.097656 4.109375 -1.734375 C 4.429688 -1.378906 4.875 -1.203125 5.4375 -1.203125 Z M 5.4375 -1.203125 "/></g></g></g><g fill="#ffffff" fill-opacity="1"><g transform="translate(59.375404, 271.655676)"><g/></g></g><g fill="#ffffff" fill-opacity="1"><g transform="translate(64.827437, 271.655676)"><g><path d="M 5.4375 -1.203125 C 5.738281 -1.203125 6.03125 -1.222656 6.3125 -1.265625 C 6.59375 -1.304688 6.8125 -1.351562 6.96875 -1.40625 L 6.96875 -0.109375 C 6.789062 -0.015625 6.519531 0.0546875 6.15625 0.109375 C 5.800781 0.171875 5.476562 0.203125 5.1875 0.203125 C 3.007812 0.203125 1.921875 -0.941406 1.921875 -3.234375 L 1.921875 -9.921875 L 0.3125 -9.921875 L 0.3125 -10.734375 L 1.921875 -11.4375 L 2.640625 -13.84375 L 3.625 -13.84375 L 3.625 -11.234375 L 6.890625 -11.234375 L 6.890625 -9.921875 L 3.625 -9.921875 L 3.625 -3.296875 C 3.625 -2.617188 3.785156 -2.097656 4.109375 -1.734375 C 4.429688 -1.378906 4.875 -1.203125 5.4375 -1.203125 Z M 5.4375 -1.203125 "/></g></g></g><g fill="#ffffff" fill-opacity="1"><g transform="translate(72.236879, 271.655676)"><g><path d="M 11.5 -5.625 C 11.5 -3.789062 11.035156 -2.359375 10.109375 -1.328125 C 9.191406 -0.304688 7.921875 0.203125 6.296875 0.203125 C 5.285156 0.203125 4.390625 -0.03125 3.609375 -0.5 C 2.835938 -0.96875 2.238281 -1.644531 1.8125 -2.53125 C 1.382812 -3.414062 1.171875 -4.445312 1.171875 -5.625 C 1.171875 -7.457031 1.628906 -8.882812 2.546875 -9.90625 C 3.460938 -10.925781 4.738281 -11.4375 6.375 -11.4375 C 7.9375 -11.4375 9.179688 -10.914062 10.109375 -9.875 C 11.035156 -8.832031 11.5 -7.414062 11.5 -5.625 Z M 2.9375 -5.625 C 2.9375 -4.1875 3.222656 -3.09375 3.796875 -2.34375 C 4.378906 -1.59375 5.226562 -1.21875 6.34375 -1.21875 C 7.457031 -1.21875 8.300781 -1.59375 8.875 -2.34375 C 9.445312 -3.09375 9.734375 -4.1875 9.734375 -5.625 C 9.734375 -7.050781 9.445312 -8.132812 8.875 -8.875 C 8.300781 -9.625 7.445312 -10 6.3125 -10 C 5.195312 -10 4.351562 -9.628906 3.78125 -8.890625 C 3.21875 -8.160156 2.9375 -7.070312 2.9375 -5.625 Z M 2.9375 -5.625 "/></g></g></g><g fill="#ffffff" fill-opacity="1"><g transform="translate(84.913888, 271.655676)"><g/></g></g><g fill="#ffffff" fill-opacity="1"><g transform="translate(90.365921, 271.655676)"><g><path d="M 0.015625 -11.234375 L 1.84375 -11.234375 L 4.3125 -4.828125 C 4.84375 -3.367188 5.175781 -2.3125 5.3125 -1.65625 L 5.390625 -1.65625 C 5.484375 -2.007812 5.671875 -2.609375 5.953125 -3.453125 C 6.234375 -4.296875 7.160156 -6.890625 8.734375 -11.234375 L 10.5625 -11.234375 L 5.734375 1.5625 C 5.253906 2.820312 4.691406 3.71875 4.046875 4.25 C 3.410156 4.78125 2.628906 5.046875 1.703125 5.046875 C 1.179688 5.046875 0.671875 4.988281 0.171875 4.875 L 0.171875 3.5 C 0.546875 3.582031 0.960938 3.625 1.421875 3.625 C 2.585938 3.625 3.421875 2.96875 3.921875 1.65625 L 4.546875 0.0625 Z M 0.015625 -11.234375 "/></g></g></g><g fill="#ffffff" fill-opacity="1"><g transform="translate(100.942047, 271.655676)"><g><path d="M 6.546875 0.203125 C 4.890625 0.203125 3.578125 -0.300781 2.609375 -1.3125 C 1.648438 -2.320312 1.171875 -3.726562 1.171875 -5.53125 C 1.171875 -7.34375 1.617188 -8.78125 2.515625 -9.84375 C 3.410156 -10.90625 4.609375 -11.4375 6.109375 -11.4375 C 7.515625 -11.4375 8.628906 -10.972656 9.453125 -10.046875 C 10.273438 -9.128906 10.6875 -7.910156 10.6875 -6.390625 L 10.6875 -5.3125 L 2.9375 -5.3125 C 2.976562 -3.988281 3.3125 -2.984375 3.9375 -2.296875 C 4.570312 -1.617188 5.460938 -1.28125 6.609375 -1.28125 C 7.816406 -1.28125 9.015625 -1.535156 10.203125 -2.046875 L 10.203125 -0.515625 C 9.597656 -0.265625 9.023438 -0.0820312 8.484375 0.03125 C 7.953125 0.144531 7.304688 0.203125 6.546875 0.203125 Z M 6.09375 -10.015625 C 5.1875 -10.015625 4.460938 -9.71875 3.921875 -9.125 C 3.390625 -8.539062 3.078125 -7.734375 2.984375 -6.703125 L 8.859375 -6.703125 C 8.859375 -7.773438 8.617188 -8.59375 8.140625 -9.15625 C 7.660156 -9.726562 6.976562 -10.015625 6.09375 -10.015625 Z M 6.09375 -10.015625 "/></g></g></g><g fill="#ffffff" fill-opacity="1"><g transform="translate(112.717215, 271.655676)"><g><path d="M 3.5 0 L 1.8125 0 L 1.8125 -15.953125 L 3.5 -15.953125 Z M 3.5 0 "/></g></g></g><g fill="#ffffff" fill-opacity="1"><g transform="translate(118.025774, 271.655676)"><g><path d="M 3.5 0 L 1.8125 0 L 1.8125 -15.953125 L 3.5 -15.953125 Z M 3.5 0 "/></g></g></g><g fill="#ffffff" fill-opacity="1"><g transform="translate(123.334333, 271.655676)"><g/></g></g><g fill="#ffffff" fill-opacity="1"><g transform="translate(128.786367, 271.655676)"><g><path d="M 8.71875 0 L 8.375 -1.59375 L 8.296875 -1.59375 C 7.734375 -0.894531 7.171875 -0.421875 6.609375 -0.171875 C 6.054688 0.078125 5.363281 0.203125 4.53125 0.203125 C 3.414062 0.203125 2.539062 -0.0820312 1.90625 -0.65625 C 1.28125 -1.226562 0.96875 -2.046875 0.96875 -3.109375 C 0.96875 -5.378906 2.78125 -6.566406 6.40625 -6.671875 L 8.3125 -6.734375 L 8.3125 -7.4375 C 8.3125 -8.3125 8.117188 -8.957031 7.734375 -9.375 C 7.359375 -9.800781 6.753906 -10.015625 5.921875 -10.015625 C 4.984375 -10.015625 3.925781 -9.726562 2.75 -9.15625 L 2.21875 -10.453125 C 2.78125 -10.753906 3.390625 -10.988281 4.046875 -11.15625 C 4.703125 -11.332031 5.363281 -11.421875 6.03125 -11.421875 C 7.375 -11.421875 8.367188 -11.125 9.015625 -10.53125 C 9.660156 -9.9375 9.984375 -8.984375 9.984375 -7.671875 L 9.984375 0 Z M 4.875 -1.203125 C 5.925781 -1.203125 6.753906 -1.488281 7.359375 -2.0625 C 7.972656 -2.644531 8.28125 -3.460938 8.28125 -4.515625 L 8.28125 -5.53125 L 6.578125 -5.453125 C 5.222656 -5.410156 4.242188 -5.203125 3.640625 -4.828125 C 3.046875 -4.453125 2.75 -3.875 2.75 -3.09375 C 2.75 -2.46875 2.929688 -1.992188 3.296875 -1.671875 C 3.671875 -1.359375 4.195312 -1.203125 4.875 -1.203125 Z M 4.875 -1.203125 "/></g></g></g><g fill="#ffffff" fill-opacity="1"><g transform="translate(140.459053, 271.655676)"><g><path d="M 5.4375 -1.203125 C 5.738281 -1.203125 6.03125 -1.222656 6.3125 -1.265625 C 6.59375 -1.304688 6.8125 -1.351562 6.96875 -1.40625 L 6.96875 -0.109375 C 6.789062 -0.015625 6.519531 0.0546875 6.15625 0.109375 C 5.800781 0.171875 5.476562 0.203125 5.1875 0.203125 C 3.007812 0.203125 1.921875 -0.941406 1.921875 -3.234375 L 1.921875 -9.921875 L 0.3125 -9.921875 L 0.3125 -10.734375 L 1.921875 -11.4375 L 2.640625 -13.84375 L 3.625 -13.84375 L 3.625 -11.234375 L 6.890625 -11.234375 L 6.890625 -9.921875 L 3.625 -9.921875 L 3.625 -3.296875 C 3.625 -2.617188 3.785156 -2.097656 4.109375 -1.734375 C 4.429688 -1.378906 4.875 -1.203125 5.4375 -1.203125 Z M 5.4375 -1.203125 "/></g></g></g><g fill="#ffffff" fill-opacity="1"><g transform="translate(147.868496, 271.655676)"><g/></g></g><g fill="#ffffff" fill-opacity="1"><g transform="translate(153.320529, 271.655676)"><g><path d="M 5.4375 -1.203125 C 5.738281 -1.203125 6.03125 -1.222656 6.3125 -1.265625 C 6.59375 -1.304688 6.8125 -1.351562 6.96875 -1.40625 L 6.96875 -0.109375 C 6.789062 -0.015625 6.519531 0.0546875 6.15625 0.109375 C 5.800781 0.171875 5.476562 0.203125 5.1875 0.203125 C 3.007812 0.203125 1.921875 -0.941406 1.921875 -3.234375 L 1.921875 -9.921875 L 0.3125 -9.921875 L 0.3125 -10.734375 L 1.921875 -11.4375 L 2.640625 -13.84375 L 3.625 -13.84375 L 3.625 -11.234375 L 6.890625 -11.234375 L 6.890625 -9.921875 L 3.625 -9.921875 L 3.625 -3.296875 C 3.625 -2.617188 3.785156 -2.097656 4.109375 -1.734375 C 4.429688 -1.378906 4.875 -1.203125 5.4375 -1.203125 Z M 5.4375 -1.203125 "/></g></g></g><g fill="#ffffff" fill-opacity="1"><g transform="translate(160.729971, 271.655676)"><g><path d="M 9.5 0 L 9.5 -7.265625 C 9.5 -8.179688 9.289062 -8.863281 8.875 -9.3125 C 8.457031 -9.769531 7.800781 -10 6.90625 -10 C 5.726562 -10 4.863281 -9.675781 4.3125 -9.03125 C 3.769531 -8.382812 3.5 -7.332031 3.5 -5.875 L 3.5 0 L 1.8125 0 L 1.8125 -15.953125 L 3.5 -15.953125 L 3.5 -11.125 C 3.5 -10.539062 3.472656 -10.0625 3.421875 -9.6875 L 3.53125 -9.6875 C 3.863281 -10.21875 4.335938 -10.640625 4.953125 -10.953125 C 5.578125 -11.265625 6.285156 -11.421875 7.078125 -11.421875 C 8.453125 -11.421875 9.484375 -11.09375 10.171875 -10.4375 C 10.859375 -9.789062 11.203125 -8.753906 11.203125 -7.328125 L 11.203125 0 Z M 9.5 0 "/></g></g></g><g fill="#ffffff" fill-opacity="1"><g transform="translate(173.611943, 271.655676)"><g><path d="M 6.546875 0.203125 C 4.890625 0.203125 3.578125 -0.300781 2.609375 -1.3125 C 1.648438 -2.320312 1.171875 -3.726562 1.171875 -5.53125 C 1.171875 -7.34375 1.617188 -8.78125 2.515625 -9.84375 C 3.410156 -10.90625 4.609375 -11.4375 6.109375 -11.4375 C 7.515625 -11.4375 8.628906 -10.972656 9.453125 -10.046875 C 10.273438 -9.128906 10.6875 -7.910156 10.6875 -6.390625 L 10.6875 -5.3125 L 2.9375 -5.3125 C 2.976562 -3.988281 3.3125 -2.984375 3.9375 -2.296875 C 4.570312 -1.617188 5.460938 -1.28125 6.609375 -1.28125 C 7.816406 -1.28125 9.015625 -1.535156 10.203125 -2.046875 L 10.203125 -0.515625 C 9.597656 -0.265625 9.023438 -0.0820312 8.484375 0.03125 C 7.953125 0.144531 7.304688 0.203125 6.546875 0.203125 Z M 6.09375 -10.015625 C 5.1875 -10.015625 4.460938 -9.71875 3.921875 -9.125 C 3.390625 -8.539062 3.078125 -7.734375 2.984375 -6.703125 L 8.859375 -6.703125 C 8.859375 -7.773438 8.617188 -8.59375 8.140625 -9.15625 C 7.660156 -9.726562 6.976562 -10.015625 6.09375 -10.015625 Z M 6.09375 -10.015625 "/></g></g></g><g fill="#ffffff" fill-opacity="1"><g transform="translate(185.387112, 271.655676)"><g><path d="M 16.125 0 L 16.125 -7.3125 C 16.125 -8.207031 15.929688 -8.878906 15.546875 -9.328125 C 15.171875 -9.773438 14.578125 -10 13.765625 -10 C 12.710938 -10 11.929688 -9.691406 11.421875 -9.078125 C 10.921875 -8.472656 10.671875 -7.539062 10.671875 -6.28125 L 10.671875 0 L 8.96875 0 L 8.96875 -7.3125 C 8.96875 -8.207031 8.773438 -8.878906 8.390625 -9.328125 C 8.003906 -9.773438 7.40625 -10 6.59375 -10 C 5.53125 -10 4.75 -9.675781 4.25 -9.03125 C 3.75 -8.394531 3.5 -7.347656 3.5 -5.890625 L 3.5 0 L 1.8125 0 L 1.8125 -11.234375 L 3.1875 -11.234375 L 3.46875 -9.703125 L 3.546875 -9.703125 C 3.867188 -10.242188 4.320312 -10.664062 4.90625 -10.96875 C 5.488281 -11.28125 6.144531 -11.4375 6.875 -11.4375 C 8.625 -11.4375 9.769531 -10.800781 10.3125 -9.53125 L 10.390625 -9.53125 C 10.734375 -10.125 11.222656 -10.585938 11.859375 -10.921875 C 12.492188 -11.265625 13.21875 -11.4375 14.03125 -11.4375 C 15.300781 -11.4375 16.25 -11.109375 16.875 -10.453125 C 17.507812 -9.804688 17.828125 -8.765625 17.828125 -7.328125 L 17.828125 0 Z M 16.125 0 "/></g></g></g><g fill="#ffffff" fill-opacity="1"><g transform="translate(39.738282, 300.905674)"><g><path d="M 11.5 -5.625 C 11.5 -3.789062 11.035156 -2.359375 10.109375 -1.328125 C 9.191406 -0.304688 7.921875 0.203125 6.296875 0.203125 C 5.285156 0.203125 4.390625 -0.03125 3.609375 -0.5 C 2.835938 -0.96875 2.238281 -1.644531 1.8125 -2.53125 C 1.382812 -3.414062 1.171875 -4.445312 1.171875 -5.625 C 1.171875 -7.457031 1.628906 -8.882812 2.546875 -9.90625 C 3.460938 -10.925781 4.738281 -11.4375 6.375 -11.4375 C 7.9375 -11.4375 9.179688 -10.914062 10.109375 -9.875 C 11.035156 -8.832031 11.5 -7.414062 11.5 -5.625 Z M 2.9375 -5.625 C 2.9375 -4.1875 3.222656 -3.09375 3.796875 -2.34375 C 4.378906 -1.59375 5.226562 -1.21875 6.34375 -1.21875 C 7.457031 -1.21875 8.300781 -1.59375 8.875 -2.34375 C 9.445312 -3.09375 9.734375 -4.1875 9.734375 -5.625 C 9.734375 -7.050781 9.445312 -8.132812 8.875 -8.875 C 8.300781 -9.625 7.445312 -10 6.3125 -10 C 5.195312 -10 4.351562 -9.628906 3.78125 -8.890625 C 3.21875 -8.160156 2.9375 -7.070312 2.9375 -5.625 Z M 2.9375 -5.625 "/></g></g></g><g fill="#ffffff" fill-opacity="1"><g transform="translate(52.41529, 300.905674)"><g><path d="M 6.9375 -11.4375 C 7.4375 -11.4375 7.882812 -11.398438 8.28125 -11.328125 L 8.046875 -9.734375 C 7.578125 -9.835938 7.164062 -9.890625 6.8125 -9.890625 C 5.894531 -9.890625 5.113281 -9.519531 4.46875 -8.78125 C 3.820312 -8.050781 3.5 -7.132812 3.5 -6.03125 L 3.5 0 L 1.8125 0 L 1.8125 -11.234375 L 3.203125 -11.234375 L 3.40625 -9.15625 L 3.484375 -9.15625 C 3.898438 -9.882812 4.398438 -10.445312 4.984375 -10.84375 C 5.578125 -11.238281 6.226562 -11.4375 6.9375 -11.4375 Z M 6.9375 -11.4375 "/></g></g></g><g fill="#ffffff" fill-opacity="1"><g transform="translate(60.982772, 300.905674)"><g/></g></g><g fill="#ffffff" fill-opacity="1"><g transform="translate(66.434805, 300.905674)"><g><path d="M 9.5 0 L 9.5 -7.265625 C 9.5 -8.179688 9.289062 -8.863281 8.875 -9.3125 C 8.457031 -9.769531 7.800781 -10 6.90625 -10 C 5.726562 -10 4.863281 -9.675781 4.3125 -9.03125 C 3.769531 -8.382812 3.5 -7.332031 3.5 -5.875 L 3.5 0 L 1.8125 0 L 1.8125 -15.953125 L 3.5 -15.953125 L 3.5 -11.125 C 3.5 -10.539062 3.472656 -10.0625 3.421875 -9.6875 L 3.53125 -9.6875 C 3.863281 -10.21875 4.335938 -10.640625 4.953125 -10.953125 C 5.578125 -11.265625 6.285156 -11.421875 7.078125 -11.421875 C 8.453125 -11.421875 9.484375 -11.09375 10.171875 -10.4375 C 10.859375 -9.789062 11.203125 -8.753906 11.203125 -7.328125 L 11.203125 0 Z M 9.5 0 "/></g></g></g><g fill="#ffffff" fill-opacity="1"><g transform="translate(79.316777, 300.905674)"><g><path d="M 3.40625 -11.234375 L 3.40625 -3.953125 C 3.40625 -3.035156 3.613281 -2.347656 4.03125 -1.890625 C 4.445312 -1.441406 5.097656 -1.21875 5.984375 -1.21875 C 7.160156 -1.21875 8.019531 -1.535156 8.5625 -2.171875 C 9.101562 -2.816406 9.375 -3.867188 9.375 -5.328125 L 9.375 -11.234375 L 11.078125 -11.234375 L 11.078125 0 L 9.6875 0 L 9.4375 -1.5 L 9.34375 -1.5 C 8.988281 -0.945312 8.503906 -0.523438 7.890625 -0.234375 C 7.273438 0.0546875 6.566406 0.203125 5.765625 0.203125 C 4.398438 0.203125 3.378906 -0.117188 2.703125 -0.765625 C 2.023438 -1.421875 1.6875 -2.460938 1.6875 -3.890625 L 1.6875 -11.234375 Z M 3.40625 -11.234375 "/></g></g></g><g fill="#ffffff" fill-opacity="1"><g transform="translate(92.198749, 300.905674)"><g><path d="M 6.9375 -11.4375 C 7.4375 -11.4375 7.882812 -11.398438 8.28125 -11.328125 L 8.046875 -9.734375 C 7.578125 -9.835938 7.164062 -9.890625 6.8125 -9.890625 C 5.894531 -9.890625 5.113281 -9.519531 4.46875 -8.78125 C 3.820312 -8.050781 3.5 -7.132812 3.5 -6.03125 L 3.5 0 L 1.8125 0 L 1.8125 -11.234375 L 3.203125 -11.234375 L 3.40625 -9.15625 L 3.484375 -9.15625 C 3.898438 -9.882812 4.398438 -10.445312 4.984375 -10.84375 C 5.578125 -11.238281 6.226562 -11.4375 6.9375 -11.4375 Z M 6.9375 -11.4375 "/></g></g></g><g fill="#ffffff" fill-opacity="1"><g transform="translate(100.766231, 300.905674)"><g><path d="M 5.4375 -1.203125 C 5.738281 -1.203125 6.03125 -1.222656 6.3125 -1.265625 C 6.59375 -1.304688 6.8125 -1.351562 6.96875 -1.40625 L 6.96875 -0.109375 C 6.789062 -0.015625 6.519531 0.0546875 6.15625 0.109375 C 5.800781 0.171875 5.476562 0.203125 5.1875 0.203125 C 3.007812 0.203125 1.921875 -0.941406 1.921875 -3.234375 L 1.921875 -9.921875 L 0.3125 -9.921875 L 0.3125 -10.734375 L 1.921875 -11.4375 L 2.640625 -13.84375 L 3.625 -13.84375 L 3.625 -11.234375 L 6.890625 -11.234375 L 6.890625 -9.921875 L 3.625 -9.921875 L 3.625 -3.296875 C 3.625 -2.617188 3.785156 -2.097656 4.109375 -1.734375 C 4.429688 -1.378906 4.875 -1.203125 5.4375 -1.203125 Z M 5.4375 -1.203125 "/></g></g></g><g fill="#ffffff" fill-opacity="1"><g transform="translate(108.175673, 300.905674)"><g/></g></g><g fill="#ffffff" fill-opacity="1"><g transform="translate(113.627706, 300.905674)"><g><path d="M 5.4375 -1.203125 C 5.738281 -1.203125 6.03125 -1.222656 6.3125 -1.265625 C 6.59375 -1.304688 6.8125 -1.351562 6.96875 -1.40625 L 6.96875 -0.109375 C 6.789062 -0.015625 6.519531 0.0546875 6.15625 0.109375 C 5.800781 0.171875 5.476562 0.203125 5.1875 0.203125 C 3.007812 0.203125 1.921875 -0.941406 1.921875 -3.234375 L 1.921875 -9.921875 L 0.3125 -9.921875 L 0.3125 -10.734375 L 1.921875 -11.4375 L 2.640625 -13.84375 L 3.625 -13.84375 L 3.625 -11.234375 L 6.890625 -11.234375 L 6.890625 -9.921875 L 3.625 -9.921875 L 3.625 -3.296875 C 3.625 -2.617188 3.785156 -2.097656 4.109375 -1.734375 C 4.429688 -1.378906 4.875 -1.203125 5.4375 -1.203125 Z M 5.4375 -1.203125 "/></g></g></g><g fill="#ffffff" fill-opacity="1"><g transform="translate(121.037149, 300.905674)"><g><path d="M 9.5 0 L 9.5 -7.265625 C 9.5 -8.179688 9.289062 -8.863281 8.875 -9.3125 C 8.457031 -9.769531 7.800781 -10 6.90625 -10 C 5.726562 -10 4.863281 -9.675781 4.3125 -9.03125 C 3.769531 -8.382812 3.5 -7.332031 3.5 -5.875 L 3.5 0 L 1.8125 0 L 1.8125 -15.953125 L 3.5 -15.953125 L 3.5 -11.125 C 3.5 -10.539062 3.472656 -10.0625 3.421875 -9.6875 L 3.53125 -9.6875 C 3.863281 -10.21875 4.335938 -10.640625 4.953125 -10.953125 C 5.578125 -11.265625 6.285156 -11.421875 7.078125 -11.421875 C 8.453125 -11.421875 9.484375 -11.09375 10.171875 -10.4375 C 10.859375 -9.789062 11.203125 -8.753906 11.203125 -7.328125 L 11.203125 0 Z M 9.5 0 "/></g></g></g><g fill="#ffffff" fill-opacity="1"><g transform="translate(133.919121, 300.905674)"><g><path d="M 6.546875 0.203125 C 4.890625 0.203125 3.578125 -0.300781 2.609375 -1.3125 C 1.648438 -2.320312 1.171875 -3.726562 1.171875 -5.53125 C 1.171875 -7.34375 1.617188 -8.78125 2.515625 -9.84375 C 3.410156 -10.90625 4.609375 -11.4375 6.109375 -11.4375 C 7.515625 -11.4375 8.628906 -10.972656 9.453125 -10.046875 C 10.273438 -9.128906 10.6875 -7.910156 10.6875 -6.390625 L 10.6875 -5.3125 L 2.9375 -5.3125 C 2.976562 -3.988281 3.3125 -2.984375 3.9375 -2.296875 C 4.570312 -1.617188 5.460938 -1.28125 6.609375 -1.28125 C 7.816406 -1.28125 9.015625 -1.535156 10.203125 -2.046875 L 10.203125 -0.515625 C 9.597656 -0.265625 9.023438 -0.0820312 8.484375 0.03125 C 7.953125 0.144531 7.304688 0.203125 6.546875 0.203125 Z M 6.09375 -10.015625 C 5.1875 -10.015625 4.460938 -9.71875 3.921875 -9.125 C 3.390625 -8.539062 3.078125 -7.734375 2.984375 -6.703125 L 8.859375 -6.703125 C 8.859375 -7.773438 8.617188 -8.59375 8.140625 -9.15625 C 7.660156 -9.726562 6.976562 -10.015625 6.09375 -10.015625 Z M 6.09375 -10.015625 "/></g></g></g><g fill="#ffffff" fill-opacity="1"><g transform="translate(145.694289, 300.905674)"><g><path d="M 16.125 0 L 16.125 -7.3125 C 16.125 -8.207031 15.929688 -8.878906 15.546875 -9.328125 C 15.171875 -9.773438 14.578125 -10 13.765625 -10 C 12.710938 -10 11.929688 -9.691406 11.421875 -9.078125 C 10.921875 -8.472656 10.671875 -7.539062 10.671875 -6.28125 L 10.671875 0 L 8.96875 0 L 8.96875 -7.3125 C 8.96875 -8.207031 8.773438 -8.878906 8.390625 -9.328125 C 8.003906 -9.773438 7.40625 -10 6.59375 -10 C 5.53125 -10 4.75 -9.675781 4.25 -9.03125 C 3.75 -8.394531 3.5 -7.347656 3.5 -5.890625 L 3.5 0 L 1.8125 0 L 1.8125 -11.234375 L 3.1875 -11.234375 L 3.46875 -9.703125 L 3.546875 -9.703125 C 3.867188 -10.242188 4.320312 -10.664062 4.90625 -10.96875 C 5.488281 -11.28125 6.144531 -11.4375 6.875 -11.4375 C 8.625 -11.4375 9.769531 -10.800781 10.3125 -9.53125 L 10.390625 -9.53125 C 10.734375 -10.125 11.222656 -10.585938 11.859375 -10.921875 C 12.492188 -11.265625 13.21875 -11.4375 14.03125 -11.4375 C 15.300781 -11.4375 16.25 -11.109375 16.875 -10.453125 C 17.507812 -9.804688 17.828125 -8.765625 17.828125 -7.328125 L 17.828125 0 Z M 16.125 0 "/></g></g></g><g fill="#ffffff" fill-opacity="1"><g transform="translate(165.217085, 300.905674)"><g><path d="M 1.5625 -1.09375 C 1.5625 -1.550781 1.664062 -1.894531 1.875 -2.125 C 2.082031 -2.363281 2.378906 -2.484375 2.765625 -2.484375 C 3.160156 -2.484375 3.46875 -2.363281 3.6875 -2.125 C 3.914062 -1.894531 4.03125 -1.550781 4.03125 -1.09375 C 4.03125 -0.644531 3.914062 -0.300781 3.6875 -0.0625 C 3.46875 0.175781 3.160156 0.296875 2.765625 0.296875 C 2.421875 0.296875 2.132812 0.191406 1.90625 -0.015625 C 1.675781 -0.234375 1.5625 -0.59375 1.5625 -1.09375 Z M 1.5625 -1.09375 "/></g></g></g><g fill="#ffffff" fill-opacity="1"><g transform="translate(170.800776, 300.905674)"><g/></g></g></svg>