<svg xmlns="http://www.w3.org/2000/svg" xmlns:xlink="http://www.w3.org/1999/xlink" width="288" zoomAndPan="magnify" viewBox="0 0 216 359.999987" height="480" preserveAspectRatio="xMidYMid meet" version="1.0"><defs><g/><clipPath id="ff8fbba67f"><path d="M 0 81.3125 L 216 81.3125 L 216 360 L 0 360 Z M 0 81.3125 " clip-rule="nonzero"/></clipPath></defs><rect x="-21.6" width="259.2" fill="#ffffff" y="-35.999999" height="431.999984" fill-opacity="1"/><rect x="-21.6" width="259.2" fill="#360d64" y="-35.999999" height="431.999984" fill-opacity="1"/><g clip-path="url(#ff8fbba67f)"><path fill="#643ab6" d="M 0 81.3125 L 215.664062 81.3125 L 215.664062 359.75 L 0 359.75 Z M 0 81.3125 " fill-opacity="1" fill-rule="nonzero"/></g><g fill="#ffffff" fill-opacity="1"><g transform="translate(34.904298, 50.855621)"><g><path d="M 22.65625 0 L 15.078125 0 L 7.28125 -15.0625 L 7.140625 -15.0625 C 7.328125 -12.6875 7.421875 -10.878906 7.421875 -9.640625 L 7.421875 0 L 2.3125 0 L 2.3125 -21.375 L 9.859375 -21.375 L 17.625 -6.515625 L 17.71875 -6.515625 C 17.582031 -8.671875 17.515625 -10.398438 17.515625 -11.703125 L 17.515625 -21.375 L 22.65625 -21.375 Z M 22.65625 0 "/></g></g></g><g fill="#ffffff" fill-opacity="1"><g transform="translate(59.865188, 50.855621)"><g><path d="M 15 0 L 2.3125 0 L 2.3125 -21.375 L 15 -21.375 L 15 -16.734375 L 8.078125 -16.734375 L 8.078125 -13.375 L 14.484375 -13.375 L 14.484375 -8.734375 L 8.078125 -8.734375 L 8.078125 -4.703125 L 15 -4.703125 Z M 15 0 "/></g></g></g><g fill="#ffffff" fill-opacity="1"><g transform="translate(76.291441, 50.855621)"><g><path d="M 8.078125 -7.78125 L 8.078125 0 L 2.3125 0 L 2.3125 -21.375 L 9.3125 -21.375 C 15.125 -21.375 18.03125 -19.269531 18.03125 -15.0625 C 18.03125 -12.582031 16.820312 -10.664062 14.40625 -9.3125 L 20.625 0 L 14.078125 0 L 9.546875 -7.78125 Z M 8.078125 -12.125 L 9.171875 -12.125 C 11.179688 -12.125 12.1875 -13.015625 12.1875 -14.796875 C 12.1875 -16.265625 11.195312 -17 9.21875 -17 L 8.078125 -17 Z M 8.078125 -12.125 "/></g></g></g><g fill="#ffffff" fill-opacity="1"><g transform="translate(96.546589, 50.855621)"><g><path d="M 14.3125 -21.375 L 20.765625 -21.375 L 13.765625 0 L 6.96875 0 L 0 -21.375 L 6.484375 -21.375 L 9.40625 -10.546875 C 10.007812 -8.128906 10.335938 -6.453125 10.390625 -5.515625 C 10.460938 -6.191406 10.597656 -7.039062 10.796875 -8.0625 C 11.003906 -9.09375 11.1875 -9.898438 11.34375 -10.484375 Z M 14.3125 -21.375 "/></g></g></g><g fill="#ffffff" fill-opacity="1"><g transform="translate(117.31323, 50.855621)"><g><path d="M 22.3125 -10.71875 C 22.3125 -7.125 21.425781 -4.390625 19.65625 -2.515625 C 17.894531 -0.640625 15.3125 0.296875 11.90625 0.296875 C 8.5625 0.296875 5.992188 -0.640625 4.203125 -2.515625 C 2.410156 -4.398438 1.515625 -7.144531 1.515625 -10.75 C 1.515625 -14.300781 2.40625 -17.015625 4.1875 -18.890625 C 5.96875 -20.765625 8.550781 -21.703125 11.9375 -21.703125 C 15.34375 -21.703125 17.921875 -20.769531 19.671875 -18.90625 C 21.429688 -17.050781 22.3125 -14.320312 22.3125 -10.71875 Z M 7.59375 -10.71875 C 7.59375 -6.582031 9.03125 -4.515625 11.90625 -4.515625 C 13.375 -4.515625 14.457031 -5.015625 15.15625 -6.015625 C 15.863281 -7.023438 16.21875 -8.59375 16.21875 -10.71875 C 16.21875 -12.851562 15.859375 -14.425781 15.140625 -15.4375 C 14.429688 -16.457031 13.363281 -16.96875 11.9375 -16.96875 C 9.039062 -16.96875 7.59375 -14.882812 7.59375 -10.71875 Z M 7.59375 -10.71875 "/></g></g></g><g fill="#ffffff" fill-opacity="1"><g transform="translate(141.163448, 50.855621)"><g><path d="M 20.484375 -21.375 L 20.484375 -8.5 C 20.484375 -5.707031 19.691406 -3.539062 18.109375 -2 C 16.523438 -0.46875 14.238281 0.296875 11.25 0.296875 C 8.34375 0.296875 6.101562 -0.445312 4.53125 -1.9375 C 2.96875 -3.4375 2.1875 -5.582031 2.1875 -8.375 L 2.1875 -21.375 L 8 -21.375 L 8 -8.828125 C 8 -7.316406 8.28125 -6.21875 8.84375 -5.53125 C 9.40625 -4.851562 10.238281 -4.515625 11.34375 -4.515625 C 12.519531 -4.515625 13.375 -4.851562 13.90625 -5.53125 C 14.4375 -6.207031 14.703125 -7.316406 14.703125 -8.859375 L 14.703125 -21.375 Z M 20.484375 -21.375 "/></g></g></g><g fill="#ffffff" fill-opacity="1"><g transform="translate(163.815309, 50.855621)"><g><path d="M 16.28125 -6.484375 C 16.28125 -5.160156 15.941406 -3.984375 15.265625 -2.953125 C 14.597656 -1.929688 13.628906 -1.132812 12.359375 -0.5625 C 11.097656 0.0078125 9.613281 0.296875 7.90625 0.296875 C 6.488281 0.296875 5.296875 0.195312 4.328125 0 C 3.359375 -0.207031 2.351562 -0.554688 1.3125 -1.046875 L 1.3125 -6.203125 C 2.414062 -5.628906 3.5625 -5.1875 4.75 -4.875 C 5.9375 -4.5625 7.03125 -4.40625 8.03125 -4.40625 C 8.882812 -4.40625 9.507812 -4.550781 9.90625 -4.84375 C 10.3125 -5.144531 10.515625 -5.53125 10.515625 -6 C 10.515625 -6.289062 10.429688 -6.546875 10.265625 -6.765625 C 10.109375 -6.984375 9.847656 -7.203125 9.484375 -7.421875 C 9.128906 -7.648438 8.1875 -8.109375 6.65625 -8.796875 C 5.257812 -9.429688 4.210938 -10.046875 3.515625 -10.640625 C 2.816406 -11.234375 2.300781 -11.914062 1.96875 -12.6875 C 1.632812 -13.457031 1.46875 -14.367188 1.46875 -15.421875 C 1.46875 -17.390625 2.179688 -18.921875 3.609375 -20.015625 C 5.046875 -21.117188 7.015625 -21.671875 9.515625 -21.671875 C 11.722656 -21.671875 13.976562 -21.160156 16.28125 -20.140625 L 14.515625 -15.6875 C 12.515625 -16.601562 10.789062 -17.0625 9.34375 -17.0625 C 8.59375 -17.0625 8.046875 -16.925781 7.703125 -16.65625 C 7.359375 -16.394531 7.1875 -16.070312 7.1875 -15.6875 C 7.1875 -15.269531 7.40625 -14.894531 7.84375 -14.5625 C 8.28125 -14.226562 9.457031 -13.625 11.375 -12.75 C 13.21875 -11.914062 14.492188 -11.023438 15.203125 -10.078125 C 15.921875 -9.128906 16.28125 -7.929688 16.28125 -6.484375 Z M 16.28125 -6.484375 "/></g></g></g><g fill="#ffffff" fill-opacity="1"><g transform="translate(1.300785, 157.874988)"><g><path d="M 15.140625 0 L 13.421875 0 L 10.390625 -10.03125 C 10.253906 -10.476562 10.097656 -11.039062 9.921875 -11.71875 C 9.742188 -12.394531 9.648438 -12.800781 9.640625 -12.9375 C 9.484375 -12.039062 9.242188 -11.054688 8.921875 -9.984375 L 5.984375 0 L 4.265625 0 L 0.28125 -14.984375 L 2.125 -14.984375 L 4.484375 -5.734375 C 4.816406 -4.429688 5.054688 -3.253906 5.203125 -2.203125 C 5.390625 -3.453125 5.664062 -4.675781 6.03125 -5.875 L 8.71875 -14.984375 L 10.5625 -14.984375 L 13.375 -5.796875 C 13.707031 -4.734375 13.988281 -3.535156 14.21875 -2.203125 C 14.34375 -3.171875 14.585938 -4.351562 14.953125 -5.75 L 17.3125 -14.984375 L 19.15625 -14.984375 Z M 15.140625 0 "/></g></g></g><g fill="#ffffff" fill-opacity="1"><g transform="translate(20.731341, 157.874988)"><g><path d="M 11.5 -5.625 C 11.5 -3.789062 11.035156 -2.359375 10.109375 -1.328125 C 9.191406 -0.304688 7.921875 0.203125 6.296875 0.203125 C 5.285156 0.203125 4.390625 -0.03125 3.609375 -0.5 C 2.835938 -0.96875 2.238281 -1.644531 1.8125 -2.53125 C 1.382812 -3.414062 1.171875 -4.445312 1.171875 -5.625 C 1.171875 -7.457031 1.628906 -8.882812 2.546875 -9.90625 C 3.460938 -10.925781 4.738281 -11.4375 6.375 -11.4375 C 7.9375 -11.4375 9.179688 -10.914062 10.109375 -9.875 C 11.035156 -8.832031 11.5 -7.414062 11.5 -5.625 Z M 2.9375 -5.625 C 2.9375 -4.1875 3.222656 -3.09375 3.796875 -2.34375 C 4.378906 -1.59375 5.226562 -1.21875 6.34375 -1.21875 C 7.457031 -1.21875 8.300781 -1.59375 8.875 -2.34375 C 9.445312 -3.09375 9.734375 -4.1875 9.734375 -5.625 C 9.734375 -7.050781 9.445312 -8.132812 8.875 -8.875 C 8.300781 -9.625 7.445312 -10 6.3125 -10 C 5.195312 -10 4.351562 -9.628906 3.78125 -8.890625 C 3.21875 -8.160156 2.9375 -7.070312 2.9375 -5.625 Z M 2.9375 -5.625 "/></g></g></g><g fill="#ffffff" fill-opacity="1"><g transform="translate(33.408349, 157.874988)"><g><path d="M 6.9375 -11.4375 C 7.4375 -11.4375 7.882812 -11.398438 8.28125 -11.328125 L 8.046875 -9.734375 C 7.578125 -9.835938 7.164062 -9.890625 6.8125 -9.890625 C 5.894531 -9.890625 5.113281 -9.519531 4.46875 -8.78125 C 3.820312 -8.050781 3.5 -7.132812 3.5 -6.03125 L 3.5 0 L 1.8125 0 L 1.8125 -11.234375 L 3.203125 -11.234375 L 3.40625 -9.15625 L 3.484375 -9.15625 C 3.898438 -9.882812 4.398438 -10.445312 4.984375 -10.84375 C 5.578125 -11.238281 6.226562 -11.4375 6.9375 -11.4375 Z M 6.9375 -11.4375 "/></g></g></g><g fill="#ffffff" fill-opacity="1"><g transform="translate(41.975831, 157.874988)"><g><path d="M 6.9375 -11.4375 C 7.4375 -11.4375 7.882812 -11.398438 8.28125 -11.328125 L 8.046875 -9.734375 C 7.578125 -9.835938 7.164062 -9.890625 6.8125 -9.890625 C 5.894531 -9.890625 5.113281 -9.519531 4.46875 -8.78125 C 3.820312 -8.050781 3.5 -7.132812 3.5 -6.03125 L 3.5 0 L 1.8125 0 L 1.8125 -11.234375 L 3.203125 -11.234375 L 3.40625 -9.15625 L 3.484375 -9.15625 C 3.898438 -9.882812 4.398438 -10.445312 4.984375 -10.84375 C 5.578125 -11.238281 6.226562 -11.4375 6.9375 -11.4375 Z M 6.9375 -11.4375 "/></g></g></g><g fill="#ffffff" fill-opacity="1"><g transform="translate(50.543312, 157.874988)"><g><path d="M 3.5 0 L 1.8125 0 L 1.8125 -11.234375 L 3.5 -11.234375 Z M 1.65625 -14.28125 C 1.65625 -14.675781 1.75 -14.960938 1.9375 -15.140625 C 2.132812 -15.316406 2.378906 -15.40625 2.671875 -15.40625 C 2.941406 -15.40625 3.175781 -15.3125 3.375 -15.125 C 3.570312 -14.945312 3.671875 -14.664062 3.671875 -14.28125 C 3.671875 -13.894531 3.570312 -13.609375 3.375 -13.421875 C 3.175781 -13.234375 2.941406 -13.140625 2.671875 -13.140625 C 2.378906 -13.140625 2.132812 -13.234375 1.9375 -13.421875 C 1.75 -13.609375 1.65625 -13.894531 1.65625 -14.28125 Z M 1.65625 -14.28125 "/></g></g></g><g fill="#ffffff" fill-opacity="1"><g transform="translate(55.851871, 157.874988)"><g><path d="M 6.546875 0.203125 C 4.890625 0.203125 3.578125 -0.300781 2.609375 -1.3125 C 1.648438 -2.320312 1.171875 -3.726562 1.171875 -5.53125 C 1.171875 -7.34375 1.617188 -8.78125 2.515625 -9.84375 C 3.410156 -10.90625 4.609375 -11.4375 6.109375 -11.4375 C 7.515625 -11.4375 8.628906 -10.972656 9.453125 -10.046875 C 10.273438 -9.128906 10.6875 -7.910156 10.6875 -6.390625 L 10.6875 -5.3125 L 2.9375 -5.3125 C 2.976562 -3.988281 3.3125 -2.984375 3.9375 -2.296875 C 4.570312 -1.617188 5.460938 -1.28125 6.609375 -1.28125 C 7.816406 -1.28125 9.015625 -1.535156 10.203125 -2.046875 L 10.203125 -0.515625 C 9.597656 -0.265625 9.023438 -0.0820312 8.484375 0.03125 C 7.953125 0.144531 7.304688 0.203125 6.546875 0.203125 Z M 6.09375 -10.015625 C 5.1875 -10.015625 4.460938 -9.71875 3.921875 -9.125 C 3.390625 -8.539062 3.078125 -7.734375 2.984375 -6.703125 L 8.859375 -6.703125 C 8.859375 -7.773438 8.617188 -8.59375 8.140625 -9.15625 C 7.660156 -9.726562 6.976562 -10.015625 6.09375 -10.015625 Z M 6.09375 -10.015625 "/></g></g></g><g fill="#ffffff" fill-opacity="1"><g transform="translate(67.627039, 157.874988)"><g><path d="M 9.453125 -1.5 L 9.359375 -1.5 C 8.578125 -0.363281 7.398438 0.203125 5.828125 0.203125 C 4.359375 0.203125 3.210938 -0.296875 2.390625 -1.296875 C 1.578125 -2.304688 1.171875 -3.738281 1.171875 -5.59375 C 1.171875 -7.445312 1.582031 -8.882812 2.40625 -9.90625 C 3.226562 -10.925781 4.367188 -11.4375 5.828125 -11.4375 C 7.359375 -11.4375 8.53125 -10.882812 9.34375 -9.78125 L 9.46875 -9.78125 L 9.40625 -10.59375 L 9.359375 -11.375 L 9.359375 -15.953125 L 11.0625 -15.953125 L 11.0625 0 L 9.6875 0 Z M 6.046875 -1.21875 C 7.210938 -1.21875 8.054688 -1.535156 8.578125 -2.171875 C 9.097656 -2.804688 9.359375 -3.828125 9.359375 -5.234375 L 9.359375 -5.59375 C 9.359375 -7.1875 9.09375 -8.320312 8.5625 -9 C 8.03125 -9.675781 7.1875 -10.015625 6.03125 -10.015625 C 5.03125 -10.015625 4.265625 -9.625 3.734375 -8.84375 C 3.203125 -8.070312 2.9375 -6.976562 2.9375 -5.5625 C 2.9375 -4.132812 3.195312 -3.050781 3.71875 -2.3125 C 4.25 -1.582031 5.023438 -1.21875 6.046875 -1.21875 Z M 6.046875 -1.21875 "/></g></g></g><g fill="#ffffff" fill-opacity="1"><g transform="translate(80.488515, 157.874988)"><g/></g></g><g fill="#ffffff" fill-opacity="1"><g transform="translate(85.940549, 157.874988)"><g><path d="M 11.5 -5.625 C 11.5 -3.789062 11.035156 -2.359375 10.109375 -1.328125 C 9.191406 -0.304688 7.921875 0.203125 6.296875 0.203125 C 5.285156 0.203125 4.390625 -0.03125 3.609375 -0.5 C 2.835938 -0.96875 2.238281 -1.644531 1.8125 -2.53125 C 1.382812 -3.414062 1.171875 -4.445312 1.171875 -5.625 C 1.171875 -7.457031 1.628906 -8.882812 2.546875 -9.90625 C 3.460938 -10.925781 4.738281 -11.4375 6.375 -11.4375 C 7.9375 -11.4375 9.179688 -10.914062 10.109375 -9.875 C 11.035156 -8.832031 11.5 -7.414062 11.5 -5.625 Z M 2.9375 -5.625 C 2.9375 -4.1875 3.222656 -3.09375 3.796875 -2.34375 C 4.378906 -1.59375 5.226562 -1.21875 6.34375 -1.21875 C 7.457031 -1.21875 8.300781 -1.59375 8.875 -2.34375 C 9.445312 -3.09375 9.734375 -4.1875 9.734375 -5.625 C 9.734375 -7.050781 9.445312 -8.132812 8.875 -8.875 C 8.300781 -9.625 7.445312 -10 6.3125 -10 C 5.195312 -10 4.351562 -9.628906 3.78125 -8.890625 C 3.21875 -8.160156 2.9375 -7.070312 2.9375 -5.625 Z M 2.9375 -5.625 "/></g></g></g><g fill="#ffffff" fill-opacity="1"><g transform="translate(98.617557, 157.874988)"><g><path d="M 6.9375 -11.4375 C 7.4375 -11.4375 7.882812 -11.398438 8.28125 -11.328125 L 8.046875 -9.734375 C 7.578125 -9.835938 7.164062 -9.890625 6.8125 -9.890625 C 5.894531 -9.890625 5.113281 -9.519531 4.46875 -8.78125 C 3.820312 -8.050781 3.5 -7.132812 3.5 -6.03125 L 3.5 0 L 1.8125 0 L 1.8125 -11.234375 L 3.203125 -11.234375 L 3.40625 -9.15625 L 3.484375 -9.15625 C 3.898438 -9.882812 4.398438 -10.445312 4.984375 -10.84375 C 5.578125 -11.238281 6.226562 -11.4375 6.9375 -11.4375 Z M 6.9375 -11.4375 "/></g></g></g><g fill="#ffffff" fill-opacity="1"><g transform="translate(107.185039, 157.874988)"><g/></g></g><g fill="#ffffff" fill-opacity="1"><g transform="translate(112.637072, 157.874988)"><g><path d="M 6.875 -9.921875 L 4.015625 -9.921875 L 4.015625 0 L 2.3125 0 L 2.3125 -9.921875 L 0.296875 -9.921875 L 0.296875 -10.6875 L 2.3125 -11.296875 L 2.3125 -11.921875 C 2.3125 -14.679688 3.515625 -16.0625 5.921875 -16.0625 C 6.515625 -16.0625 7.210938 -15.941406 8.015625 -15.703125 L 7.578125 -14.34375 C 6.921875 -14.550781 6.359375 -14.65625 5.890625 -14.65625 C 5.253906 -14.65625 4.78125 -14.441406 4.46875 -14.015625 C 4.164062 -13.585938 4.015625 -12.90625 4.015625 -11.96875 L 4.015625 -11.234375 L 6.875 -11.234375 Z M 6.875 -9.921875 "/></g></g></g><g fill="#ffffff" fill-opacity="1"><g transform="translate(119.749311, 157.874988)"><g><path d="M 6.9375 -11.4375 C 7.4375 -11.4375 7.882812 -11.398438 8.28125 -11.328125 L 8.046875 -9.734375 C 7.578125 -9.835938 7.164062 -9.890625 6.8125 -9.890625 C 5.894531 -9.890625 5.113281 -9.519531 4.46875 -8.78125 C 3.820312 -8.050781 3.5 -7.132812 3.5 -6.03125 L 3.5 0 L 1.8125 0 L 1.8125 -11.234375 L 3.203125 -11.234375 L 3.40625 -9.15625 L 3.484375 -9.15625 C 3.898438 -9.882812 4.398438 -10.445312 4.984375 -10.84375 C 5.578125 -11.238281 6.226562 -11.4375 6.9375 -11.4375 Z M 6.9375 -11.4375 "/></g></g></g><g fill="#ffffff" fill-opacity="1"><g transform="translate(128.316793, 157.874988)"><g><path d="M 3.5 0 L 1.8125 0 L 1.8125 -11.234375 L 3.5 -11.234375 Z M 1.65625 -14.28125 C 1.65625 -14.675781 1.75 -14.960938 1.9375 -15.140625 C 2.132812 -15.316406 2.378906 -15.40625 2.671875 -15.40625 C 2.941406 -15.40625 3.175781 -15.3125 3.375 -15.125 C 3.570312 -14.945312 3.671875 -14.664062 3.671875 -14.28125 C 3.671875 -13.894531 3.570312 -13.609375 3.375 -13.421875 C 3.175781 -13.234375 2.941406 -13.140625 2.671875 -13.140625 C 2.378906 -13.140625 2.132812 -13.234375 1.9375 -13.421875 C 1.75 -13.609375 1.65625 -13.894531 1.65625 -14.28125 Z M 1.65625 -14.28125 "/></g></g></g><g fill="#ffffff" fill-opacity="1"><g transform="translate(133.625352, 157.874988)"><g><path d="M 11 -11.234375 L 11 -10.15625 L 8.921875 -9.921875 C 9.109375 -9.679688 9.273438 -9.363281 9.421875 -8.96875 C 9.578125 -8.582031 9.65625 -8.148438 9.65625 -7.671875 C 9.65625 -6.566406 9.28125 -5.6875 8.53125 -5.03125 C 7.78125 -4.375 6.75 -4.046875 5.4375 -4.046875 C 5.101562 -4.046875 4.785156 -4.070312 4.484375 -4.125 C 3.765625 -3.75 3.40625 -3.269531 3.40625 -2.6875 C 3.40625 -2.375 3.53125 -2.144531 3.78125 -2 C 4.03125 -1.851562 4.46875 -1.78125 5.09375 -1.78125 L 7.078125 -1.78125 C 8.296875 -1.78125 9.226562 -1.523438 9.875 -1.015625 C 10.53125 -0.503906 10.859375 0.238281 10.859375 1.21875 C 10.859375 2.46875 10.359375 3.414062 9.359375 4.0625 C 8.359375 4.71875 6.90625 5.046875 5 5.046875 C 3.53125 5.046875 2.394531 4.769531 1.59375 4.21875 C 0.800781 3.675781 0.40625 2.90625 0.40625 1.90625 C 0.40625 1.21875 0.625 0.625 1.0625 0.125 C 1.5 -0.363281 2.113281 -0.695312 2.90625 -0.875 C 2.613281 -1.007812 2.367188 -1.210938 2.171875 -1.484375 C 1.984375 -1.753906 1.890625 -2.070312 1.890625 -2.4375 C 1.890625 -2.851562 2 -3.210938 2.21875 -3.515625 C 2.4375 -3.828125 2.78125 -4.125 3.25 -4.40625 C 2.664062 -4.644531 2.191406 -5.050781 1.828125 -5.625 C 1.460938 -6.195312 1.28125 -6.851562 1.28125 -7.59375 C 1.28125 -8.820312 1.648438 -9.769531 2.390625 -10.4375 C 3.128906 -11.101562 4.175781 -11.4375 5.53125 -11.4375 C 6.113281 -11.4375 6.640625 -11.367188 7.109375 -11.234375 Z M 2.046875 1.890625 C 2.046875 2.492188 2.300781 2.953125 2.8125 3.265625 C 3.320312 3.585938 4.054688 3.75 5.015625 3.75 C 6.441406 3.75 7.5 3.535156 8.1875 3.109375 C 8.875 2.679688 9.21875 2.097656 9.21875 1.359375 C 9.21875 0.753906 9.03125 0.332031 8.65625 0.09375 C 8.28125 -0.132812 7.570312 -0.25 6.53125 -0.25 L 4.484375 -0.25 C 3.710938 -0.25 3.113281 -0.0664062 2.6875 0.296875 C 2.257812 0.660156 2.046875 1.191406 2.046875 1.890625 Z M 2.96875 -7.640625 C 2.96875 -6.847656 3.1875 -6.25 3.625 -5.84375 C 4.070312 -5.445312 4.691406 -5.25 5.484375 -5.25 C 7.148438 -5.25 7.984375 -6.054688 7.984375 -7.671875 C 7.984375 -9.359375 7.140625 -10.203125 5.453125 -10.203125 C 4.648438 -10.203125 4.035156 -9.984375 3.609375 -9.546875 C 3.179688 -9.117188 2.96875 -8.484375 2.96875 -7.640625 Z M 2.96875 -7.640625 "/></g></g></g><g fill="#ffffff" fill-opacity="1"><g transform="translate(145.123813, 157.874988)"><g><path d="M 9.5 0 L 9.5 -7.265625 C 9.5 -8.179688 9.289062 -8.863281 8.875 -9.3125 C 8.457031 -9.769531 7.800781 -10 6.90625 -10 C 5.726562 -10 4.863281 -9.675781 4.3125 -9.03125 C 3.769531 -8.382812 3.5 -7.332031 3.5 -5.875 L 3.5 0 L 1.8125 0 L 1.8125 -15.953125 L 3.5 -15.953125 L 3.5 -11.125 C 3.5 -10.539062 3.472656 -10.0625 3.421875 -9.6875 L 3.53125 -9.6875 C 3.863281 -10.21875 4.335938 -10.640625 4.953125 -10.953125 C 5.578125 -11.265625 6.285156 -11.421875 7.078125 -11.421875 C 8.453125 -11.421875 9.484375 -11.09375 10.171875 -10.4375 C 10.859375 -9.789062 11.203125 -8.753906 11.203125 -7.328125 L 11.203125 0 Z M 9.5 0 "/></g></g></g><g fill="#ffffff" fill-opacity="1"><g transform="translate(158.005785, 157.874988)"><g><path d="M 5.4375 -1.203125 C 5.738281 -1.203125 6.03125 -1.222656 6.3125 -1.265625 C 6.59375 -1.304688 6.8125 -1.351562 6.96875 -1.40625 L 6.96875 -0.109375 C 6.789062 -0.015625 6.519531 0.0546875 6.15625 0.109375 C 5.800781 0.171875 5.476562 0.203125 5.1875 0.203125 C 3.007812 0.203125 1.921875 -0.941406 1.921875 -3.234375 L 1.921875 -9.921875 L 0.3125 -9.921875 L 0.3125 -10.734375 L 1.921875 -11.4375 L 2.640625 -13.84375 L 3.625 -13.84375 L 3.625 -11.234375 L 6.890625 -11.234375 L 6.890625 -9.921875 L 3.625 -9.921875 L 3.625 -3.296875 C 3.625 -2.617188 3.785156 -2.097656 4.109375 -1.734375 C 4.429688 -1.378906 4.875 -1.203125 5.4375 -1.203125 Z M 5.4375 -1.203125 "/></g></g></g><g fill="#ffffff" fill-opacity="1"><g transform="translate(165.415228, 157.874988)"><g><path d="M 6.546875 0.203125 C 4.890625 0.203125 3.578125 -0.300781 2.609375 -1.3125 C 1.648438 -2.320312 1.171875 -3.726562 1.171875 -5.53125 C 1.171875 -7.34375 1.617188 -8.78125 2.515625 -9.84375 C 3.410156 -10.90625 4.609375 -11.4375 6.109375 -11.4375 C 7.515625 -11.4375 8.628906 -10.972656 9.453125 -10.046875 C 10.273438 -9.128906 10.6875 -7.910156 10.6875 -6.390625 L 10.6875 -5.3125 L 2.9375 -5.3125 C 2.976562 -3.988281 3.3125 -2.984375 3.9375 -2.296875 C 4.570312 -1.617188 5.460938 -1.28125 6.609375 -1.28125 C 7.816406 -1.28125 9.015625 -1.535156 10.203125 -2.046875 L 10.203125 -0.515625 C 9.597656 -0.265625 9.023438 -0.0820312 8.484375 0.03125 C 7.953125 0.144531 7.304688 0.203125 6.546875 0.203125 Z M 6.09375 -10.015625 C 5.1875 -10.015625 4.460938 -9.71875 3.921875 -9.125 C 3.390625 -8.539062 3.078125 -7.734375 2.984375 -6.703125 L 8.859375 -6.703125 C 8.859375 -7.773438 8.617188 -8.59375 8.140625 -9.15625 C 7.660156 -9.726562 6.976562 -10.015625 6.09375 -10.015625 Z M 6.09375 -10.015625 "/></g></g></g><g fill="#ffffff" fill-opacity="1"><g transform="translate(177.190396, 157.874988)"><g><path d="M 9.5 0 L 9.5 -7.265625 C 9.5 -8.179688 9.289062 -8.863281 8.875 -9.3125 C 8.457031 -9.769531 7.800781 -10 6.90625 -10 C 5.726562 -10 4.863281 -9.679688 4.3125 -9.046875 C 3.769531 -8.410156 3.5 -7.359375 3.5 -5.890625 L 3.5 0 L 1.8125 0 L 1.8125 -11.234375 L 3.1875 -11.234375 L 3.46875 -9.703125 L 3.546875 -9.703125 C 3.898438 -10.253906 4.390625 -10.679688 5.015625 -10.984375 C 5.640625 -11.285156 6.335938 -11.4375 7.109375 -11.4375 C 8.460938 -11.4375 9.484375 -11.109375 10.171875 -10.453125 C 10.859375 -9.804688 11.203125 -8.765625 11.203125 -7.328125 L 11.203125 0 Z M 9.5 0 "/></g></g></g><g fill="#ffffff" fill-opacity="1"><g transform="translate(190.072368, 157.874988)"><g><path d="M 6.546875 0.203125 C 4.890625 0.203125 3.578125 -0.300781 2.609375 -1.3125 C 1.648438 -2.320312 1.171875 -3.726562 1.171875 -5.53125 C 1.171875 -7.34375 1.617188 -8.78125 2.515625 -9.84375 C 3.410156 -10.90625 4.609375 -11.4375 6.109375 -11.4375 C 7.515625 -11.4375 8.628906 -10.972656 9.453125 -10.046875 C 10.273438 -9.128906 10.6875 -7.910156 10.6875 -6.390625 L 10.6875 -5.3125 L 2.9375 -5.3125 C 2.976562 -3.988281 3.3125 -2.984375 3.9375 -2.296875 C 4.570312 -1.617188 5.460938 -1.28125 6.609375 -1.28125 C 7.816406 -1.28125 9.015625 -1.535156 10.203125 -2.046875 L 10.203125 -0.515625 C 9.597656 -0.265625 9.023438 -0.0820312 8.484375 0.03125 C 7.953125 0.144531 7.304688 0.203125 6.546875 0.203125 Z M 6.09375 -10.015625 C 5.1875 -10.015625 4.460938 -9.71875 3.921875 -9.125 C 3.390625 -8.539062 3.078125 -7.734375 2.984375 -6.703125 L 8.859375 -6.703125 C 8.859375 -7.773438 8.617188 -8.59375 8.140625 -9.15625 C 7.660156 -9.726562 6.976562 -10.015625 6.09375 -10.015625 Z M 6.09375 -10.015625 "/></g></g></g><g fill="#ffffff" fill-opacity="1"><g transform="translate(201.847537, 157.874988)"><g><path d="M 9.453125 -1.5 L 9.359375 -1.5 C 8.578125 -0.363281 7.398438 0.203125 5.828125 0.203125 C 4.359375 0.203125 3.210938 -0.296875 2.390625 -1.296875 C 1.578125 -2.304688 1.171875 -3.738281 1.171875 -5.59375 C 1.171875 -7.445312 1.582031 -8.882812 2.40625 -9.90625 C 3.226562 -10.925781 4.367188 -11.4375 5.828125 -11.4375 C 7.359375 -11.4375 8.53125 -10.882812 9.34375 -9.78125 L 9.46875 -9.78125 L 9.40625 -10.59375 L 9.359375 -11.375 L 9.359375 -15.953125 L 11.0625 -15.953125 L 11.0625 0 L 9.6875 0 Z M 6.046875 -1.21875 C 7.210938 -1.21875 8.054688 -1.535156 8.578125 -2.171875 C 9.097656 -2.804688 9.359375 -3.828125 9.359375 -5.234375 L 9.359375 -5.59375 C 9.359375 -7.1875 9.09375 -8.320312 8.5625 -9 C 8.03125 -9.675781 7.1875 -10.015625 6.03125 -10.015625 C 5.03125 -10.015625 4.265625 -9.625 3.734375 -8.84375 C 3.203125 -8.070312 2.9375 -6.976562 2.9375 -5.5625 C 2.9375 -4.132812 3.195312 -3.050781 3.71875 -2.3125 C 4.25 -1.582031 5.023438 -1.21875 6.046875 -1.21875 Z M 6.046875 -1.21875 "/></g></g></g><g fill="#ffffff" fill-opacity="1"><g transform="translate(0.527348, 187.124985)"><g><path d="M 8.71875 0 L 8.375 -1.59375 L 8.296875 -1.59375 C 7.734375 -0.894531 7.171875 -0.421875 6.609375 -0.171875 C 6.054688 0.078125 5.363281 0.203125 4.53125 0.203125 C 3.414062 0.203125 2.539062 -0.0820312 1.90625 -0.65625 C 1.28125 -1.226562 0.96875 -2.046875 0.96875 -3.109375 C 0.96875 -5.378906 2.78125 -6.566406 6.40625 -6.671875 L 8.3125 -6.734375 L 8.3125 -7.4375 C 8.3125 -8.3125 8.117188 -8.957031 7.734375 -9.375 C 7.359375 -9.800781 6.753906 -10.015625 5.921875 -10.015625 C 4.984375 -10.015625 3.925781 -9.726562 2.75 -9.15625 L 2.21875 -10.453125 C 2.78125 -10.753906 3.390625 -10.988281 4.046875 -11.15625 C 4.703125 -11.332031 5.363281 -11.421875 6.03125 -11.421875 C 7.375 -11.421875 8.367188 -11.125 9.015625 -10.53125 C 9.660156 -9.9375 9.984375 -8.984375 9.984375 -7.671875 L 9.984375 0 Z M 4.875 -1.203125 C 5.925781 -1.203125 6.753906 -1.488281 7.359375 -2.0625 C 7.972656 -2.644531 8.28125 -3.460938 8.28125 -4.515625 L 8.28125 -5.53125 L 6.578125 -5.453125 C 5.222656 -5.410156 4.242188 -5.203125 3.640625 -4.828125 C 3.046875 -4.453125 2.75 -3.875 2.75 -3.09375 C 2.75 -2.46875 2.929688 -1.992188 3.296875 -1.671875 C 3.671875 -1.359375 4.195312 -1.203125 4.875 -1.203125 Z M 4.875 -1.203125 "/></g></g></g><g fill="#ffffff" fill-opacity="1"><g transform="translate(12.200034, 187.124985)"><g><path d="M 7.03125 -11.421875 C 8.507812 -11.421875 9.65625 -10.914062 10.46875 -9.90625 C 11.289062 -8.894531 11.703125 -7.46875 11.703125 -5.625 C 11.703125 -3.78125 11.289062 -2.347656 10.46875 -1.328125 C 9.644531 -0.304688 8.5 0.203125 7.03125 0.203125 C 6.300781 0.203125 5.632812 0.0664062 5.03125 -0.203125 C 4.425781 -0.472656 3.914062 -0.890625 3.5 -1.453125 L 3.390625 -1.453125 L 3.03125 0 L 1.8125 0 L 1.8125 -15.953125 L 3.5 -15.953125 L 3.5 -12.078125 C 3.5 -11.210938 3.472656 -10.429688 3.421875 -9.734375 L 3.5 -9.734375 C 4.300781 -10.859375 5.476562 -11.421875 7.03125 -11.421875 Z M 6.78125 -10 C 5.625 -10 4.785156 -9.664062 4.265625 -9 C 3.753906 -8.332031 3.5 -7.207031 3.5 -5.625 C 3.5 -4.050781 3.765625 -2.921875 4.296875 -2.234375 C 4.828125 -1.554688 5.671875 -1.21875 6.828125 -1.21875 C 7.867188 -1.21875 8.644531 -1.597656 9.15625 -2.359375 C 9.675781 -3.117188 9.9375 -4.21875 9.9375 -5.65625 C 9.9375 -7.113281 9.675781 -8.203125 9.15625 -8.921875 C 8.644531 -9.640625 7.851562 -10 6.78125 -10 Z M 6.78125 -10 "/></g></g></g><g fill="#ffffff" fill-opacity="1"><g transform="translate(25.06151, 187.124985)"><g><path d="M 11.5 -5.625 C 11.5 -3.789062 11.035156 -2.359375 10.109375 -1.328125 C 9.191406 -0.304688 7.921875 0.203125 6.296875 0.203125 C 5.285156 0.203125 4.390625 -0.03125 3.609375 -0.5 C 2.835938 -0.96875 2.238281 -1.644531 1.8125 -2.53125 C 1.382812 -3.414062 1.171875 -4.445312 1.171875 -5.625 C 1.171875 -7.457031 1.628906 -8.882812 2.546875 -9.90625 C 3.460938 -10.925781 4.738281 -11.4375 6.375 -11.4375 C 7.9375 -11.4375 9.179688 -10.914062 10.109375 -9.875 C 11.035156 -8.832031 11.5 -7.414062 11.5 -5.625 Z M 2.9375 -5.625 C 2.9375 -4.1875 3.222656 -3.09375 3.796875 -2.34375 C 4.378906 -1.59375 5.226562 -1.21875 6.34375 -1.21875 C 7.457031 -1.21875 8.300781 -1.59375 8.875 -2.34375 C 9.445312 -3.09375 9.734375 -4.1875 9.734375 -5.625 C 9.734375 -7.050781 9.445312 -8.132812 8.875 -8.875 C 8.300781 -9.625 7.445312 -10 6.3125 -10 C 5.195312 -10 4.351562 -9.628906 3.78125 -8.890625 C 3.21875 -8.160156 2.9375 -7.070312 2.9375 -5.625 Z M 2.9375 -5.625 "/></g></g></g><g fill="#ffffff" fill-opacity="1"><g transform="translate(37.738519, 187.124985)"><g><path d="M 3.40625 -11.234375 L 3.40625 -3.953125 C 3.40625 -3.035156 3.613281 -2.347656 4.03125 -1.890625 C 4.445312 -1.441406 5.097656 -1.21875 5.984375 -1.21875 C 7.160156 -1.21875 8.019531 -1.535156 8.5625 -2.171875 C 9.101562 -2.816406 9.375 -3.867188 9.375 -5.328125 L 9.375 -11.234375 L 11.078125 -11.234375 L 11.078125 0 L 9.6875 0 L 9.4375 -1.5 L 9.34375 -1.5 C 8.988281 -0.945312 8.503906 -0.523438 7.890625 -0.234375 C 7.273438 0.0546875 6.566406 0.203125 5.765625 0.203125 C 4.398438 0.203125 3.378906 -0.117188 2.703125 -0.765625 C 2.023438 -1.421875 1.6875 -2.460938 1.6875 -3.890625 L 1.6875 -11.234375 Z M 3.40625 -11.234375 "/></g></g></g><g fill="#ffffff" fill-opacity="1"><g transform="translate(50.620491, 187.124985)"><g><path d="M 5.4375 -1.203125 C 5.738281 -1.203125 6.03125 -1.222656 6.3125 -1.265625 C 6.59375 -1.304688 6.8125 -1.351562 6.96875 -1.40625 L 6.96875 -0.109375 C 6.789062 -0.015625 6.519531 0.0546875 6.15625 0.109375 C 5.800781 0.171875 5.476562 0.203125 5.1875 0.203125 C 3.007812 0.203125 1.921875 -0.941406 1.921875 -3.234375 L 1.921875 -9.921875 L 0.3125 -9.921875 L 0.3125 -10.734375 L 1.921875 -11.4375 L 2.640625 -13.84375 L 3.625 -13.84375 L 3.625 -11.234375 L 6.890625 -11.234375 L 6.890625 -9.921875 L 3.625 -9.921875 L 3.625 -3.296875 C 3.625 -2.617188 3.785156 -2.097656 4.109375 -1.734375 C 4.429688 -1.378906 4.875 -1.203125 5.4375 -1.203125 Z M 5.4375 -1.203125 "/></g></g></g><g fill="#ffffff" fill-opacity="1"><g transform="translate(58.029933, 187.124985)"><g/></g></g><g fill="#ffffff" fill-opacity="1"><g transform="translate(63.481966, 187.124985)"><g><path d="M 9.046875 -3.0625 C 9.046875 -2.019531 8.65625 -1.210938 7.875 -0.640625 C 7.101562 -0.078125 6.015625 0.203125 4.609375 0.203125 C 3.117188 0.203125 1.957031 -0.03125 1.125 -0.5 L 1.125 -2.078125 C 1.65625 -1.804688 2.226562 -1.59375 2.84375 -1.4375 C 3.46875 -1.28125 4.066406 -1.203125 4.640625 -1.203125 C 5.535156 -1.203125 6.21875 -1.34375 6.6875 -1.625 C 7.164062 -1.90625 7.40625 -2.335938 7.40625 -2.921875 C 7.40625 -3.359375 7.21875 -3.734375 6.84375 -4.046875 C 6.46875 -4.359375 5.726562 -4.722656 4.625 -5.140625 C 3.582031 -5.535156 2.835938 -5.878906 2.390625 -6.171875 C 1.953125 -6.460938 1.625 -6.789062 1.40625 -7.15625 C 1.195312 -7.53125 1.09375 -7.972656 1.09375 -8.484375 C 1.09375 -9.398438 1.460938 -10.117188 2.203125 -10.640625 C 2.953125 -11.171875 3.972656 -11.4375 5.265625 -11.4375 C 6.472656 -11.4375 7.65625 -11.191406 8.8125 -10.703125 L 8.21875 -9.328125 C 7.082031 -9.785156 6.054688 -10.015625 5.140625 -10.015625 C 4.335938 -10.015625 3.726562 -9.890625 3.3125 -9.640625 C 2.90625 -9.390625 2.703125 -9.039062 2.703125 -8.59375 C 2.703125 -8.289062 2.78125 -8.03125 2.9375 -7.8125 C 3.09375 -7.601562 3.335938 -7.40625 3.671875 -7.21875 C 4.015625 -7.03125 4.675781 -6.753906 5.65625 -6.390625 C 6.988281 -5.898438 7.882812 -5.410156 8.34375 -4.921875 C 8.8125 -4.429688 9.046875 -3.8125 9.046875 -3.0625 Z M 9.046875 -3.0625 "/></g></g></g><g fill="#ffffff" fill-opacity="1"><g transform="translate(73.494447, 187.124985)"><g><path d="M 11.5 -5.625 C 11.5 -3.789062 11.035156 -2.359375 10.109375 -1.328125 C 9.191406 -0.304688 7.921875 0.203125 6.296875 0.203125 C 5.285156 0.203125 4.390625 -0.03125 3.609375 -0.5 C 2.835938 -0.96875 2.238281 -1.644531 1.8125 -2.53125 C 1.382812 -3.414062 1.171875 -4.445312 1.171875 -5.625 C 1.171875 -7.457031 1.628906 -8.882812 2.546875 -9.90625 C 3.460938 -10.925781 4.738281 -11.4375 6.375 -11.4375 C 7.9375 -11.4375 9.179688 -10.914062 10.109375 -9.875 C 11.035156 -8.832031 11.5 -7.414062 11.5 -5.625 Z M 2.9375 -5.625 C 2.9375 -4.1875 3.222656 -3.09375 3.796875 -2.34375 C 4.378906 -1.59375 5.226562 -1.21875 6.34375 -1.21875 C 7.457031 -1.21875 8.300781 -1.59375 8.875 -2.34375 C 9.445312 -3.09375 9.734375 -4.1875 9.734375 -5.625 C 9.734375 -7.050781 9.445312 -8.132812 8.875 -8.875 C 8.300781 -9.625 7.445312 -10 6.3125 -10 C 5.195312 -10 4.351562 -9.628906 3.78125 -8.890625 C 3.21875 -8.160156 2.9375 -7.070312 2.9375 -5.625 Z M 2.9375 -5.625 "/></g></g></g><g fill="#ffffff" fill-opacity="1"><g transform="translate(86.171456, 187.124985)"><g><path d="M 16.125 0 L 16.125 -7.3125 C 16.125 -8.207031 15.929688 -8.878906 15.546875 -9.328125 C 15.171875 -9.773438 14.578125 -10 13.765625 -10 C 12.710938 -10 11.929688 -9.691406 11.421875 -9.078125 C 10.921875 -8.472656 10.671875 -7.539062 10.671875 -6.28125 L 10.671875 0 L 8.96875 0 L 8.96875 -7.3125 C 8.96875 -8.207031 8.773438 -8.878906 8.390625 -9.328125 C 8.003906 -9.773438 7.40625 -10 6.59375 -10 C 5.53125 -10 4.75 -9.675781 4.25 -9.03125 C 3.75 -8.394531 3.5 -7.347656 3.5 -5.890625 L 3.5 0 L 1.8125 0 L 1.8125 -11.234375 L 3.1875 -11.234375 L 3.46875 -9.703125 L 3.546875 -9.703125 C 3.867188 -10.242188 4.320312 -10.664062 4.90625 -10.96875 C 5.488281 -11.28125 6.144531 -11.4375 6.875 -11.4375 C 8.625 -11.4375 9.769531 -10.800781 10.3125 -9.53125 L 10.390625 -9.53125 C 10.734375 -10.125 11.222656 -10.585938 11.859375 -10.921875 C 12.492188 -11.265625 13.21875 -11.4375 14.03125 -11.4375 C 15.300781 -11.4375 16.25 -11.109375 16.875 -10.453125 C 17.507812 -9.804688 17.828125 -8.765625 17.828125 -7.328125 L 17.828125 0 Z M 16.125 0 "/></g></g></g><g fill="#ffffff" fill-opacity="1"><g transform="translate(105.694251, 187.124985)"><g><path d="M 6.546875 0.203125 C 4.890625 0.203125 3.578125 -0.300781 2.609375 -1.3125 C 1.648438 -2.320312 1.171875 -3.726562 1.171875 -5.53125 C 1.171875 -7.34375 1.617188 -8.78125 2.515625 -9.84375 C 3.410156 -10.90625 4.609375 -11.4375 6.109375 -11.4375 C 7.515625 -11.4375 8.628906 -10.972656 9.453125 -10.046875 C 10.273438 -9.128906 10.6875 -7.910156 10.6875 -6.390625 L 10.6875 -5.3125 L 2.9375 -5.3125 C 2.976562 -3.988281 3.3125 -2.984375 3.9375 -2.296875 C 4.570312 -1.617188 5.460938 -1.28125 6.609375 -1.28125 C 7.816406 -1.28125 9.015625 -1.535156 10.203125 -2.046875 L 10.203125 -0.515625 C 9.597656 -0.265625 9.023438 -0.0820312 8.484375 0.03125 C 7.953125 0.144531 7.304688 0.203125 6.546875 0.203125 Z M 6.09375 -10.015625 C 5.1875 -10.015625 4.460938 -9.71875 3.921875 -9.125 C 3.390625 -8.539062 3.078125 -7.734375 2.984375 -6.703125 L 8.859375 -6.703125 C 8.859375 -7.773438 8.617188 -8.59375 8.140625 -9.15625 C 7.660156 -9.726562 6.976562 -10.015625 6.09375 -10.015625 Z M 6.09375 -10.015625 "/></g></g></g><g fill="#ffffff" fill-opacity="1"><g transform="translate(117.46942, 187.124985)"><g><path d="M 5.4375 -1.203125 C 5.738281 -1.203125 6.03125 -1.222656 6.3125 -1.265625 C 6.59375 -1.304688 6.8125 -1.351562 6.96875 -1.40625 L 6.96875 -0.109375 C 6.789062 -0.015625 6.519531 0.0546875 6.15625 0.109375 C 5.800781 0.171875 5.476562 0.203125 5.1875 0.203125 C 3.007812 0.203125 1.921875 -0.941406 1.921875 -3.234375 L 1.921875 -9.921875 L 0.3125 -9.921875 L 0.3125 -10.734375 L 1.921875 -11.4375 L 2.640625 -13.84375 L 3.625 -13.84375 L 3.625 -11.234375 L 6.890625 -11.234375 L 6.890625 -9.921875 L 3.625 -9.921875 L 3.625 -3.296875 C 3.625 -2.617188 3.785156 -2.097656 4.109375 -1.734375 C 4.429688 -1.378906 4.875 -1.203125 5.4375 -1.203125 Z M 5.4375 -1.203125 "/></g></g></g><g fill="#ffffff" fill-opacity="1"><g transform="translate(124.878862, 187.124985)"><g><path d="M 9.5 0 L 9.5 -7.265625 C 9.5 -8.179688 9.289062 -8.863281 8.875 -9.3125 C 8.457031 -9.769531 7.800781 -10 6.90625 -10 C 5.726562 -10 4.863281 -9.675781 4.3125 -9.03125 C 3.769531 -8.382812 3.5 -7.332031 3.5 -5.875 L 3.5 0 L 1.8125 0 L 1.8125 -15.953125 L 3.5 -15.953125 L 3.5 -11.125 C 3.5 -10.539062 3.472656 -10.0625 3.421875 -9.6875 L 3.53125 -9.6875 C 3.863281 -10.21875 4.335938 -10.640625 4.953125 -10.953125 C 5.578125 -11.265625 6.285156 -11.421875 7.078125 -11.421875 C 8.453125 -11.421875 9.484375 -11.09375 10.171875 -10.4375 C 10.859375 -9.789062 11.203125 -8.753906 11.203125 -7.328125 L 11.203125 0 Z M 9.5 0 "/></g></g></g><g fill="#ffffff" fill-opacity="1"><g transform="translate(137.760834, 187.124985)"><g><path d="M 3.5 0 L 1.8125 0 L 1.8125 -11.234375 L 3.5 -11.234375 Z M 1.65625 -14.28125 C 1.65625 -14.675781 1.75 -14.960938 1.9375 -15.140625 C 2.132812 -15.316406 2.378906 -15.40625 2.671875 -15.40625 C 2.941406 -15.40625 3.175781 -15.3125 3.375 -15.125 C 3.570312 -14.945312 3.671875 -14.664062 3.671875 -14.28125 C 3.671875 -13.894531 3.570312 -13.609375 3.375 -13.421875 C 3.175781 -13.234375 2.941406 -13.140625 2.671875 -13.140625 C 2.378906 -13.140625 2.132812 -13.234375 1.9375 -13.421875 C 1.75 -13.609375 1.65625 -13.894531 1.65625 -14.28125 Z M 1.65625 -14.28125 "/></g></g></g><g fill="#ffffff" fill-opacity="1"><g transform="translate(143.069393, 187.124985)"><g><path d="M 9.5 0 L 9.5 -7.265625 C 9.5 -8.179688 9.289062 -8.863281 8.875 -9.3125 C 8.457031 -9.769531 7.800781 -10 6.90625 -10 C 5.726562 -10 4.863281 -9.679688 4.3125 -9.046875 C 3.769531 -8.410156 3.5 -7.359375 3.5 -5.890625 L 3.5 0 L 1.8125 0 L 1.8125 -11.234375 L 3.1875 -11.234375 L 3.46875 -9.703125 L 3.546875 -9.703125 C 3.898438 -10.253906 4.390625 -10.679688 5.015625 -10.984375 C 5.640625 -11.285156 6.335938 -11.4375 7.109375 -11.4375 C 8.460938 -11.4375 9.484375 -11.109375 10.171875 -10.453125 C 10.859375 -9.804688 11.203125 -8.765625 11.203125 -7.328125 L 11.203125 0 Z M 9.5 0 "/></g></g></g><g fill="#ffffff" fill-opacity="1"><g transform="translate(155.951365, 187.124985)"><g><path d="M 11 -11.234375 L 11 -10.15625 L 8.921875 -9.921875 C 9.109375 -9.679688 9.273438 -9.363281 9.421875 -8.96875 C 9.578125 -8.582031 9.65625 -8.148438 9.65625 -7.671875 C 9.65625 -6.566406 9.28125 -5.6875 8.53125 -5.03125 C 7.78125 -4.375 6.75 -4.046875 5.4375 -4.046875 C 5.101562 -4.046875 4.785156 -4.070312 4.484375 -4.125 C 3.765625 -3.75 3.40625 -3.269531 3.40625 -2.6875 C 3.40625 -2.375 3.53125 -2.144531 3.78125 -2 C 4.03125 -1.851562 4.46875 -1.78125 5.09375 -1.78125 L 7.078125 -1.78125 C 8.296875 -1.78125 9.226562 -1.523438 9.875 -1.015625 C 10.53125 -0.503906 10.859375 0.238281 10.859375 1.21875 C 10.859375 2.46875 10.359375 3.414062 9.359375 4.0625 C 8.359375 4.71875 6.90625 5.046875 5 5.046875 C 3.53125 5.046875 2.394531 4.769531 1.59375 4.21875 C 0.800781 3.675781 0.40625 2.90625 0.40625 1.90625 C 0.40625 1.21875 0.625 0.625 1.0625 0.125 C 1.5 -0.363281 2.113281 -0.695312 2.90625 -0.875 C 2.613281 -1.007812 2.367188 -1.210938 2.171875 -1.484375 C 1.984375 -1.753906 1.890625 -2.070312 1.890625 -2.4375 C 1.890625 -2.851562 2 -3.210938 2.21875 -3.515625 C 2.4375 -3.828125 2.78125 -4.125 3.25 -4.40625 C 2.664062 -4.644531 2.191406 -5.050781 1.828125 -5.625 C 1.460938 -6.195312 1.28125 -6.851562 1.28125 -7.59375 C 1.28125 -8.820312 1.648438 -9.769531 2.390625 -10.4375 C 3.128906 -11.101562 4.175781 -11.4375 5.53125 -11.4375 C 6.113281 -11.4375 6.640625 -11.367188 7.109375 -11.234375 Z M 2.046875 1.890625 C 2.046875 2.492188 2.300781 2.953125 2.8125 3.265625 C 3.320312 3.585938 4.054688 3.75 5.015625 3.75 C 6.441406 3.75 7.5 3.535156 8.1875 3.109375 C 8.875 2.679688 9.21875 2.097656 9.21875 1.359375 C 9.21875 0.753906 9.03125 0.332031 8.65625 0.09375 C 8.28125 -0.132812 7.570312 -0.25 6.53125 -0.25 L 4.484375 -0.25 C 3.710938 -0.25 3.113281 -0.0664062 2.6875 0.296875 C 2.257812 0.660156 2.046875 1.191406 2.046875 1.890625 Z M 2.96875 -7.640625 C 2.96875 -6.847656 3.1875 -6.25 3.625 -5.84375 C 4.070312 -5.445312 4.691406 -5.25 5.484375 -5.25 C 7.148438 -5.25 7.984375 -6.054688 7.984375 -7.671875 C 7.984375 -9.359375 7.140625 -10.203125 5.453125 -10.203125 C 4.648438 -10.203125 4.035156 -9.984375 3.609375 -9.546875 C 3.179688 -9.117188 2.96875 -8.484375 2.96875 -7.640625 Z M 2.96875 -7.640625 "/></g></g></g><g fill="#ffffff" fill-opacity="1"><g transform="translate(167.449827, 187.124985)"><g><path d="M 3.59375 -2.4375 L 3.75 -2.203125 C 3.5625 -1.515625 3.300781 -0.722656 2.96875 0.171875 C 2.632812 1.078125 2.285156 1.921875 1.921875 2.703125 L 0.640625 2.703125 C 0.828125 1.992188 1.03125 1.113281 1.25 0.0625 C 1.476562 -0.976562 1.632812 -1.8125 1.71875 -2.4375 Z M 3.59375 -2.4375 "/></g></g></g><g fill="#ffffff" fill-opacity="1"><g transform="translate(172.594415, 187.124985)"><g/></g></g><g fill="#ffffff" fill-opacity="1"><g transform="translate(178.046448, 187.124985)"><g><path d="M 8.71875 0 L 8.375 -1.59375 L 8.296875 -1.59375 C 7.734375 -0.894531 7.171875 -0.421875 6.609375 -0.171875 C 6.054688 0.078125 5.363281 0.203125 4.53125 0.203125 C 3.414062 0.203125 2.539062 -0.0820312 1.90625 -0.65625 C 1.28125 -1.226562 0.96875 -2.046875 0.96875 -3.109375 C 0.96875 -5.378906 2.78125 -6.566406 6.40625 -6.671875 L 8.3125 -6.734375 L 8.3125 -7.4375 C 8.3125 -8.3125 8.117188 -8.957031 7.734375 -9.375 C 7.359375 -9.800781 6.753906 -10.015625 5.921875 -10.015625 C 4.984375 -10.015625 3.925781 -9.726562 2.75 -9.15625 L 2.21875 -10.453125 C 2.78125 -10.753906 3.390625 -10.988281 4.046875 -11.15625 C 4.703125 -11.332031 5.363281 -11.421875 6.03125 -11.421875 C 7.375 -11.421875 8.367188 -11.125 9.015625 -10.53125 C 9.660156 -9.9375 9.984375 -8.984375 9.984375 -7.671875 L 9.984375 0 Z M 4.875 -1.203125 C 5.925781 -1.203125 6.753906 -1.488281 7.359375 -2.0625 C 7.972656 -2.644531 8.28125 -3.460938 8.28125 -4.515625 L 8.28125 -5.53125 L 6.578125 -5.453125 C 5.222656 -5.410156 4.242188 -5.203125 3.640625 -4.828125 C 3.046875 -4.453125 2.75 -3.875 2.75 -3.09375 C 2.75 -2.46875 2.929688 -1.992188 3.296875 -1.671875 C 3.671875 -1.359375 4.195312 -1.203125 4.875 -1.203125 Z M 4.875 -1.203125 "/></g></g></g><g fill="#ffffff" fill-opacity="1"><g transform="translate(189.719135, 187.124985)"><g><path d="M 9.5 0 L 9.5 -7.265625 C 9.5 -8.179688 9.289062 -8.863281 8.875 -9.3125 C 8.457031 -9.769531 7.800781 -10 6.90625 -10 C 5.726562 -10 4.863281 -9.679688 4.3125 -9.046875 C 3.769531 -8.410156 3.5 -7.359375 3.5 -5.890625 L 3.5 0 L 1.8125 0 L 1.8125 -11.234375 L 3.1875 -11.234375 L 3.46875 -9.703125 L 3.546875 -9.703125 C 3.898438 -10.253906 4.390625 -10.679688 5.015625 -10.984375 C 5.640625 -11.285156 6.335938 -11.4375 7.109375 -11.4375 C 8.460938 -11.4375 9.484375 -11.109375 10.171875 -10.453125 C 10.859375 -9.804688 11.203125 -8.765625 11.203125 -7.328125 L 11.203125 0 Z M 9.5 0 "/></g></g></g><g fill="#ffffff" fill-opacity="1"><g transform="translate(202.601107, 187.124985)"><g><path d="M 9.453125 -1.5 L 9.359375 -1.5 C 8.578125 -0.363281 7.398438 0.203125 5.828125 0.203125 C 4.359375 0.203125 3.210938 -0.296875 2.390625 -1.296875 C 1.578125 -2.304688 1.171875 -3.738281 1.171875 -5.59375 C 1.171875 -7.445312 1.582031 -8.882812 2.40625 -9.90625 C 3.226562 -10.925781 4.367188 -11.4375 5.828125 -11.4375 C 7.359375 -11.4375 8.53125 -10.882812 9.34375 -9.78125 L 9.46875 -9.78125 L 9.40625 -10.59375 L 9.359375 -11.375 L 9.359375 -15.953125 L 11.0625 -15.953125 L 11.0625 0 L 9.6875 0 Z M 6.046875 -1.21875 C 7.210938 -1.21875 8.054688 -1.535156 8.578125 -2.171875 C 9.097656 -2.804688 9.359375 -3.828125 9.359375 -5.234375 L 9.359375 -5.59375 C 9.359375 -7.1875 9.09375 -8.320312 8.5625 -9 C 8.03125 -9.675781 7.1875 -10.015625 6.03125 -10.015625 C 5.03125 -10.015625 4.265625 -9.625 3.734375 -8.84375 C 3.203125 -8.070312 2.9375 -6.976562 2.9375 -5.5625 C 2.9375 -4.132812 3.195312 -3.050781 3.71875 -2.3125 C 4.25 -1.582031 5.023438 -1.21875 6.046875 -1.21875 Z M 6.046875 -1.21875 "/></g></g></g><g fill="#ffffff" fill-opacity="1"><g transform="translate(31.863283, 216.374983)"><g><path d="M 3.40625 -11.234375 L 3.40625 -3.953125 C 3.40625 -3.035156 3.613281 -2.347656 4.03125 -1.890625 C 4.445312 -1.441406 5.097656 -1.21875 5.984375 -1.21875 C 7.160156 -1.21875 8.019531 -1.535156 8.5625 -2.171875 C 9.101562 -2.816406 9.375 -3.867188 9.375 -5.328125 L 9.375 -11.234375 L 11.078125 -11.234375 L 11.078125 0 L 9.6875 0 L 9.4375 -1.5 L 9.34375 -1.5 C 8.988281 -0.945312 8.503906 -0.523438 7.890625 -0.234375 C 7.273438 0.0546875 6.566406 0.203125 5.765625 0.203125 C 4.398438 0.203125 3.378906 -0.117188 2.703125 -0.765625 C 2.023438 -1.421875 1.6875 -2.460938 1.6875 -3.890625 L 1.6875 -11.234375 Z M 3.40625 -11.234375 "/></g></g></g><g fill="#ffffff" fill-opacity="1"><g transform="translate(44.745255, 216.374983)"><g><path d="M 9.5 0 L 9.5 -7.265625 C 9.5 -8.179688 9.289062 -8.863281 8.875 -9.3125 C 8.457031 -9.769531 7.800781 -10 6.90625 -10 C 5.726562 -10 4.863281 -9.679688 4.3125 -9.046875 C 3.769531 -8.410156 3.5 -7.359375 3.5 -5.890625 L 3.5 0 L 1.8125 0 L 1.8125 -11.234375 L 3.1875 -11.234375 L 3.46875 -9.703125 L 3.546875 -9.703125 C 3.898438 -10.253906 4.390625 -10.679688 5.015625 -10.984375 C 5.640625 -11.285156 6.335938 -11.4375 7.109375 -11.4375 C 8.460938 -11.4375 9.484375 -11.109375 10.171875 -10.453125 C 10.859375 -9.804688 11.203125 -8.765625 11.203125 -7.328125 L 11.203125 0 Z M 9.5 0 "/></g></g></g><g fill="#ffffff" fill-opacity="1"><g transform="translate(57.627227, 216.374983)"><g><path d="M 8.71875 0 L 8.375 -1.59375 L 8.296875 -1.59375 C 7.734375 -0.894531 7.171875 -0.421875 6.609375 -0.171875 C 6.054688 0.078125 5.363281 0.203125 4.53125 0.203125 C 3.414062 0.203125 2.539062 -0.0820312 1.90625 -0.65625 C 1.28125 -1.226562 0.96875 -2.046875 0.96875 -3.109375 C 0.96875 -5.378906 2.78125 -6.566406 6.40625 -6.671875 L 8.3125 -6.734375 L 8.3125 -7.4375 C 8.3125 -8.3125 8.117188 -8.957031 7.734375 -9.375 C 7.359375 -9.800781 6.753906 -10.015625 5.921875 -10.015625 C 4.984375 -10.015625 3.925781 -9.726562 2.75 -9.15625 L 2.21875 -10.453125 C 2.78125 -10.753906 3.390625 -10.988281 4.046875 -11.15625 C 4.703125 -11.332031 5.363281 -11.421875 6.03125 -11.421875 C 7.375 -11.421875 8.367188 -11.125 9.015625 -10.53125 C 9.660156 -9.9375 9.984375 -8.984375 9.984375 -7.671875 L 9.984375 0 Z M 4.875 -1.203125 C 5.925781 -1.203125 6.753906 -1.488281 7.359375 -2.0625 C 7.972656 -2.644531 8.28125 -3.460938 8.28125 -4.515625 L 8.28125 -5.53125 L 6.578125 -5.453125 C 5.222656 -5.410156 4.242188 -5.203125 3.640625 -4.828125 C 3.046875 -4.453125 2.75 -3.875 2.75 -3.09375 C 2.75 -2.46875 2.929688 -1.992188 3.296875 -1.671875 C 3.671875 -1.359375 4.195312 -1.203125 4.875 -1.203125 Z M 4.875 -1.203125 "/></g></g></g><g fill="#ffffff" fill-opacity="1"><g transform="translate(69.299913, 216.374983)"><g><path d="M 7.03125 -11.421875 C 8.507812 -11.421875 9.65625 -10.914062 10.46875 -9.90625 C 11.289062 -8.894531 11.703125 -7.46875 11.703125 -5.625 C 11.703125 -3.78125 11.289062 -2.347656 10.46875 -1.328125 C 9.644531 -0.304688 8.5 0.203125 7.03125 0.203125 C 6.300781 0.203125 5.632812 0.0664062 5.03125 -0.203125 C 4.425781 -0.472656 3.914062 -0.890625 3.5 -1.453125 L 3.390625 -1.453125 L 3.03125 0 L 1.8125 0 L 1.8125 -15.953125 L 3.5 -15.953125 L 3.5 -12.078125 C 3.5 -11.210938 3.472656 -10.429688 3.421875 -9.734375 L 3.5 -9.734375 C 4.300781 -10.859375 5.476562 -11.421875 7.03125 -11.421875 Z M 6.78125 -10 C 5.625 -10 4.785156 -9.664062 4.265625 -9 C 3.753906 -8.332031 3.5 -7.207031 3.5 -5.625 C 3.5 -4.050781 3.765625 -2.921875 4.296875 -2.234375 C 4.828125 -1.554688 5.671875 -1.21875 6.828125 -1.21875 C 7.867188 -1.21875 8.644531 -1.597656 9.15625 -2.359375 C 9.675781 -3.117188 9.9375 -4.21875 9.9375 -5.65625 C 9.9375 -7.113281 9.675781 -8.203125 9.15625 -8.921875 C 8.644531 -9.640625 7.851562 -10 6.78125 -10 Z M 6.78125 -10 "/></g></g></g><g fill="#ffffff" fill-opacity="1"><g transform="translate(82.161389, 216.374983)"><g><path d="M 3.5 0 L 1.8125 0 L 1.8125 -15.953125 L 3.5 -15.953125 Z M 3.5 0 "/></g></g></g><g fill="#ffffff" fill-opacity="1"><g transform="translate(87.469948, 216.374983)"><g><path d="M 6.546875 0.203125 C 4.890625 0.203125 3.578125 -0.300781 2.609375 -1.3125 C 1.648438 -2.320312 1.171875 -3.726562 1.171875 -5.53125 C 1.171875 -7.34375 1.617188 -8.78125 2.515625 -9.84375 C 3.410156 -10.90625 4.609375 -11.4375 6.109375 -11.4375 C 7.515625 -11.4375 8.628906 -10.972656 9.453125 -10.046875 C 10.273438 -9.128906 10.6875 -7.910156 10.6875 -6.390625 L 10.6875 -5.3125 L 2.9375 -5.3125 C 2.976562 -3.988281 3.3125 -2.984375 3.9375 -2.296875 C 4.570312 -1.617188 5.460938 -1.28125 6.609375 -1.28125 C 7.816406 -1.28125 9.015625 -1.535156 10.203125 -2.046875 L 10.203125 -0.515625 C 9.597656 -0.265625 9.023438 -0.0820312 8.484375 0.03125 C 7.953125 0.144531 7.304688 0.203125 6.546875 0.203125 Z M 6.09375 -10.015625 C 5.1875 -10.015625 4.460938 -9.71875 3.921875 -9.125 C 3.390625 -8.539062 3.078125 -7.734375 2.984375 -6.703125 L 8.859375 -6.703125 C 8.859375 -7.773438 8.617188 -8.59375 8.140625 -9.15625 C 7.660156 -9.726562 6.976562 -10.015625 6.09375 -10.015625 Z M 6.09375 -10.015625 "/></g></g></g><g fill="#ffffff" fill-opacity="1"><g transform="translate(99.245117, 216.374983)"><g/></g></g><g fill="#ffffff" fill-opacity="1"><g transform="translate(104.69715, 216.374983)"><g><path d="M 5.4375 -1.203125 C 5.738281 -1.203125 6.03125 -1.222656 6.3125 -1.265625 C 6.59375 -1.304688 6.8125 -1.351562 6.96875 -1.40625 L 6.96875 -0.109375 C 6.789062 -0.015625 6.519531 0.0546875 6.15625 0.109375 C 5.800781 0.171875 5.476562 0.203125 5.1875 0.203125 C 3.007812 0.203125 1.921875 -0.941406 1.921875 -3.234375 L 1.921875 -9.921875 L 0.3125 -9.921875 L 0.3125 -10.734375 L 1.921875 -11.4375 L 2.640625 -13.84375 L 3.625 -13.84375 L 3.625 -11.234375 L 6.890625 -11.234375 L 6.890625 -9.921875 L 3.625 -9.921875 L 3.625 -3.296875 C 3.625 -2.617188 3.785156 -2.097656 4.109375 -1.734375 C 4.429688 -1.378906 4.875 -1.203125 5.4375 -1.203125 Z M 5.4375 -1.203125 "/></g></g></g><g fill="#ffffff" fill-opacity="1"><g transform="translate(112.106593, 216.374983)"><g><path d="M 11.5 -5.625 C 11.5 -3.789062 11.035156 -2.359375 10.109375 -1.328125 C 9.191406 -0.304688 7.921875 0.203125 6.296875 0.203125 C 5.285156 0.203125 4.390625 -0.03125 3.609375 -0.5 C 2.835938 -0.96875 2.238281 -1.644531 1.8125 -2.53125 C 1.382812 -3.414062 1.171875 -4.445312 1.171875 -5.625 C 1.171875 -7.457031 1.628906 -8.882812 2.546875 -9.90625 C 3.460938 -10.925781 4.738281 -11.4375 6.375 -11.4375 C 7.9375 -11.4375 9.179688 -10.914062 10.109375 -9.875 C 11.035156 -8.832031 11.5 -7.414062 11.5 -5.625 Z M 2.9375 -5.625 C 2.9375 -4.1875 3.222656 -3.09375 3.796875 -2.34375 C 4.378906 -1.59375 5.226562 -1.21875 6.34375 -1.21875 C 7.457031 -1.21875 8.300781 -1.59375 8.875 -2.34375 C 9.445312 -3.09375 9.734375 -4.1875 9.734375 -5.625 C 9.734375 -7.050781 9.445312 -8.132812 8.875 -8.875 C 8.300781 -9.625 7.445312 -10 6.3125 -10 C 5.195312 -10 4.351562 -9.628906 3.78125 -8.890625 C 3.21875 -8.160156 2.9375 -7.070312 2.9375 -5.625 Z M 2.9375 -5.625 "/></g></g></g><g fill="#ffffff" fill-opacity="1"><g transform="translate(124.783601, 216.374983)"><g/></g></g><g fill="#ffffff" fill-opacity="1"><g transform="translate(130.235634, 216.374983)"><g><path d="M 6.9375 -11.4375 C 7.4375 -11.4375 7.882812 -11.398438 8.28125 -11.328125 L 8.046875 -9.734375 C 7.578125 -9.835938 7.164062 -9.890625 6.8125 -9.890625 C 5.894531 -9.890625 5.113281 -9.519531 4.46875 -8.78125 C 3.820312 -8.050781 3.5 -7.132812 3.5 -6.03125 L 3.5 0 L 1.8125 0 L 1.8125 -11.234375 L 3.203125 -11.234375 L 3.40625 -9.15625 L 3.484375 -9.15625 C 3.898438 -9.882812 4.398438 -10.445312 4.984375 -10.84375 C 5.578125 -11.238281 6.226562 -11.4375 6.9375 -11.4375 Z M 6.9375 -11.4375 "/></g></g></g><g fill="#ffffff" fill-opacity="1"><g transform="translate(138.803116, 216.374983)"><g><path d="M 6.546875 0.203125 C 4.890625 0.203125 3.578125 -0.300781 2.609375 -1.3125 C 1.648438 -2.320312 1.171875 -3.726562 1.171875 -5.53125 C 1.171875 -7.34375 1.617188 -8.78125 2.515625 -9.84375 C 3.410156 -10.90625 4.609375 -11.4375 6.109375 -11.4375 C 7.515625 -11.4375 8.628906 -10.972656 9.453125 -10.046875 C 10.273438 -9.128906 10.6875 -7.910156 10.6875 -6.390625 L 10.6875 -5.3125 L 2.9375 -5.3125 C 2.976562 -3.988281 3.3125 -2.984375 3.9375 -2.296875 C 4.570312 -1.617188 5.460938 -1.28125 6.609375 -1.28125 C 7.816406 -1.28125 9.015625 -1.535156 10.203125 -2.046875 L 10.203125 -0.515625 C 9.597656 -0.265625 9.023438 -0.0820312 8.484375 0.03125 C 7.953125 0.144531 7.304688 0.203125 6.546875 0.203125 Z M 6.09375 -10.015625 C 5.1875 -10.015625 4.460938 -9.71875 3.921875 -9.125 C 3.390625 -8.539062 3.078125 -7.734375 2.984375 -6.703125 L 8.859375 -6.703125 C 8.859375 -7.773438 8.617188 -8.59375 8.140625 -9.15625 C 7.660156 -9.726562 6.976562 -10.015625 6.09375 -10.015625 Z M 6.09375 -10.015625 "/></g></g></g><g fill="#ffffff" fill-opacity="1"><g transform="translate(150.578284, 216.374983)"><g><path d="M 3.5 0 L 1.8125 0 L 1.8125 -15.953125 L 3.5 -15.953125 Z M 3.5 0 "/></g></g></g><g fill="#ffffff" fill-opacity="1"><g transform="translate(155.886843, 216.374983)"><g><path d="M 8.71875 0 L 8.375 -1.59375 L 8.296875 -1.59375 C 7.734375 -0.894531 7.171875 -0.421875 6.609375 -0.171875 C 6.054688 0.078125 5.363281 0.203125 4.53125 0.203125 C 3.414062 0.203125 2.539062 -0.0820312 1.90625 -0.65625 C 1.28125 -1.226562 0.96875 -2.046875 0.96875 -3.109375 C 0.96875 -5.378906 2.78125 -6.566406 6.40625 -6.671875 L 8.3125 -6.734375 L 8.3125 -7.4375 C 8.3125 -8.3125 8.117188 -8.957031 7.734375 -9.375 C 7.359375 -9.800781 6.753906 -10.015625 5.921875 -10.015625 C 4.984375 -10.015625 3.925781 -9.726562 2.75 -9.15625 L 2.21875 -10.453125 C 2.78125 -10.753906 3.390625 -10.988281 4.046875 -11.15625 C 4.703125 -11.332031 5.363281 -11.421875 6.03125 -11.421875 C 7.375 -11.421875 8.367188 -11.125 9.015625 -10.53125 C 9.660156 -9.9375 9.984375 -8.984375 9.984375 -7.671875 L 9.984375 0 Z M 4.875 -1.203125 C 5.925781 -1.203125 6.753906 -1.488281 7.359375 -2.0625 C 7.972656 -2.644531 8.28125 -3.460938 8.28125 -4.515625 L 8.28125 -5.53125 L 6.578125 -5.453125 C 5.222656 -5.410156 4.242188 -5.203125 3.640625 -4.828125 C 3.046875 -4.453125 2.75 -3.875 2.75 -3.09375 C 2.75 -2.46875 2.929688 -1.992188 3.296875 -1.671875 C 3.671875 -1.359375 4.195312 -1.203125 4.875 -1.203125 Z M 4.875 -1.203125 "/></g></g></g><g fill="#ffffff" fill-opacity="1"><g transform="translate(167.55953, 216.374983)"><g><path d="M 4.515625 -5.75 L 0.609375 -11.234375 L 2.546875 -11.234375 L 5.5 -6.9375 L 8.453125 -11.234375 L 10.375 -11.234375 L 6.46875 -5.75 L 10.578125 0 L 8.65625 0 L 5.5 -4.546875 L 2.328125 0 L 0.40625 0 Z M 4.515625 -5.75 "/></g></g></g><g fill="#ffffff" fill-opacity="1"><g transform="translate(178.555836, 216.374983)"><g><path d="M 1.5625 -1.09375 C 1.5625 -1.550781 1.664062 -1.894531 1.875 -2.125 C 2.082031 -2.363281 2.378906 -2.484375 2.765625 -2.484375 C 3.160156 -2.484375 3.46875 -2.363281 3.6875 -2.125 C 3.914062 -1.894531 4.03125 -1.550781 4.03125 -1.09375 C 4.03125 -0.644531 3.914062 -0.300781 3.6875 -0.0625 C 3.46875 0.175781 3.160156 0.296875 2.765625 0.296875 C 2.421875 0.296875 2.132812 0.191406 1.90625 -0.015625 C 1.675781 -0.234375 1.5625 -0.59375 1.5625 -1.09375 Z M 1.5625 -1.09375 "/></g></g></g></svg>