<svg xmlns="http://www.w3.org/2000/svg" xmlns:xlink="http://www.w3.org/1999/xlink" width="288" zoomAndPan="magnify" viewBox="0 0 216 359.999987" height="480" preserveAspectRatio="xMidYMid meet" version="1.0"><defs><g/><clipPath id="c95ba091d6"><path d="M 0 81.3125 L 216 81.3125 L 216 360 L 0 360 Z M 0 81.3125 " clip-rule="nonzero"/></clipPath></defs><rect x="-21.6" width="259.2" fill="#ffffff" y="-35.999999" height="431.999984" fill-opacity="1"/><rect x="-21.6" width="259.2" fill="#159399" y="-35.999999" height="431.999984" fill-opacity="1"/><g clip-path="url(#c95ba091d6)"><path fill="#00c2cb" d="M 0 81.3125 L 215.664062 81.3125 L 215.664062 359.75 L 0 359.75 Z M 0 81.3125 " fill-opacity="1" fill-rule="nonzero"/></g><g fill="#ffffff" fill-opacity="1"><g transform="translate(75.474607, 52.155699)"><g><path d="M 17.375 -6.921875 C 17.375 -5.503906 17.015625 -4.25 16.296875 -3.15625 C 15.578125 -2.0625 14.539062 -1.207031 13.1875 -0.59375 C 11.84375 0.0078125 10.257812 0.3125 8.4375 0.3125 C 6.914062 0.3125 5.640625 0.207031 4.609375 0 C 3.585938 -0.21875 2.519531 -0.59375 1.40625 -1.125 L 1.40625 -6.609375 C 2.582031 -6.003906 3.800781 -5.53125 5.0625 -5.1875 C 6.332031 -4.851562 7.5 -4.6875 8.5625 -4.6875 C 9.476562 -4.6875 10.148438 -4.84375 10.578125 -5.15625 C 11.003906 -5.476562 11.21875 -5.890625 11.21875 -6.390625 C 11.21875 -6.703125 11.128906 -6.972656 10.953125 -7.203125 C 10.785156 -7.441406 10.507812 -7.679688 10.125 -7.921875 C 9.75 -8.160156 8.738281 -8.648438 7.09375 -9.390625 C 5.601562 -10.066406 4.488281 -10.71875 3.75 -11.34375 C 3.007812 -11.976562 2.457031 -12.707031 2.09375 -13.53125 C 1.738281 -14.351562 1.5625 -15.328125 1.5625 -16.453125 C 1.5625 -18.554688 2.320312 -20.191406 3.84375 -21.359375 C 5.375 -22.535156 7.476562 -23.125 10.15625 -23.125 C 12.507812 -23.125 14.914062 -22.578125 17.375 -21.484375 L 15.484375 -16.734375 C 13.347656 -17.710938 11.507812 -18.203125 9.96875 -18.203125 C 9.164062 -18.203125 8.582031 -18.0625 8.21875 -17.78125 C 7.851562 -17.5 7.671875 -17.148438 7.671875 -16.734375 C 7.671875 -16.285156 7.898438 -15.882812 8.359375 -15.53125 C 8.828125 -15.175781 10.082031 -14.53125 12.125 -13.59375 C 14.09375 -12.707031 15.457031 -11.757812 16.21875 -10.75 C 16.988281 -9.738281 17.375 -8.460938 17.375 -6.921875 Z M 17.375 -6.921875 "/></g></g></g><g fill="#ffffff" fill-opacity="1"><g transform="translate(93.905029, 52.155699)"><g><path d="M 16.453125 0 L 15.328125 -4.265625 L 7.921875 -4.265625 L 6.765625 0 L 0 0 L 7.4375 -22.890625 L 15.65625 -22.890625 L 23.1875 0 Z M 14.046875 -9.328125 L 13.0625 -13.0625 C 12.832031 -13.894531 12.554688 -14.972656 12.234375 -16.296875 C 11.910156 -17.617188 11.695312 -18.566406 11.59375 -19.140625 C 11.5 -18.609375 11.3125 -17.734375 11.03125 -16.515625 C 10.757812 -15.296875 10.148438 -12.898438 9.203125 -9.328125 Z M 14.046875 -9.328125 "/></g></g></g><g fill="#ffffff" fill-opacity="1"><g transform="translate(117.091192, 52.155699)"><g><path d="M 21.8125 -11.890625 C 21.8125 -8.078125 20.765625 -5.140625 18.671875 -3.078125 C 16.578125 -1.023438 13.632812 0 9.84375 0 L 2.46875 0 L 2.46875 -22.796875 L 10.359375 -22.796875 C 14.015625 -22.796875 16.835938 -21.859375 18.828125 -19.984375 C 20.816406 -18.117188 21.8125 -15.421875 21.8125 -11.890625 Z M 15.421875 -11.671875 C 15.421875 -13.753906 15.003906 -15.300781 14.171875 -16.3125 C 13.347656 -17.320312 12.097656 -17.828125 10.421875 -17.828125 L 8.625 -17.828125 L 8.625 -5.046875 L 10 -5.046875 C 11.863281 -5.046875 13.234375 -5.585938 14.109375 -6.671875 C 14.984375 -7.765625 15.421875 -9.429688 15.421875 -11.671875 Z M 15.421875 -11.671875 "/></g></g></g><g fill="#ffffff" fill-opacity="1"><g transform="translate(24.703127, 143.249989)"><g><path d="M 3.796875 0 L 2.0625 0 L 2.0625 -14.984375 L 10.421875 -14.984375 L 10.421875 -13.4375 L 3.796875 -13.4375 L 3.796875 -7.953125 L 10.015625 -7.953125 L 10.015625 -6.40625 L 3.796875 -6.40625 Z M 3.796875 0 "/></g></g></g><g fill="#ffffff" fill-opacity="1"><g transform="translate(35.535463, 143.249989)"><g><path d="M 6.546875 0.203125 C 4.890625 0.203125 3.578125 -0.300781 2.609375 -1.3125 C 1.648438 -2.320312 1.171875 -3.726562 1.171875 -5.53125 C 1.171875 -7.34375 1.617188 -8.78125 2.515625 -9.84375 C 3.410156 -10.90625 4.609375 -11.4375 6.109375 -11.4375 C 7.515625 -11.4375 8.628906 -10.972656 9.453125 -10.046875 C 10.273438 -9.128906 10.6875 -7.910156 10.6875 -6.390625 L 10.6875 -5.3125 L 2.9375 -5.3125 C 2.976562 -3.988281 3.3125 -2.984375 3.9375 -2.296875 C 4.570312 -1.617188 5.460938 -1.28125 6.609375 -1.28125 C 7.816406 -1.28125 9.015625 -1.535156 10.203125 -2.046875 L 10.203125 -0.515625 C 9.597656 -0.265625 9.023438 -0.0820312 8.484375 0.03125 C 7.953125 0.144531 7.304688 0.203125 6.546875 0.203125 Z M 6.09375 -10.015625 C 5.1875 -10.015625 4.460938 -9.71875 3.921875 -9.125 C 3.390625 -8.539062 3.078125 -7.734375 2.984375 -6.703125 L 8.859375 -6.703125 C 8.859375 -7.773438 8.617188 -8.59375 8.140625 -9.15625 C 7.660156 -9.726562 6.976562 -10.015625 6.09375 -10.015625 Z M 6.09375 -10.015625 "/></g></g></g><g fill="#ffffff" fill-opacity="1"><g transform="translate(47.310631, 143.249989)"><g><path d="M 6.546875 0.203125 C 4.890625 0.203125 3.578125 -0.300781 2.609375 -1.3125 C 1.648438 -2.320312 1.171875 -3.726562 1.171875 -5.53125 C 1.171875 -7.34375 1.617188 -8.78125 2.515625 -9.84375 C 3.410156 -10.90625 4.609375 -11.4375 6.109375 -11.4375 C 7.515625 -11.4375 8.628906 -10.972656 9.453125 -10.046875 C 10.273438 -9.128906 10.6875 -7.910156 10.6875 -6.390625 L 10.6875 -5.3125 L 2.9375 -5.3125 C 2.976562 -3.988281 3.3125 -2.984375 3.9375 -2.296875 C 4.570312 -1.617188 5.460938 -1.28125 6.609375 -1.28125 C 7.816406 -1.28125 9.015625 -1.535156 10.203125 -2.046875 L 10.203125 -0.515625 C 9.597656 -0.265625 9.023438 -0.0820312 8.484375 0.03125 C 7.953125 0.144531 7.304688 0.203125 6.546875 0.203125 Z M 6.09375 -10.015625 C 5.1875 -10.015625 4.460938 -9.71875 3.921875 -9.125 C 3.390625 -8.539062 3.078125 -7.734375 2.984375 -6.703125 L 8.859375 -6.703125 C 8.859375 -7.773438 8.617188 -8.59375 8.140625 -9.15625 C 7.660156 -9.726562 6.976562 -10.015625 6.09375 -10.015625 Z M 6.09375 -10.015625 "/></g></g></g><g fill="#ffffff" fill-opacity="1"><g transform="translate(59.085799, 143.249989)"><g><path d="M 3.5 0 L 1.8125 0 L 1.8125 -15.953125 L 3.5 -15.953125 Z M 3.5 0 "/></g></g></g><g fill="#ffffff" fill-opacity="1"><g transform="translate(64.394358, 143.249989)"><g><path d="M 3.5 0 L 1.8125 0 L 1.8125 -11.234375 L 3.5 -11.234375 Z M 1.65625 -14.28125 C 1.65625 -14.675781 1.75 -14.960938 1.9375 -15.140625 C 2.132812 -15.316406 2.378906 -15.40625 2.671875 -15.40625 C 2.941406 -15.40625 3.175781 -15.3125 3.375 -15.125 C 3.570312 -14.945312 3.671875 -14.664062 3.671875 -14.28125 C 3.671875 -13.894531 3.570312 -13.609375 3.375 -13.421875 C 3.175781 -13.234375 2.941406 -13.140625 2.671875 -13.140625 C 2.378906 -13.140625 2.132812 -13.234375 1.9375 -13.421875 C 1.75 -13.609375 1.65625 -13.894531 1.65625 -14.28125 Z M 1.65625 -14.28125 "/></g></g></g><g fill="#ffffff" fill-opacity="1"><g transform="translate(69.702917, 143.249989)"><g><path d="M 9.5 0 L 9.5 -7.265625 C 9.5 -8.179688 9.289062 -8.863281 8.875 -9.3125 C 8.457031 -9.769531 7.800781 -10 6.90625 -10 C 5.726562 -10 4.863281 -9.679688 4.3125 -9.046875 C 3.769531 -8.410156 3.5 -7.359375 3.5 -5.890625 L 3.5 0 L 1.8125 0 L 1.8125 -11.234375 L 3.1875 -11.234375 L 3.46875 -9.703125 L 3.546875 -9.703125 C 3.898438 -10.253906 4.390625 -10.679688 5.015625 -10.984375 C 5.640625 -11.285156 6.335938 -11.4375 7.109375 -11.4375 C 8.460938 -11.4375 9.484375 -11.109375 10.171875 -10.453125 C 10.859375 -9.804688 11.203125 -8.765625 11.203125 -7.328125 L 11.203125 0 Z M 9.5 0 "/></g></g></g><g fill="#ffffff" fill-opacity="1"><g transform="translate(82.584889, 143.249989)"><g><path d="M 11 -11.234375 L 11 -10.15625 L 8.921875 -9.921875 C 9.109375 -9.679688 9.273438 -9.363281 9.421875 -8.96875 C 9.578125 -8.582031 9.65625 -8.148438 9.65625 -7.671875 C 9.65625 -6.566406 9.28125 -5.6875 8.53125 -5.03125 C 7.78125 -4.375 6.75 -4.046875 5.4375 -4.046875 C 5.101562 -4.046875 4.785156 -4.070312 4.484375 -4.125 C 3.765625 -3.75 3.40625 -3.269531 3.40625 -2.6875 C 3.40625 -2.375 3.53125 -2.144531 3.78125 -2 C 4.03125 -1.851562 4.46875 -1.78125 5.09375 -1.78125 L 7.078125 -1.78125 C 8.296875 -1.78125 9.226562 -1.523438 9.875 -1.015625 C 10.53125 -0.503906 10.859375 0.238281 10.859375 1.21875 C 10.859375 2.46875 10.359375 3.414062 9.359375 4.0625 C 8.359375 4.71875 6.90625 5.046875 5 5.046875 C 3.53125 5.046875 2.394531 4.769531 1.59375 4.21875 C 0.800781 3.675781 0.40625 2.90625 0.40625 1.90625 C 0.40625 1.21875 0.625 0.625 1.0625 0.125 C 1.5 -0.363281 2.113281 -0.695312 2.90625 -0.875 C 2.613281 -1.007812 2.367188 -1.210938 2.171875 -1.484375 C 1.984375 -1.753906 1.890625 -2.070312 1.890625 -2.4375 C 1.890625 -2.851562 2 -3.210938 2.21875 -3.515625 C 2.4375 -3.828125 2.78125 -4.125 3.25 -4.40625 C 2.664062 -4.644531 2.191406 -5.050781 1.828125 -5.625 C 1.460938 -6.195312 1.28125 -6.851562 1.28125 -7.59375 C 1.28125 -8.820312 1.648438 -9.769531 2.390625 -10.4375 C 3.128906 -11.101562 4.175781 -11.4375 5.53125 -11.4375 C 6.113281 -11.4375 6.640625 -11.367188 7.109375 -11.234375 Z M 2.046875 1.890625 C 2.046875 2.492188 2.300781 2.953125 2.8125 3.265625 C 3.320312 3.585938 4.054688 3.75 5.015625 3.75 C 6.441406 3.75 7.5 3.535156 8.1875 3.109375 C 8.875 2.679688 9.21875 2.097656 9.21875 1.359375 C 9.21875 0.753906 9.03125 0.332031 8.65625 0.09375 C 8.28125 -0.132812 7.570312 -0.25 6.53125 -0.25 L 4.484375 -0.25 C 3.710938 -0.25 3.113281 -0.0664062 2.6875 0.296875 C 2.257812 0.660156 2.046875 1.191406 2.046875 1.890625 Z M 2.96875 -7.640625 C 2.96875 -6.847656 3.1875 -6.25 3.625 -5.84375 C 4.070312 -5.445312 4.691406 -5.25 5.484375 -5.25 C 7.148438 -5.25 7.984375 -6.054688 7.984375 -7.671875 C 7.984375 -9.359375 7.140625 -10.203125 5.453125 -10.203125 C 4.648438 -10.203125 4.035156 -9.984375 3.609375 -9.546875 C 3.179688 -9.117188 2.96875 -8.484375 2.96875 -7.640625 Z M 2.96875 -7.640625 "/></g></g></g><g fill="#ffffff" fill-opacity="1"><g transform="translate(94.083351, 143.249989)"><g/></g></g><g fill="#ffffff" fill-opacity="1"><g transform="translate(99.535385, 143.249989)"><g><path d="M 3.40625 -11.234375 L 3.40625 -3.953125 C 3.40625 -3.035156 3.613281 -2.347656 4.03125 -1.890625 C 4.445312 -1.441406 5.097656 -1.21875 5.984375 -1.21875 C 7.160156 -1.21875 8.019531 -1.535156 8.5625 -2.171875 C 9.101562 -2.816406 9.375 -3.867188 9.375 -5.328125 L 9.375 -11.234375 L 11.078125 -11.234375 L 11.078125 0 L 9.6875 0 L 9.4375 -1.5 L 9.34375 -1.5 C 8.988281 -0.945312 8.503906 -0.523438 7.890625 -0.234375 C 7.273438 0.0546875 6.566406 0.203125 5.765625 0.203125 C 4.398438 0.203125 3.378906 -0.117188 2.703125 -0.765625 C 2.023438 -1.421875 1.6875 -2.460938 1.6875 -3.890625 L 1.6875 -11.234375 Z M 3.40625 -11.234375 "/></g></g></g><g fill="#ffffff" fill-opacity="1"><g transform="translate(112.417357, 143.249989)"><g><path d="M 9.5 0 L 9.5 -7.265625 C 9.5 -8.179688 9.289062 -8.863281 8.875 -9.3125 C 8.457031 -9.769531 7.800781 -10 6.90625 -10 C 5.726562 -10 4.863281 -9.679688 4.3125 -9.046875 C 3.769531 -8.410156 3.5 -7.359375 3.5 -5.890625 L 3.5 0 L 1.8125 0 L 1.8125 -11.234375 L 3.1875 -11.234375 L 3.46875 -9.703125 L 3.546875 -9.703125 C 3.898438 -10.253906 4.390625 -10.679688 5.015625 -10.984375 C 5.640625 -11.285156 6.335938 -11.4375 7.109375 -11.4375 C 8.460938 -11.4375 9.484375 -11.109375 10.171875 -10.453125 C 10.859375 -9.804688 11.203125 -8.765625 11.203125 -7.328125 L 11.203125 0 Z M 9.5 0 "/></g></g></g><g fill="#ffffff" fill-opacity="1"><g transform="translate(125.299329, 143.249989)"><g><path d="M 9.5 0 L 9.5 -7.265625 C 9.5 -8.179688 9.289062 -8.863281 8.875 -9.3125 C 8.457031 -9.769531 7.800781 -10 6.90625 -10 C 5.726562 -10 4.863281 -9.675781 4.3125 -9.03125 C 3.769531 -8.382812 3.5 -7.332031 3.5 -5.875 L 3.5 0 L 1.8125 0 L 1.8125 -15.953125 L 3.5 -15.953125 L 3.5 -11.125 C 3.5 -10.539062 3.472656 -10.0625 3.421875 -9.6875 L 3.53125 -9.6875 C 3.863281 -10.21875 4.335938 -10.640625 4.953125 -10.953125 C 5.578125 -11.265625 6.285156 -11.421875 7.078125 -11.421875 C 8.453125 -11.421875 9.484375 -11.09375 10.171875 -10.4375 C 10.859375 -9.789062 11.203125 -8.753906 11.203125 -7.328125 L 11.203125 0 Z M 9.5 0 "/></g></g></g><g fill="#ffffff" fill-opacity="1"><g transform="translate(138.181301, 143.249989)"><g><path d="M 8.71875 0 L 8.375 -1.59375 L 8.296875 -1.59375 C 7.734375 -0.894531 7.171875 -0.421875 6.609375 -0.171875 C 6.054688 0.078125 5.363281 0.203125 4.53125 0.203125 C 3.414062 0.203125 2.539062 -0.0820312 1.90625 -0.65625 C 1.28125 -1.226562 0.96875 -2.046875 0.96875 -3.109375 C 0.96875 -5.378906 2.78125 -6.566406 6.40625 -6.671875 L 8.3125 -6.734375 L 8.3125 -7.4375 C 8.3125 -8.3125 8.117188 -8.957031 7.734375 -9.375 C 7.359375 -9.800781 6.753906 -10.015625 5.921875 -10.015625 C 4.984375 -10.015625 3.925781 -9.726562 2.75 -9.15625 L 2.21875 -10.453125 C 2.78125 -10.753906 3.390625 -10.988281 4.046875 -11.15625 C 4.703125 -11.332031 5.363281 -11.421875 6.03125 -11.421875 C 7.375 -11.421875 8.367188 -11.125 9.015625 -10.53125 C 9.660156 -9.9375 9.984375 -8.984375 9.984375 -7.671875 L 9.984375 0 Z M 4.875 -1.203125 C 5.925781 -1.203125 6.753906 -1.488281 7.359375 -2.0625 C 7.972656 -2.644531 8.28125 -3.460938 8.28125 -4.515625 L 8.28125 -5.53125 L 6.578125 -5.453125 C 5.222656 -5.410156 4.242188 -5.203125 3.640625 -4.828125 C 3.046875 -4.453125 2.75 -3.875 2.75 -3.09375 C 2.75 -2.46875 2.929688 -1.992188 3.296875 -1.671875 C 3.671875 -1.359375 4.195312 -1.203125 4.875 -1.203125 Z M 4.875 -1.203125 "/></g></g></g><g fill="#ffffff" fill-opacity="1"><g transform="translate(149.853987, 143.249989)"><g><path d="M 7.03125 0.203125 C 6.300781 0.203125 5.632812 0.0664062 5.03125 -0.203125 C 4.425781 -0.472656 3.914062 -0.890625 3.5 -1.453125 L 3.390625 -1.453125 C 3.460938 -0.796875 3.5 -0.171875 3.5 0.421875 L 3.5 5.046875 L 1.8125 5.046875 L 1.8125 -11.234375 L 3.1875 -11.234375 L 3.421875 -9.703125 L 3.5 -9.703125 C 3.9375 -10.316406 4.445312 -10.757812 5.03125 -11.03125 C 5.613281 -11.300781 6.28125 -11.4375 7.03125 -11.4375 C 8.519531 -11.4375 9.671875 -10.925781 10.484375 -9.90625 C 11.296875 -8.894531 11.703125 -7.46875 11.703125 -5.625 C 11.703125 -3.78125 11.289062 -2.347656 10.46875 -1.328125 C 9.644531 -0.304688 8.5 0.203125 7.03125 0.203125 Z M 6.78125 -10 C 5.632812 -10 4.804688 -9.679688 4.296875 -9.046875 C 3.785156 -8.410156 3.519531 -7.398438 3.5 -6.015625 L 3.5 -5.625 C 3.5 -4.050781 3.765625 -2.921875 4.296875 -2.234375 C 4.828125 -1.554688 5.671875 -1.21875 6.828125 -1.21875 C 7.796875 -1.21875 8.554688 -1.609375 9.109375 -2.390625 C 9.660156 -3.179688 9.9375 -4.269531 9.9375 -5.65625 C 9.9375 -7.050781 9.660156 -8.125 9.109375 -8.875 C 8.554688 -9.625 7.78125 -10 6.78125 -10 Z M 6.78125 -10 "/></g></g></g><g fill="#ffffff" fill-opacity="1"><g transform="translate(162.715463, 143.249989)"><g><path d="M 7.03125 0.203125 C 6.300781 0.203125 5.632812 0.0664062 5.03125 -0.203125 C 4.425781 -0.472656 3.914062 -0.890625 3.5 -1.453125 L 3.390625 -1.453125 C 3.460938 -0.796875 3.5 -0.171875 3.5 0.421875 L 3.5 5.046875 L 1.8125 5.046875 L 1.8125 -11.234375 L 3.1875 -11.234375 L 3.421875 -9.703125 L 3.5 -9.703125 C 3.9375 -10.316406 4.445312 -10.757812 5.03125 -11.03125 C 5.613281 -11.300781 6.28125 -11.4375 7.03125 -11.4375 C 8.519531 -11.4375 9.671875 -10.925781 10.484375 -9.90625 C 11.296875 -8.894531 11.703125 -7.46875 11.703125 -5.625 C 11.703125 -3.78125 11.289062 -2.347656 10.46875 -1.328125 C 9.644531 -0.304688 8.5 0.203125 7.03125 0.203125 Z M 6.78125 -10 C 5.632812 -10 4.804688 -9.679688 4.296875 -9.046875 C 3.785156 -8.410156 3.519531 -7.398438 3.5 -6.015625 L 3.5 -5.625 C 3.5 -4.050781 3.765625 -2.921875 4.296875 -2.234375 C 4.828125 -1.554688 5.671875 -1.21875 6.828125 -1.21875 C 7.796875 -1.21875 8.554688 -1.609375 9.109375 -2.390625 C 9.660156 -3.179688 9.9375 -4.269531 9.9375 -5.65625 C 9.9375 -7.050781 9.660156 -8.125 9.109375 -8.875 C 8.554688 -9.625 7.78125 -10 6.78125 -10 Z M 6.78125 -10 "/></g></g></g><g fill="#ffffff" fill-opacity="1"><g transform="translate(175.576939, 143.249989)"><g><path d="M 0.015625 -11.234375 L 1.84375 -11.234375 L 4.3125 -4.828125 C 4.84375 -3.367188 5.175781 -2.3125 5.3125 -1.65625 L 5.390625 -1.65625 C 5.484375 -2.007812 5.671875 -2.609375 5.953125 -3.453125 C 6.234375 -4.296875 7.160156 -6.890625 8.734375 -11.234375 L 10.5625 -11.234375 L 5.734375 1.5625 C 5.253906 2.820312 4.691406 3.71875 4.046875 4.25 C 3.410156 4.78125 2.628906 5.046875 1.703125 5.046875 C 1.179688 5.046875 0.671875 4.988281 0.171875 4.875 L 0.171875 3.5 C 0.546875 3.582031 0.960938 3.625 1.421875 3.625 C 2.585938 3.625 3.421875 2.96875 3.921875 1.65625 L 4.546875 0.0625 Z M 0.015625 -11.234375 "/></g></g></g><g fill="#ffffff" fill-opacity="1"><g transform="translate(186.153065, 143.249989)"><g><path d="M 3.59375 -2.4375 L 3.75 -2.203125 C 3.5625 -1.515625 3.300781 -0.722656 2.96875 0.171875 C 2.632812 1.078125 2.285156 1.921875 1.921875 2.703125 L 0.640625 2.703125 C 0.828125 1.992188 1.03125 1.113281 1.25 0.0625 C 1.476562 -0.976562 1.632812 -1.8125 1.71875 -2.4375 Z M 3.59375 -2.4375 "/></g></g></g><g fill="#ffffff" fill-opacity="1"><g transform="translate(17.496096, 172.499986)"><g><path d="M 6.546875 0.203125 C 4.890625 0.203125 3.578125 -0.300781 2.609375 -1.3125 C 1.648438 -2.320312 1.171875 -3.726562 1.171875 -5.53125 C 1.171875 -7.34375 1.617188 -8.78125 2.515625 -9.84375 C 3.410156 -10.90625 4.609375 -11.4375 6.109375 -11.4375 C 7.515625 -11.4375 8.628906 -10.972656 9.453125 -10.046875 C 10.273438 -9.128906 10.6875 -7.910156 10.6875 -6.390625 L 10.6875 -5.3125 L 2.9375 -5.3125 C 2.976562 -3.988281 3.3125 -2.984375 3.9375 -2.296875 C 4.570312 -1.617188 5.460938 -1.28125 6.609375 -1.28125 C 7.816406 -1.28125 9.015625 -1.535156 10.203125 -2.046875 L 10.203125 -0.515625 C 9.597656 -0.265625 9.023438 -0.0820312 8.484375 0.03125 C 7.953125 0.144531 7.304688 0.203125 6.546875 0.203125 Z M 6.09375 -10.015625 C 5.1875 -10.015625 4.460938 -9.71875 3.921875 -9.125 C 3.390625 -8.539062 3.078125 -7.734375 2.984375 -6.703125 L 8.859375 -6.703125 C 8.859375 -7.773438 8.617188 -8.59375 8.140625 -9.15625 C 7.660156 -9.726562 6.976562 -10.015625 6.09375 -10.015625 Z M 6.09375 -10.015625 "/></g></g></g><g fill="#ffffff" fill-opacity="1"><g transform="translate(29.271265, 172.499986)"><g><path d="M 9.046875 -3.0625 C 9.046875 -2.019531 8.65625 -1.210938 7.875 -0.640625 C 7.101562 -0.078125 6.015625 0.203125 4.609375 0.203125 C 3.117188 0.203125 1.957031 -0.03125 1.125 -0.5 L 1.125 -2.078125 C 1.65625 -1.804688 2.226562 -1.59375 2.84375 -1.4375 C 3.46875 -1.28125 4.066406 -1.203125 4.640625 -1.203125 C 5.535156 -1.203125 6.21875 -1.34375 6.6875 -1.625 C 7.164062 -1.90625 7.40625 -2.335938 7.40625 -2.921875 C 7.40625 -3.359375 7.21875 -3.734375 6.84375 -4.046875 C 6.46875 -4.359375 5.726562 -4.722656 4.625 -5.140625 C 3.582031 -5.535156 2.835938 -5.878906 2.390625 -6.171875 C 1.953125 -6.460938 1.625 -6.789062 1.40625 -7.15625 C 1.195312 -7.53125 1.09375 -7.972656 1.09375 -8.484375 C 1.09375 -9.398438 1.460938 -10.117188 2.203125 -10.640625 C 2.953125 -11.171875 3.972656 -11.4375 5.265625 -11.4375 C 6.472656 -11.4375 7.65625 -11.191406 8.8125 -10.703125 L 8.21875 -9.328125 C 7.082031 -9.785156 6.054688 -10.015625 5.140625 -10.015625 C 4.335938 -10.015625 3.726562 -9.890625 3.3125 -9.640625 C 2.90625 -9.390625 2.703125 -9.039062 2.703125 -8.59375 C 2.703125 -8.289062 2.78125 -8.03125 2.9375 -7.8125 C 3.09375 -7.601562 3.335938 -7.40625 3.671875 -7.21875 C 4.015625 -7.03125 4.675781 -6.753906 5.65625 -6.390625 C 6.988281 -5.898438 7.882812 -5.410156 8.34375 -4.921875 C 8.8125 -4.429688 9.046875 -3.8125 9.046875 -3.0625 Z M 9.046875 -3.0625 "/></g></g></g><g fill="#ffffff" fill-opacity="1"><g transform="translate(39.283746, 172.499986)"><g><path d="M 7.03125 0.203125 C 6.300781 0.203125 5.632812 0.0664062 5.03125 -0.203125 C 4.425781 -0.472656 3.914062 -0.890625 3.5 -1.453125 L 3.390625 -1.453125 C 3.460938 -0.796875 3.5 -0.171875 3.5 0.421875 L 3.5 5.046875 L 1.8125 5.046875 L 1.8125 -11.234375 L 3.1875 -11.234375 L 3.421875 -9.703125 L 3.5 -9.703125 C 3.9375 -10.316406 4.445312 -10.757812 5.03125 -11.03125 C 5.613281 -11.300781 6.28125 -11.4375 7.03125 -11.4375 C 8.519531 -11.4375 9.671875 -10.925781 10.484375 -9.90625 C 11.296875 -8.894531 11.703125 -7.46875 11.703125 -5.625 C 11.703125 -3.78125 11.289062 -2.347656 10.46875 -1.328125 C 9.644531 -0.304688 8.5 0.203125 7.03125 0.203125 Z M 6.78125 -10 C 5.632812 -10 4.804688 -9.679688 4.296875 -9.046875 C 3.785156 -8.410156 3.519531 -7.398438 3.5 -6.015625 L 3.5 -5.625 C 3.5 -4.050781 3.765625 -2.921875 4.296875 -2.234375 C 4.828125 -1.554688 5.671875 -1.21875 6.828125 -1.21875 C 7.796875 -1.21875 8.554688 -1.609375 9.109375 -2.390625 C 9.660156 -3.179688 9.9375 -4.269531 9.9375 -5.65625 C 9.9375 -7.050781 9.660156 -8.125 9.109375 -8.875 C 8.554688 -9.625 7.78125 -10 6.78125 -10 Z M 6.78125 -10 "/></g></g></g><g fill="#ffffff" fill-opacity="1"><g transform="translate(52.145222, 172.499986)"><g><path d="M 6.546875 0.203125 C 4.890625 0.203125 3.578125 -0.300781 2.609375 -1.3125 C 1.648438 -2.320312 1.171875 -3.726562 1.171875 -5.53125 C 1.171875 -7.34375 1.617188 -8.78125 2.515625 -9.84375 C 3.410156 -10.90625 4.609375 -11.4375 6.109375 -11.4375 C 7.515625 -11.4375 8.628906 -10.972656 9.453125 -10.046875 C 10.273438 -9.128906 10.6875 -7.910156 10.6875 -6.390625 L 10.6875 -5.3125 L 2.9375 -5.3125 C 2.976562 -3.988281 3.3125 -2.984375 3.9375 -2.296875 C 4.570312 -1.617188 5.460938 -1.28125 6.609375 -1.28125 C 7.816406 -1.28125 9.015625 -1.535156 10.203125 -2.046875 L 10.203125 -0.515625 C 9.597656 -0.265625 9.023438 -0.0820312 8.484375 0.03125 C 7.953125 0.144531 7.304688 0.203125 6.546875 0.203125 Z M 6.09375 -10.015625 C 5.1875 -10.015625 4.460938 -9.71875 3.921875 -9.125 C 3.390625 -8.539062 3.078125 -7.734375 2.984375 -6.703125 L 8.859375 -6.703125 C 8.859375 -7.773438 8.617188 -8.59375 8.140625 -9.15625 C 7.660156 -9.726562 6.976562 -10.015625 6.09375 -10.015625 Z M 6.09375 -10.015625 "/></g></g></g><g fill="#ffffff" fill-opacity="1"><g transform="translate(63.92039, 172.499986)"><g><path d="M 6.296875 0.203125 C 4.671875 0.203125 3.410156 -0.296875 2.515625 -1.296875 C 1.617188 -2.296875 1.171875 -3.710938 1.171875 -5.546875 C 1.171875 -7.429688 1.625 -8.882812 2.53125 -9.90625 C 3.4375 -10.925781 4.726562 -11.4375 6.40625 -11.4375 C 6.945312 -11.4375 7.488281 -11.378906 8.03125 -11.265625 C 8.570312 -11.148438 8.992188 -11.015625 9.296875 -10.859375 L 8.78125 -9.40625 C 8.40625 -9.5625 7.992188 -9.6875 7.546875 -9.78125 C 7.097656 -9.882812 6.707031 -9.9375 6.375 -9.9375 C 4.082031 -9.9375 2.9375 -8.476562 2.9375 -5.5625 C 2.9375 -4.1875 3.210938 -3.128906 3.765625 -2.390625 C 4.328125 -1.648438 5.15625 -1.28125 6.25 -1.28125 C 7.1875 -1.28125 8.148438 -1.484375 9.140625 -1.890625 L 9.140625 -0.375 C 8.390625 0.0078125 7.441406 0.203125 6.296875 0.203125 Z M 6.296875 0.203125 "/></g></g></g><g fill="#ffffff" fill-opacity="1"><g transform="translate(73.912375, 172.499986)"><g><path d="M 3.5 0 L 1.8125 0 L 1.8125 -11.234375 L 3.5 -11.234375 Z M 1.65625 -14.28125 C 1.65625 -14.675781 1.75 -14.960938 1.9375 -15.140625 C 2.132812 -15.316406 2.378906 -15.40625 2.671875 -15.40625 C 2.941406 -15.40625 3.175781 -15.3125 3.375 -15.125 C 3.570312 -14.945312 3.671875 -14.664062 3.671875 -14.28125 C 3.671875 -13.894531 3.570312 -13.609375 3.375 -13.421875 C 3.175781 -13.234375 2.941406 -13.140625 2.671875 -13.140625 C 2.378906 -13.140625 2.132812 -13.234375 1.9375 -13.421875 C 1.75 -13.609375 1.65625 -13.894531 1.65625 -14.28125 Z M 1.65625 -14.28125 "/></g></g></g><g fill="#ffffff" fill-opacity="1"><g transform="translate(79.220934, 172.499986)"><g><path d="M 8.71875 0 L 8.375 -1.59375 L 8.296875 -1.59375 C 7.734375 -0.894531 7.171875 -0.421875 6.609375 -0.171875 C 6.054688 0.078125 5.363281 0.203125 4.53125 0.203125 C 3.414062 0.203125 2.539062 -0.0820312 1.90625 -0.65625 C 1.28125 -1.226562 0.96875 -2.046875 0.96875 -3.109375 C 0.96875 -5.378906 2.78125 -6.566406 6.40625 -6.671875 L 8.3125 -6.734375 L 8.3125 -7.4375 C 8.3125 -8.3125 8.117188 -8.957031 7.734375 -9.375 C 7.359375 -9.800781 6.753906 -10.015625 5.921875 -10.015625 C 4.984375 -10.015625 3.925781 -9.726562 2.75 -9.15625 L 2.21875 -10.453125 C 2.78125 -10.753906 3.390625 -10.988281 4.046875 -11.15625 C 4.703125 -11.332031 5.363281 -11.421875 6.03125 -11.421875 C 7.375 -11.421875 8.367188 -11.125 9.015625 -10.53125 C 9.660156 -9.9375 9.984375 -8.984375 9.984375 -7.671875 L 9.984375 0 Z M 4.875 -1.203125 C 5.925781 -1.203125 6.753906 -1.488281 7.359375 -2.0625 C 7.972656 -2.644531 8.28125 -3.460938 8.28125 -4.515625 L 8.28125 -5.53125 L 6.578125 -5.453125 C 5.222656 -5.410156 4.242188 -5.203125 3.640625 -4.828125 C 3.046875 -4.453125 2.75 -3.875 2.75 -3.09375 C 2.75 -2.46875 2.929688 -1.992188 3.296875 -1.671875 C 3.671875 -1.359375 4.195312 -1.203125 4.875 -1.203125 Z M 4.875 -1.203125 "/></g></g></g><g fill="#ffffff" fill-opacity="1"><g transform="translate(90.89362, 172.499986)"><g><path d="M 3.5 0 L 1.8125 0 L 1.8125 -15.953125 L 3.5 -15.953125 Z M 3.5 0 "/></g></g></g><g fill="#ffffff" fill-opacity="1"><g transform="translate(96.202179, 172.499986)"><g><path d="M 3.5 0 L 1.8125 0 L 1.8125 -15.953125 L 3.5 -15.953125 Z M 3.5 0 "/></g></g></g><g fill="#ffffff" fill-opacity="1"><g transform="translate(101.510738, 172.499986)"><g><path d="M 0.015625 -11.234375 L 1.84375 -11.234375 L 4.3125 -4.828125 C 4.84375 -3.367188 5.175781 -2.3125 5.3125 -1.65625 L 5.390625 -1.65625 C 5.484375 -2.007812 5.671875 -2.609375 5.953125 -3.453125 C 6.234375 -4.296875 7.160156 -6.890625 8.734375 -11.234375 L 10.5625 -11.234375 L 5.734375 1.5625 C 5.253906 2.820312 4.691406 3.71875 4.046875 4.25 C 3.410156 4.78125 2.628906 5.046875 1.703125 5.046875 C 1.179688 5.046875 0.671875 4.988281 0.171875 4.875 L 0.171875 3.5 C 0.546875 3.582031 0.960938 3.625 1.421875 3.625 C 2.585938 3.625 3.421875 2.96875 3.921875 1.65625 L 4.546875 0.0625 Z M 0.015625 -11.234375 "/></g></g></g><g fill="#ffffff" fill-opacity="1"><g transform="translate(112.086864, 172.499986)"><g/></g></g><g fill="#ffffff" fill-opacity="1"><g transform="translate(117.538897, 172.499986)"><g><path d="M 7.03125 -11.421875 C 8.507812 -11.421875 9.65625 -10.914062 10.46875 -9.90625 C 11.289062 -8.894531 11.703125 -7.46875 11.703125 -5.625 C 11.703125 -3.78125 11.289062 -2.347656 10.46875 -1.328125 C 9.644531 -0.304688 8.5 0.203125 7.03125 0.203125 C 6.300781 0.203125 5.632812 0.0664062 5.03125 -0.203125 C 4.425781 -0.472656 3.914062 -0.890625 3.5 -1.453125 L 3.390625 -1.453125 L 3.03125 0 L 1.8125 0 L 1.8125 -15.953125 L 3.5 -15.953125 L 3.5 -12.078125 C 3.5 -11.210938 3.472656 -10.429688 3.421875 -9.734375 L 3.5 -9.734375 C 4.300781 -10.859375 5.476562 -11.421875 7.03125 -11.421875 Z M 6.78125 -10 C 5.625 -10 4.785156 -9.664062 4.265625 -9 C 3.753906 -8.332031 3.5 -7.207031 3.5 -5.625 C 3.5 -4.050781 3.765625 -2.921875 4.296875 -2.234375 C 4.828125 -1.554688 5.671875 -1.21875 6.828125 -1.21875 C 7.867188 -1.21875 8.644531 -1.597656 9.15625 -2.359375 C 9.675781 -3.117188 9.9375 -4.21875 9.9375 -5.65625 C 9.9375 -7.113281 9.675781 -8.203125 9.15625 -8.921875 C 8.644531 -9.640625 7.851562 -10 6.78125 -10 Z M 6.78125 -10 "/></g></g></g><g fill="#ffffff" fill-opacity="1"><g transform="translate(130.400373, 172.499986)"><g><path d="M 6.546875 0.203125 C 4.890625 0.203125 3.578125 -0.300781 2.609375 -1.3125 C 1.648438 -2.320312 1.171875 -3.726562 1.171875 -5.53125 C 1.171875 -7.34375 1.617188 -8.78125 2.515625 -9.84375 C 3.410156 -10.90625 4.609375 -11.4375 6.109375 -11.4375 C 7.515625 -11.4375 8.628906 -10.972656 9.453125 -10.046875 C 10.273438 -9.128906 10.6875 -7.910156 10.6875 -6.390625 L 10.6875 -5.3125 L 2.9375 -5.3125 C 2.976562 -3.988281 3.3125 -2.984375 3.9375 -2.296875 C 4.570312 -1.617188 5.460938 -1.28125 6.609375 -1.28125 C 7.816406 -1.28125 9.015625 -1.535156 10.203125 -2.046875 L 10.203125 -0.515625 C 9.597656 -0.265625 9.023438 -0.0820312 8.484375 0.03125 C 7.953125 0.144531 7.304688 0.203125 6.546875 0.203125 Z M 6.09375 -10.015625 C 5.1875 -10.015625 4.460938 -9.71875 3.921875 -9.125 C 3.390625 -8.539062 3.078125 -7.734375 2.984375 -6.703125 L 8.859375 -6.703125 C 8.859375 -7.773438 8.617188 -8.59375 8.140625 -9.15625 C 7.660156 -9.726562 6.976562 -10.015625 6.09375 -10.015625 Z M 6.09375 -10.015625 "/></g></g></g><g fill="#ffffff" fill-opacity="1"><g transform="translate(142.175542, 172.499986)"><g><path d="M 6.296875 0.203125 C 4.671875 0.203125 3.410156 -0.296875 2.515625 -1.296875 C 1.617188 -2.296875 1.171875 -3.710938 1.171875 -5.546875 C 1.171875 -7.429688 1.625 -8.882812 2.53125 -9.90625 C 3.4375 -10.925781 4.726562 -11.4375 6.40625 -11.4375 C 6.945312 -11.4375 7.488281 -11.378906 8.03125 -11.265625 C 8.570312 -11.148438 8.992188 -11.015625 9.296875 -10.859375 L 8.78125 -9.40625 C 8.40625 -9.5625 7.992188 -9.6875 7.546875 -9.78125 C 7.097656 -9.882812 6.707031 -9.9375 6.375 -9.9375 C 4.082031 -9.9375 2.9375 -8.476562 2.9375 -5.5625 C 2.9375 -4.1875 3.210938 -3.128906 3.765625 -2.390625 C 4.328125 -1.648438 5.15625 -1.28125 6.25 -1.28125 C 7.1875 -1.28125 8.148438 -1.484375 9.140625 -1.890625 L 9.140625 -0.375 C 8.390625 0.0078125 7.441406 0.203125 6.296875 0.203125 Z M 6.296875 0.203125 "/></g></g></g><g fill="#ffffff" fill-opacity="1"><g transform="translate(152.167526, 172.499986)"><g><path d="M 8.71875 0 L 8.375 -1.59375 L 8.296875 -1.59375 C 7.734375 -0.894531 7.171875 -0.421875 6.609375 -0.171875 C 6.054688 0.078125 5.363281 0.203125 4.53125 0.203125 C 3.414062 0.203125 2.539062 -0.0820312 1.90625 -0.65625 C 1.28125 -1.226562 0.96875 -2.046875 0.96875 -3.109375 C 0.96875 -5.378906 2.78125 -6.566406 6.40625 -6.671875 L 8.3125 -6.734375 L 8.3125 -7.4375 C 8.3125 -8.3125 8.117188 -8.957031 7.734375 -9.375 C 7.359375 -9.800781 6.753906 -10.015625 5.921875 -10.015625 C 4.984375 -10.015625 3.925781 -9.726562 2.75 -9.15625 L 2.21875 -10.453125 C 2.78125 -10.753906 3.390625 -10.988281 4.046875 -11.15625 C 4.703125 -11.332031 5.363281 -11.421875 6.03125 -11.421875 C 7.375 -11.421875 8.367188 -11.125 9.015625 -10.53125 C 9.660156 -9.9375 9.984375 -8.984375 9.984375 -7.671875 L 9.984375 0 Z M 4.875 -1.203125 C 5.925781 -1.203125 6.753906 -1.488281 7.359375 -2.0625 C 7.972656 -2.644531 8.28125 -3.460938 8.28125 -4.515625 L 8.28125 -5.53125 L 6.578125 -5.453125 C 5.222656 -5.410156 4.242188 -5.203125 3.640625 -4.828125 C 3.046875 -4.453125 2.75 -3.875 2.75 -3.09375 C 2.75 -2.46875 2.929688 -1.992188 3.296875 -1.671875 C 3.671875 -1.359375 4.195312 -1.203125 4.875 -1.203125 Z M 4.875 -1.203125 "/></g></g></g><g fill="#ffffff" fill-opacity="1"><g transform="translate(163.840213, 172.499986)"><g><path d="M 3.40625 -11.234375 L 3.40625 -3.953125 C 3.40625 -3.035156 3.613281 -2.347656 4.03125 -1.890625 C 4.445312 -1.441406 5.097656 -1.21875 5.984375 -1.21875 C 7.160156 -1.21875 8.019531 -1.535156 8.5625 -2.171875 C 9.101562 -2.816406 9.375 -3.867188 9.375 -5.328125 L 9.375 -11.234375 L 11.078125 -11.234375 L 11.078125 0 L 9.6875 0 L 9.4375 -1.5 L 9.34375 -1.5 C 8.988281 -0.945312 8.503906 -0.523438 7.890625 -0.234375 C 7.273438 0.0546875 6.566406 0.203125 5.765625 0.203125 C 4.398438 0.203125 3.378906 -0.117188 2.703125 -0.765625 C 2.023438 -1.421875 1.6875 -2.460938 1.6875 -3.890625 L 1.6875 -11.234375 Z M 3.40625 -11.234375 "/></g></g></g><g fill="#ffffff" fill-opacity="1"><g transform="translate(176.722185, 172.499986)"><g><path d="M 9.046875 -3.0625 C 9.046875 -2.019531 8.65625 -1.210938 7.875 -0.640625 C 7.101562 -0.078125 6.015625 0.203125 4.609375 0.203125 C 3.117188 0.203125 1.957031 -0.03125 1.125 -0.5 L 1.125 -2.078125 C 1.65625 -1.804688 2.226562 -1.59375 2.84375 -1.4375 C 3.46875 -1.28125 4.066406 -1.203125 4.640625 -1.203125 C 5.535156 -1.203125 6.21875 -1.34375 6.6875 -1.625 C 7.164062 -1.90625 7.40625 -2.335938 7.40625 -2.921875 C 7.40625 -3.359375 7.21875 -3.734375 6.84375 -4.046875 C 6.46875 -4.359375 5.726562 -4.722656 4.625 -5.140625 C 3.582031 -5.535156 2.835938 -5.878906 2.390625 -6.171875 C 1.953125 -6.460938 1.625 -6.789062 1.40625 -7.15625 C 1.195312 -7.53125 1.09375 -7.972656 1.09375 -8.484375 C 1.09375 -9.398438 1.460938 -10.117188 2.203125 -10.640625 C 2.953125 -11.171875 3.972656 -11.4375 5.265625 -11.4375 C 6.472656 -11.4375 7.65625 -11.191406 8.8125 -10.703125 L 8.21875 -9.328125 C 7.082031 -9.785156 6.054688 -10.015625 5.140625 -10.015625 C 4.335938 -10.015625 3.726562 -9.890625 3.3125 -9.640625 C 2.90625 -9.390625 2.703125 -9.039062 2.703125 -8.59375 C 2.703125 -8.289062 2.78125 -8.03125 2.9375 -7.8125 C 3.09375 -7.601562 3.335938 -7.40625 3.671875 -7.21875 C 4.015625 -7.03125 4.675781 -6.753906 5.65625 -6.390625 C 6.988281 -5.898438 7.882812 -5.410156 8.34375 -4.921875 C 8.8125 -4.429688 9.046875 -3.8125 9.046875 -3.0625 Z M 9.046875 -3.0625 "/></g></g></g><g fill="#ffffff" fill-opacity="1"><g transform="translate(186.734666, 172.499986)"><g><path d="M 6.546875 0.203125 C 4.890625 0.203125 3.578125 -0.300781 2.609375 -1.3125 C 1.648438 -2.320312 1.171875 -3.726562 1.171875 -5.53125 C 1.171875 -7.34375 1.617188 -8.78125 2.515625 -9.84375 C 3.410156 -10.90625 4.609375 -11.4375 6.109375 -11.4375 C 7.515625 -11.4375 8.628906 -10.972656 9.453125 -10.046875 C 10.273438 -9.128906 10.6875 -7.910156 10.6875 -6.390625 L 10.6875 -5.3125 L 2.9375 -5.3125 C 2.976562 -3.988281 3.3125 -2.984375 3.9375 -2.296875 C 4.570312 -1.617188 5.460938 -1.28125 6.609375 -1.28125 C 7.816406 -1.28125 9.015625 -1.535156 10.203125 -2.046875 L 10.203125 -0.515625 C 9.597656 -0.265625 9.023438 -0.0820312 8.484375 0.03125 C 7.953125 0.144531 7.304688 0.203125 6.546875 0.203125 Z M 6.09375 -10.015625 C 5.1875 -10.015625 4.460938 -9.71875 3.921875 -9.125 C 3.390625 -8.539062 3.078125 -7.734375 2.984375 -6.703125 L 8.859375 -6.703125 C 8.859375 -7.773438 8.617188 -8.59375 8.140625 -9.15625 C 7.660156 -9.726562 6.976562 -10.015625 6.09375 -10.015625 Z M 6.09375 -10.015625 "/></g></g></g><g fill="#ffffff" fill-opacity="1"><g transform="translate(14.578128, 201.749984)"><g><path d="M 9.046875 -3.0625 C 9.046875 -2.019531 8.65625 -1.210938 7.875 -0.640625 C 7.101562 -0.078125 6.015625 0.203125 4.609375 0.203125 C 3.117188 0.203125 1.957031 -0.03125 1.125 -0.5 L 1.125 -2.078125 C 1.65625 -1.804688 2.226562 -1.59375 2.84375 -1.4375 C 3.46875 -1.28125 4.066406 -1.203125 4.640625 -1.203125 C 5.535156 -1.203125 6.21875 -1.34375 6.6875 -1.625 C 7.164062 -1.90625 7.40625 -2.335938 7.40625 -2.921875 C 7.40625 -3.359375 7.21875 -3.734375 6.84375 -4.046875 C 6.46875 -4.359375 5.726562 -4.722656 4.625 -5.140625 C 3.582031 -5.535156 2.835938 -5.878906 2.390625 -6.171875 C 1.953125 -6.460938 1.625 -6.789062 1.40625 -7.15625 C 1.195312 -7.53125 1.09375 -7.972656 1.09375 -8.484375 C 1.09375 -9.398438 1.460938 -10.117188 2.203125 -10.640625 C 2.953125 -11.171875 3.972656 -11.4375 5.265625 -11.4375 C 6.472656 -11.4375 7.65625 -11.191406 8.8125 -10.703125 L 8.21875 -9.328125 C 7.082031 -9.785156 6.054688 -10.015625 5.140625 -10.015625 C 4.335938 -10.015625 3.726562 -9.890625 3.3125 -9.640625 C 2.90625 -9.390625 2.703125 -9.039062 2.703125 -8.59375 C 2.703125 -8.289062 2.78125 -8.03125 2.9375 -7.8125 C 3.09375 -7.601562 3.335938 -7.40625 3.671875 -7.21875 C 4.015625 -7.03125 4.675781 -6.753906 5.65625 -6.390625 C 6.988281 -5.898438 7.882812 -5.410156 8.34375 -4.921875 C 8.8125 -4.429688 9.046875 -3.8125 9.046875 -3.0625 Z M 9.046875 -3.0625 "/></g></g></g><g fill="#ffffff" fill-opacity="1"><g transform="translate(24.590609, 201.749984)"><g><path d="M 11.5 -5.625 C 11.5 -3.789062 11.035156 -2.359375 10.109375 -1.328125 C 9.191406 -0.304688 7.921875 0.203125 6.296875 0.203125 C 5.285156 0.203125 4.390625 -0.03125 3.609375 -0.5 C 2.835938 -0.96875 2.238281 -1.644531 1.8125 -2.53125 C 1.382812 -3.414062 1.171875 -4.445312 1.171875 -5.625 C 1.171875 -7.457031 1.628906 -8.882812 2.546875 -9.90625 C 3.460938 -10.925781 4.738281 -11.4375 6.375 -11.4375 C 7.9375 -11.4375 9.179688 -10.914062 10.109375 -9.875 C 11.035156 -8.832031 11.5 -7.414062 11.5 -5.625 Z M 2.9375 -5.625 C 2.9375 -4.1875 3.222656 -3.09375 3.796875 -2.34375 C 4.378906 -1.59375 5.226562 -1.21875 6.34375 -1.21875 C 7.457031 -1.21875 8.300781 -1.59375 8.875 -2.34375 C 9.445312 -3.09375 9.734375 -4.1875 9.734375 -5.625 C 9.734375 -7.050781 9.445312 -8.132812 8.875 -8.875 C 8.300781 -9.625 7.445312 -10 6.3125 -10 C 5.195312 -10 4.351562 -9.628906 3.78125 -8.890625 C 3.21875 -8.160156 2.9375 -7.070312 2.9375 -5.625 Z M 2.9375 -5.625 "/></g></g></g><g fill="#ffffff" fill-opacity="1"><g transform="translate(37.267617, 201.749984)"><g><path d="M 16.125 0 L 16.125 -7.3125 C 16.125 -8.207031 15.929688 -8.878906 15.546875 -9.328125 C 15.171875 -9.773438 14.578125 -10 13.765625 -10 C 12.710938 -10 11.929688 -9.691406 11.421875 -9.078125 C 10.921875 -8.472656 10.671875 -7.539062 10.671875 -6.28125 L 10.671875 0 L 8.96875 0 L 8.96875 -7.3125 C 8.96875 -8.207031 8.773438 -8.878906 8.390625 -9.328125 C 8.003906 -9.773438 7.40625 -10 6.59375 -10 C 5.53125 -10 4.75 -9.675781 4.25 -9.03125 C 3.75 -8.394531 3.5 -7.347656 3.5 -5.890625 L 3.5 0 L 1.8125 0 L 1.8125 -11.234375 L 3.1875 -11.234375 L 3.46875 -9.703125 L 3.546875 -9.703125 C 3.867188 -10.242188 4.320312 -10.664062 4.90625 -10.96875 C 5.488281 -11.28125 6.144531 -11.4375 6.875 -11.4375 C 8.625 -11.4375 9.769531 -10.800781 10.3125 -9.53125 L 10.390625 -9.53125 C 10.734375 -10.125 11.222656 -10.585938 11.859375 -10.921875 C 12.492188 -11.265625 13.21875 -11.4375 14.03125 -11.4375 C 15.300781 -11.4375 16.25 -11.109375 16.875 -10.453125 C 17.507812 -9.804688 17.828125 -8.765625 17.828125 -7.328125 L 17.828125 0 Z M 16.125 0 "/></g></g></g><g fill="#ffffff" fill-opacity="1"><g transform="translate(56.790412, 201.749984)"><g><path d="M 6.546875 0.203125 C 4.890625 0.203125 3.578125 -0.300781 2.609375 -1.3125 C 1.648438 -2.320312 1.171875 -3.726562 1.171875 -5.53125 C 1.171875 -7.34375 1.617188 -8.78125 2.515625 -9.84375 C 3.410156 -10.90625 4.609375 -11.4375 6.109375 -11.4375 C 7.515625 -11.4375 8.628906 -10.972656 9.453125 -10.046875 C 10.273438 -9.128906 10.6875 -7.910156 10.6875 -6.390625 L 10.6875 -5.3125 L 2.9375 -5.3125 C 2.976562 -3.988281 3.3125 -2.984375 3.9375 -2.296875 C 4.570312 -1.617188 5.460938 -1.28125 6.609375 -1.28125 C 7.816406 -1.28125 9.015625 -1.535156 10.203125 -2.046875 L 10.203125 -0.515625 C 9.597656 -0.265625 9.023438 -0.0820312 8.484375 0.03125 C 7.953125 0.144531 7.304688 0.203125 6.546875 0.203125 Z M 6.09375 -10.015625 C 5.1875 -10.015625 4.460938 -9.71875 3.921875 -9.125 C 3.390625 -8.539062 3.078125 -7.734375 2.984375 -6.703125 L 8.859375 -6.703125 C 8.859375 -7.773438 8.617188 -8.59375 8.140625 -9.15625 C 7.660156 -9.726562 6.976562 -10.015625 6.09375 -10.015625 Z M 6.09375 -10.015625 "/></g></g></g><g fill="#ffffff" fill-opacity="1"><g transform="translate(68.565581, 201.749984)"><g><path d="M 5.4375 -1.203125 C 5.738281 -1.203125 6.03125 -1.222656 6.3125 -1.265625 C 6.59375 -1.304688 6.8125 -1.351562 6.96875 -1.40625 L 6.96875 -0.109375 C 6.789062 -0.015625 6.519531 0.0546875 6.15625 0.109375 C 5.800781 0.171875 5.476562 0.203125 5.1875 0.203125 C 3.007812 0.203125 1.921875 -0.941406 1.921875 -3.234375 L 1.921875 -9.921875 L 0.3125 -9.921875 L 0.3125 -10.734375 L 1.921875 -11.4375 L 2.640625 -13.84375 L 3.625 -13.84375 L 3.625 -11.234375 L 6.890625 -11.234375 L 6.890625 -9.921875 L 3.625 -9.921875 L 3.625 -3.296875 C 3.625 -2.617188 3.785156 -2.097656 4.109375 -1.734375 C 4.429688 -1.378906 4.875 -1.203125 5.4375 -1.203125 Z M 5.4375 -1.203125 "/></g></g></g><g fill="#ffffff" fill-opacity="1"><g transform="translate(75.975023, 201.749984)"><g><path d="M 9.5 0 L 9.5 -7.265625 C 9.5 -8.179688 9.289062 -8.863281 8.875 -9.3125 C 8.457031 -9.769531 7.800781 -10 6.90625 -10 C 5.726562 -10 4.863281 -9.675781 4.3125 -9.03125 C 3.769531 -8.382812 3.5 -7.332031 3.5 -5.875 L 3.5 0 L 1.8125 0 L 1.8125 -15.953125 L 3.5 -15.953125 L 3.5 -11.125 C 3.5 -10.539062 3.472656 -10.0625 3.421875 -9.6875 L 3.53125 -9.6875 C 3.863281 -10.21875 4.335938 -10.640625 4.953125 -10.953125 C 5.578125 -11.265625 6.285156 -11.421875 7.078125 -11.421875 C 8.453125 -11.421875 9.484375 -11.09375 10.171875 -10.4375 C 10.859375 -9.789062 11.203125 -8.753906 11.203125 -7.328125 L 11.203125 0 Z M 9.5 0 "/></g></g></g><g fill="#ffffff" fill-opacity="1"><g transform="translate(88.856995, 201.749984)"><g><path d="M 3.5 0 L 1.8125 0 L 1.8125 -11.234375 L 3.5 -11.234375 Z M 1.65625 -14.28125 C 1.65625 -14.675781 1.75 -14.960938 1.9375 -15.140625 C 2.132812 -15.316406 2.378906 -15.40625 2.671875 -15.40625 C 2.941406 -15.40625 3.175781 -15.3125 3.375 -15.125 C 3.570312 -14.945312 3.671875 -14.664062 3.671875 -14.28125 C 3.671875 -13.894531 3.570312 -13.609375 3.375 -13.421875 C 3.175781 -13.234375 2.941406 -13.140625 2.671875 -13.140625 C 2.378906 -13.140625 2.132812 -13.234375 1.9375 -13.421875 C 1.75 -13.609375 1.65625 -13.894531 1.65625 -14.28125 Z M 1.65625 -14.28125 "/></g></g></g><g fill="#ffffff" fill-opacity="1"><g transform="translate(94.165554, 201.749984)"><g><path d="M 9.5 0 L 9.5 -7.265625 C 9.5 -8.179688 9.289062 -8.863281 8.875 -9.3125 C 8.457031 -9.769531 7.800781 -10 6.90625 -10 C 5.726562 -10 4.863281 -9.679688 4.3125 -9.046875 C 3.769531 -8.410156 3.5 -7.359375 3.5 -5.890625 L 3.5 0 L 1.8125 0 L 1.8125 -11.234375 L 3.1875 -11.234375 L 3.46875 -9.703125 L 3.546875 -9.703125 C 3.898438 -10.253906 4.390625 -10.679688 5.015625 -10.984375 C 5.640625 -11.285156 6.335938 -11.4375 7.109375 -11.4375 C 8.460938 -11.4375 9.484375 -11.109375 10.171875 -10.453125 C 10.859375 -9.804688 11.203125 -8.765625 11.203125 -7.328125 L 11.203125 0 Z M 9.5 0 "/></g></g></g><g fill="#ffffff" fill-opacity="1"><g transform="translate(107.047526, 201.749984)"><g><path d="M 11 -11.234375 L 11 -10.15625 L 8.921875 -9.921875 C 9.109375 -9.679688 9.273438 -9.363281 9.421875 -8.96875 C 9.578125 -8.582031 9.65625 -8.148438 9.65625 -7.671875 C 9.65625 -6.566406 9.28125 -5.6875 8.53125 -5.03125 C 7.78125 -4.375 6.75 -4.046875 5.4375 -4.046875 C 5.101562 -4.046875 4.785156 -4.070312 4.484375 -4.125 C 3.765625 -3.75 3.40625 -3.269531 3.40625 -2.6875 C 3.40625 -2.375 3.53125 -2.144531 3.78125 -2 C 4.03125 -1.851562 4.46875 -1.78125 5.09375 -1.78125 L 7.078125 -1.78125 C 8.296875 -1.78125 9.226562 -1.523438 9.875 -1.015625 C 10.53125 -0.503906 10.859375 0.238281 10.859375 1.21875 C 10.859375 2.46875 10.359375 3.414062 9.359375 4.0625 C 8.359375 4.71875 6.90625 5.046875 5 5.046875 C 3.53125 5.046875 2.394531 4.769531 1.59375 4.21875 C 0.800781 3.675781 0.40625 2.90625 0.40625 1.90625 C 0.40625 1.21875 0.625 0.625 1.0625 0.125 C 1.5 -0.363281 2.113281 -0.695312 2.90625 -0.875 C 2.613281 -1.007812 2.367188 -1.210938 2.171875 -1.484375 C 1.984375 -1.753906 1.890625 -2.070312 1.890625 -2.4375 C 1.890625 -2.851562 2 -3.210938 2.21875 -3.515625 C 2.4375 -3.828125 2.78125 -4.125 3.25 -4.40625 C 2.664062 -4.644531 2.191406 -5.050781 1.828125 -5.625 C 1.460938 -6.195312 1.28125 -6.851562 1.28125 -7.59375 C 1.28125 -8.820312 1.648438 -9.769531 2.390625 -10.4375 C 3.128906 -11.101562 4.175781 -11.4375 5.53125 -11.4375 C 6.113281 -11.4375 6.640625 -11.367188 7.109375 -11.234375 Z M 2.046875 1.890625 C 2.046875 2.492188 2.300781 2.953125 2.8125 3.265625 C 3.320312 3.585938 4.054688 3.75 5.015625 3.75 C 6.441406 3.75 7.5 3.535156 8.1875 3.109375 C 8.875 2.679688 9.21875 2.097656 9.21875 1.359375 C 9.21875 0.753906 9.03125 0.332031 8.65625 0.09375 C 8.28125 -0.132812 7.570312 -0.25 6.53125 -0.25 L 4.484375 -0.25 C 3.710938 -0.25 3.113281 -0.0664062 2.6875 0.296875 C 2.257812 0.660156 2.046875 1.191406 2.046875 1.890625 Z M 2.96875 -7.640625 C 2.96875 -6.847656 3.1875 -6.25 3.625 -5.84375 C 4.070312 -5.445312 4.691406 -5.25 5.484375 -5.25 C 7.148438 -5.25 7.984375 -6.054688 7.984375 -7.671875 C 7.984375 -9.359375 7.140625 -10.203125 5.453125 -10.203125 C 4.648438 -10.203125 4.035156 -9.984375 3.609375 -9.546875 C 3.179688 -9.117188 2.96875 -8.484375 2.96875 -7.640625 Z M 2.96875 -7.640625 "/></g></g></g><g fill="#ffffff" fill-opacity="1"><g transform="translate(118.545988, 201.749984)"><g/></g></g><g fill="#ffffff" fill-opacity="1"><g transform="translate(123.998022, 201.749984)"><g><path d="M 7.03125 -11.421875 C 8.507812 -11.421875 9.65625 -10.914062 10.46875 -9.90625 C 11.289062 -8.894531 11.703125 -7.46875 11.703125 -5.625 C 11.703125 -3.78125 11.289062 -2.347656 10.46875 -1.328125 C 9.644531 -0.304688 8.5 0.203125 7.03125 0.203125 C 6.300781 0.203125 5.632812 0.0664062 5.03125 -0.203125 C 4.425781 -0.472656 3.914062 -0.890625 3.5 -1.453125 L 3.390625 -1.453125 L 3.03125 0 L 1.8125 0 L 1.8125 -15.953125 L 3.5 -15.953125 L 3.5 -12.078125 C 3.5 -11.210938 3.472656 -10.429688 3.421875 -9.734375 L 3.5 -9.734375 C 4.300781 -10.859375 5.476562 -11.421875 7.03125 -11.421875 Z M 6.78125 -10 C 5.625 -10 4.785156 -9.664062 4.265625 -9 C 3.753906 -8.332031 3.5 -7.207031 3.5 -5.625 C 3.5 -4.050781 3.765625 -2.921875 4.296875 -2.234375 C 4.828125 -1.554688 5.671875 -1.21875 6.828125 -1.21875 C 7.867188 -1.21875 8.644531 -1.597656 9.15625 -2.359375 C 9.675781 -3.117188 9.9375 -4.21875 9.9375 -5.65625 C 9.9375 -7.113281 9.675781 -8.203125 9.15625 -8.921875 C 8.644531 -9.640625 7.851562 -10 6.78125 -10 Z M 6.78125 -10 "/></g></g></g><g fill="#ffffff" fill-opacity="1"><g transform="translate(136.859498, 201.749984)"><g><path d="M 8.71875 0 L 8.375 -1.59375 L 8.296875 -1.59375 C 7.734375 -0.894531 7.171875 -0.421875 6.609375 -0.171875 C 6.054688 0.078125 5.363281 0.203125 4.53125 0.203125 C 3.414062 0.203125 2.539062 -0.0820312 1.90625 -0.65625 C 1.28125 -1.226562 0.96875 -2.046875 0.96875 -3.109375 C 0.96875 -5.378906 2.78125 -6.566406 6.40625 -6.671875 L 8.3125 -6.734375 L 8.3125 -7.4375 C 8.3125 -8.3125 8.117188 -8.957031 7.734375 -9.375 C 7.359375 -9.800781 6.753906 -10.015625 5.921875 -10.015625 C 4.984375 -10.015625 3.925781 -9.726562 2.75 -9.15625 L 2.21875 -10.453125 C 2.78125 -10.753906 3.390625 -10.988281 4.046875 -11.15625 C 4.703125 -11.332031 5.363281 -11.421875 6.03125 -11.421875 C 7.375 -11.421875 8.367188 -11.125 9.015625 -10.53125 C 9.660156 -9.9375 9.984375 -8.984375 9.984375 -7.671875 L 9.984375 0 Z M 4.875 -1.203125 C 5.925781 -1.203125 6.753906 -1.488281 7.359375 -2.0625 C 7.972656 -2.644531 8.28125 -3.460938 8.28125 -4.515625 L 8.28125 -5.53125 L 6.578125 -5.453125 C 5.222656 -5.410156 4.242188 -5.203125 3.640625 -4.828125 C 3.046875 -4.453125 2.75 -3.875 2.75 -3.09375 C 2.75 -2.46875 2.929688 -1.992188 3.296875 -1.671875 C 3.671875 -1.359375 4.195312 -1.203125 4.875 -1.203125 Z M 4.875 -1.203125 "/></g></g></g><g fill="#ffffff" fill-opacity="1"><g transform="translate(148.532184, 201.749984)"><g><path d="M 9.453125 -1.5 L 9.359375 -1.5 C 8.578125 -0.363281 7.398438 0.203125 5.828125 0.203125 C 4.359375 0.203125 3.210938 -0.296875 2.390625 -1.296875 C 1.578125 -2.304688 1.171875 -3.738281 1.171875 -5.59375 C 1.171875 -7.445312 1.582031 -8.882812 2.40625 -9.90625 C 3.226562 -10.925781 4.367188 -11.4375 5.828125 -11.4375 C 7.359375 -11.4375 8.53125 -10.882812 9.34375 -9.78125 L 9.46875 -9.78125 L 9.40625 -10.59375 L 9.359375 -11.375 L 9.359375 -15.953125 L 11.0625 -15.953125 L 11.0625 0 L 9.6875 0 Z M 6.046875 -1.21875 C 7.210938 -1.21875 8.054688 -1.535156 8.578125 -2.171875 C 9.097656 -2.804688 9.359375 -3.828125 9.359375 -5.234375 L 9.359375 -5.59375 C 9.359375 -7.1875 9.09375 -8.320312 8.5625 -9 C 8.03125 -9.675781 7.1875 -10.015625 6.03125 -10.015625 C 5.03125 -10.015625 4.265625 -9.625 3.734375 -8.84375 C 3.203125 -8.070312 2.9375 -6.976562 2.9375 -5.5625 C 2.9375 -4.132812 3.195312 -3.050781 3.71875 -2.3125 C 4.25 -1.582031 5.023438 -1.21875 6.046875 -1.21875 Z M 6.046875 -1.21875 "/></g></g></g><g fill="#ffffff" fill-opacity="1"><g transform="translate(161.39366, 201.749984)"><g/></g></g><g fill="#ffffff" fill-opacity="1"><g transform="translate(166.845694, 201.749984)"><g><path d="M 9.5 0 L 9.5 -7.265625 C 9.5 -8.179688 9.289062 -8.863281 8.875 -9.3125 C 8.457031 -9.769531 7.800781 -10 6.90625 -10 C 5.726562 -10 4.863281 -9.675781 4.3125 -9.03125 C 3.769531 -8.382812 3.5 -7.332031 3.5 -5.875 L 3.5 0 L 1.8125 0 L 1.8125 -15.953125 L 3.5 -15.953125 L 3.5 -11.125 C 3.5 -10.539062 3.472656 -10.0625 3.421875 -9.6875 L 3.53125 -9.6875 C 3.863281 -10.21875 4.335938 -10.640625 4.953125 -10.953125 C 5.578125 -11.265625 6.285156 -11.421875 7.078125 -11.421875 C 8.453125 -11.421875 9.484375 -11.09375 10.171875 -10.4375 C 10.859375 -9.789062 11.203125 -8.753906 11.203125 -7.328125 L 11.203125 0 Z M 9.5 0 "/></g></g></g><g fill="#ffffff" fill-opacity="1"><g transform="translate(179.727666, 201.749984)"><g><path d="M 8.71875 0 L 8.375 -1.59375 L 8.296875 -1.59375 C 7.734375 -0.894531 7.171875 -0.421875 6.609375 -0.171875 C 6.054688 0.078125 5.363281 0.203125 4.53125 0.203125 C 3.414062 0.203125 2.539062 -0.0820312 1.90625 -0.65625 C 1.28125 -1.226562 0.96875 -2.046875 0.96875 -3.109375 C 0.96875 -5.378906 2.78125 -6.566406 6.40625 -6.671875 L 8.3125 -6.734375 L 8.3125 -7.4375 C 8.3125 -8.3125 8.117188 -8.957031 7.734375 -9.375 C 7.359375 -9.800781 6.753906 -10.015625 5.921875 -10.015625 C 4.984375 -10.015625 3.925781 -9.726562 2.75 -9.15625 L 2.21875 -10.453125 C 2.78125 -10.753906 3.390625 -10.988281 4.046875 -11.15625 C 4.703125 -11.332031 5.363281 -11.421875 6.03125 -11.421875 C 7.375 -11.421875 8.367188 -11.125 9.015625 -10.53125 C 9.660156 -9.9375 9.984375 -8.984375 9.984375 -7.671875 L 9.984375 0 Z M 4.875 -1.203125 C 5.925781 -1.203125 6.753906 -1.488281 7.359375 -2.0625 C 7.972656 -2.644531 8.28125 -3.460938 8.28125 -4.515625 L 8.28125 -5.53125 L 6.578125 -5.453125 C 5.222656 -5.410156 4.242188 -5.203125 3.640625 -4.828125 C 3.046875 -4.453125 2.75 -3.875 2.75 -3.09375 C 2.75 -2.46875 2.929688 -1.992188 3.296875 -1.671875 C 3.671875 -1.359375 4.195312 -1.203125 4.875 -1.203125 Z M 4.875 -1.203125 "/></g></g></g><g fill="#ffffff" fill-opacity="1"><g transform="translate(191.400352, 201.749984)"><g><path d="M 9.046875 -3.0625 C 9.046875 -2.019531 8.65625 -1.210938 7.875 -0.640625 C 7.101562 -0.078125 6.015625 0.203125 4.609375 0.203125 C 3.117188 0.203125 1.957031 -0.03125 1.125 -0.5 L 1.125 -2.078125 C 1.65625 -1.804688 2.226562 -1.59375 2.84375 -1.4375 C 3.46875 -1.28125 4.066406 -1.203125 4.640625 -1.203125 C 5.535156 -1.203125 6.21875 -1.34375 6.6875 -1.625 C 7.164062 -1.90625 7.40625 -2.335938 7.40625 -2.921875 C 7.40625 -3.359375 7.21875 -3.734375 6.84375 -4.046875 C 6.46875 -4.359375 5.726562 -4.722656 4.625 -5.140625 C 3.582031 -5.535156 2.835938 -5.878906 2.390625 -6.171875 C 1.953125 -6.460938 1.625 -6.789062 1.40625 -7.15625 C 1.195312 -7.53125 1.09375 -7.972656 1.09375 -8.484375 C 1.09375 -9.398438 1.460938 -10.117188 2.203125 -10.640625 C 2.953125 -11.171875 3.972656 -11.4375 5.265625 -11.4375 C 6.472656 -11.4375 7.65625 -11.191406 8.8125 -10.703125 L 8.21875 -9.328125 C 7.082031 -9.785156 6.054688 -10.015625 5.140625 -10.015625 C 4.335938 -10.015625 3.726562 -9.890625 3.3125 -9.640625 C 2.90625 -9.390625 2.703125 -9.039062 2.703125 -8.59375 C 2.703125 -8.289062 2.78125 -8.03125 2.9375 -7.8125 C 3.09375 -7.601562 3.335938 -7.40625 3.671875 -7.21875 C 4.015625 -7.03125 4.675781 -6.753906 5.65625 -6.390625 C 6.988281 -5.898438 7.882812 -5.410156 8.34375 -4.921875 C 8.8125 -4.429688 9.046875 -3.8125 9.046875 -3.0625 Z M 9.046875 -3.0625 "/></g></g></g><g fill="#ffffff" fill-opacity="1"><g transform="translate(55.417968, 230.999982)"><g><path d="M 9.5 0 L 9.5 -7.265625 C 9.5 -8.179688 9.289062 -8.863281 8.875 -9.3125 C 8.457031 -9.769531 7.800781 -10 6.90625 -10 C 5.726562 -10 4.863281 -9.675781 4.3125 -9.03125 C 3.769531 -8.382812 3.5 -7.332031 3.5 -5.875 L 3.5 0 L 1.8125 0 L 1.8125 -15.953125 L 3.5 -15.953125 L 3.5 -11.125 C 3.5 -10.539062 3.472656 -10.0625 3.421875 -9.6875 L 3.53125 -9.6875 C 3.863281 -10.21875 4.335938 -10.640625 4.953125 -10.953125 C 5.578125 -11.265625 6.285156 -11.421875 7.078125 -11.421875 C 8.453125 -11.421875 9.484375 -11.09375 10.171875 -10.4375 C 10.859375 -9.789062 11.203125 -8.753906 11.203125 -7.328125 L 11.203125 0 Z M 9.5 0 "/></g></g></g><g fill="#ffffff" fill-opacity="1"><g transform="translate(68.29994, 230.999982)"><g><path d="M 8.71875 0 L 8.375 -1.59375 L 8.296875 -1.59375 C 7.734375 -0.894531 7.171875 -0.421875 6.609375 -0.171875 C 6.054688 0.078125 5.363281 0.203125 4.53125 0.203125 C 3.414062 0.203125 2.539062 -0.0820312 1.90625 -0.65625 C 1.28125 -1.226562 0.96875 -2.046875 0.96875 -3.109375 C 0.96875 -5.378906 2.78125 -6.566406 6.40625 -6.671875 L 8.3125 -6.734375 L 8.3125 -7.4375 C 8.3125 -8.3125 8.117188 -8.957031 7.734375 -9.375 C 7.359375 -9.800781 6.753906 -10.015625 5.921875 -10.015625 C 4.984375 -10.015625 3.925781 -9.726562 2.75 -9.15625 L 2.21875 -10.453125 C 2.78125 -10.753906 3.390625 -10.988281 4.046875 -11.15625 C 4.703125 -11.332031 5.363281 -11.421875 6.03125 -11.421875 C 7.375 -11.421875 8.367188 -11.125 9.015625 -10.53125 C 9.660156 -9.9375 9.984375 -8.984375 9.984375 -7.671875 L 9.984375 0 Z M 4.875 -1.203125 C 5.925781 -1.203125 6.753906 -1.488281 7.359375 -2.0625 C 7.972656 -2.644531 8.28125 -3.460938 8.28125 -4.515625 L 8.28125 -5.53125 L 6.578125 -5.453125 C 5.222656 -5.410156 4.242188 -5.203125 3.640625 -4.828125 C 3.046875 -4.453125 2.75 -3.875 2.75 -3.09375 C 2.75 -2.46875 2.929688 -1.992188 3.296875 -1.671875 C 3.671875 -1.359375 4.195312 -1.203125 4.875 -1.203125 Z M 4.875 -1.203125 "/></g></g></g><g fill="#ffffff" fill-opacity="1"><g transform="translate(79.972627, 230.999982)"><g><path d="M 7.03125 0.203125 C 6.300781 0.203125 5.632812 0.0664062 5.03125 -0.203125 C 4.425781 -0.472656 3.914062 -0.890625 3.5 -1.453125 L 3.390625 -1.453125 C 3.460938 -0.796875 3.5 -0.171875 3.5 0.421875 L 3.5 5.046875 L 1.8125 5.046875 L 1.8125 -11.234375 L 3.1875 -11.234375 L 3.421875 -9.703125 L 3.5 -9.703125 C 3.9375 -10.316406 4.445312 -10.757812 5.03125 -11.03125 C 5.613281 -11.300781 6.28125 -11.4375 7.03125 -11.4375 C 8.519531 -11.4375 9.671875 -10.925781 10.484375 -9.90625 C 11.296875 -8.894531 11.703125 -7.46875 11.703125 -5.625 C 11.703125 -3.78125 11.289062 -2.347656 10.46875 -1.328125 C 9.644531 -0.304688 8.5 0.203125 7.03125 0.203125 Z M 6.78125 -10 C 5.632812 -10 4.804688 -9.679688 4.296875 -9.046875 C 3.785156 -8.410156 3.519531 -7.398438 3.5 -6.015625 L 3.5 -5.625 C 3.5 -4.050781 3.765625 -2.921875 4.296875 -2.234375 C 4.828125 -1.554688 5.671875 -1.21875 6.828125 -1.21875 C 7.796875 -1.21875 8.554688 -1.609375 9.109375 -2.390625 C 9.660156 -3.179688 9.9375 -4.269531 9.9375 -5.65625 C 9.9375 -7.050781 9.660156 -8.125 9.109375 -8.875 C 8.554688 -9.625 7.78125 -10 6.78125 -10 Z M 6.78125 -10 "/></g></g></g><g fill="#ffffff" fill-opacity="1"><g transform="translate(92.834103, 230.999982)"><g><path d="M 7.03125 0.203125 C 6.300781 0.203125 5.632812 0.0664062 5.03125 -0.203125 C 4.425781 -0.472656 3.914062 -0.890625 3.5 -1.453125 L 3.390625 -1.453125 C 3.460938 -0.796875 3.5 -0.171875 3.5 0.421875 L 3.5 5.046875 L 1.8125 5.046875 L 1.8125 -11.234375 L 3.1875 -11.234375 L 3.421875 -9.703125 L 3.5 -9.703125 C 3.9375 -10.316406 4.445312 -10.757812 5.03125 -11.03125 C 5.613281 -11.300781 6.28125 -11.4375 7.03125 -11.4375 C 8.519531 -11.4375 9.671875 -10.925781 10.484375 -9.90625 C 11.296875 -8.894531 11.703125 -7.46875 11.703125 -5.625 C 11.703125 -3.78125 11.289062 -2.347656 10.46875 -1.328125 C 9.644531 -0.304688 8.5 0.203125 7.03125 0.203125 Z M 6.78125 -10 C 5.632812 -10 4.804688 -9.679688 4.296875 -9.046875 C 3.785156 -8.410156 3.519531 -7.398438 3.5 -6.015625 L 3.5 -5.625 C 3.5 -4.050781 3.765625 -2.921875 4.296875 -2.234375 C 4.828125 -1.554688 5.671875 -1.21875 6.828125 -1.21875 C 7.796875 -1.21875 8.554688 -1.609375 9.109375 -2.390625 C 9.660156 -3.179688 9.9375 -4.269531 9.9375 -5.65625 C 9.9375 -7.050781 9.660156 -8.125 9.109375 -8.875 C 8.554688 -9.625 7.78125 -10 6.78125 -10 Z M 6.78125 -10 "/></g></g></g><g fill="#ffffff" fill-opacity="1"><g transform="translate(105.695579, 230.999982)"><g><path d="M 6.546875 0.203125 C 4.890625 0.203125 3.578125 -0.300781 2.609375 -1.3125 C 1.648438 -2.320312 1.171875 -3.726562 1.171875 -5.53125 C 1.171875 -7.34375 1.617188 -8.78125 2.515625 -9.84375 C 3.410156 -10.90625 4.609375 -11.4375 6.109375 -11.4375 C 7.515625 -11.4375 8.628906 -10.972656 9.453125 -10.046875 C 10.273438 -9.128906 10.6875 -7.910156 10.6875 -6.390625 L 10.6875 -5.3125 L 2.9375 -5.3125 C 2.976562 -3.988281 3.3125 -2.984375 3.9375 -2.296875 C 4.570312 -1.617188 5.460938 -1.28125 6.609375 -1.28125 C 7.816406 -1.28125 9.015625 -1.535156 10.203125 -2.046875 L 10.203125 -0.515625 C 9.597656 -0.265625 9.023438 -0.0820312 8.484375 0.03125 C 7.953125 0.144531 7.304688 0.203125 6.546875 0.203125 Z M 6.09375 -10.015625 C 5.1875 -10.015625 4.460938 -9.71875 3.921875 -9.125 C 3.390625 -8.539062 3.078125 -7.734375 2.984375 -6.703125 L 8.859375 -6.703125 C 8.859375 -7.773438 8.617188 -8.59375 8.140625 -9.15625 C 7.660156 -9.726562 6.976562 -10.015625 6.09375 -10.015625 Z M 6.09375 -10.015625 "/></g></g></g><g fill="#ffffff" fill-opacity="1"><g transform="translate(117.470747, 230.999982)"><g><path d="M 9.5 0 L 9.5 -7.265625 C 9.5 -8.179688 9.289062 -8.863281 8.875 -9.3125 C 8.457031 -9.769531 7.800781 -10 6.90625 -10 C 5.726562 -10 4.863281 -9.679688 4.3125 -9.046875 C 3.769531 -8.410156 3.5 -7.359375 3.5 -5.890625 L 3.5 0 L 1.8125 0 L 1.8125 -11.234375 L 3.1875 -11.234375 L 3.46875 -9.703125 L 3.546875 -9.703125 C 3.898438 -10.253906 4.390625 -10.679688 5.015625 -10.984375 C 5.640625 -11.285156 6.335938 -11.4375 7.109375 -11.4375 C 8.460938 -11.4375 9.484375 -11.109375 10.171875 -10.453125 C 10.859375 -9.804688 11.203125 -8.765625 11.203125 -7.328125 L 11.203125 0 Z M 9.5 0 "/></g></g></g><g fill="#ffffff" fill-opacity="1"><g transform="translate(130.352719, 230.999982)"><g><path d="M 6.546875 0.203125 C 4.890625 0.203125 3.578125 -0.300781 2.609375 -1.3125 C 1.648438 -2.320312 1.171875 -3.726562 1.171875 -5.53125 C 1.171875 -7.34375 1.617188 -8.78125 2.515625 -9.84375 C 3.410156 -10.90625 4.609375 -11.4375 6.109375 -11.4375 C 7.515625 -11.4375 8.628906 -10.972656 9.453125 -10.046875 C 10.273438 -9.128906 10.6875 -7.910156 10.6875 -6.390625 L 10.6875 -5.3125 L 2.9375 -5.3125 C 2.976562 -3.988281 3.3125 -2.984375 3.9375 -2.296875 C 4.570312 -1.617188 5.460938 -1.28125 6.609375 -1.28125 C 7.816406 -1.28125 9.015625 -1.535156 10.203125 -2.046875 L 10.203125 -0.515625 C 9.597656 -0.265625 9.023438 -0.0820312 8.484375 0.03125 C 7.953125 0.144531 7.304688 0.203125 6.546875 0.203125 Z M 6.09375 -10.015625 C 5.1875 -10.015625 4.460938 -9.71875 3.921875 -9.125 C 3.390625 -8.539062 3.078125 -7.734375 2.984375 -6.703125 L 8.859375 -6.703125 C 8.859375 -7.773438 8.617188 -8.59375 8.140625 -9.15625 C 7.660156 -9.726562 6.976562 -10.015625 6.09375 -10.015625 Z M 6.09375 -10.015625 "/></g></g></g><g fill="#ffffff" fill-opacity="1"><g transform="translate(142.127888, 230.999982)"><g><path d="M 9.453125 -1.5 L 9.359375 -1.5 C 8.578125 -0.363281 7.398438 0.203125 5.828125 0.203125 C 4.359375 0.203125 3.210938 -0.296875 2.390625 -1.296875 C 1.578125 -2.304688 1.171875 -3.738281 1.171875 -5.59375 C 1.171875 -7.445312 1.582031 -8.882812 2.40625 -9.90625 C 3.226562 -10.925781 4.367188 -11.4375 5.828125 -11.4375 C 7.359375 -11.4375 8.53125 -10.882812 9.34375 -9.78125 L 9.46875 -9.78125 L 9.40625 -10.59375 L 9.359375 -11.375 L 9.359375 -15.953125 L 11.0625 -15.953125 L 11.0625 0 L 9.6875 0 Z M 6.046875 -1.21875 C 7.210938 -1.21875 8.054688 -1.535156 8.578125 -2.171875 C 9.097656 -2.804688 9.359375 -3.828125 9.359375 -5.234375 L 9.359375 -5.59375 C 9.359375 -7.1875 9.09375 -8.320312 8.5625 -9 C 8.03125 -9.675781 7.1875 -10.015625 6.03125 -10.015625 C 5.03125 -10.015625 4.265625 -9.625 3.734375 -8.84375 C 3.203125 -8.070312 2.9375 -6.976562 2.9375 -5.5625 C 2.9375 -4.132812 3.195312 -3.050781 3.71875 -2.3125 C 4.25 -1.582031 5.023438 -1.21875 6.046875 -1.21875 Z M 6.046875 -1.21875 "/></g></g></g><g fill="#ffffff" fill-opacity="1"><g transform="translate(154.989364, 230.999982)"><g><path d="M 1.5625 -1.09375 C 1.5625 -1.550781 1.664062 -1.894531 1.875 -2.125 C 2.082031 -2.363281 2.378906 -2.484375 2.765625 -2.484375 C 3.160156 -2.484375 3.46875 -2.363281 3.6875 -2.125 C 3.914062 -1.894531 4.03125 -1.550781 4.03125 -1.09375 C 4.03125 -0.644531 3.914062 -0.300781 3.6875 -0.0625 C 3.46875 0.175781 3.160156 0.296875 2.765625 0.296875 C 2.421875 0.296875 2.132812 0.191406 1.90625 -0.015625 C 1.675781 -0.234375 1.5625 -0.59375 1.5625 -1.09375 Z M 1.5625 -1.09375 "/></g></g></g></svg>